G75*
G70*
%OFA0B0*%
%FSLAX24Y24*%
%IPPOS*%
%LPD*%
%AMOC8*
5,1,8,0,0,1.08239X$1,22.5*
%
%ADD10C,0.0740*%
%ADD11C,0.0120*%
%ADD12C,0.0300*%
%ADD13C,0.0110*%
%ADD14C,0.0100*%
%ADD15C,0.0160*%
%ADD16C,0.0495*%
%ADD17C,0.0320*%
D10*
X002060Y001465D03*
X003060Y001565D03*
X004060Y001465D03*
X005060Y001565D03*
X006060Y001465D03*
X007060Y001565D03*
X008060Y001465D03*
X009060Y001565D03*
X010060Y001465D03*
X011060Y001565D03*
X012060Y001465D03*
X013060Y001565D03*
X014060Y001465D03*
X013060Y002515D03*
X001110Y002515D03*
X001060Y001565D03*
X001010Y003515D03*
X001110Y004515D03*
X001010Y005515D03*
X001110Y006515D03*
X002060Y007465D03*
X003060Y007565D03*
X004060Y007465D03*
X005060Y007565D03*
X006060Y007465D03*
X007060Y007565D03*
X008060Y007465D03*
X009060Y007565D03*
X010060Y007465D03*
X011060Y007565D03*
X012060Y007465D03*
X013060Y007565D03*
X014060Y007465D03*
X001060Y007565D03*
D11*
X012060Y007465D02*
X012573Y006952D01*
X021685Y006952D01*
X022529Y007796D01*
X021935Y007796D02*
X021779Y007952D01*
X014123Y007952D01*
X013998Y007952D02*
X013448Y007952D01*
X013060Y007565D01*
D12*
X006732Y005905D03*
X001873Y006140D03*
X006310Y004358D03*
X009029Y004233D03*
X011527Y004388D03*
X014654Y003421D03*
X017435Y003452D03*
X019185Y003202D03*
X022029Y003733D03*
X022748Y004515D03*
X017732Y004608D03*
X017419Y004608D03*
X017419Y004296D03*
X017732Y004296D03*
X015623Y004577D03*
X015279Y004577D03*
X017044Y004983D03*
X019560Y006515D03*
X021716Y006608D03*
X023154Y007765D03*
X023716Y007765D03*
X022529Y007796D03*
X021935Y007796D03*
X008466Y002171D03*
X005591Y002108D03*
X016591Y001640D03*
X019029Y001452D03*
X019404Y001452D03*
X021591Y001233D03*
X023248Y001265D03*
D13*
X014123Y007952D02*
X013998Y007952D01*
D14*
X000560Y003294D02*
X000560Y001015D01*
X001840Y001015D01*
X001777Y001041D01*
X001636Y001181D01*
X001560Y001365D01*
X001560Y001564D01*
X001636Y001748D01*
X001777Y001888D01*
X001961Y001965D01*
X002159Y001965D01*
X002343Y001888D01*
X002484Y001748D01*
X002560Y001564D01*
X002560Y001365D01*
X002484Y001181D01*
X002343Y001041D01*
X002280Y001015D01*
X003840Y001015D01*
X003777Y001041D01*
X003636Y001181D01*
X003560Y001365D01*
X003560Y001564D01*
X003636Y001748D01*
X003777Y001888D01*
X003961Y001965D01*
X004159Y001965D01*
X004343Y001888D01*
X004484Y001748D01*
X004560Y001564D01*
X004560Y001365D01*
X004484Y001181D01*
X004343Y001041D01*
X004280Y001015D01*
X005840Y001015D01*
X005777Y001041D01*
X005636Y001181D01*
X005560Y001365D01*
X005560Y001564D01*
X005636Y001748D01*
X005777Y001888D01*
X005961Y001965D01*
X006026Y001965D01*
X006944Y002883D01*
X007067Y003006D01*
X011536Y003006D01*
X012225Y003695D01*
X012348Y003818D01*
X001414Y003818D01*
X001434Y003798D02*
X001293Y003938D01*
X001109Y004015D01*
X001060Y004015D01*
X001160Y004015D01*
X001160Y003996D02*
X001232Y004007D01*
X001310Y004033D01*
X001383Y004070D01*
X001449Y004118D01*
X001507Y004176D01*
X001555Y004242D01*
X001592Y004315D01*
X001617Y004393D01*
X001629Y004465D01*
X001160Y004465D01*
X001160Y004565D01*
X001060Y004565D01*
X001060Y005015D01*
X001109Y005015D01*
X001293Y005091D01*
X001434Y005231D01*
X001510Y005415D01*
X001510Y005614D01*
X001434Y005798D01*
X001293Y005938D01*
X001109Y006015D01*
X000911Y006015D01*
X000727Y005938D01*
X000586Y005798D01*
X000560Y005735D01*
X000560Y008015D01*
X000840Y008015D01*
X000777Y007988D01*
X000636Y007848D01*
X000560Y007664D01*
X000560Y007465D01*
X000636Y007281D01*
X000777Y007141D01*
X000961Y007065D01*
X001159Y007065D01*
X001343Y007141D01*
X001484Y007281D01*
X001560Y007465D01*
X001560Y007664D01*
X001484Y007848D01*
X001343Y007988D01*
X001280Y008015D01*
X002840Y008015D01*
X002777Y007988D01*
X002636Y007848D01*
X002560Y007664D01*
X002560Y007465D01*
X002636Y007281D01*
X002777Y007141D01*
X002961Y007065D01*
X003159Y007065D01*
X003343Y007141D01*
X003484Y007281D01*
X003560Y007465D01*
X003560Y007664D01*
X003484Y007848D01*
X003343Y007988D01*
X003280Y008015D01*
X004840Y008015D01*
X004777Y007988D01*
X004636Y007848D01*
X004560Y007664D01*
X004560Y007465D01*
X004636Y007281D01*
X004777Y007141D01*
X004961Y007065D01*
X005159Y007065D01*
X005343Y007141D01*
X005484Y007281D01*
X005560Y007465D01*
X005560Y007664D01*
X005484Y007848D01*
X005343Y007988D01*
X005280Y008015D01*
X006840Y008015D01*
X006777Y007988D01*
X006636Y007848D01*
X006560Y007664D01*
X006560Y007465D01*
X006636Y007281D01*
X006777Y007141D01*
X006961Y007065D01*
X007159Y007065D01*
X007343Y007141D01*
X007484Y007281D01*
X007560Y007465D01*
X007560Y007664D01*
X007484Y007848D01*
X007343Y007988D01*
X007280Y008015D01*
X008840Y008015D01*
X008777Y007988D01*
X008636Y007848D01*
X008560Y007664D01*
X008560Y007465D01*
X008636Y007281D01*
X008777Y007141D01*
X008961Y007065D01*
X009159Y007065D01*
X009343Y007141D01*
X009484Y007281D01*
X009560Y007465D01*
X009560Y007664D01*
X009484Y007848D01*
X009343Y007988D01*
X009280Y008015D01*
X010840Y008015D01*
X010777Y007988D01*
X010636Y007848D01*
X010560Y007664D01*
X010560Y007465D01*
X010636Y007281D01*
X010777Y007141D01*
X010961Y007065D01*
X011159Y007065D01*
X011343Y007141D01*
X011484Y007281D01*
X011560Y007465D01*
X011560Y007664D01*
X011484Y007848D01*
X011343Y007988D01*
X011280Y008015D01*
X012840Y008015D01*
X012777Y007988D01*
X012636Y007848D01*
X012560Y007664D01*
X012560Y007465D01*
X012636Y007281D01*
X012775Y007142D01*
X012651Y007142D01*
X012521Y007272D01*
X012560Y007365D01*
X012560Y007564D01*
X012484Y007748D01*
X012343Y007888D01*
X012159Y007965D01*
X011961Y007965D01*
X011777Y007888D01*
X011636Y007748D01*
X011560Y007564D01*
X011560Y007365D01*
X011636Y007181D01*
X011777Y007041D01*
X011961Y006965D01*
X012159Y006965D01*
X012253Y007003D01*
X012383Y006873D01*
X012494Y006762D01*
X021764Y006762D01*
X021875Y006873D01*
X022517Y007516D01*
X022584Y007516D01*
X022687Y007558D01*
X022766Y007637D01*
X022809Y007740D01*
X022809Y007852D01*
X022766Y007954D01*
X022706Y008015D01*
X023026Y008015D01*
X022995Y008002D01*
X022916Y007923D01*
X022874Y007820D01*
X022874Y007709D01*
X022916Y007606D01*
X022944Y007579D01*
X022944Y006602D01*
X021194Y004852D01*
X021194Y004102D01*
X019911Y002818D01*
X014741Y002818D01*
X013741Y003818D01*
X020910Y003818D01*
X020812Y003720D02*
X013839Y003720D01*
X013741Y003818D02*
X012348Y003818D01*
X012249Y003720D02*
X001466Y003720D01*
X001434Y003798D02*
X001510Y003614D01*
X001510Y003415D01*
X001434Y003231D01*
X001293Y003091D01*
X001109Y003015D01*
X000911Y003015D01*
X000727Y003091D01*
X000586Y003231D01*
X000560Y003294D01*
X000560Y003227D02*
X000590Y003227D01*
X000560Y003129D02*
X000689Y003129D01*
X000560Y003030D02*
X000873Y003030D01*
X000827Y002938D02*
X001011Y003015D01*
X001209Y003015D01*
X001393Y002938D01*
X001534Y002798D01*
X001610Y002614D01*
X001610Y002415D01*
X001534Y002231D01*
X001393Y002091D01*
X001245Y002029D01*
X001343Y001988D01*
X001484Y001848D01*
X001560Y001664D01*
X001560Y001465D01*
X001484Y001281D01*
X001343Y001141D01*
X001159Y001065D01*
X000961Y001065D01*
X000777Y001141D01*
X000636Y001281D01*
X000560Y001465D01*
X000560Y001664D01*
X000636Y001848D01*
X000777Y001988D01*
X000925Y002050D01*
X000827Y002091D01*
X000686Y002231D01*
X000610Y002415D01*
X000610Y002614D01*
X000686Y002798D01*
X000827Y002938D01*
X000820Y002932D02*
X000560Y002932D01*
X000560Y002833D02*
X000721Y002833D01*
X000660Y002735D02*
X000560Y002735D01*
X000560Y002636D02*
X000619Y002636D01*
X000610Y002538D02*
X000560Y002538D01*
X000560Y002439D02*
X000610Y002439D01*
X000641Y002341D02*
X000560Y002341D01*
X000560Y002242D02*
X000682Y002242D01*
X000774Y002144D02*
X000560Y002144D01*
X000560Y002045D02*
X000913Y002045D01*
X000735Y001947D02*
X000560Y001947D01*
X000560Y001848D02*
X000636Y001848D01*
X000595Y001750D02*
X000560Y001750D01*
X000560Y001651D02*
X000560Y001651D01*
X000560Y001553D02*
X000560Y001553D01*
X000560Y001454D02*
X000565Y001454D01*
X000560Y001356D02*
X000605Y001356D01*
X000560Y001257D02*
X000660Y001257D01*
X000759Y001159D02*
X000560Y001159D01*
X000560Y001060D02*
X001757Y001060D01*
X001659Y001159D02*
X001361Y001159D01*
X001460Y001257D02*
X001605Y001257D01*
X001564Y001356D02*
X001515Y001356D01*
X001555Y001454D02*
X001560Y001454D01*
X001560Y001553D02*
X001560Y001553D01*
X001560Y001651D02*
X001596Y001651D01*
X001638Y001750D02*
X001525Y001750D01*
X001484Y001848D02*
X001736Y001848D01*
X001917Y001947D02*
X001385Y001947D01*
X001283Y002045D02*
X002913Y002045D01*
X002961Y002065D02*
X002777Y001988D01*
X002636Y001848D01*
X002560Y001664D01*
X002560Y001465D01*
X002636Y001281D01*
X002777Y001141D01*
X002961Y001065D01*
X003159Y001065D01*
X003343Y001141D01*
X003484Y001281D01*
X003560Y001465D01*
X003560Y001664D01*
X003484Y001848D01*
X003343Y001988D01*
X003159Y002065D01*
X002961Y002065D01*
X003207Y002045D02*
X004913Y002045D01*
X004961Y002065D02*
X004777Y001988D01*
X004636Y001848D01*
X004560Y001664D01*
X004560Y001465D01*
X004636Y001281D01*
X004777Y001141D01*
X004961Y001065D01*
X005159Y001065D01*
X005343Y001141D01*
X005484Y001281D01*
X005560Y001465D01*
X005560Y001664D01*
X005484Y001848D01*
X005343Y001988D01*
X005159Y002065D01*
X004961Y002065D01*
X005207Y002045D02*
X006106Y002045D01*
X006205Y002144D02*
X001446Y002144D01*
X001538Y002242D02*
X006303Y002242D01*
X006402Y002341D02*
X001579Y002341D01*
X001610Y002439D02*
X006500Y002439D01*
X006599Y002538D02*
X001610Y002538D01*
X001601Y002636D02*
X006697Y002636D01*
X006796Y002735D02*
X001560Y002735D01*
X001499Y002833D02*
X006894Y002833D01*
X006993Y002932D02*
X001400Y002932D01*
X001147Y003030D02*
X011560Y003030D01*
X011658Y003129D02*
X001331Y003129D01*
X001430Y003227D02*
X011757Y003227D01*
X011855Y003326D02*
X001473Y003326D01*
X001510Y003424D02*
X011954Y003424D01*
X012052Y003523D02*
X001510Y003523D01*
X001507Y003621D02*
X012151Y003621D01*
X013938Y003621D02*
X020713Y003621D01*
X020615Y003523D02*
X014036Y003523D01*
X014135Y003424D02*
X020516Y003424D01*
X020418Y003326D02*
X014233Y003326D01*
X014332Y003227D02*
X020319Y003227D01*
X020221Y003129D02*
X014430Y003129D01*
X014529Y003030D02*
X020122Y003030D01*
X020024Y002932D02*
X014627Y002932D01*
X014726Y002833D02*
X019925Y002833D01*
X021130Y002538D02*
X023560Y002538D01*
X023560Y002636D02*
X021228Y002636D01*
X021327Y002735D02*
X023560Y002735D01*
X023560Y002833D02*
X021425Y002833D01*
X021524Y002932D02*
X023560Y002932D01*
X023560Y003030D02*
X021622Y003030D01*
X021721Y003129D02*
X023560Y003129D01*
X023560Y003227D02*
X021819Y003227D01*
X021918Y003326D02*
X023560Y003326D01*
X023560Y003424D02*
X022016Y003424D01*
X022046Y003453D02*
X022084Y003453D01*
X022187Y003496D01*
X022266Y003575D01*
X022309Y003678D01*
X022309Y003789D01*
X022266Y003892D01*
X022187Y003971D01*
X022084Y004013D01*
X021973Y004013D01*
X021895Y003981D01*
X021895Y004521D01*
X023560Y006186D01*
X023560Y001015D01*
X014280Y001015D01*
X014343Y001041D01*
X014484Y001181D01*
X014560Y001365D01*
X014560Y001564D01*
X014484Y001748D01*
X014427Y001805D01*
X020397Y001805D01*
X022046Y003453D01*
X022214Y003523D02*
X023560Y003523D01*
X023560Y003621D02*
X022285Y003621D01*
X022309Y003720D02*
X023560Y003720D01*
X023560Y003818D02*
X022297Y003818D01*
X022241Y003917D02*
X023560Y003917D01*
X023560Y004015D02*
X021895Y004015D01*
X021895Y004114D02*
X023560Y004114D01*
X023560Y004212D02*
X021895Y004212D01*
X021895Y004311D02*
X023560Y004311D01*
X023560Y004409D02*
X021895Y004409D01*
X021895Y004508D02*
X023560Y004508D01*
X023560Y004606D02*
X021980Y004606D01*
X022078Y004705D02*
X023560Y004705D01*
X023560Y004803D02*
X022177Y004803D01*
X022275Y004902D02*
X023560Y004902D01*
X023560Y005000D02*
X022374Y005000D01*
X022472Y005099D02*
X023560Y005099D01*
X023560Y005197D02*
X022571Y005197D01*
X022669Y005296D02*
X023560Y005296D01*
X023560Y005394D02*
X022768Y005394D01*
X022866Y005493D02*
X023560Y005493D01*
X023560Y005591D02*
X022965Y005591D01*
X023063Y005690D02*
X023560Y005690D01*
X023560Y005788D02*
X023162Y005788D01*
X023260Y005887D02*
X023560Y005887D01*
X023560Y005985D02*
X023359Y005985D01*
X023457Y006084D02*
X023560Y006084D01*
X023556Y006182D02*
X023560Y006182D01*
X022721Y006379D02*
X001595Y006379D01*
X001610Y006415D02*
X001534Y006231D01*
X001393Y006091D01*
X001209Y006015D01*
X001011Y006015D01*
X000827Y006091D01*
X000686Y006231D01*
X000610Y006415D01*
X000610Y006614D01*
X000686Y006798D01*
X000827Y006938D01*
X001011Y007015D01*
X001209Y007015D01*
X001393Y006938D01*
X001534Y006798D01*
X001610Y006614D01*
X001610Y006415D01*
X001610Y006478D02*
X022820Y006478D01*
X022918Y006576D02*
X001610Y006576D01*
X001585Y006675D02*
X022944Y006675D01*
X022944Y006773D02*
X021775Y006773D01*
X021873Y006872D02*
X022944Y006872D01*
X022944Y006970D02*
X021972Y006970D01*
X022070Y007069D02*
X022944Y007069D01*
X022944Y007167D02*
X022169Y007167D01*
X022267Y007266D02*
X022944Y007266D01*
X022944Y007364D02*
X022366Y007364D01*
X022464Y007463D02*
X022944Y007463D01*
X022944Y007561D02*
X022690Y007561D01*
X022775Y007660D02*
X022894Y007660D01*
X022874Y007758D02*
X022809Y007758D01*
X022807Y007857D02*
X022889Y007857D01*
X022948Y007955D02*
X022765Y007955D01*
X021698Y007637D02*
X021655Y007740D01*
X021655Y007762D01*
X014487Y007762D01*
X014505Y007737D01*
X014542Y007664D01*
X014567Y007586D01*
X014579Y007515D01*
X014110Y007515D01*
X014110Y007415D01*
X014579Y007415D01*
X014567Y007343D01*
X014542Y007265D01*
X014505Y007192D01*
X014468Y007142D01*
X021606Y007142D01*
X021980Y007516D01*
X021879Y007516D01*
X021776Y007558D01*
X021698Y007637D01*
X021688Y007660D02*
X014543Y007660D01*
X014571Y007561D02*
X021774Y007561D01*
X021927Y007463D02*
X014110Y007463D01*
X014010Y007463D02*
X013559Y007463D01*
X013560Y007465D02*
X013560Y007515D01*
X014010Y007515D01*
X014010Y007415D01*
X013541Y007415D01*
X013553Y007343D01*
X013578Y007265D01*
X013615Y007192D01*
X013652Y007142D01*
X013345Y007142D01*
X013484Y007281D01*
X013560Y007465D01*
X013549Y007364D02*
X013518Y007364D01*
X013468Y007266D02*
X013578Y007266D01*
X013633Y007167D02*
X013370Y007167D01*
X012750Y007167D02*
X012626Y007167D01*
X012652Y007266D02*
X012528Y007266D01*
X012560Y007364D02*
X012602Y007364D01*
X012560Y007463D02*
X012561Y007463D01*
X012560Y007561D02*
X012560Y007561D01*
X012560Y007660D02*
X012520Y007660D01*
X012474Y007758D02*
X012599Y007758D01*
X012645Y007857D02*
X012375Y007857D01*
X012182Y007955D02*
X012743Y007955D01*
X011938Y007955D02*
X011377Y007955D01*
X011475Y007857D02*
X011745Y007857D01*
X011646Y007758D02*
X011521Y007758D01*
X011560Y007660D02*
X011600Y007660D01*
X011560Y007561D02*
X011560Y007561D01*
X011559Y007463D02*
X011560Y007463D01*
X011560Y007364D02*
X011518Y007364D01*
X011468Y007266D02*
X011601Y007266D01*
X011650Y007167D02*
X011370Y007167D01*
X011169Y007069D02*
X011749Y007069D01*
X011947Y006970D02*
X010173Y006970D01*
X010159Y006965D02*
X010343Y007041D01*
X010484Y007181D01*
X010560Y007365D01*
X010560Y007564D01*
X010484Y007748D01*
X010343Y007888D01*
X010159Y007965D01*
X009961Y007965D01*
X009777Y007888D01*
X009636Y007748D01*
X009560Y007564D01*
X009560Y007365D01*
X009636Y007181D01*
X009777Y007041D01*
X009961Y006965D01*
X010159Y006965D01*
X009947Y006970D02*
X008173Y006970D01*
X008159Y006965D02*
X008343Y007041D01*
X008484Y007181D01*
X008560Y007365D01*
X008560Y007564D01*
X008484Y007748D01*
X008343Y007888D01*
X008159Y007965D01*
X007961Y007965D01*
X007777Y007888D01*
X007636Y007748D01*
X007560Y007564D01*
X007560Y007365D01*
X007636Y007181D01*
X007777Y007041D01*
X007961Y006965D01*
X008159Y006965D01*
X007947Y006970D02*
X006173Y006970D01*
X006159Y006965D02*
X006343Y007041D01*
X006484Y007181D01*
X006560Y007365D01*
X006560Y007564D01*
X006484Y007748D01*
X006343Y007888D01*
X006159Y007965D01*
X005961Y007965D01*
X005777Y007888D01*
X005636Y007748D01*
X005560Y007564D01*
X005560Y007365D01*
X005636Y007181D01*
X005777Y007041D01*
X005961Y006965D01*
X006159Y006965D01*
X005947Y006970D02*
X004173Y006970D01*
X004159Y006965D02*
X004343Y007041D01*
X004484Y007181D01*
X004560Y007365D01*
X004560Y007564D01*
X004484Y007748D01*
X004343Y007888D01*
X004159Y007965D01*
X003961Y007965D01*
X003777Y007888D01*
X003636Y007748D01*
X003560Y007564D01*
X003560Y007365D01*
X003636Y007181D01*
X003777Y007041D01*
X003961Y006965D01*
X004159Y006965D01*
X003947Y006970D02*
X002173Y006970D01*
X002159Y006965D02*
X002343Y007041D01*
X002484Y007181D01*
X002560Y007365D01*
X002560Y007564D01*
X002484Y007748D01*
X002343Y007888D01*
X002159Y007965D01*
X001961Y007965D01*
X001777Y007888D01*
X001636Y007748D01*
X001560Y007564D01*
X001560Y007365D01*
X001636Y007181D01*
X001777Y007041D01*
X001961Y006965D01*
X002159Y006965D01*
X001947Y006970D02*
X001317Y006970D01*
X001460Y006872D02*
X012384Y006872D01*
X012286Y006970D02*
X012173Y006970D01*
X012483Y006773D02*
X001544Y006773D01*
X000903Y006970D02*
X000560Y006970D01*
X000560Y006872D02*
X000760Y006872D01*
X000676Y006773D02*
X000560Y006773D01*
X000560Y006675D02*
X000635Y006675D01*
X000610Y006576D02*
X000560Y006576D01*
X000560Y006478D02*
X000610Y006478D01*
X000625Y006379D02*
X000560Y006379D01*
X000560Y006281D02*
X000666Y006281D01*
X000735Y006182D02*
X000560Y006182D01*
X000560Y006084D02*
X000844Y006084D01*
X000839Y005985D02*
X000560Y005985D01*
X000560Y005887D02*
X000675Y005887D01*
X000582Y005788D02*
X000560Y005788D01*
X001181Y005985D02*
X010308Y005985D01*
X010406Y006084D02*
X001376Y006084D01*
X001485Y006182D02*
X010505Y006182D01*
X010521Y006198D02*
X010439Y006116D01*
X010121Y005798D01*
X010079Y005798D01*
X009940Y005741D01*
X009834Y005635D01*
X009776Y005496D01*
X009776Y005346D01*
X009834Y005207D01*
X009940Y005101D01*
X010079Y005043D01*
X010229Y005043D01*
X010368Y005101D01*
X010474Y005207D01*
X010531Y005346D01*
X010531Y005388D01*
X010805Y005662D01*
X018346Y005662D01*
X018656Y005352D01*
X018677Y005301D01*
X018784Y005195D01*
X018922Y005137D01*
X019073Y005137D01*
X019211Y005195D01*
X019318Y005301D01*
X019375Y005439D01*
X019375Y005590D01*
X019318Y005728D01*
X019211Y005835D01*
X019073Y005892D01*
X018936Y005892D01*
X018631Y006198D01*
X018524Y006242D01*
X010627Y006242D01*
X010521Y006198D01*
X010439Y006116D02*
X010439Y006116D01*
X010209Y005887D02*
X001345Y005887D01*
X001438Y005788D02*
X010054Y005788D01*
X009889Y005690D02*
X001479Y005690D01*
X001510Y005591D02*
X009816Y005591D01*
X009776Y005493D02*
X001510Y005493D01*
X001501Y005394D02*
X009776Y005394D01*
X009797Y005296D02*
X001460Y005296D01*
X001400Y005197D02*
X009844Y005197D01*
X009945Y005099D02*
X001301Y005099D01*
X001299Y005000D02*
X021342Y005000D01*
X021244Y004902D02*
X001458Y004902D01*
X001449Y004911D02*
X001383Y004959D01*
X001310Y004996D01*
X001232Y005022D01*
X001160Y005033D01*
X001160Y004565D01*
X001629Y004565D01*
X001617Y004636D01*
X001592Y004714D01*
X001555Y004787D01*
X001507Y004853D01*
X001449Y004911D01*
X001160Y004902D02*
X001060Y004902D01*
X001060Y005000D02*
X001160Y005000D01*
X000966Y005015D02*
X000910Y004996D01*
X000837Y004959D01*
X000771Y004911D01*
X000713Y004853D01*
X000665Y004787D01*
X000628Y004714D01*
X000603Y004636D01*
X000591Y004565D01*
X001060Y004565D01*
X001060Y004465D01*
X000591Y004465D01*
X000603Y004393D01*
X000628Y004315D01*
X000665Y004242D01*
X000713Y004176D01*
X000771Y004118D01*
X000837Y004070D01*
X000910Y004033D01*
X000966Y004015D01*
X000911Y004015D01*
X000727Y003938D01*
X000586Y003798D01*
X000560Y003735D01*
X000560Y005294D01*
X000586Y005231D01*
X000727Y005091D01*
X000911Y005015D01*
X000966Y005015D01*
X000921Y005000D02*
X000560Y005000D01*
X000560Y004902D02*
X000762Y004902D01*
X000677Y004803D02*
X000560Y004803D01*
X000560Y004705D02*
X000625Y004705D01*
X000598Y004606D02*
X000560Y004606D01*
X000560Y004508D02*
X001060Y004508D01*
X001060Y004465D02*
X001160Y004465D01*
X001160Y003996D01*
X001255Y004015D02*
X021107Y004015D01*
X021009Y003917D02*
X001315Y003917D01*
X001060Y004015D02*
X001060Y004465D01*
X001060Y004409D02*
X001160Y004409D01*
X001160Y004311D02*
X001060Y004311D01*
X001060Y004212D02*
X001160Y004212D01*
X001160Y004114D02*
X001060Y004114D01*
X000777Y004114D02*
X000560Y004114D01*
X000560Y004212D02*
X000687Y004212D01*
X000630Y004311D02*
X000560Y004311D01*
X000560Y004409D02*
X000600Y004409D01*
X001060Y004606D02*
X001160Y004606D01*
X001160Y004508D02*
X021194Y004508D01*
X021194Y004606D02*
X001622Y004606D01*
X001595Y004705D02*
X021194Y004705D01*
X021194Y004803D02*
X001543Y004803D01*
X001160Y004803D02*
X001060Y004803D01*
X001060Y004705D02*
X001160Y004705D01*
X001620Y004409D02*
X021194Y004409D01*
X021194Y004311D02*
X001590Y004311D01*
X001533Y004212D02*
X021194Y004212D01*
X021194Y004114D02*
X001443Y004114D01*
X000965Y004015D02*
X000560Y004015D01*
X000560Y003917D02*
X000705Y003917D01*
X000606Y003818D02*
X000560Y003818D01*
X000560Y005099D02*
X000719Y005099D01*
X000620Y005197D02*
X000560Y005197D01*
X001554Y006281D02*
X022623Y006281D01*
X022524Y006182D02*
X018646Y006182D01*
X018745Y006084D02*
X022426Y006084D01*
X022327Y005985D02*
X018843Y005985D01*
X019086Y005887D02*
X022229Y005887D01*
X022130Y005788D02*
X019258Y005788D01*
X019334Y005690D02*
X022032Y005690D01*
X021933Y005591D02*
X019374Y005591D01*
X019375Y005493D02*
X021835Y005493D01*
X021736Y005394D02*
X019356Y005394D01*
X019312Y005296D02*
X021638Y005296D01*
X021539Y005197D02*
X019214Y005197D01*
X018781Y005197D02*
X010464Y005197D01*
X010510Y005296D02*
X018683Y005296D01*
X018614Y005394D02*
X010537Y005394D01*
X010636Y005493D02*
X018516Y005493D01*
X018417Y005591D02*
X010734Y005591D01*
X010362Y005099D02*
X021441Y005099D01*
X021631Y007167D02*
X014487Y007167D01*
X014542Y007266D02*
X021730Y007266D01*
X021828Y007364D02*
X014571Y007364D01*
X014490Y007758D02*
X021655Y007758D01*
X010951Y007069D02*
X010371Y007069D01*
X010470Y007167D02*
X010750Y007167D01*
X010652Y007266D02*
X010519Y007266D01*
X010560Y007364D02*
X010602Y007364D01*
X010560Y007463D02*
X010561Y007463D01*
X010560Y007561D02*
X010560Y007561D01*
X010560Y007660D02*
X010520Y007660D01*
X010474Y007758D02*
X010599Y007758D01*
X010645Y007857D02*
X010375Y007857D01*
X010182Y007955D02*
X010743Y007955D01*
X009938Y007955D02*
X009377Y007955D01*
X009475Y007857D02*
X009745Y007857D01*
X009646Y007758D02*
X009521Y007758D01*
X009560Y007660D02*
X009600Y007660D01*
X009560Y007561D02*
X009560Y007561D01*
X009559Y007463D02*
X009560Y007463D01*
X009560Y007364D02*
X009518Y007364D01*
X009468Y007266D02*
X009601Y007266D01*
X009650Y007167D02*
X009370Y007167D01*
X009169Y007069D02*
X009749Y007069D01*
X008951Y007069D02*
X008371Y007069D01*
X008470Y007167D02*
X008750Y007167D01*
X008652Y007266D02*
X008519Y007266D01*
X008560Y007364D02*
X008602Y007364D01*
X008560Y007463D02*
X008561Y007463D01*
X008560Y007561D02*
X008560Y007561D01*
X008560Y007660D02*
X008520Y007660D01*
X008474Y007758D02*
X008599Y007758D01*
X008645Y007857D02*
X008375Y007857D01*
X008182Y007955D02*
X008743Y007955D01*
X007938Y007955D02*
X007377Y007955D01*
X007475Y007857D02*
X007745Y007857D01*
X007646Y007758D02*
X007521Y007758D01*
X007560Y007660D02*
X007600Y007660D01*
X007560Y007561D02*
X007560Y007561D01*
X007559Y007463D02*
X007560Y007463D01*
X007560Y007364D02*
X007518Y007364D01*
X007468Y007266D02*
X007601Y007266D01*
X007650Y007167D02*
X007370Y007167D01*
X007169Y007069D02*
X007749Y007069D01*
X006951Y007069D02*
X006371Y007069D01*
X006470Y007167D02*
X006750Y007167D01*
X006652Y007266D02*
X006519Y007266D01*
X006560Y007364D02*
X006602Y007364D01*
X006560Y007463D02*
X006561Y007463D01*
X006560Y007561D02*
X006560Y007561D01*
X006560Y007660D02*
X006520Y007660D01*
X006474Y007758D02*
X006599Y007758D01*
X006645Y007857D02*
X006375Y007857D01*
X006182Y007955D02*
X006743Y007955D01*
X005938Y007955D02*
X005377Y007955D01*
X005475Y007857D02*
X005745Y007857D01*
X005646Y007758D02*
X005521Y007758D01*
X005560Y007660D02*
X005600Y007660D01*
X005560Y007561D02*
X005560Y007561D01*
X005559Y007463D02*
X005560Y007463D01*
X005560Y007364D02*
X005518Y007364D01*
X005468Y007266D02*
X005601Y007266D01*
X005650Y007167D02*
X005370Y007167D01*
X005169Y007069D02*
X005749Y007069D01*
X004951Y007069D02*
X004371Y007069D01*
X004470Y007167D02*
X004750Y007167D01*
X004652Y007266D02*
X004519Y007266D01*
X004560Y007364D02*
X004602Y007364D01*
X004560Y007463D02*
X004561Y007463D01*
X004560Y007561D02*
X004560Y007561D01*
X004560Y007660D02*
X004520Y007660D01*
X004474Y007758D02*
X004599Y007758D01*
X004645Y007857D02*
X004375Y007857D01*
X004182Y007955D02*
X004743Y007955D01*
X003938Y007955D02*
X003377Y007955D01*
X003475Y007857D02*
X003745Y007857D01*
X003646Y007758D02*
X003521Y007758D01*
X003560Y007660D02*
X003600Y007660D01*
X003560Y007561D02*
X003560Y007561D01*
X003559Y007463D02*
X003560Y007463D01*
X003560Y007364D02*
X003518Y007364D01*
X003468Y007266D02*
X003601Y007266D01*
X003650Y007167D02*
X003370Y007167D01*
X003169Y007069D02*
X003749Y007069D01*
X002951Y007069D02*
X002371Y007069D01*
X002470Y007167D02*
X002750Y007167D01*
X002652Y007266D02*
X002519Y007266D01*
X002560Y007364D02*
X002602Y007364D01*
X002560Y007463D02*
X002561Y007463D01*
X002560Y007561D02*
X002560Y007561D01*
X002560Y007660D02*
X002520Y007660D01*
X002474Y007758D02*
X002599Y007758D01*
X002645Y007857D02*
X002375Y007857D01*
X002182Y007955D02*
X002743Y007955D01*
X001938Y007955D02*
X001377Y007955D01*
X001475Y007857D02*
X001745Y007857D01*
X001646Y007758D02*
X001521Y007758D01*
X001560Y007660D02*
X001600Y007660D01*
X001560Y007561D02*
X001560Y007561D01*
X001559Y007463D02*
X001560Y007463D01*
X001560Y007364D02*
X001518Y007364D01*
X001468Y007266D02*
X001601Y007266D01*
X001650Y007167D02*
X001370Y007167D01*
X001169Y007069D02*
X001749Y007069D01*
X000951Y007069D02*
X000560Y007069D01*
X000560Y007167D02*
X000750Y007167D01*
X000652Y007266D02*
X000560Y007266D01*
X000560Y007364D02*
X000602Y007364D01*
X000560Y007463D02*
X000561Y007463D01*
X000560Y007561D02*
X000560Y007561D01*
X000560Y007660D02*
X000560Y007660D01*
X000560Y007758D02*
X000599Y007758D01*
X000560Y007857D02*
X000645Y007857D01*
X000560Y007955D02*
X000743Y007955D01*
X006443Y001788D02*
X007241Y002586D01*
X007784Y002586D01*
X007769Y002570D01*
X007233Y002034D01*
X007159Y002065D01*
X006961Y002065D01*
X006777Y001988D01*
X006636Y001848D01*
X006560Y001664D01*
X006560Y001465D01*
X006636Y001281D01*
X006777Y001141D01*
X006961Y001065D01*
X007159Y001065D01*
X007343Y001141D01*
X007484Y001281D01*
X007560Y001465D01*
X007560Y001664D01*
X007530Y001737D01*
X008066Y002273D01*
X009472Y002273D01*
X009456Y002258D01*
X009233Y002034D01*
X009159Y002065D01*
X008961Y002065D01*
X008777Y001988D01*
X008636Y001848D01*
X008560Y001664D01*
X008560Y001465D01*
X008636Y001281D01*
X008777Y001141D01*
X008961Y001065D01*
X009159Y001065D01*
X009343Y001141D01*
X009484Y001281D01*
X009560Y001465D01*
X009560Y001664D01*
X009530Y001737D01*
X009753Y001961D01*
X009951Y001961D01*
X009777Y001888D01*
X009636Y001748D01*
X009560Y001564D01*
X009560Y001365D01*
X009636Y001181D01*
X009777Y001041D01*
X009840Y001015D01*
X008280Y001015D01*
X008343Y001041D01*
X008484Y001181D01*
X008560Y001365D01*
X008560Y001564D01*
X008484Y001748D01*
X008343Y001888D01*
X008159Y001965D01*
X007961Y001965D01*
X007777Y001888D01*
X007636Y001748D01*
X007560Y001564D01*
X007560Y001365D01*
X007636Y001181D01*
X007777Y001041D01*
X007840Y001015D01*
X006280Y001015D01*
X006343Y001041D01*
X006484Y001181D01*
X006560Y001365D01*
X006560Y001564D01*
X006484Y001748D01*
X006443Y001788D01*
X006482Y001750D02*
X006595Y001750D01*
X006636Y001848D02*
X006503Y001848D01*
X006601Y001947D02*
X006735Y001947D01*
X006700Y002045D02*
X006913Y002045D01*
X006798Y002144D02*
X007342Y002144D01*
X007441Y002242D02*
X006897Y002242D01*
X006995Y002341D02*
X007539Y002341D01*
X007638Y002439D02*
X007094Y002439D01*
X007192Y002538D02*
X007736Y002538D01*
X008034Y002242D02*
X009441Y002242D01*
X009342Y002144D02*
X007936Y002144D01*
X007837Y002045D02*
X008913Y002045D01*
X008735Y001947D02*
X008203Y001947D01*
X008384Y001848D02*
X008636Y001848D01*
X008595Y001750D02*
X008482Y001750D01*
X008524Y001651D02*
X008560Y001651D01*
X008560Y001553D02*
X008560Y001553D01*
X008560Y001454D02*
X008565Y001454D01*
X008556Y001356D02*
X008605Y001356D01*
X008660Y001257D02*
X008515Y001257D01*
X008461Y001159D02*
X008759Y001159D01*
X008363Y001060D02*
X009757Y001060D01*
X009659Y001159D02*
X009361Y001159D01*
X009460Y001257D02*
X009605Y001257D01*
X009564Y001356D02*
X009515Y001356D01*
X009555Y001454D02*
X009560Y001454D01*
X009560Y001553D02*
X009560Y001553D01*
X009560Y001651D02*
X009596Y001651D01*
X009638Y001750D02*
X009542Y001750D01*
X009640Y001848D02*
X009736Y001848D01*
X009739Y001947D02*
X009917Y001947D01*
X009244Y002045D02*
X009207Y002045D01*
X007917Y001947D02*
X007739Y001947D01*
X007736Y001848D02*
X007640Y001848D01*
X007638Y001750D02*
X007542Y001750D01*
X007560Y001651D02*
X007596Y001651D01*
X007560Y001553D02*
X007560Y001553D01*
X007555Y001454D02*
X007560Y001454D01*
X007564Y001356D02*
X007515Y001356D01*
X007460Y001257D02*
X007605Y001257D01*
X007659Y001159D02*
X007361Y001159D01*
X007757Y001060D02*
X006363Y001060D01*
X006461Y001159D02*
X006759Y001159D01*
X006660Y001257D02*
X006515Y001257D01*
X006556Y001356D02*
X006605Y001356D01*
X006565Y001454D02*
X006560Y001454D01*
X006560Y001553D02*
X006560Y001553D01*
X006560Y001651D02*
X006524Y001651D01*
X005736Y001848D02*
X005484Y001848D01*
X005525Y001750D02*
X005638Y001750D01*
X005596Y001651D02*
X005560Y001651D01*
X005560Y001553D02*
X005560Y001553D01*
X005555Y001454D02*
X005560Y001454D01*
X005564Y001356D02*
X005515Y001356D01*
X005460Y001257D02*
X005605Y001257D01*
X005659Y001159D02*
X005361Y001159D01*
X005757Y001060D02*
X004363Y001060D01*
X004461Y001159D02*
X004759Y001159D01*
X004660Y001257D02*
X004515Y001257D01*
X004556Y001356D02*
X004605Y001356D01*
X004565Y001454D02*
X004560Y001454D01*
X004560Y001553D02*
X004560Y001553D01*
X004560Y001651D02*
X004524Y001651D01*
X004482Y001750D02*
X004595Y001750D01*
X004636Y001848D02*
X004384Y001848D01*
X004203Y001947D02*
X004735Y001947D01*
X005385Y001947D02*
X005917Y001947D01*
X007207Y002045D02*
X007244Y002045D01*
X003917Y001947D02*
X003385Y001947D01*
X003484Y001848D02*
X003736Y001848D01*
X003638Y001750D02*
X003525Y001750D01*
X003560Y001651D02*
X003596Y001651D01*
X003560Y001553D02*
X003560Y001553D01*
X003555Y001454D02*
X003560Y001454D01*
X003564Y001356D02*
X003515Y001356D01*
X003460Y001257D02*
X003605Y001257D01*
X003659Y001159D02*
X003361Y001159D01*
X003757Y001060D02*
X002363Y001060D01*
X002461Y001159D02*
X002759Y001159D01*
X002660Y001257D02*
X002515Y001257D01*
X002556Y001356D02*
X002605Y001356D01*
X002565Y001454D02*
X002560Y001454D01*
X002560Y001553D02*
X002560Y001553D01*
X002560Y001651D02*
X002524Y001651D01*
X002482Y001750D02*
X002595Y001750D01*
X002636Y001848D02*
X002384Y001848D01*
X002203Y001947D02*
X002735Y001947D01*
X011963Y001965D02*
X012560Y002561D01*
X012560Y002415D01*
X012636Y002231D01*
X012777Y002091D01*
X012873Y002051D01*
X012860Y002046D01*
X012787Y002009D01*
X012721Y001961D01*
X012663Y001903D01*
X012615Y001837D01*
X012578Y001764D01*
X012553Y001686D01*
X012541Y001615D01*
X013010Y001615D01*
X013010Y001515D01*
X012560Y001515D01*
X012560Y001564D01*
X012484Y001748D01*
X012343Y001888D01*
X012159Y001965D01*
X011963Y001965D01*
X012044Y002045D02*
X012858Y002045D01*
X012724Y002144D02*
X012142Y002144D01*
X012241Y002242D02*
X012632Y002242D01*
X012591Y002341D02*
X012339Y002341D01*
X012438Y002439D02*
X012560Y002439D01*
X012560Y002538D02*
X012536Y002538D01*
X013529Y002341D02*
X013781Y002341D01*
X013682Y002439D02*
X013560Y002439D01*
X013560Y002415D02*
X013560Y002561D01*
X014157Y001965D01*
X013961Y001965D01*
X013777Y001888D01*
X013636Y001748D01*
X013560Y001564D01*
X013560Y001515D01*
X013110Y001515D01*
X013110Y001615D01*
X013579Y001615D01*
X013567Y001686D01*
X013542Y001764D01*
X013505Y001837D01*
X013457Y001903D01*
X013399Y001961D01*
X013333Y002009D01*
X013260Y002046D01*
X013247Y002051D01*
X013343Y002091D01*
X013484Y002231D01*
X013560Y002415D01*
X013560Y002538D02*
X013584Y002538D01*
X013488Y002242D02*
X013879Y002242D01*
X013978Y002144D02*
X013396Y002144D01*
X013262Y002045D02*
X014076Y002045D01*
X013917Y001947D02*
X013413Y001947D01*
X013497Y001848D02*
X013736Y001848D01*
X013638Y001750D02*
X013547Y001750D01*
X013573Y001651D02*
X013596Y001651D01*
X013560Y001553D02*
X013110Y001553D01*
X013110Y001515D02*
X013110Y001046D01*
X013182Y001057D01*
X013260Y001083D01*
X013333Y001120D01*
X013399Y001168D01*
X013457Y001226D01*
X013505Y001292D01*
X013542Y001365D01*
X013560Y001421D01*
X013560Y001365D01*
X013636Y001181D01*
X013777Y001041D01*
X013840Y001015D01*
X012280Y001015D01*
X012343Y001041D01*
X012484Y001181D01*
X012560Y001365D01*
X012560Y001421D01*
X012578Y001365D01*
X012615Y001292D01*
X012663Y001226D01*
X012721Y001168D01*
X012787Y001120D01*
X012860Y001083D01*
X012938Y001057D01*
X013010Y001046D01*
X013010Y001515D01*
X013110Y001515D01*
X013110Y001454D02*
X013010Y001454D01*
X013010Y001356D02*
X013110Y001356D01*
X013110Y001257D02*
X013010Y001257D01*
X013010Y001159D02*
X013110Y001159D01*
X013110Y001060D02*
X013010Y001060D01*
X012930Y001060D02*
X012363Y001060D01*
X012461Y001159D02*
X012734Y001159D01*
X012641Y001257D02*
X012515Y001257D01*
X012556Y001356D02*
X012583Y001356D01*
X012560Y001553D02*
X013010Y001553D01*
X012547Y001651D02*
X012524Y001651D01*
X012482Y001750D02*
X012573Y001750D01*
X012623Y001848D02*
X012384Y001848D01*
X012203Y001947D02*
X012707Y001947D01*
X014482Y001750D02*
X023560Y001750D01*
X023560Y001848D02*
X020440Y001848D01*
X020539Y001947D02*
X023560Y001947D01*
X023560Y002045D02*
X020637Y002045D01*
X020736Y002144D02*
X023560Y002144D01*
X023560Y002242D02*
X020834Y002242D01*
X020933Y002341D02*
X023560Y002341D01*
X023560Y002439D02*
X021031Y002439D01*
X023560Y001651D02*
X014524Y001651D01*
X014560Y001553D02*
X023560Y001553D01*
X023560Y001454D02*
X014560Y001454D01*
X014556Y001356D02*
X023560Y001356D01*
X023560Y001257D02*
X014515Y001257D01*
X014461Y001159D02*
X023560Y001159D01*
X023560Y001060D02*
X014363Y001060D01*
X013757Y001060D02*
X013190Y001060D01*
X013386Y001159D02*
X013659Y001159D01*
X013605Y001257D02*
X013479Y001257D01*
X013537Y001356D02*
X013564Y001356D01*
D15*
X014404Y002015D02*
X020310Y002015D01*
X022029Y003733D01*
X021685Y003827D02*
X021685Y004640D01*
X021716Y004640D01*
X023716Y006640D01*
X023716Y007765D01*
X023154Y007765D02*
X023154Y006515D01*
X021404Y004765D01*
X021404Y004015D01*
X019998Y002608D01*
X014654Y002608D01*
X013654Y003608D01*
X012435Y003608D01*
X011623Y002796D01*
X007154Y002796D01*
X006060Y001702D01*
X006060Y001465D01*
X007060Y001565D02*
X007979Y002483D01*
X011748Y002483D01*
X012591Y003327D01*
X013498Y003327D01*
X014529Y002296D01*
X020154Y002296D01*
X021685Y003827D01*
X014404Y002015D02*
X013373Y003046D01*
X012748Y003046D01*
X011873Y002171D01*
X009666Y002171D01*
X009060Y001565D01*
D16*
X010154Y005421D03*
X018998Y005515D03*
D17*
X018904Y005515D01*
X018466Y005952D01*
X010685Y005952D01*
X010154Y005421D01*
M02*
