G75*
G70*
%OFA0B0*%
%FSLAX24Y24*%
%IPPOS*%
%LPD*%
%AMOC8*
5,1,8,0,0,1.08239X$1,22.5*
%
%ADD10R,0.0880X0.0480*%
%ADD11R,0.0866X0.1417*%
%ADD12R,0.0394X0.0433*%
%ADD13R,0.0256X0.0417*%
%ADD14R,0.0354X0.0276*%
%ADD15R,0.0315X0.0315*%
%ADD16R,0.0394X0.1614*%
%ADD17R,0.0630X0.1339*%
%ADD18R,0.0472X0.0906*%
%ADD19C,0.0740*%
%ADD20R,0.0394X0.0335*%
%ADD21R,0.0335X0.0394*%
%ADD22R,0.0315X0.0354*%
%ADD23R,0.0276X0.0354*%
%ADD24R,0.0453X0.0413*%
%ADD25R,0.0433X0.0394*%
%ADD26C,0.0120*%
%ADD27C,0.0300*%
%ADD28C,0.0100*%
%ADD29C,0.0320*%
%ADD30C,0.0160*%
%ADD31C,0.0495*%
%ADD32C,0.0240*%
D10*
X007655Y003605D03*
X007655Y004515D03*
X007655Y005425D03*
D11*
X005215Y004515D03*
D12*
X002060Y004492D03*
X002060Y003822D03*
X002060Y003130D03*
X002060Y002461D03*
X008654Y002930D03*
X009466Y002930D03*
X009466Y003599D03*
X008654Y003599D03*
X008654Y004742D03*
X009466Y004742D03*
X009466Y005412D03*
X008654Y005412D03*
X003207Y005890D03*
X002538Y005890D03*
D13*
X012611Y004202D03*
X012985Y004202D03*
X013359Y004202D03*
X013359Y003336D03*
X012611Y003336D03*
D14*
X014029Y003384D03*
X014029Y003895D03*
X014635Y004384D03*
X014635Y004895D03*
X014029Y002708D03*
X014029Y002196D03*
D15*
X011685Y002344D03*
X011685Y002935D03*
X004512Y005858D03*
X003921Y005858D03*
D16*
X016166Y003748D03*
X016954Y003748D03*
D17*
X017899Y001799D03*
X015221Y001799D03*
D18*
X015576Y005341D03*
X016560Y005341D03*
X017544Y005341D03*
X017544Y007507D03*
X016560Y007507D03*
X015576Y007507D03*
D19*
X014060Y007465D03*
X013060Y007565D03*
X012060Y007465D03*
X011060Y007565D03*
X010060Y007465D03*
X009060Y007565D03*
X008060Y007465D03*
X007060Y007565D03*
X006060Y007465D03*
X005060Y007565D03*
X004060Y007465D03*
X003060Y007565D03*
X002060Y007465D03*
X001060Y007565D03*
X001110Y006515D03*
X001010Y005515D03*
X001110Y004515D03*
X001010Y003515D03*
X001110Y002515D03*
X001060Y001565D03*
X002060Y001465D03*
X003060Y001565D03*
X004060Y001465D03*
X005060Y001565D03*
X006060Y001465D03*
X007060Y001565D03*
X008060Y001465D03*
X009060Y001565D03*
X010060Y001465D03*
X011060Y001565D03*
X012060Y001465D03*
X013060Y001565D03*
X014060Y001465D03*
X013060Y002515D03*
D20*
X021303Y003058D03*
X021303Y003707D03*
D21*
X021947Y001725D03*
X022537Y001725D03*
X023128Y001725D03*
X023718Y001725D03*
X024309Y001725D03*
X024900Y001725D03*
X025490Y001725D03*
X025490Y007304D03*
X024900Y007304D03*
X024309Y007304D03*
X023718Y007304D03*
X023128Y007304D03*
X022537Y007304D03*
X021947Y007304D03*
D22*
X020498Y006323D03*
X020872Y005496D03*
X020123Y005496D03*
D23*
X020304Y004452D03*
X020816Y004452D03*
X020753Y007015D03*
X020242Y007015D03*
D24*
X004157Y004831D03*
X002838Y004831D03*
X002838Y004260D03*
X004157Y004260D03*
X004157Y003113D03*
X002838Y003113D03*
X002838Y002542D03*
X004157Y002542D03*
D25*
X018819Y004421D03*
X019488Y004421D03*
D26*
X020304Y004452D02*
X020327Y004429D01*
X020123Y005495D02*
X020123Y005496D01*
X020498Y006323D02*
X022618Y006323D01*
X023216Y006921D01*
X024091Y006921D01*
X024309Y007139D01*
X024309Y007304D01*
X022560Y007327D02*
X022529Y007358D01*
X022529Y007796D01*
X021935Y007796D02*
X021935Y007316D01*
X021947Y007304D01*
X022537Y007304D02*
X022560Y007327D01*
X020498Y006323D02*
X020242Y006579D01*
X020242Y007015D01*
D27*
X021716Y006608D03*
X019560Y006515D03*
X023154Y007765D03*
X023716Y007765D03*
X022529Y007796D03*
X021935Y007796D03*
X017044Y004983D03*
X017419Y004608D03*
X017732Y004608D03*
X017732Y004296D03*
X017419Y004296D03*
X015623Y004577D03*
X015279Y004577D03*
X014654Y003421D03*
X017435Y003452D03*
X019185Y003202D03*
X022029Y003733D03*
X022748Y004515D03*
X016591Y001640D03*
X019029Y001452D03*
X019404Y001452D03*
X021591Y001233D03*
X023248Y001265D03*
X011527Y004388D03*
X009029Y004233D03*
X006310Y004358D03*
X006732Y005905D03*
X001873Y006140D03*
X005591Y002108D03*
X008466Y002171D03*
D28*
X000560Y003294D02*
X000560Y001015D01*
X001840Y001015D01*
X001777Y001041D01*
X001636Y001181D01*
X001560Y001365D01*
X001560Y001564D01*
X001636Y001748D01*
X001777Y001888D01*
X001961Y001965D01*
X002159Y001965D01*
X002343Y001888D01*
X002484Y001748D01*
X002560Y001564D01*
X002560Y001365D01*
X002484Y001181D01*
X002343Y001041D01*
X002280Y001015D01*
X003840Y001015D01*
X003777Y001041D01*
X003636Y001181D01*
X003560Y001365D01*
X003560Y001564D01*
X003636Y001748D01*
X003777Y001888D01*
X003961Y001965D01*
X004159Y001965D01*
X004343Y001888D01*
X004484Y001748D01*
X004560Y001564D01*
X004560Y001365D01*
X004484Y001181D01*
X004343Y001041D01*
X004280Y001015D01*
X005840Y001015D01*
X005777Y001041D01*
X005636Y001181D01*
X005560Y001365D01*
X005560Y001564D01*
X005636Y001748D01*
X005777Y001888D01*
X005961Y001965D01*
X006159Y001965D01*
X006343Y001888D01*
X006484Y001748D01*
X006560Y001564D01*
X006560Y001365D01*
X006484Y001181D01*
X006343Y001041D01*
X006280Y001015D01*
X007840Y001015D01*
X007777Y001041D01*
X007636Y001181D01*
X007560Y001365D01*
X007560Y001564D01*
X007636Y001748D01*
X007777Y001888D01*
X007961Y001965D01*
X008159Y001965D01*
X008343Y001888D01*
X008484Y001748D01*
X008560Y001564D01*
X008560Y001365D01*
X008484Y001181D01*
X008343Y001041D01*
X008280Y001015D01*
X009840Y001015D01*
X009777Y001041D01*
X009636Y001181D01*
X009560Y001365D01*
X009560Y001564D01*
X009636Y001748D01*
X009777Y001888D01*
X009961Y001965D01*
X010159Y001965D01*
X010343Y001888D01*
X010484Y001748D01*
X010560Y001564D01*
X010560Y001365D01*
X010484Y001181D01*
X010343Y001041D01*
X010280Y001015D01*
X011840Y001015D01*
X011777Y001041D01*
X011636Y001181D01*
X011560Y001365D01*
X011560Y001564D01*
X011636Y001748D01*
X011777Y001888D01*
X011961Y001965D01*
X012159Y001965D01*
X012343Y001888D01*
X012484Y001748D01*
X012560Y001564D01*
X012560Y001515D01*
X013010Y001515D01*
X013010Y001615D01*
X012541Y001615D01*
X012553Y001686D01*
X012578Y001764D01*
X012615Y001837D01*
X012663Y001903D01*
X012721Y001961D01*
X012787Y002009D01*
X012860Y002046D01*
X012873Y002051D01*
X012777Y002091D01*
X012636Y002231D01*
X012560Y002415D01*
X012560Y002468D01*
X012227Y002134D01*
X011972Y002134D01*
X011972Y002133D01*
X011896Y002057D01*
X011474Y002057D01*
X011398Y002133D01*
X011398Y002556D01*
X011474Y002632D01*
X011896Y002632D01*
X011972Y002556D01*
X011972Y002554D01*
X012053Y002554D01*
X012345Y002847D01*
X012321Y002906D01*
X012321Y003354D01*
X011972Y003005D01*
X011972Y002724D01*
X011896Y002647D01*
X011474Y002647D01*
X011398Y002724D01*
X011398Y003146D01*
X011474Y003222D01*
X011596Y003222D01*
X012225Y003852D01*
X012348Y003975D01*
X012353Y003975D01*
X012353Y004067D01*
X012321Y004145D01*
X012321Y004779D01*
X012365Y004886D01*
X012533Y005054D01*
X012579Y005100D01*
X011377Y005100D01*
X009793Y003516D01*
X009793Y003329D01*
X009740Y003275D01*
X009755Y003266D01*
X009783Y003239D01*
X009803Y003204D01*
X009813Y003166D01*
X009813Y002978D01*
X009515Y002978D01*
X009515Y002881D01*
X009515Y002563D01*
X009683Y002563D01*
X009721Y002574D01*
X009755Y002593D01*
X009783Y002621D01*
X009803Y002655D01*
X009813Y002694D01*
X009813Y002881D01*
X009515Y002881D01*
X009418Y002881D01*
X009418Y002563D01*
X009250Y002563D01*
X009212Y002574D01*
X009177Y002593D01*
X009149Y002621D01*
X009130Y002655D01*
X009119Y002694D01*
X009119Y002881D01*
X009418Y002881D01*
X009418Y002978D01*
X009119Y002978D01*
X009119Y003166D01*
X009130Y003204D01*
X009149Y003239D01*
X009177Y003266D01*
X009193Y003275D01*
X009159Y003309D01*
X008961Y003309D01*
X008927Y003275D01*
X008943Y003266D01*
X008971Y003239D01*
X008990Y003204D01*
X009001Y003166D01*
X009001Y002978D01*
X008702Y002978D01*
X008702Y002881D01*
X008702Y002563D01*
X008870Y002563D01*
X008908Y002574D01*
X008943Y002593D01*
X008971Y002621D01*
X008990Y002655D01*
X009001Y002694D01*
X009001Y002881D01*
X008702Y002881D01*
X008605Y002881D01*
X008605Y002563D01*
X008437Y002563D01*
X008399Y002574D01*
X008365Y002593D01*
X008337Y002621D01*
X008317Y002655D01*
X008307Y002694D01*
X008307Y002881D01*
X008605Y002881D01*
X008605Y002978D01*
X008307Y002978D01*
X008307Y003166D01*
X008317Y003204D01*
X008337Y003239D01*
X008365Y003266D01*
X008380Y003275D01*
X008341Y003315D01*
X008225Y003315D01*
X008225Y003311D01*
X008149Y003235D01*
X007161Y003235D01*
X007085Y003311D01*
X007085Y003898D01*
X007161Y003975D01*
X008149Y003975D01*
X008225Y003898D01*
X008225Y003895D01*
X008352Y003895D01*
X008403Y003946D01*
X008904Y003946D01*
X008961Y003889D01*
X009159Y003889D01*
X009216Y003946D01*
X009403Y003946D01*
X010957Y005500D01*
X010980Y005554D01*
X011061Y005635D01*
X011168Y005680D01*
X014315Y005680D01*
X015021Y006385D01*
X015127Y006430D01*
X016118Y006430D01*
X016224Y006385D01*
X016306Y006304D01*
X016306Y006304D01*
X016560Y006050D01*
X016814Y006304D01*
X016896Y006385D01*
X017002Y006430D01*
X017993Y006430D01*
X018099Y006385D01*
X018349Y006135D01*
X018431Y006054D01*
X018475Y005947D01*
X018475Y004674D01*
X018549Y004748D01*
X018569Y004748D01*
X018569Y005386D01*
X018607Y005478D01*
X018620Y005491D01*
X018620Y005590D01*
X018677Y005728D01*
X018784Y005835D01*
X018922Y005892D01*
X019021Y005892D01*
X019161Y006031D01*
X019231Y006102D01*
X019323Y006140D01*
X020210Y006140D01*
X020210Y006341D01*
X020163Y006389D01*
X020052Y006500D01*
X020052Y006707D01*
X020050Y006707D01*
X019974Y006784D01*
X019974Y007246D01*
X020050Y007322D01*
X020433Y007322D01*
X020487Y007268D01*
X020496Y007284D01*
X020524Y007312D01*
X020558Y007332D01*
X020596Y007342D01*
X020735Y007342D01*
X020735Y007033D01*
X020772Y007033D01*
X021041Y007033D01*
X021041Y007211D01*
X021031Y007250D01*
X021011Y007284D01*
X020983Y007312D01*
X020949Y007332D01*
X020911Y007342D01*
X020772Y007342D01*
X020772Y007033D01*
X020772Y006996D01*
X021041Y006996D01*
X021041Y006818D01*
X021031Y006780D01*
X021011Y006745D01*
X020983Y006717D01*
X020949Y006698D01*
X020911Y006687D01*
X020772Y006687D01*
X020772Y006996D01*
X020735Y006996D01*
X020735Y006687D01*
X020596Y006687D01*
X020558Y006698D01*
X020524Y006717D01*
X020496Y006745D01*
X020487Y006761D01*
X020433Y006707D01*
X020432Y006707D01*
X020432Y006657D01*
X020459Y006630D01*
X020709Y006630D01*
X020785Y006554D01*
X020785Y006513D01*
X022539Y006513D01*
X023004Y006977D01*
X022907Y006977D01*
X022833Y007051D01*
X022759Y006977D01*
X022316Y006977D01*
X022242Y007051D01*
X022168Y006977D01*
X021726Y006977D01*
X021649Y007053D01*
X021649Y007555D01*
X021715Y007620D01*
X021698Y007637D01*
X021655Y007740D01*
X021655Y007852D01*
X021698Y007954D01*
X021758Y008015D01*
X017909Y008015D01*
X017910Y008013D01*
X017910Y007000D01*
X017834Y006924D01*
X017254Y006924D01*
X017178Y007000D01*
X017178Y008013D01*
X017179Y008015D01*
X016925Y008015D01*
X016926Y008013D01*
X016926Y007000D01*
X016850Y006924D01*
X016270Y006924D01*
X016194Y007000D01*
X016194Y008013D01*
X016195Y008015D01*
X015941Y008015D01*
X015942Y008013D01*
X015942Y007000D01*
X015866Y006924D01*
X015286Y006924D01*
X015210Y007000D01*
X015210Y008013D01*
X015211Y008015D01*
X013280Y008015D01*
X013343Y007988D01*
X013484Y007848D01*
X013560Y007664D01*
X013560Y007608D01*
X013578Y007664D01*
X013615Y007737D01*
X013663Y007803D01*
X013721Y007861D01*
X013787Y007909D01*
X013860Y007946D01*
X013938Y007972D01*
X014010Y007983D01*
X014010Y007515D01*
X014110Y007515D01*
X014110Y007983D01*
X014182Y007972D01*
X014260Y007946D01*
X014333Y007909D01*
X014399Y007861D01*
X014457Y007803D01*
X014505Y007737D01*
X014542Y007664D01*
X014567Y007586D01*
X014579Y007515D01*
X014110Y007515D01*
X014110Y007415D01*
X014579Y007415D01*
X014567Y007343D01*
X014542Y007265D01*
X014505Y007192D01*
X014457Y007126D01*
X014399Y007068D01*
X014333Y007020D01*
X014260Y006983D01*
X014182Y006957D01*
X014110Y006946D01*
X014110Y007415D01*
X014010Y007415D01*
X013541Y007415D01*
X013553Y007343D01*
X013578Y007265D01*
X013615Y007192D01*
X013663Y007126D01*
X013721Y007068D01*
X013787Y007020D01*
X013860Y006983D01*
X013938Y006957D01*
X014010Y006946D01*
X014010Y007415D01*
X014010Y007515D01*
X013560Y007515D01*
X013560Y007465D01*
X013484Y007281D01*
X013343Y007141D01*
X013159Y007065D01*
X012961Y007065D01*
X012777Y007141D01*
X012636Y007281D01*
X012560Y007465D01*
X012560Y007664D01*
X012636Y007848D01*
X012777Y007988D01*
X012840Y008015D01*
X011280Y008015D01*
X011343Y007988D01*
X011484Y007848D01*
X011560Y007664D01*
X011560Y007465D01*
X011484Y007281D01*
X011343Y007141D01*
X011159Y007065D01*
X010961Y007065D01*
X010777Y007141D01*
X010636Y007281D01*
X010560Y007465D01*
X010560Y007664D01*
X010636Y007848D01*
X010777Y007988D01*
X010840Y008015D01*
X009280Y008015D01*
X009343Y007988D01*
X009484Y007848D01*
X009560Y007664D01*
X009560Y007465D01*
X009484Y007281D01*
X009343Y007141D01*
X009159Y007065D01*
X008961Y007065D01*
X008777Y007141D01*
X008636Y007281D01*
X008560Y007465D01*
X008560Y007664D01*
X008636Y007848D01*
X008777Y007988D01*
X008840Y008015D01*
X007280Y008015D01*
X007343Y007988D01*
X007484Y007848D01*
X007560Y007664D01*
X007560Y007465D01*
X007484Y007281D01*
X007343Y007141D01*
X007159Y007065D01*
X006961Y007065D01*
X006777Y007141D01*
X006636Y007281D01*
X006560Y007465D01*
X006560Y007664D01*
X006636Y007848D01*
X006777Y007988D01*
X006840Y008015D01*
X005280Y008015D01*
X005343Y007988D01*
X005484Y007848D01*
X005560Y007664D01*
X005560Y007465D01*
X005484Y007281D01*
X005343Y007141D01*
X005159Y007065D01*
X004961Y007065D01*
X004777Y007141D01*
X004636Y007281D01*
X004560Y007465D01*
X004560Y007664D01*
X004636Y007848D01*
X004777Y007988D01*
X004840Y008015D01*
X003280Y008015D01*
X003343Y007988D01*
X003484Y007848D01*
X003560Y007664D01*
X003560Y007465D01*
X003484Y007281D01*
X003343Y007141D01*
X003159Y007065D01*
X002961Y007065D01*
X002777Y007141D01*
X002636Y007281D01*
X002560Y007465D01*
X002560Y007664D01*
X002636Y007848D01*
X002777Y007988D01*
X002840Y008015D01*
X001280Y008015D01*
X001343Y007988D01*
X001484Y007848D01*
X001560Y007664D01*
X001560Y007465D01*
X001484Y007281D01*
X001343Y007141D01*
X001159Y007065D01*
X000961Y007065D01*
X000777Y007141D01*
X000636Y007281D01*
X000560Y007465D01*
X000560Y007664D01*
X000636Y007848D01*
X000777Y007988D01*
X000840Y008015D01*
X000560Y008015D01*
X000560Y005735D01*
X000586Y005798D01*
X000727Y005938D01*
X000911Y006015D01*
X001109Y006015D01*
X001293Y005938D01*
X001434Y005798D01*
X001510Y005614D01*
X001510Y005415D01*
X001434Y005231D01*
X001293Y005091D01*
X001109Y005015D01*
X001060Y005015D01*
X001060Y004565D01*
X001160Y004565D01*
X001160Y005033D01*
X001232Y005022D01*
X001310Y004996D01*
X001383Y004959D01*
X001449Y004911D01*
X001507Y004853D01*
X001555Y004787D01*
X001592Y004714D01*
X001617Y004636D01*
X001629Y004565D01*
X001160Y004565D01*
X001160Y004465D01*
X001629Y004465D01*
X001617Y004393D01*
X001592Y004315D01*
X001555Y004242D01*
X001507Y004176D01*
X001449Y004118D01*
X001383Y004070D01*
X001310Y004033D01*
X001309Y004032D01*
X001733Y004032D01*
X001733Y004093D01*
X001787Y004146D01*
X001771Y004155D01*
X001743Y004183D01*
X001723Y004217D01*
X001713Y004255D01*
X001713Y004443D01*
X002012Y004443D01*
X002012Y004540D01*
X002012Y004858D01*
X001843Y004858D01*
X001805Y004848D01*
X001771Y004828D01*
X001743Y004800D01*
X001723Y004766D01*
X001713Y004728D01*
X001713Y004540D01*
X002012Y004540D01*
X002108Y004540D01*
X002108Y004858D01*
X002277Y004858D01*
X002315Y004848D01*
X002349Y004828D01*
X002377Y004800D01*
X002397Y004766D01*
X002407Y004728D01*
X002407Y004540D01*
X002108Y004540D01*
X002108Y004443D01*
X002407Y004443D01*
X002407Y004255D01*
X002397Y004217D01*
X002377Y004183D01*
X002349Y004155D01*
X002333Y004146D01*
X002380Y004099D01*
X002482Y004201D01*
X002482Y004521D01*
X002492Y004532D01*
X002492Y004532D01*
X002472Y004567D01*
X002462Y004605D01*
X002462Y004781D01*
X002788Y004781D01*
X002788Y004881D01*
X002462Y004881D01*
X002462Y005058D01*
X002472Y005096D01*
X002492Y005130D01*
X002520Y005158D01*
X002554Y005178D01*
X002592Y005188D01*
X002788Y005188D01*
X002788Y004881D01*
X002888Y004881D01*
X003214Y004881D01*
X003214Y005058D01*
X003204Y005096D01*
X003184Y005130D01*
X003157Y005158D01*
X003122Y005178D01*
X003084Y005188D01*
X002888Y005188D01*
X002888Y004881D01*
X002888Y004781D01*
X003214Y004781D01*
X003214Y004605D01*
X003204Y004567D01*
X003184Y004532D01*
X003184Y004532D01*
X003194Y004521D01*
X003194Y004470D01*
X003801Y004470D01*
X003801Y004521D01*
X003811Y004532D01*
X003811Y004532D01*
X003791Y004567D01*
X003781Y004605D01*
X003781Y004781D01*
X004107Y004781D01*
X004107Y004881D01*
X003781Y004881D01*
X003781Y005058D01*
X003791Y005096D01*
X003811Y005130D01*
X003838Y005158D01*
X003873Y005178D01*
X003911Y005188D01*
X004107Y005188D01*
X004107Y004881D01*
X004207Y004881D01*
X004533Y004881D01*
X004533Y005058D01*
X004523Y005096D01*
X004503Y005130D01*
X004475Y005158D01*
X004441Y005178D01*
X004403Y005188D01*
X004207Y005188D01*
X004207Y004881D01*
X004207Y004781D01*
X004533Y004781D01*
X004533Y004605D01*
X004523Y004567D01*
X004503Y004532D01*
X004503Y004532D01*
X004513Y004521D01*
X004513Y004000D01*
X004437Y003924D01*
X003877Y003924D01*
X003801Y004000D01*
X003801Y004050D01*
X003194Y004050D01*
X003194Y004000D01*
X003118Y003924D01*
X002798Y003924D01*
X002487Y003612D01*
X002387Y003612D01*
X002387Y003552D01*
X002319Y003484D01*
X002349Y003467D01*
X002377Y003439D01*
X002397Y003405D01*
X002407Y003367D01*
X002407Y003179D01*
X002108Y003179D01*
X002108Y003082D01*
X002407Y003082D01*
X002407Y002894D01*
X002397Y002856D01*
X002377Y002822D01*
X002349Y002794D01*
X002333Y002785D01*
X002367Y002752D01*
X002482Y002752D01*
X002482Y002802D01*
X002492Y002813D01*
X002492Y002814D01*
X002472Y002848D01*
X002462Y002886D01*
X002462Y003063D01*
X002788Y003063D01*
X002788Y003162D01*
X002462Y003162D01*
X002462Y003339D01*
X002472Y003377D01*
X002492Y003411D01*
X002520Y003439D01*
X002554Y003459D01*
X002592Y003469D01*
X002788Y003469D01*
X002788Y003163D01*
X002888Y003163D01*
X002888Y003469D01*
X003084Y003469D01*
X003122Y003459D01*
X003157Y003439D01*
X003184Y003411D01*
X003204Y003377D01*
X003214Y003339D01*
X003214Y003162D01*
X002888Y003162D01*
X002888Y003063D01*
X003214Y003063D01*
X003214Y002886D01*
X003204Y002848D01*
X003184Y002814D01*
X003184Y002813D01*
X003194Y002802D01*
X003194Y002752D01*
X003801Y002752D01*
X003801Y002802D01*
X003811Y002813D01*
X003811Y002814D01*
X003791Y002848D01*
X003781Y002886D01*
X003781Y003063D01*
X004107Y003063D01*
X004107Y003162D01*
X003781Y003162D01*
X003781Y003339D01*
X003791Y003377D01*
X003811Y003411D01*
X003838Y003439D01*
X003873Y003459D01*
X003911Y003469D01*
X004107Y003469D01*
X004107Y003163D01*
X004207Y003163D01*
X004207Y003469D01*
X004403Y003469D01*
X004441Y003459D01*
X004475Y003439D01*
X004503Y003411D01*
X004523Y003377D01*
X004533Y003339D01*
X004533Y003162D01*
X004207Y003162D01*
X004207Y003063D01*
X004533Y003063D01*
X004533Y002886D01*
X004523Y002848D01*
X004503Y002814D01*
X004503Y002813D01*
X004513Y002802D01*
X004513Y002281D01*
X004437Y002205D01*
X003877Y002205D01*
X003801Y002281D01*
X003801Y002332D01*
X003194Y002332D01*
X003194Y002281D01*
X003118Y002205D01*
X002558Y002205D01*
X002482Y002281D01*
X002482Y002332D01*
X002387Y002332D01*
X002387Y002191D01*
X002311Y002115D01*
X001809Y002115D01*
X001733Y002191D01*
X001733Y002251D01*
X001542Y002251D01*
X001534Y002231D01*
X001393Y002091D01*
X001245Y002029D01*
X001343Y001988D01*
X001484Y001848D01*
X001560Y001664D01*
X001560Y001465D01*
X001484Y001281D01*
X001343Y001141D01*
X001159Y001065D01*
X000961Y001065D01*
X000777Y001141D01*
X000636Y001281D01*
X000560Y001465D01*
X000560Y001664D01*
X000636Y001848D01*
X000777Y001988D01*
X000925Y002050D01*
X000827Y002091D01*
X000686Y002231D01*
X000610Y002415D01*
X000610Y002614D01*
X000686Y002798D01*
X000827Y002938D01*
X001011Y003015D01*
X001209Y003015D01*
X001393Y002938D01*
X001534Y002798D01*
X001586Y002671D01*
X001733Y002671D01*
X001733Y002732D01*
X001787Y002785D01*
X001771Y002794D01*
X001743Y002822D01*
X001723Y002856D01*
X001713Y002894D01*
X001713Y003082D01*
X002012Y003082D01*
X002012Y003179D01*
X001713Y003179D01*
X001713Y003367D01*
X001723Y003405D01*
X001743Y003439D01*
X001771Y003467D01*
X001801Y003484D01*
X001733Y003552D01*
X001733Y003612D01*
X001510Y003612D01*
X001510Y003415D01*
X001434Y003231D01*
X001293Y003091D01*
X001109Y003015D01*
X000911Y003015D01*
X000727Y003091D01*
X000586Y003231D01*
X000560Y003294D01*
X000560Y003227D02*
X000590Y003227D01*
X000560Y003129D02*
X000689Y003129D01*
X000560Y003030D02*
X000873Y003030D01*
X000820Y002932D02*
X000560Y002932D01*
X000560Y002833D02*
X000721Y002833D01*
X000660Y002735D02*
X000560Y002735D01*
X000560Y002636D02*
X000619Y002636D01*
X000610Y002538D02*
X000560Y002538D01*
X000560Y002439D02*
X000610Y002439D01*
X000641Y002341D02*
X000560Y002341D01*
X000560Y002242D02*
X000682Y002242D01*
X000774Y002144D02*
X000560Y002144D01*
X000560Y002045D02*
X000913Y002045D01*
X000735Y001947D02*
X000560Y001947D01*
X000560Y001848D02*
X000636Y001848D01*
X000595Y001750D02*
X000560Y001750D01*
X000560Y001651D02*
X000560Y001651D01*
X000560Y001553D02*
X000560Y001553D01*
X000560Y001454D02*
X000565Y001454D01*
X000560Y001356D02*
X000605Y001356D01*
X000560Y001257D02*
X000660Y001257D01*
X000759Y001159D02*
X000560Y001159D01*
X000560Y001060D02*
X001757Y001060D01*
X001659Y001159D02*
X001361Y001159D01*
X001460Y001257D02*
X001605Y001257D01*
X001564Y001356D02*
X001515Y001356D01*
X001555Y001454D02*
X001560Y001454D01*
X001560Y001553D02*
X001560Y001553D01*
X001560Y001651D02*
X001596Y001651D01*
X001638Y001750D02*
X001525Y001750D01*
X001484Y001848D02*
X001736Y001848D01*
X001917Y001947D02*
X001385Y001947D01*
X001283Y002045D02*
X002913Y002045D01*
X002961Y002065D02*
X002777Y001988D01*
X002636Y001848D01*
X002560Y001664D01*
X002560Y001465D01*
X002636Y001281D01*
X002777Y001141D01*
X002961Y001065D01*
X003159Y001065D01*
X003343Y001141D01*
X003484Y001281D01*
X003560Y001465D01*
X003560Y001664D01*
X003484Y001848D01*
X003343Y001988D01*
X003159Y002065D01*
X002961Y002065D01*
X003207Y002045D02*
X004913Y002045D01*
X004961Y002065D02*
X004777Y001988D01*
X004636Y001848D01*
X004560Y001664D01*
X004560Y001465D01*
X004636Y001281D01*
X004777Y001141D01*
X004961Y001065D01*
X005159Y001065D01*
X005343Y001141D01*
X005484Y001281D01*
X005560Y001465D01*
X005560Y001664D01*
X005484Y001848D01*
X005343Y001988D01*
X005159Y002065D01*
X004961Y002065D01*
X005207Y002045D02*
X006913Y002045D01*
X006961Y002065D02*
X006777Y001988D01*
X006636Y001848D01*
X006560Y001664D01*
X006560Y001465D01*
X006636Y001281D01*
X006777Y001141D01*
X006961Y001065D01*
X007159Y001065D01*
X007343Y001141D01*
X007484Y001281D01*
X007560Y001465D01*
X007560Y001664D01*
X007484Y001848D01*
X007343Y001988D01*
X007159Y002065D01*
X006961Y002065D01*
X007207Y002045D02*
X008913Y002045D01*
X008961Y002065D02*
X008777Y001988D01*
X008636Y001848D01*
X008560Y001664D01*
X008560Y001465D01*
X008636Y001281D01*
X008777Y001141D01*
X008961Y001065D01*
X009159Y001065D01*
X009343Y001141D01*
X009484Y001281D01*
X009560Y001465D01*
X009560Y001664D01*
X009484Y001848D01*
X009343Y001988D01*
X009159Y002065D01*
X008961Y002065D01*
X009207Y002045D02*
X010913Y002045D01*
X010961Y002065D02*
X010777Y001988D01*
X010636Y001848D01*
X010560Y001664D01*
X010560Y001465D01*
X010636Y001281D01*
X010777Y001141D01*
X010961Y001065D01*
X011159Y001065D01*
X011343Y001141D01*
X011484Y001281D01*
X011560Y001465D01*
X011560Y001664D01*
X011484Y001848D01*
X011343Y001988D01*
X011159Y002065D01*
X010961Y002065D01*
X011207Y002045D02*
X012858Y002045D01*
X012724Y002144D02*
X012236Y002144D01*
X012334Y002242D02*
X012632Y002242D01*
X012591Y002341D02*
X012433Y002341D01*
X012531Y002439D02*
X012560Y002439D01*
X012135Y002636D02*
X009792Y002636D01*
X009813Y002735D02*
X011398Y002735D01*
X011398Y002833D02*
X009813Y002833D01*
X009515Y002833D02*
X009418Y002833D01*
X009418Y002735D02*
X009515Y002735D01*
X009515Y002636D02*
X009418Y002636D01*
X009141Y002636D02*
X008979Y002636D01*
X009001Y002735D02*
X009119Y002735D01*
X009119Y002833D02*
X009001Y002833D01*
X008702Y002833D02*
X008605Y002833D01*
X008605Y002735D02*
X008702Y002735D01*
X008702Y002636D02*
X008605Y002636D01*
X008328Y002636D02*
X004513Y002636D01*
X004513Y002538D02*
X011398Y002538D01*
X011398Y002439D02*
X004513Y002439D01*
X004513Y002341D02*
X011398Y002341D01*
X011398Y002242D02*
X004474Y002242D01*
X003840Y002242D02*
X003155Y002242D01*
X002521Y002242D02*
X002387Y002242D01*
X002340Y002144D02*
X011398Y002144D01*
X011385Y001947D02*
X011917Y001947D01*
X011736Y001848D02*
X011484Y001848D01*
X011525Y001750D02*
X011638Y001750D01*
X011596Y001651D02*
X011560Y001651D01*
X011560Y001553D02*
X011560Y001553D01*
X011555Y001454D02*
X011560Y001454D01*
X011564Y001356D02*
X011515Y001356D01*
X011460Y001257D02*
X011605Y001257D01*
X011659Y001159D02*
X011361Y001159D01*
X011757Y001060D02*
X010363Y001060D01*
X010461Y001159D02*
X010759Y001159D01*
X010660Y001257D02*
X010515Y001257D01*
X010556Y001356D02*
X010605Y001356D01*
X010565Y001454D02*
X010560Y001454D01*
X010560Y001553D02*
X010560Y001553D01*
X010560Y001651D02*
X010524Y001651D01*
X010482Y001750D02*
X010595Y001750D01*
X010636Y001848D02*
X010384Y001848D01*
X010203Y001947D02*
X010735Y001947D01*
X009917Y001947D02*
X009385Y001947D01*
X009484Y001848D02*
X009736Y001848D01*
X009638Y001750D02*
X009525Y001750D01*
X009560Y001651D02*
X009596Y001651D01*
X009560Y001553D02*
X009560Y001553D01*
X009555Y001454D02*
X009560Y001454D01*
X009564Y001356D02*
X009515Y001356D01*
X009460Y001257D02*
X009605Y001257D01*
X009659Y001159D02*
X009361Y001159D01*
X009757Y001060D02*
X008363Y001060D01*
X008461Y001159D02*
X008759Y001159D01*
X008660Y001257D02*
X008515Y001257D01*
X008556Y001356D02*
X008605Y001356D01*
X008565Y001454D02*
X008560Y001454D01*
X008560Y001553D02*
X008560Y001553D01*
X008560Y001651D02*
X008524Y001651D01*
X008482Y001750D02*
X008595Y001750D01*
X008636Y001848D02*
X008384Y001848D01*
X008203Y001947D02*
X008735Y001947D01*
X007917Y001947D02*
X007385Y001947D01*
X007484Y001848D02*
X007736Y001848D01*
X007638Y001750D02*
X007525Y001750D01*
X007560Y001651D02*
X007596Y001651D01*
X007560Y001553D02*
X007560Y001553D01*
X007555Y001454D02*
X007560Y001454D01*
X007564Y001356D02*
X007515Y001356D01*
X007460Y001257D02*
X007605Y001257D01*
X007659Y001159D02*
X007361Y001159D01*
X007757Y001060D02*
X006363Y001060D01*
X006461Y001159D02*
X006759Y001159D01*
X006660Y001257D02*
X006515Y001257D01*
X006556Y001356D02*
X006605Y001356D01*
X006565Y001454D02*
X006560Y001454D01*
X006560Y001553D02*
X006560Y001553D01*
X006560Y001651D02*
X006524Y001651D01*
X006482Y001750D02*
X006595Y001750D01*
X006636Y001848D02*
X006384Y001848D01*
X006203Y001947D02*
X006735Y001947D01*
X005917Y001947D02*
X005385Y001947D01*
X005484Y001848D02*
X005736Y001848D01*
X005638Y001750D02*
X005525Y001750D01*
X005560Y001651D02*
X005596Y001651D01*
X005560Y001553D02*
X005560Y001553D01*
X005555Y001454D02*
X005560Y001454D01*
X005564Y001356D02*
X005515Y001356D01*
X005460Y001257D02*
X005605Y001257D01*
X005659Y001159D02*
X005361Y001159D01*
X005757Y001060D02*
X004363Y001060D01*
X004461Y001159D02*
X004759Y001159D01*
X004660Y001257D02*
X004515Y001257D01*
X004556Y001356D02*
X004605Y001356D01*
X004565Y001454D02*
X004560Y001454D01*
X004560Y001553D02*
X004560Y001553D01*
X004560Y001651D02*
X004524Y001651D01*
X004482Y001750D02*
X004595Y001750D01*
X004636Y001848D02*
X004384Y001848D01*
X004203Y001947D02*
X004735Y001947D01*
X003917Y001947D02*
X003385Y001947D01*
X003484Y001848D02*
X003736Y001848D01*
X003638Y001750D02*
X003525Y001750D01*
X003560Y001651D02*
X003596Y001651D01*
X003560Y001553D02*
X003560Y001553D01*
X003555Y001454D02*
X003560Y001454D01*
X003564Y001356D02*
X003515Y001356D01*
X003460Y001257D02*
X003605Y001257D01*
X003659Y001159D02*
X003361Y001159D01*
X003757Y001060D02*
X002363Y001060D01*
X002461Y001159D02*
X002759Y001159D01*
X002660Y001257D02*
X002515Y001257D01*
X002556Y001356D02*
X002605Y001356D01*
X002565Y001454D02*
X002560Y001454D01*
X002560Y001553D02*
X002560Y001553D01*
X002560Y001651D02*
X002524Y001651D01*
X002482Y001750D02*
X002595Y001750D01*
X002636Y001848D02*
X002384Y001848D01*
X002203Y001947D02*
X002735Y001947D01*
X001780Y002144D02*
X001446Y002144D01*
X001538Y002242D02*
X001733Y002242D01*
X001736Y002735D02*
X001560Y002735D01*
X001499Y002833D02*
X001737Y002833D01*
X001713Y002932D02*
X001400Y002932D01*
X001147Y003030D02*
X001713Y003030D01*
X002012Y003129D02*
X001331Y003129D01*
X001430Y003227D02*
X001713Y003227D01*
X001713Y003326D02*
X001473Y003326D01*
X001510Y003424D02*
X001734Y003424D01*
X001763Y003523D02*
X001510Y003523D01*
X002357Y003523D02*
X007085Y003523D01*
X007085Y003621D02*
X002496Y003621D01*
X002594Y003720D02*
X004658Y003720D01*
X004662Y003714D02*
X004690Y003686D01*
X004724Y003666D01*
X004762Y003656D01*
X005165Y003656D01*
X005165Y004465D01*
X004632Y004465D01*
X004632Y003786D01*
X004642Y003748D01*
X004662Y003714D01*
X004632Y003818D02*
X002693Y003818D01*
X002791Y003917D02*
X004632Y003917D01*
X004632Y004015D02*
X004513Y004015D01*
X004513Y004114D02*
X004632Y004114D01*
X004632Y004212D02*
X004513Y004212D01*
X004513Y004311D02*
X004632Y004311D01*
X004632Y004409D02*
X004513Y004409D01*
X004513Y004508D02*
X005165Y004508D01*
X005165Y004465D02*
X005165Y004565D01*
X005165Y005373D01*
X004762Y005373D01*
X004724Y005363D01*
X004690Y005343D01*
X004662Y005315D01*
X004642Y005281D01*
X004632Y005243D01*
X004632Y004565D01*
X005165Y004565D01*
X005265Y004565D01*
X005265Y005373D01*
X005668Y005373D01*
X005706Y005363D01*
X005740Y005343D01*
X005768Y005315D01*
X005788Y005281D01*
X005798Y005243D01*
X005798Y004565D01*
X005265Y004565D01*
X005265Y004465D01*
X005798Y004465D01*
X005798Y003786D01*
X005788Y003748D01*
X005768Y003714D01*
X005740Y003686D01*
X005706Y003666D01*
X005668Y003656D01*
X005265Y003656D01*
X005265Y004465D01*
X005165Y004465D01*
X005165Y004409D02*
X005265Y004409D01*
X005265Y004311D02*
X005165Y004311D01*
X005165Y004212D02*
X005265Y004212D01*
X005265Y004114D02*
X005165Y004114D01*
X005165Y004015D02*
X005265Y004015D01*
X005265Y003917D02*
X005165Y003917D01*
X005165Y003818D02*
X005265Y003818D01*
X005265Y003720D02*
X005165Y003720D01*
X005771Y003720D02*
X007085Y003720D01*
X007085Y003818D02*
X005798Y003818D01*
X005798Y003917D02*
X007103Y003917D01*
X007157Y004135D02*
X007195Y004125D01*
X007605Y004125D01*
X007605Y004465D01*
X007065Y004465D01*
X007065Y004255D01*
X007075Y004217D01*
X007095Y004182D01*
X007123Y004155D01*
X007157Y004135D01*
X007078Y004212D02*
X005798Y004212D01*
X005798Y004114D02*
X009570Y004114D01*
X009669Y004212D02*
X008232Y004212D01*
X008235Y004217D02*
X008245Y004255D01*
X008245Y004465D01*
X007705Y004465D01*
X007705Y004565D01*
X007605Y004565D01*
X007605Y004905D01*
X007195Y004905D01*
X007157Y004894D01*
X007123Y004875D01*
X007095Y004847D01*
X007075Y004812D01*
X007065Y004774D01*
X007065Y004565D01*
X007605Y004565D01*
X007605Y004465D01*
X007705Y004465D01*
X007705Y004125D01*
X008115Y004125D01*
X008153Y004135D01*
X008187Y004155D01*
X008215Y004182D01*
X008235Y004217D01*
X008245Y004311D02*
X009767Y004311D01*
X009721Y004386D02*
X009755Y004406D01*
X009783Y004434D01*
X009803Y004468D01*
X009813Y004506D01*
X009813Y004694D01*
X009515Y004694D01*
X009515Y004791D01*
X009813Y004791D01*
X009813Y004979D01*
X009803Y005017D01*
X009783Y005051D01*
X009755Y005079D01*
X009740Y005088D01*
X009783Y005131D01*
X009910Y005131D01*
X009940Y005101D01*
X010079Y005043D01*
X010229Y005043D01*
X010368Y005101D01*
X010474Y005207D01*
X010531Y005346D01*
X010531Y005496D01*
X010474Y005635D01*
X010368Y005741D01*
X010229Y005798D01*
X010079Y005798D01*
X009940Y005741D01*
X009910Y005711D01*
X009764Y005711D01*
X009717Y005758D01*
X009216Y005758D01*
X009159Y005702D01*
X008961Y005702D01*
X008904Y005758D01*
X008403Y005758D01*
X008359Y005715D01*
X008225Y005715D01*
X008225Y005718D01*
X008149Y005795D01*
X007161Y005795D01*
X007085Y005718D01*
X007085Y005631D01*
X006491Y005631D01*
X006053Y006068D01*
X004799Y006068D01*
X004799Y006070D01*
X004723Y006146D01*
X004300Y006146D01*
X004224Y006070D01*
X004224Y005647D01*
X004300Y005571D01*
X004723Y005571D01*
X004799Y005647D01*
X004799Y005648D01*
X005879Y005648D01*
X006194Y005334D01*
X006317Y005211D01*
X007085Y005211D01*
X007085Y005131D01*
X007161Y005055D01*
X008149Y005055D01*
X008225Y005131D01*
X008225Y005135D01*
X008334Y005135D01*
X008380Y005088D01*
X008365Y005079D01*
X008337Y005051D01*
X008317Y005017D01*
X008307Y004979D01*
X008307Y004791D01*
X008605Y004791D01*
X008605Y004694D01*
X008307Y004694D01*
X008307Y004506D01*
X008317Y004468D01*
X008337Y004434D01*
X008365Y004406D01*
X008399Y004386D01*
X008437Y004376D01*
X008605Y004376D01*
X008605Y004694D01*
X008702Y004694D01*
X008702Y004376D01*
X008870Y004376D01*
X008908Y004386D01*
X008943Y004406D01*
X008971Y004434D01*
X008990Y004468D01*
X009001Y004506D01*
X009001Y004694D01*
X008702Y004694D01*
X008702Y004791D01*
X009001Y004791D01*
X009001Y004979D01*
X008990Y005017D01*
X008971Y005051D01*
X008943Y005079D01*
X008927Y005088D01*
X008961Y005122D01*
X009159Y005122D01*
X009193Y005088D01*
X009177Y005079D01*
X009149Y005051D01*
X009130Y005017D01*
X009119Y004979D01*
X009119Y004791D01*
X009418Y004791D01*
X009418Y004694D01*
X009515Y004694D01*
X009515Y004376D01*
X009683Y004376D01*
X009721Y004386D01*
X009758Y004409D02*
X009866Y004409D01*
X009813Y004508D02*
X009964Y004508D01*
X010063Y004606D02*
X009813Y004606D01*
X009515Y004606D02*
X009418Y004606D01*
X009418Y004694D02*
X009418Y004376D01*
X009250Y004376D01*
X009212Y004386D01*
X009177Y004406D01*
X009149Y004434D01*
X009130Y004468D01*
X009119Y004506D01*
X009119Y004694D01*
X009418Y004694D01*
X009418Y004705D02*
X008702Y004705D01*
X008605Y004705D02*
X008245Y004705D01*
X008245Y004774D02*
X008245Y004565D01*
X007705Y004565D01*
X007705Y004905D01*
X008115Y004905D01*
X008153Y004894D01*
X008187Y004875D01*
X008215Y004847D01*
X008235Y004812D01*
X008245Y004774D01*
X008237Y004803D02*
X008307Y004803D01*
X008307Y004902D02*
X008126Y004902D01*
X008313Y005000D02*
X005798Y005000D01*
X005798Y004902D02*
X007184Y004902D01*
X007073Y004803D02*
X005798Y004803D01*
X005798Y004705D02*
X007065Y004705D01*
X007065Y004606D02*
X005798Y004606D01*
X005798Y004409D02*
X007065Y004409D01*
X007065Y004311D02*
X005798Y004311D01*
X005265Y004508D02*
X007605Y004508D01*
X007605Y004606D02*
X007705Y004606D01*
X007705Y004508D02*
X008307Y004508D01*
X008307Y004606D02*
X008245Y004606D01*
X008605Y004606D02*
X008702Y004606D01*
X008702Y004508D02*
X008605Y004508D01*
X008605Y004409D02*
X008702Y004409D01*
X008946Y004409D02*
X009174Y004409D01*
X009119Y004508D02*
X009001Y004508D01*
X009001Y004606D02*
X009119Y004606D01*
X009418Y004508D02*
X009515Y004508D01*
X009515Y004409D02*
X009418Y004409D01*
X009515Y004705D02*
X010161Y004705D01*
X010260Y004803D02*
X009813Y004803D01*
X009813Y004902D02*
X010358Y004902D01*
X010457Y005000D02*
X009807Y005000D01*
X009750Y005099D02*
X009945Y005099D01*
X010362Y005099D02*
X010555Y005099D01*
X010464Y005197D02*
X010654Y005197D01*
X010752Y005296D02*
X010510Y005296D01*
X010531Y005394D02*
X010851Y005394D01*
X010949Y005493D02*
X010531Y005493D01*
X010492Y005591D02*
X011017Y005591D01*
X010419Y005690D02*
X014325Y005690D01*
X014423Y005788D02*
X010254Y005788D01*
X010054Y005788D02*
X008155Y005788D01*
X007155Y005788D02*
X006333Y005788D01*
X006235Y005887D02*
X014522Y005887D01*
X014620Y005985D02*
X006136Y005985D01*
X006432Y005690D02*
X007085Y005690D01*
X006134Y005394D02*
X001501Y005394D01*
X001510Y005493D02*
X006035Y005493D01*
X005937Y005591D02*
X004743Y005591D01*
X004280Y005591D02*
X004153Y005591D01*
X004132Y005571D02*
X004208Y005647D01*
X004208Y006070D01*
X004132Y006146D01*
X003710Y006146D01*
X003633Y006070D01*
X003633Y006068D01*
X003534Y006068D01*
X003534Y006160D01*
X003458Y006236D01*
X002956Y006236D01*
X002880Y006160D01*
X002880Y006142D01*
X002874Y006164D01*
X002855Y006198D01*
X002827Y006226D01*
X002793Y006246D01*
X002754Y006256D01*
X002586Y006256D01*
X002586Y005938D01*
X002489Y005938D01*
X002489Y005841D01*
X002191Y005841D01*
X002191Y005653D01*
X002201Y005615D01*
X002221Y005581D01*
X002249Y005553D01*
X002283Y005533D01*
X002321Y005523D01*
X002489Y005523D01*
X002489Y005841D01*
X002586Y005841D01*
X002586Y005523D01*
X002754Y005523D01*
X002793Y005533D01*
X002827Y005553D01*
X002855Y005581D01*
X002874Y005615D01*
X002880Y005637D01*
X002880Y005619D01*
X002956Y005543D01*
X003458Y005543D01*
X003534Y005619D01*
X003534Y005648D01*
X003633Y005648D01*
X003633Y005647D01*
X003710Y005571D01*
X004132Y005571D01*
X004208Y005690D02*
X004224Y005690D01*
X004224Y005788D02*
X004208Y005788D01*
X004208Y005887D02*
X004224Y005887D01*
X004224Y005985D02*
X004208Y005985D01*
X004195Y006084D02*
X004238Y006084D01*
X004785Y006084D02*
X014719Y006084D01*
X014817Y006182D02*
X003512Y006182D01*
X003534Y006084D02*
X003647Y006084D01*
X002902Y006182D02*
X002864Y006182D01*
X002586Y006182D02*
X002489Y006182D01*
X002489Y006256D02*
X002321Y006256D01*
X002283Y006246D01*
X002249Y006226D01*
X002221Y006198D01*
X002201Y006164D01*
X002191Y006126D01*
X002191Y005938D01*
X002489Y005938D01*
X002489Y006256D01*
X002212Y006182D02*
X001485Y006182D01*
X001534Y006231D02*
X001393Y006091D01*
X001209Y006015D01*
X001011Y006015D01*
X000827Y006091D01*
X000686Y006231D01*
X000610Y006415D01*
X000610Y006614D01*
X000686Y006798D01*
X000827Y006938D01*
X001011Y007015D01*
X001209Y007015D01*
X001393Y006938D01*
X001534Y006798D01*
X001610Y006614D01*
X001610Y006415D01*
X001534Y006231D01*
X001554Y006281D02*
X014916Y006281D01*
X015014Y006379D02*
X001595Y006379D01*
X001610Y006478D02*
X020074Y006478D01*
X020052Y006576D02*
X001610Y006576D01*
X001585Y006675D02*
X020052Y006675D01*
X019984Y006773D02*
X001544Y006773D01*
X001460Y006872D02*
X019974Y006872D01*
X019974Y006970D02*
X017880Y006970D01*
X017910Y007069D02*
X019974Y007069D01*
X019974Y007167D02*
X017910Y007167D01*
X017910Y007266D02*
X019994Y007266D01*
X020735Y007266D02*
X020772Y007266D01*
X020772Y007167D02*
X020735Y007167D01*
X021022Y007266D02*
X021649Y007266D01*
X021649Y007364D02*
X017910Y007364D01*
X017910Y007463D02*
X021649Y007463D01*
X021656Y007561D02*
X017910Y007561D01*
X017910Y007660D02*
X021688Y007660D01*
X021655Y007758D02*
X017910Y007758D01*
X017910Y007857D02*
X021657Y007857D01*
X021698Y007955D02*
X017910Y007955D01*
X017178Y007955D02*
X016926Y007955D01*
X016926Y007857D02*
X017178Y007857D01*
X017178Y007758D02*
X016926Y007758D01*
X016926Y007660D02*
X017178Y007660D01*
X017178Y007561D02*
X016926Y007561D01*
X016926Y007463D02*
X017178Y007463D01*
X017178Y007364D02*
X016926Y007364D01*
X016926Y007266D02*
X017178Y007266D01*
X017178Y007167D02*
X016926Y007167D01*
X016926Y007069D02*
X017178Y007069D01*
X017208Y006970D02*
X016896Y006970D01*
X016224Y006970D02*
X015912Y006970D01*
X015942Y007069D02*
X016194Y007069D01*
X016194Y007167D02*
X015942Y007167D01*
X015942Y007266D02*
X016194Y007266D01*
X016194Y007364D02*
X015942Y007364D01*
X015942Y007463D02*
X016194Y007463D01*
X016194Y007561D02*
X015942Y007561D01*
X015942Y007660D02*
X016194Y007660D01*
X016194Y007758D02*
X015942Y007758D01*
X015942Y007857D02*
X016194Y007857D01*
X016194Y007955D02*
X015942Y007955D01*
X015210Y007955D02*
X014233Y007955D01*
X014110Y007955D02*
X014010Y007955D01*
X013887Y007955D02*
X013377Y007955D01*
X013475Y007857D02*
X013717Y007857D01*
X013630Y007758D02*
X013521Y007758D01*
X013560Y007660D02*
X013577Y007660D01*
X014010Y007660D02*
X014110Y007660D01*
X014110Y007758D02*
X014010Y007758D01*
X014010Y007857D02*
X014110Y007857D01*
X014403Y007857D02*
X015210Y007857D01*
X015210Y007758D02*
X014490Y007758D01*
X014543Y007660D02*
X015210Y007660D01*
X015210Y007561D02*
X014571Y007561D01*
X014571Y007364D02*
X015210Y007364D01*
X015210Y007266D02*
X014542Y007266D01*
X014487Y007167D02*
X015210Y007167D01*
X015210Y007069D02*
X014399Y007069D01*
X014221Y006970D02*
X015240Y006970D01*
X014110Y006970D02*
X014010Y006970D01*
X014010Y007069D02*
X014110Y007069D01*
X013899Y006970D02*
X012173Y006970D01*
X012159Y006965D02*
X012343Y007041D01*
X012484Y007181D01*
X012560Y007365D01*
X012560Y007564D01*
X012484Y007748D01*
X012343Y007888D01*
X012159Y007965D01*
X011961Y007965D01*
X011777Y007888D01*
X011636Y007748D01*
X011560Y007564D01*
X011560Y007365D01*
X011636Y007181D01*
X011777Y007041D01*
X011961Y006965D01*
X012159Y006965D01*
X011947Y006970D02*
X010173Y006970D01*
X010159Y006965D02*
X010343Y007041D01*
X010484Y007181D01*
X010560Y007365D01*
X010560Y007564D01*
X010484Y007748D01*
X010343Y007888D01*
X010159Y007965D01*
X009961Y007965D01*
X009777Y007888D01*
X009636Y007748D01*
X009560Y007564D01*
X009560Y007365D01*
X009636Y007181D01*
X009777Y007041D01*
X009961Y006965D01*
X010159Y006965D01*
X009947Y006970D02*
X008173Y006970D01*
X008159Y006965D02*
X008343Y007041D01*
X008484Y007181D01*
X008560Y007365D01*
X008560Y007564D01*
X008484Y007748D01*
X008343Y007888D01*
X008159Y007965D01*
X007961Y007965D01*
X007777Y007888D01*
X007636Y007748D01*
X007560Y007564D01*
X007560Y007365D01*
X007636Y007181D01*
X007777Y007041D01*
X007961Y006965D01*
X008159Y006965D01*
X007947Y006970D02*
X006173Y006970D01*
X006159Y006965D02*
X006343Y007041D01*
X006484Y007181D01*
X006560Y007365D01*
X006560Y007564D01*
X006484Y007748D01*
X006343Y007888D01*
X006159Y007965D01*
X005961Y007965D01*
X005777Y007888D01*
X005636Y007748D01*
X005560Y007564D01*
X005560Y007365D01*
X005636Y007181D01*
X005777Y007041D01*
X005961Y006965D01*
X006159Y006965D01*
X005947Y006970D02*
X004173Y006970D01*
X004159Y006965D02*
X004343Y007041D01*
X004484Y007181D01*
X004560Y007365D01*
X004560Y007564D01*
X004484Y007748D01*
X004343Y007888D01*
X004159Y007965D01*
X003961Y007965D01*
X003777Y007888D01*
X003636Y007748D01*
X003560Y007564D01*
X003560Y007365D01*
X003636Y007181D01*
X003777Y007041D01*
X003961Y006965D01*
X004159Y006965D01*
X003947Y006970D02*
X002173Y006970D01*
X002159Y006965D02*
X002343Y007041D01*
X002484Y007181D01*
X002560Y007365D01*
X002560Y007564D01*
X002484Y007748D01*
X002343Y007888D01*
X002159Y007965D01*
X001961Y007965D01*
X001777Y007888D01*
X001636Y007748D01*
X001560Y007564D01*
X001560Y007365D01*
X001636Y007181D01*
X001777Y007041D01*
X001961Y006965D01*
X002159Y006965D01*
X001947Y006970D02*
X001317Y006970D01*
X001169Y007069D02*
X001749Y007069D01*
X001650Y007167D02*
X001370Y007167D01*
X001468Y007266D02*
X001601Y007266D01*
X001560Y007364D02*
X001518Y007364D01*
X001559Y007463D02*
X001560Y007463D01*
X001560Y007561D02*
X001560Y007561D01*
X001560Y007660D02*
X001600Y007660D01*
X001646Y007758D02*
X001521Y007758D01*
X001475Y007857D02*
X001745Y007857D01*
X001938Y007955D02*
X001377Y007955D01*
X000743Y007955D02*
X000560Y007955D01*
X000560Y007857D02*
X000645Y007857D01*
X000599Y007758D02*
X000560Y007758D01*
X000560Y007660D02*
X000560Y007660D01*
X000560Y007561D02*
X000560Y007561D01*
X000560Y007463D02*
X000561Y007463D01*
X000560Y007364D02*
X000602Y007364D01*
X000560Y007266D02*
X000652Y007266D01*
X000560Y007167D02*
X000750Y007167D01*
X000560Y007069D02*
X000951Y007069D01*
X000903Y006970D02*
X000560Y006970D01*
X000560Y006872D02*
X000760Y006872D01*
X000676Y006773D02*
X000560Y006773D01*
X000560Y006675D02*
X000635Y006675D01*
X000610Y006576D02*
X000560Y006576D01*
X000560Y006478D02*
X000610Y006478D01*
X000625Y006379D02*
X000560Y006379D01*
X000560Y006281D02*
X000666Y006281D01*
X000735Y006182D02*
X000560Y006182D01*
X000560Y006084D02*
X000844Y006084D01*
X000839Y005985D02*
X000560Y005985D01*
X000560Y005887D02*
X000675Y005887D01*
X000582Y005788D02*
X000560Y005788D01*
X001181Y005985D02*
X002191Y005985D01*
X002191Y006084D02*
X001376Y006084D01*
X001345Y005887D02*
X002489Y005887D01*
X002489Y005985D02*
X002586Y005985D01*
X002586Y006084D02*
X002489Y006084D01*
X002489Y005788D02*
X002586Y005788D01*
X002586Y005690D02*
X002489Y005690D01*
X002191Y005690D02*
X001479Y005690D01*
X001438Y005788D02*
X002191Y005788D01*
X002215Y005591D02*
X001510Y005591D01*
X001460Y005296D02*
X004650Y005296D01*
X004632Y005197D02*
X001400Y005197D01*
X001301Y005099D02*
X002473Y005099D01*
X002462Y005000D02*
X001299Y005000D01*
X001160Y005000D02*
X001060Y005000D01*
X000966Y005015D02*
X000910Y004996D01*
X000837Y004959D01*
X000771Y004911D01*
X000713Y004853D01*
X000665Y004787D01*
X000628Y004714D01*
X000603Y004636D01*
X000591Y004565D01*
X001060Y004565D01*
X001060Y004465D01*
X000591Y004465D01*
X000603Y004393D01*
X000628Y004315D01*
X000665Y004242D01*
X000713Y004176D01*
X000771Y004118D01*
X000837Y004070D01*
X000910Y004033D01*
X000966Y004015D01*
X000911Y004015D01*
X000727Y003938D01*
X000586Y003798D01*
X000560Y003735D01*
X000560Y005294D01*
X000586Y005231D01*
X000727Y005091D01*
X000911Y005015D01*
X000966Y005015D01*
X000921Y005000D02*
X000560Y005000D01*
X000560Y004902D02*
X000762Y004902D01*
X001060Y004902D02*
X001160Y004902D01*
X001458Y004902D02*
X002462Y004902D01*
X002788Y004902D02*
X002888Y004902D01*
X002888Y005000D02*
X002788Y005000D01*
X002788Y005099D02*
X002888Y005099D01*
X003203Y005099D02*
X003792Y005099D01*
X003781Y005000D02*
X003214Y005000D01*
X003214Y004902D02*
X003781Y004902D01*
X004107Y004902D02*
X004207Y004902D01*
X004207Y005000D02*
X004107Y005000D01*
X004107Y005099D02*
X004207Y005099D01*
X004522Y005099D02*
X004632Y005099D01*
X004632Y005000D02*
X004533Y005000D01*
X004533Y004902D02*
X004632Y004902D01*
X005165Y004902D02*
X005265Y004902D01*
X005265Y005000D02*
X005165Y005000D01*
X005165Y005099D02*
X005265Y005099D01*
X005265Y005197D02*
X005165Y005197D01*
X005165Y005296D02*
X005265Y005296D01*
X005779Y005296D02*
X006232Y005296D01*
X005798Y005197D02*
X007085Y005197D01*
X007117Y005099D02*
X005798Y005099D01*
X005265Y004803D02*
X005165Y004803D01*
X005165Y004705D02*
X005265Y004705D01*
X005265Y004606D02*
X005165Y004606D01*
X004632Y004606D02*
X004533Y004606D01*
X004533Y004705D02*
X004632Y004705D01*
X004632Y004803D02*
X004207Y004803D01*
X004107Y004803D02*
X002888Y004803D01*
X002788Y004803D02*
X002374Y004803D01*
X002407Y004705D02*
X002462Y004705D01*
X002462Y004606D02*
X002407Y004606D01*
X002482Y004508D02*
X002108Y004508D01*
X002012Y004508D02*
X001160Y004508D01*
X001160Y004465D02*
X001160Y003996D01*
X001201Y004002D01*
X001183Y003984D01*
X001109Y004015D01*
X001060Y004015D01*
X001160Y004015D01*
X001060Y004015D02*
X001060Y004465D01*
X001160Y004465D01*
X001160Y004409D02*
X001060Y004409D01*
X001060Y004311D02*
X001160Y004311D01*
X001160Y004212D02*
X001060Y004212D01*
X001060Y004114D02*
X001160Y004114D01*
X001443Y004114D02*
X001754Y004114D01*
X001726Y004212D02*
X001533Y004212D01*
X001590Y004311D02*
X001713Y004311D01*
X001713Y004409D02*
X001620Y004409D01*
X001622Y004606D02*
X001713Y004606D01*
X001713Y004705D02*
X001595Y004705D01*
X001543Y004803D02*
X001746Y004803D01*
X002012Y004803D02*
X002108Y004803D01*
X002108Y004705D02*
X002012Y004705D01*
X002012Y004606D02*
X002108Y004606D01*
X002407Y004409D02*
X002482Y004409D01*
X002482Y004311D02*
X002407Y004311D01*
X002394Y004212D02*
X002482Y004212D01*
X002394Y004114D02*
X002366Y004114D01*
X003194Y004015D02*
X003801Y004015D01*
X003801Y004508D02*
X003194Y004508D01*
X003214Y004606D02*
X003781Y004606D01*
X003781Y004705D02*
X003214Y004705D01*
X001160Y004705D02*
X001060Y004705D01*
X001060Y004803D02*
X001160Y004803D01*
X001160Y004606D02*
X001060Y004606D01*
X001060Y004508D02*
X000560Y004508D01*
X000560Y004606D02*
X000598Y004606D01*
X000625Y004705D02*
X000560Y004705D01*
X000560Y004803D02*
X000677Y004803D01*
X000719Y005099D02*
X000560Y005099D01*
X000560Y005197D02*
X000620Y005197D01*
X002489Y005591D02*
X002586Y005591D01*
X002861Y005591D02*
X002908Y005591D01*
X003506Y005591D02*
X003689Y005591D01*
X000600Y004409D02*
X000560Y004409D01*
X000560Y004311D02*
X000630Y004311D01*
X000687Y004212D02*
X000560Y004212D01*
X000560Y004114D02*
X000777Y004114D01*
X000965Y004015D02*
X000560Y004015D01*
X000560Y003917D02*
X000705Y003917D01*
X000606Y003818D02*
X000560Y003818D01*
X002386Y003424D02*
X002504Y003424D01*
X002462Y003326D02*
X002407Y003326D01*
X002788Y003326D02*
X002888Y003326D01*
X002888Y003424D02*
X002788Y003424D01*
X003172Y003424D02*
X003823Y003424D01*
X003781Y003326D02*
X003214Y003326D01*
X003214Y003227D02*
X003781Y003227D01*
X004107Y003227D02*
X004207Y003227D01*
X004207Y003129D02*
X008307Y003129D01*
X008307Y003030D02*
X004533Y003030D01*
X004533Y002932D02*
X008605Y002932D01*
X008702Y002932D02*
X009418Y002932D01*
X009515Y002932D02*
X011398Y002932D01*
X011398Y003030D02*
X009813Y003030D01*
X009813Y003129D02*
X011398Y003129D01*
X011601Y003227D02*
X009790Y003227D01*
X009790Y003326D02*
X011699Y003326D01*
X011798Y003424D02*
X009793Y003424D01*
X009800Y003523D02*
X011896Y003523D01*
X011995Y003621D02*
X009898Y003621D01*
X009997Y003720D02*
X012093Y003720D01*
X012192Y003818D02*
X010095Y003818D01*
X010194Y003917D02*
X012290Y003917D01*
X012353Y004015D02*
X010292Y004015D01*
X010391Y004114D02*
X012334Y004114D01*
X012321Y004212D02*
X010489Y004212D01*
X010588Y004311D02*
X012321Y004311D01*
X012321Y004409D02*
X010686Y004409D01*
X010785Y004508D02*
X012321Y004508D01*
X012321Y004606D02*
X010883Y004606D01*
X010982Y004705D02*
X012321Y004705D01*
X012331Y004803D02*
X011080Y004803D01*
X011179Y004902D02*
X012381Y004902D01*
X012479Y005000D02*
X011277Y005000D01*
X011376Y005099D02*
X012578Y005099D01*
X012901Y004600D02*
X014352Y004600D01*
X014328Y004575D01*
X014328Y004192D01*
X014404Y004116D01*
X014493Y004116D01*
X015025Y003584D01*
X015107Y003502D01*
X015213Y003458D01*
X015839Y003458D01*
X015839Y003014D01*
X015743Y003055D01*
X014752Y003055D01*
X014646Y003010D01*
X014521Y002885D01*
X014439Y002804D01*
X014395Y002697D01*
X014395Y002210D01*
X014356Y002171D01*
X014356Y002177D01*
X014048Y002177D01*
X014048Y002215D01*
X014356Y002215D01*
X014356Y002354D01*
X014346Y002392D01*
X014326Y002426D01*
X014298Y002454D01*
X014283Y002463D01*
X014336Y002516D01*
X014336Y002900D01*
X014260Y002976D01*
X014016Y002976D01*
X013876Y003116D01*
X014260Y003116D01*
X014336Y003192D01*
X014336Y003575D01*
X014272Y003640D01*
X014336Y003704D01*
X014336Y004087D01*
X014260Y004163D01*
X014058Y004163D01*
X013932Y004289D01*
X013809Y004412D01*
X013617Y004412D01*
X013617Y004465D01*
X013541Y004541D01*
X013188Y004541D01*
X013171Y004551D01*
X013133Y004561D01*
X012999Y004561D01*
X012999Y004216D01*
X012971Y004216D01*
X012971Y004561D01*
X012901Y004561D01*
X012901Y004600D01*
X012971Y004508D02*
X012999Y004508D01*
X012999Y004409D02*
X012971Y004409D01*
X012971Y004311D02*
X012999Y004311D01*
X013574Y004508D02*
X014328Y004508D01*
X014328Y004409D02*
X013812Y004409D01*
X013911Y004311D02*
X014328Y004311D01*
X014328Y004212D02*
X014009Y004212D01*
X014309Y004114D02*
X014495Y004114D01*
X014593Y004015D02*
X014336Y004015D01*
X014336Y003917D02*
X014692Y003917D01*
X014790Y003818D02*
X014336Y003818D01*
X014336Y003720D02*
X014889Y003720D01*
X014987Y003621D02*
X014290Y003621D01*
X014336Y003523D02*
X015086Y003523D01*
X014336Y003424D02*
X015839Y003424D01*
X015839Y003326D02*
X014336Y003326D01*
X014336Y003227D02*
X015839Y003227D01*
X015839Y003129D02*
X014272Y003129D01*
X013962Y003030D02*
X014693Y003030D01*
X014567Y002932D02*
X014304Y002932D01*
X014336Y002833D02*
X014468Y002833D01*
X014410Y002735D02*
X014336Y002735D01*
X014336Y002636D02*
X014395Y002636D01*
X014395Y002538D02*
X014336Y002538D01*
X014313Y002439D02*
X014395Y002439D01*
X014395Y002341D02*
X014356Y002341D01*
X014356Y002242D02*
X014395Y002242D01*
X014010Y002215D02*
X014010Y002177D01*
X013702Y002177D01*
X013702Y002039D01*
X013712Y002000D01*
X013732Y001966D01*
X013759Y001938D01*
X013794Y001919D01*
X013828Y001910D01*
X013777Y001888D01*
X013636Y001748D01*
X013560Y001564D01*
X013560Y001515D01*
X013110Y001515D01*
X013110Y001615D01*
X013579Y001615D01*
X013567Y001686D01*
X013542Y001764D01*
X013505Y001837D01*
X013457Y001903D01*
X013399Y001961D01*
X013333Y002009D01*
X013260Y002046D01*
X013247Y002051D01*
X013343Y002091D01*
X013484Y002231D01*
X013560Y002415D01*
X013560Y002614D01*
X013484Y002798D01*
X013343Y002938D01*
X013201Y002998D01*
X013401Y002998D01*
X013722Y002677D01*
X013722Y002516D01*
X013775Y002463D01*
X013759Y002454D01*
X013732Y002426D01*
X013712Y002392D01*
X013702Y002354D01*
X013702Y002215D01*
X014010Y002215D01*
X013702Y002242D02*
X013488Y002242D01*
X013529Y002341D02*
X013702Y002341D01*
X013745Y002439D02*
X013560Y002439D01*
X013560Y002538D02*
X013722Y002538D01*
X013722Y002636D02*
X013551Y002636D01*
X013510Y002735D02*
X013664Y002735D01*
X013565Y002833D02*
X013449Y002833D01*
X013467Y002932D02*
X013350Y002932D01*
X012332Y002833D02*
X011972Y002833D01*
X011972Y002735D02*
X012233Y002735D01*
X012321Y002932D02*
X011972Y002932D01*
X011997Y003030D02*
X012321Y003030D01*
X012321Y003129D02*
X012096Y003129D01*
X012194Y003227D02*
X012321Y003227D01*
X012321Y003326D02*
X012293Y003326D01*
X009472Y004015D02*
X005798Y004015D01*
X007085Y003424D02*
X004491Y003424D01*
X004533Y003326D02*
X007085Y003326D01*
X008330Y003227D02*
X004533Y003227D01*
X004107Y003129D02*
X002888Y003129D01*
X002888Y003227D02*
X002788Y003227D01*
X002788Y003129D02*
X002108Y003129D01*
X002407Y003227D02*
X002462Y003227D01*
X002462Y003030D02*
X002407Y003030D01*
X002407Y002932D02*
X002462Y002932D01*
X002480Y002833D02*
X002383Y002833D01*
X003196Y002833D02*
X003799Y002833D01*
X003781Y002932D02*
X003214Y002932D01*
X003214Y003030D02*
X003781Y003030D01*
X004515Y002833D02*
X008307Y002833D01*
X008307Y002735D02*
X004513Y002735D01*
X004207Y003326D02*
X004107Y003326D01*
X004107Y003424D02*
X004207Y003424D01*
X007605Y004212D02*
X007705Y004212D01*
X007705Y004311D02*
X007605Y004311D01*
X007605Y004409D02*
X007705Y004409D01*
X008245Y004409D02*
X008362Y004409D01*
X007705Y004705D02*
X007605Y004705D01*
X007605Y004803D02*
X007705Y004803D01*
X007705Y004902D02*
X007605Y004902D01*
X008193Y005099D02*
X008370Y005099D01*
X008938Y005099D02*
X009182Y005099D01*
X009125Y005000D02*
X008995Y005000D01*
X009001Y004902D02*
X009119Y004902D01*
X009119Y004803D02*
X009001Y004803D01*
X008934Y003917D02*
X009186Y003917D01*
X008374Y003917D02*
X008207Y003917D01*
X008977Y003227D02*
X009143Y003227D01*
X009119Y003129D02*
X009001Y003129D01*
X009001Y003030D02*
X009119Y003030D01*
X012203Y001947D02*
X012707Y001947D01*
X012623Y001848D02*
X012384Y001848D01*
X012482Y001750D02*
X012573Y001750D01*
X012547Y001651D02*
X012524Y001651D01*
X012560Y001553D02*
X013010Y001553D01*
X013010Y001515D02*
X013110Y001515D01*
X013110Y001046D01*
X013182Y001057D01*
X013260Y001083D01*
X013333Y001120D01*
X013399Y001168D01*
X013457Y001226D01*
X013505Y001292D01*
X013542Y001365D01*
X013560Y001421D01*
X013560Y001365D01*
X013636Y001181D01*
X013777Y001041D01*
X013840Y001015D01*
X012280Y001015D01*
X012343Y001041D01*
X012484Y001181D01*
X012560Y001365D01*
X012560Y001421D01*
X012578Y001365D01*
X012615Y001292D01*
X012663Y001226D01*
X012721Y001168D01*
X012787Y001120D01*
X012860Y001083D01*
X012938Y001057D01*
X013010Y001046D01*
X013010Y001515D01*
X013010Y001454D02*
X013110Y001454D01*
X013110Y001356D02*
X013010Y001356D01*
X013010Y001257D02*
X013110Y001257D01*
X013110Y001159D02*
X013010Y001159D01*
X013010Y001060D02*
X013110Y001060D01*
X013190Y001060D02*
X013757Y001060D01*
X013659Y001159D02*
X013386Y001159D01*
X013479Y001257D02*
X013605Y001257D01*
X013564Y001356D02*
X013537Y001356D01*
X013560Y001553D02*
X013110Y001553D01*
X013573Y001651D02*
X013596Y001651D01*
X013638Y001750D02*
X013547Y001750D01*
X013497Y001848D02*
X013736Y001848D01*
X013751Y001947D02*
X013413Y001947D01*
X013262Y002045D02*
X013702Y002045D01*
X013702Y002144D02*
X013396Y002144D01*
X015666Y002144D02*
X017454Y002144D01*
X017454Y002242D02*
X017160Y002242D01*
X017118Y002225D02*
X017224Y002269D01*
X017306Y002350D01*
X017306Y002350D01*
X017454Y002498D01*
X017454Y001076D01*
X017515Y001015D01*
X015605Y001015D01*
X015666Y001076D01*
X015666Y002373D01*
X015771Y002269D01*
X015877Y002225D01*
X017118Y002225D01*
X017296Y002341D02*
X017454Y002341D01*
X017454Y002439D02*
X017395Y002439D01*
X017554Y002598D02*
X018349Y003394D01*
X018349Y003394D01*
X018431Y003475D01*
X018475Y003582D01*
X018475Y004168D01*
X018549Y004094D01*
X019089Y004094D01*
X019143Y004147D01*
X019152Y004132D01*
X019180Y004104D01*
X019214Y004084D01*
X019252Y004074D01*
X019440Y004074D01*
X019440Y004372D01*
X019537Y004372D01*
X019537Y004074D01*
X019725Y004074D01*
X019763Y004084D01*
X019797Y004104D01*
X019825Y004132D01*
X019845Y004166D01*
X019855Y004204D01*
X019855Y004372D01*
X019537Y004372D01*
X019537Y004469D01*
X019855Y004469D01*
X019855Y004548D01*
X020036Y004366D01*
X020036Y004221D01*
X020112Y004145D01*
X020496Y004145D01*
X020549Y004198D01*
X020558Y004183D01*
X020586Y004155D01*
X020620Y004135D01*
X020658Y004125D01*
X020797Y004125D01*
X020797Y004433D01*
X020835Y004433D01*
X020835Y004471D01*
X021104Y004471D01*
X021104Y004648D01*
X021442Y004648D01*
X021819Y004271D01*
X021819Y003919D01*
X021791Y003892D01*
X021749Y003789D01*
X021749Y003678D01*
X021791Y003575D01*
X021870Y003496D01*
X021973Y003453D01*
X022084Y003453D01*
X022187Y003496D01*
X022266Y003575D01*
X022309Y003678D01*
X022309Y003789D01*
X022266Y003892D01*
X022239Y003919D01*
X022239Y004445D01*
X021739Y004945D01*
X021616Y005068D01*
X020848Y005068D01*
X020748Y005169D01*
X020843Y005169D01*
X020843Y005467D01*
X020900Y005467D01*
X020900Y005169D01*
X021049Y005169D01*
X021087Y005179D01*
X021121Y005199D01*
X021149Y005227D01*
X021169Y005261D01*
X021179Y005299D01*
X021179Y005467D01*
X020900Y005467D01*
X020900Y005525D01*
X021179Y005525D01*
X021179Y005640D01*
X022610Y005640D01*
X022702Y005678D01*
X022772Y005748D01*
X023414Y006390D01*
X023560Y006390D01*
X023560Y002052D01*
X023497Y002052D01*
X023423Y001978D01*
X023349Y002052D01*
X022907Y002052D01*
X022833Y001978D01*
X022759Y002052D01*
X022316Y002052D01*
X022242Y001978D01*
X022168Y002052D01*
X021726Y002052D01*
X021649Y001976D01*
X021649Y001475D01*
X021726Y001398D01*
X022168Y001398D01*
X022242Y001472D01*
X022316Y001398D01*
X022759Y001398D01*
X022833Y001472D01*
X022907Y001398D01*
X023349Y001398D01*
X023423Y001472D01*
X023497Y001398D01*
X023560Y001398D01*
X023560Y001015D01*
X018282Y001015D01*
X018344Y001076D01*
X018344Y002522D01*
X018267Y002598D01*
X017554Y002598D01*
X017592Y002636D02*
X023560Y002636D01*
X023560Y002538D02*
X018328Y002538D01*
X018344Y002439D02*
X023560Y002439D01*
X023560Y002341D02*
X018344Y002341D01*
X018344Y002242D02*
X023560Y002242D01*
X023560Y002144D02*
X018344Y002144D01*
X018344Y002045D02*
X021719Y002045D01*
X021649Y001947D02*
X018344Y001947D01*
X018344Y001848D02*
X021649Y001848D01*
X021649Y001750D02*
X018344Y001750D01*
X018344Y001651D02*
X021649Y001651D01*
X021649Y001553D02*
X018344Y001553D01*
X018344Y001454D02*
X021670Y001454D01*
X022224Y001454D02*
X022260Y001454D01*
X022814Y001454D02*
X022851Y001454D01*
X023405Y001454D02*
X023442Y001454D01*
X023560Y001356D02*
X018344Y001356D01*
X018344Y001257D02*
X023560Y001257D01*
X023560Y001159D02*
X018344Y001159D01*
X018328Y001060D02*
X023560Y001060D01*
X023490Y002045D02*
X023356Y002045D01*
X022900Y002045D02*
X022766Y002045D01*
X022309Y002045D02*
X022175Y002045D01*
X021554Y002761D02*
X021052Y002761D01*
X020976Y002837D01*
X020976Y003279D01*
X021052Y003355D01*
X021554Y003355D01*
X021630Y003279D01*
X021630Y002837D01*
X021554Y002761D01*
X021626Y002833D02*
X023560Y002833D01*
X023560Y002735D02*
X017690Y002735D01*
X017789Y002833D02*
X020980Y002833D01*
X020976Y002932D02*
X017887Y002932D01*
X017986Y003030D02*
X020976Y003030D01*
X020976Y003129D02*
X018084Y003129D01*
X018183Y003227D02*
X020976Y003227D01*
X021023Y003326D02*
X018281Y003326D01*
X018380Y003424D02*
X021038Y003424D01*
X021052Y003410D02*
X020976Y003486D01*
X020976Y003929D01*
X021052Y004005D01*
X021554Y004005D01*
X021630Y003929D01*
X021630Y003486D01*
X021554Y003410D01*
X021052Y003410D01*
X020976Y003523D02*
X018450Y003523D01*
X018475Y003621D02*
X020976Y003621D01*
X020976Y003720D02*
X018475Y003720D01*
X018475Y003818D02*
X020976Y003818D01*
X020976Y003917D02*
X018475Y003917D01*
X018475Y004015D02*
X021819Y004015D01*
X021816Y003917D02*
X021630Y003917D01*
X021630Y003818D02*
X021761Y003818D01*
X021749Y003720D02*
X021630Y003720D01*
X021630Y003621D02*
X021772Y003621D01*
X021844Y003523D02*
X021630Y003523D01*
X021568Y003424D02*
X023560Y003424D01*
X023560Y003326D02*
X021583Y003326D01*
X021630Y003227D02*
X023560Y003227D01*
X023560Y003129D02*
X021630Y003129D01*
X021630Y003030D02*
X023560Y003030D01*
X023560Y002932D02*
X021630Y002932D01*
X022214Y003523D02*
X023560Y003523D01*
X023560Y003621D02*
X022285Y003621D01*
X022309Y003720D02*
X023560Y003720D01*
X023560Y003818D02*
X022297Y003818D01*
X022241Y003917D02*
X023560Y003917D01*
X023560Y004015D02*
X022239Y004015D01*
X022239Y004114D02*
X023560Y004114D01*
X023560Y004212D02*
X022239Y004212D01*
X022239Y004311D02*
X023560Y004311D01*
X023560Y004409D02*
X022239Y004409D01*
X022176Y004508D02*
X023560Y004508D01*
X023560Y004606D02*
X022078Y004606D01*
X021979Y004705D02*
X023560Y004705D01*
X023560Y004803D02*
X021881Y004803D01*
X021782Y004902D02*
X023560Y004902D01*
X023560Y005000D02*
X021684Y005000D01*
X021118Y005197D02*
X023560Y005197D01*
X023560Y005099D02*
X020818Y005099D01*
X020843Y005197D02*
X020900Y005197D01*
X020900Y005296D02*
X020843Y005296D01*
X020843Y005394D02*
X020900Y005394D01*
X020843Y005467D02*
X020564Y005467D01*
X020564Y005352D01*
X020411Y005505D01*
X020411Y005640D01*
X020564Y005640D01*
X020564Y005525D01*
X020843Y005525D01*
X020843Y005467D01*
X020843Y005493D02*
X020424Y005493D01*
X020411Y005591D02*
X020564Y005591D01*
X020900Y005493D02*
X023560Y005493D01*
X023560Y005591D02*
X021179Y005591D01*
X021179Y005394D02*
X023560Y005394D01*
X023560Y005296D02*
X021178Y005296D01*
X020564Y005394D02*
X020522Y005394D01*
X019403Y005000D02*
X019069Y005000D01*
X019069Y004902D02*
X019501Y004902D01*
X019537Y004768D02*
X019635Y004768D01*
X019209Y005194D01*
X019073Y005137D01*
X019069Y005137D01*
X019069Y004748D01*
X019089Y004748D01*
X019143Y004694D01*
X019152Y004710D01*
X019180Y004738D01*
X019214Y004757D01*
X019252Y004768D01*
X019440Y004768D01*
X019440Y004469D01*
X019537Y004469D01*
X019537Y004768D01*
X019537Y004705D02*
X019440Y004705D01*
X019440Y004606D02*
X019537Y004606D01*
X019537Y004508D02*
X019440Y004508D01*
X019537Y004409D02*
X019994Y004409D01*
X020036Y004311D02*
X019855Y004311D01*
X019855Y004212D02*
X020045Y004212D01*
X019807Y004114D02*
X021819Y004114D01*
X021819Y004212D02*
X021091Y004212D01*
X021093Y004217D02*
X021104Y004255D01*
X021104Y004433D01*
X020835Y004433D01*
X020835Y004125D01*
X020973Y004125D01*
X021012Y004135D01*
X021046Y004155D01*
X021074Y004183D01*
X021093Y004217D01*
X021104Y004311D02*
X021780Y004311D01*
X021681Y004409D02*
X021104Y004409D01*
X021104Y004508D02*
X021583Y004508D01*
X021484Y004606D02*
X021104Y004606D01*
X020835Y004409D02*
X020797Y004409D01*
X020797Y004311D02*
X020835Y004311D01*
X020835Y004212D02*
X020797Y004212D01*
X019895Y004508D02*
X019855Y004508D01*
X019537Y004311D02*
X019440Y004311D01*
X019440Y004212D02*
X019537Y004212D01*
X019537Y004114D02*
X019440Y004114D01*
X019170Y004114D02*
X019109Y004114D01*
X018529Y004114D02*
X018475Y004114D01*
X017895Y004114D02*
X017301Y004114D01*
X017301Y004212D02*
X017895Y004212D01*
X017895Y004311D02*
X017301Y004311D01*
X017301Y004409D02*
X017895Y004409D01*
X017895Y004508D02*
X017301Y004508D01*
X017301Y004575D02*
X017290Y004613D01*
X017271Y004647D01*
X017243Y004675D01*
X017208Y004695D01*
X017170Y004705D01*
X017002Y004705D01*
X017002Y003796D01*
X017301Y003796D01*
X017301Y004575D01*
X017292Y004606D02*
X017895Y004606D01*
X017895Y004705D02*
X017172Y004705D01*
X017254Y004759D02*
X017834Y004759D01*
X017895Y004819D01*
X017895Y003760D01*
X017301Y003165D01*
X017301Y003699D01*
X017002Y003699D01*
X017002Y003796D01*
X016905Y003796D01*
X016905Y003699D01*
X016607Y003699D01*
X016607Y002921D01*
X016617Y002883D01*
X016637Y002849D01*
X016665Y002821D01*
X016693Y002805D01*
X016055Y002805D01*
X016049Y002811D01*
X016417Y002811D01*
X016493Y002887D01*
X016493Y004609D01*
X016417Y004685D01*
X015916Y004685D01*
X015839Y004609D01*
X015839Y004038D01*
X015391Y004038D01*
X014942Y004487D01*
X014942Y004575D01*
X014878Y004640D01*
X014942Y004704D01*
X014942Y004793D01*
X015201Y005051D01*
X015210Y005051D01*
X015210Y004835D01*
X015286Y004759D01*
X015866Y004759D01*
X015942Y004835D01*
X015942Y005847D01*
X016194Y005596D01*
X016194Y004835D01*
X016270Y004759D01*
X016850Y004759D01*
X016926Y004835D01*
X016926Y005596D01*
X017178Y005847D01*
X017178Y004835D01*
X017254Y004759D01*
X017210Y004803D02*
X016895Y004803D01*
X016905Y004705D02*
X016737Y004705D01*
X016699Y004695D01*
X016665Y004675D01*
X016637Y004647D01*
X016617Y004613D01*
X016607Y004575D01*
X016607Y003796D01*
X016905Y003796D01*
X016905Y004705D01*
X017002Y004705D01*
X017002Y004606D02*
X016905Y004606D01*
X016905Y004508D02*
X017002Y004508D01*
X017002Y004409D02*
X016905Y004409D01*
X016905Y004311D02*
X017002Y004311D01*
X017002Y004212D02*
X016905Y004212D01*
X016905Y004114D02*
X017002Y004114D01*
X016607Y004114D02*
X016493Y004114D01*
X016493Y004212D02*
X016607Y004212D01*
X016607Y004311D02*
X016493Y004311D01*
X016493Y004409D02*
X016607Y004409D01*
X016607Y004508D02*
X016493Y004508D01*
X016493Y004606D02*
X016615Y004606D01*
X016736Y004705D02*
X014942Y004705D01*
X014953Y004803D02*
X015241Y004803D01*
X015210Y004902D02*
X015051Y004902D01*
X015150Y005000D02*
X015210Y005000D01*
X015910Y004803D02*
X016225Y004803D01*
X016194Y004902D02*
X015942Y004902D01*
X015942Y005000D02*
X016194Y005000D01*
X016194Y005099D02*
X015942Y005099D01*
X015942Y005197D02*
X016194Y005197D01*
X016194Y005296D02*
X015942Y005296D01*
X015942Y005394D02*
X016194Y005394D01*
X016194Y005493D02*
X015942Y005493D01*
X015942Y005591D02*
X016194Y005591D01*
X016100Y005690D02*
X015942Y005690D01*
X015942Y005788D02*
X016001Y005788D01*
X016526Y006084D02*
X016594Y006084D01*
X016692Y006182D02*
X016428Y006182D01*
X016329Y006281D02*
X016791Y006281D01*
X016889Y006379D02*
X016231Y006379D01*
X017119Y005788D02*
X017178Y005788D01*
X017178Y005690D02*
X017020Y005690D01*
X016926Y005591D02*
X017178Y005591D01*
X017178Y005493D02*
X016926Y005493D01*
X016926Y005394D02*
X017178Y005394D01*
X017178Y005296D02*
X016926Y005296D01*
X016926Y005197D02*
X017178Y005197D01*
X017178Y005099D02*
X016926Y005099D01*
X016926Y005000D02*
X017178Y005000D01*
X017178Y004902D02*
X016926Y004902D01*
X017879Y004803D02*
X017895Y004803D01*
X018475Y004803D02*
X018569Y004803D01*
X018506Y004705D02*
X018475Y004705D01*
X019069Y004803D02*
X019600Y004803D01*
X019149Y004705D02*
X019133Y004705D01*
X018569Y004902D02*
X018475Y004902D01*
X018475Y005000D02*
X018569Y005000D01*
X018569Y005099D02*
X018475Y005099D01*
X018475Y005197D02*
X018569Y005197D01*
X018569Y005296D02*
X018475Y005296D01*
X018475Y005394D02*
X018572Y005394D01*
X018620Y005493D02*
X018475Y005493D01*
X018475Y005591D02*
X018621Y005591D01*
X018661Y005690D02*
X018475Y005690D01*
X018475Y005788D02*
X018737Y005788D01*
X018909Y005887D02*
X018475Y005887D01*
X018459Y005985D02*
X019114Y005985D01*
X019213Y006084D02*
X018401Y006084D01*
X018303Y006182D02*
X020210Y006182D01*
X020210Y006281D02*
X018204Y006281D01*
X018106Y006379D02*
X020172Y006379D01*
X020763Y006576D02*
X022603Y006576D01*
X022701Y006675D02*
X020432Y006675D01*
X020735Y006773D02*
X020772Y006773D01*
X020772Y006872D02*
X020735Y006872D01*
X020735Y006970D02*
X020772Y006970D01*
X020772Y007069D02*
X020735Y007069D01*
X021041Y007069D02*
X021649Y007069D01*
X021649Y007167D02*
X021041Y007167D01*
X021041Y006970D02*
X022997Y006970D01*
X022898Y006872D02*
X021041Y006872D01*
X021027Y006773D02*
X022800Y006773D01*
X023403Y006379D02*
X023560Y006379D01*
X023560Y006281D02*
X023305Y006281D01*
X023206Y006182D02*
X023560Y006182D01*
X023560Y006084D02*
X023108Y006084D01*
X023009Y005985D02*
X023560Y005985D01*
X023560Y005887D02*
X022911Y005887D01*
X022812Y005788D02*
X023560Y005788D01*
X023560Y005690D02*
X022714Y005690D01*
X019304Y005099D02*
X019069Y005099D01*
X015839Y004606D02*
X014911Y004606D01*
X014942Y004508D02*
X015839Y004508D01*
X015839Y004409D02*
X015020Y004409D01*
X015118Y004311D02*
X015839Y004311D01*
X015839Y004212D02*
X015217Y004212D01*
X015315Y004114D02*
X015839Y004114D01*
X016493Y004015D02*
X016607Y004015D01*
X016607Y003917D02*
X016493Y003917D01*
X016493Y003818D02*
X016607Y003818D01*
X016493Y003720D02*
X016905Y003720D01*
X017002Y003720D02*
X017855Y003720D01*
X017895Y003818D02*
X017301Y003818D01*
X017301Y003917D02*
X017895Y003917D01*
X017895Y004015D02*
X017301Y004015D01*
X017002Y004015D02*
X016905Y004015D01*
X016905Y003917D02*
X017002Y003917D01*
X017002Y003818D02*
X016905Y003818D01*
X016607Y003621D02*
X016493Y003621D01*
X016493Y003523D02*
X016607Y003523D01*
X016607Y003424D02*
X016493Y003424D01*
X016493Y003326D02*
X016607Y003326D01*
X016607Y003227D02*
X016493Y003227D01*
X016493Y003129D02*
X016607Y003129D01*
X016607Y003030D02*
X016493Y003030D01*
X016493Y002932D02*
X016607Y002932D01*
X016652Y002833D02*
X016439Y002833D01*
X015839Y003030D02*
X015802Y003030D01*
X017301Y003227D02*
X017362Y003227D01*
X017301Y003326D02*
X017461Y003326D01*
X017559Y003424D02*
X017301Y003424D01*
X017301Y003523D02*
X017658Y003523D01*
X017756Y003621D02*
X017301Y003621D01*
X015699Y002341D02*
X015666Y002341D01*
X015666Y002242D02*
X015835Y002242D01*
X015666Y002045D02*
X017454Y002045D01*
X017454Y001947D02*
X015666Y001947D01*
X015666Y001848D02*
X017454Y001848D01*
X017454Y001750D02*
X015666Y001750D01*
X015666Y001651D02*
X017454Y001651D01*
X017454Y001553D02*
X015666Y001553D01*
X015666Y001454D02*
X017454Y001454D01*
X017454Y001356D02*
X015666Y001356D01*
X015666Y001257D02*
X017454Y001257D01*
X017454Y001159D02*
X015666Y001159D01*
X015651Y001060D02*
X017469Y001060D01*
X012930Y001060D02*
X012363Y001060D01*
X012461Y001159D02*
X012734Y001159D01*
X012641Y001257D02*
X012515Y001257D01*
X012556Y001356D02*
X012583Y001356D01*
X012371Y007069D02*
X012951Y007069D01*
X013169Y007069D02*
X013721Y007069D01*
X013633Y007167D02*
X013370Y007167D01*
X013468Y007266D02*
X013578Y007266D01*
X013549Y007364D02*
X013518Y007364D01*
X013559Y007463D02*
X014010Y007463D01*
X014010Y007561D02*
X014110Y007561D01*
X014110Y007463D02*
X015210Y007463D01*
X014110Y007364D02*
X014010Y007364D01*
X014010Y007266D02*
X014110Y007266D01*
X014110Y007167D02*
X014010Y007167D01*
X012750Y007167D02*
X012470Y007167D01*
X012519Y007266D02*
X012652Y007266D01*
X012602Y007364D02*
X012560Y007364D01*
X012560Y007463D02*
X012561Y007463D01*
X012560Y007561D02*
X012560Y007561D01*
X012560Y007660D02*
X012520Y007660D01*
X012474Y007758D02*
X012599Y007758D01*
X012645Y007857D02*
X012375Y007857D01*
X012182Y007955D02*
X012743Y007955D01*
X011938Y007955D02*
X011377Y007955D01*
X011475Y007857D02*
X011745Y007857D01*
X011646Y007758D02*
X011521Y007758D01*
X011560Y007660D02*
X011600Y007660D01*
X011560Y007561D02*
X011560Y007561D01*
X011559Y007463D02*
X011560Y007463D01*
X011560Y007364D02*
X011518Y007364D01*
X011468Y007266D02*
X011601Y007266D01*
X011650Y007167D02*
X011370Y007167D01*
X011169Y007069D02*
X011749Y007069D01*
X010951Y007069D02*
X010371Y007069D01*
X010470Y007167D02*
X010750Y007167D01*
X010652Y007266D02*
X010519Y007266D01*
X010560Y007364D02*
X010602Y007364D01*
X010560Y007463D02*
X010561Y007463D01*
X010560Y007561D02*
X010560Y007561D01*
X010560Y007660D02*
X010520Y007660D01*
X010474Y007758D02*
X010599Y007758D01*
X010645Y007857D02*
X010375Y007857D01*
X010182Y007955D02*
X010743Y007955D01*
X009938Y007955D02*
X009377Y007955D01*
X009475Y007857D02*
X009745Y007857D01*
X009646Y007758D02*
X009521Y007758D01*
X009560Y007660D02*
X009600Y007660D01*
X009560Y007561D02*
X009560Y007561D01*
X009559Y007463D02*
X009560Y007463D01*
X009560Y007364D02*
X009518Y007364D01*
X009468Y007266D02*
X009601Y007266D01*
X009650Y007167D02*
X009370Y007167D01*
X009169Y007069D02*
X009749Y007069D01*
X008951Y007069D02*
X008371Y007069D01*
X008470Y007167D02*
X008750Y007167D01*
X008652Y007266D02*
X008519Y007266D01*
X008560Y007364D02*
X008602Y007364D01*
X008560Y007463D02*
X008561Y007463D01*
X008560Y007561D02*
X008560Y007561D01*
X008560Y007660D02*
X008520Y007660D01*
X008474Y007758D02*
X008599Y007758D01*
X008645Y007857D02*
X008375Y007857D01*
X008182Y007955D02*
X008743Y007955D01*
X007938Y007955D02*
X007377Y007955D01*
X007475Y007857D02*
X007745Y007857D01*
X007646Y007758D02*
X007521Y007758D01*
X007560Y007660D02*
X007600Y007660D01*
X007560Y007561D02*
X007560Y007561D01*
X007559Y007463D02*
X007560Y007463D01*
X007560Y007364D02*
X007518Y007364D01*
X007468Y007266D02*
X007601Y007266D01*
X007650Y007167D02*
X007370Y007167D01*
X007169Y007069D02*
X007749Y007069D01*
X006951Y007069D02*
X006371Y007069D01*
X006470Y007167D02*
X006750Y007167D01*
X006652Y007266D02*
X006519Y007266D01*
X006560Y007364D02*
X006602Y007364D01*
X006560Y007463D02*
X006561Y007463D01*
X006560Y007561D02*
X006560Y007561D01*
X006560Y007660D02*
X006520Y007660D01*
X006474Y007758D02*
X006599Y007758D01*
X006645Y007857D02*
X006375Y007857D01*
X006182Y007955D02*
X006743Y007955D01*
X005938Y007955D02*
X005377Y007955D01*
X005475Y007857D02*
X005745Y007857D01*
X005646Y007758D02*
X005521Y007758D01*
X005560Y007660D02*
X005600Y007660D01*
X005560Y007561D02*
X005560Y007561D01*
X005559Y007463D02*
X005560Y007463D01*
X005560Y007364D02*
X005518Y007364D01*
X005468Y007266D02*
X005601Y007266D01*
X005650Y007167D02*
X005370Y007167D01*
X005169Y007069D02*
X005749Y007069D01*
X004951Y007069D02*
X004371Y007069D01*
X004470Y007167D02*
X004750Y007167D01*
X004652Y007266D02*
X004519Y007266D01*
X004560Y007364D02*
X004602Y007364D01*
X004560Y007463D02*
X004561Y007463D01*
X004560Y007561D02*
X004560Y007561D01*
X004560Y007660D02*
X004520Y007660D01*
X004474Y007758D02*
X004599Y007758D01*
X004645Y007857D02*
X004375Y007857D01*
X004182Y007955D02*
X004743Y007955D01*
X003938Y007955D02*
X003377Y007955D01*
X003475Y007857D02*
X003745Y007857D01*
X003646Y007758D02*
X003521Y007758D01*
X003560Y007660D02*
X003600Y007660D01*
X003560Y007561D02*
X003560Y007561D01*
X003559Y007463D02*
X003560Y007463D01*
X003560Y007364D02*
X003518Y007364D01*
X003468Y007266D02*
X003601Y007266D01*
X003650Y007167D02*
X003370Y007167D01*
X003169Y007069D02*
X003749Y007069D01*
X002951Y007069D02*
X002371Y007069D01*
X002470Y007167D02*
X002750Y007167D01*
X002652Y007266D02*
X002519Y007266D01*
X002560Y007364D02*
X002602Y007364D01*
X002560Y007463D02*
X002561Y007463D01*
X002560Y007561D02*
X002560Y007561D01*
X002560Y007660D02*
X002520Y007660D01*
X002474Y007758D02*
X002599Y007758D01*
X002645Y007857D02*
X002375Y007857D01*
X002182Y007955D02*
X002743Y007955D01*
D29*
X007655Y005425D02*
X008641Y005425D01*
X008654Y005412D01*
X009466Y005412D01*
X009444Y005421D02*
X010154Y005421D01*
X011225Y005390D02*
X011225Y005358D01*
X009466Y003599D01*
X008654Y003599D01*
X008648Y003605D01*
X007655Y003605D01*
X012611Y003336D02*
X012611Y002964D01*
X012685Y002890D01*
X013060Y002515D01*
X014060Y001465D02*
X014685Y002090D01*
X014685Y002640D01*
X014810Y002765D01*
X015685Y002765D01*
X015935Y002515D01*
X017060Y002515D01*
X018185Y003640D01*
X018185Y005890D01*
X017935Y006140D01*
X017060Y006140D01*
X016560Y005640D01*
X016060Y006140D01*
X015185Y006140D01*
X014435Y005390D01*
X011225Y005390D01*
X012611Y004722D02*
X012779Y004890D01*
X014629Y004890D01*
X014635Y004895D01*
X015081Y005341D01*
X015576Y005341D01*
X016560Y005341D02*
X016560Y005640D01*
X015271Y003748D02*
X014635Y004384D01*
X012611Y004202D02*
X012611Y004722D01*
X015271Y003748D02*
X016166Y003748D01*
X021216Y001265D02*
X025248Y001265D01*
X025279Y001233D01*
X025490Y001445D01*
X025490Y001725D01*
D30*
X022029Y003733D02*
X022029Y004358D01*
X021529Y004858D01*
X020761Y004858D01*
X020123Y005496D01*
X023128Y007304D02*
X023128Y007739D01*
X023154Y007765D01*
X023716Y007765D02*
X023716Y007306D01*
X023718Y007304D01*
X014029Y003895D02*
X013722Y004202D01*
X013359Y004202D01*
X013560Y003765D02*
X012435Y003765D01*
X011685Y003015D01*
X011685Y002935D01*
X012140Y002344D02*
X012685Y002890D01*
X013359Y003336D02*
X013987Y002708D01*
X014029Y002708D01*
X012140Y002344D02*
X011685Y002344D01*
X013560Y003765D02*
X013941Y003384D01*
X014029Y003384D01*
X007655Y005425D02*
X007651Y005421D01*
X006404Y005421D01*
X005966Y005858D01*
X004512Y005858D01*
X003921Y005858D02*
X003238Y005858D01*
X003207Y005890D01*
X002838Y004260D02*
X004157Y004260D01*
X002838Y004260D02*
X002400Y003822D01*
X002060Y003822D01*
X001318Y003822D01*
X001010Y003515D01*
X002060Y002461D02*
X002140Y002542D01*
X002838Y002542D01*
X002758Y002461D01*
X002838Y002542D02*
X004157Y002542D01*
X002060Y002461D02*
X001163Y002461D01*
X001110Y002515D01*
X002007Y002515D02*
X002060Y002461D01*
D31*
X010154Y005421D03*
X018998Y005515D03*
D32*
X018819Y005336D01*
X018819Y004421D01*
X019242Y005515D02*
X020304Y004452D01*
X019242Y005515D02*
X018998Y005515D01*
X019373Y005890D01*
X022560Y005890D01*
X023310Y006640D01*
X025248Y006640D01*
X025490Y006882D01*
X025490Y007304D01*
M02*
