G75*
G70*
%OFA0B0*%
%FSLAX24Y24*%
%IPPOS*%
%LPD*%
%AMOC8*
5,1,8,0,0,1.08239X$1,22.5*
%
%ADD10R,0.0880X0.0480*%
%ADD11R,0.0866X0.1417*%
%ADD12R,0.0394X0.0433*%
%ADD13R,0.0256X0.0417*%
%ADD14R,0.0354X0.0276*%
%ADD15R,0.0315X0.0315*%
%ADD16R,0.0394X0.1614*%
%ADD17R,0.0630X0.1339*%
%ADD18R,0.0472X0.0906*%
%ADD19C,0.0740*%
%ADD20R,0.0394X0.0335*%
%ADD21R,0.0335X0.0394*%
%ADD22R,0.0315X0.0354*%
%ADD23R,0.0276X0.0354*%
%ADD24R,0.0453X0.0413*%
%ADD25R,0.0433X0.0394*%
%ADD26C,0.0120*%
%ADD27C,0.0300*%
%ADD28C,0.0100*%
%ADD29C,0.0320*%
%ADD30C,0.0160*%
%ADD31C,0.0495*%
%ADD32C,0.0240*%
D10*
X007495Y003605D03*
X007495Y004515D03*
X007495Y005425D03*
D11*
X005055Y004515D03*
D12*
X001900Y004492D03*
X001900Y003822D03*
X001900Y003130D03*
X001900Y002461D03*
X008494Y002930D03*
X009306Y002930D03*
X009306Y003599D03*
X008494Y003599D03*
X008494Y004742D03*
X009306Y004742D03*
X009306Y005412D03*
X008494Y005412D03*
X003047Y005890D03*
X002378Y005890D03*
D13*
X012451Y004202D03*
X012825Y004202D03*
X013199Y004202D03*
X013199Y003336D03*
X012451Y003336D03*
D14*
X013869Y003384D03*
X013869Y003895D03*
X014475Y004384D03*
X014475Y004895D03*
X013869Y002708D03*
X013869Y002196D03*
D15*
X011525Y002344D03*
X011525Y002935D03*
X004352Y005858D03*
X003761Y005858D03*
D16*
X016006Y003748D03*
X016794Y003748D03*
D17*
X017739Y001799D03*
X015061Y001799D03*
D18*
X015416Y005341D03*
X016400Y005341D03*
X017384Y005341D03*
X017384Y007507D03*
X016400Y007507D03*
X015416Y007507D03*
D19*
X013900Y007465D03*
X012900Y007565D03*
X011900Y007465D03*
X010900Y007565D03*
X009900Y007465D03*
X008900Y007565D03*
X007900Y007465D03*
X006900Y007565D03*
X005900Y007465D03*
X004900Y007565D03*
X003900Y007465D03*
X002900Y007565D03*
X001900Y007465D03*
X000900Y007565D03*
X000950Y006515D03*
X000850Y005515D03*
X000950Y004515D03*
X000850Y003515D03*
X000950Y002515D03*
X000900Y001565D03*
X001900Y001465D03*
X002900Y001565D03*
X003900Y001465D03*
X004900Y001565D03*
X005900Y001465D03*
X006900Y001565D03*
X007900Y001465D03*
X008900Y001565D03*
X009900Y001465D03*
X010900Y001565D03*
X011900Y001465D03*
X012900Y001565D03*
X013900Y001465D03*
X012900Y002515D03*
D20*
X021143Y003058D03*
X021143Y003707D03*
D21*
X021787Y001725D03*
X022377Y001725D03*
X022968Y001725D03*
X023558Y001725D03*
X024149Y001725D03*
X024740Y001725D03*
X025330Y001725D03*
X025330Y007304D03*
X024740Y007304D03*
X024149Y007304D03*
X023558Y007304D03*
X022968Y007304D03*
X022377Y007304D03*
X021787Y007304D03*
D22*
X020338Y006323D03*
X020712Y005496D03*
X019963Y005496D03*
D23*
X020144Y004452D03*
X020656Y004452D03*
X020593Y007015D03*
X020082Y007015D03*
D24*
X003997Y004831D03*
X002678Y004831D03*
X002678Y004260D03*
X003997Y004260D03*
X003997Y003113D03*
X002678Y003113D03*
X002678Y002542D03*
X003997Y002542D03*
D25*
X018659Y004421D03*
X019328Y004421D03*
D26*
X020144Y004452D02*
X020167Y004429D01*
X019963Y005495D02*
X019963Y005496D01*
X020338Y006323D02*
X022458Y006323D01*
X023056Y006921D01*
X023931Y006921D01*
X024149Y007139D01*
X024149Y007304D01*
X022400Y007327D02*
X022377Y007304D01*
X022400Y007327D02*
X022369Y007358D01*
X022369Y007796D01*
X021775Y007796D02*
X021775Y007316D01*
X021787Y007304D01*
X020082Y007015D02*
X020082Y006579D01*
X020338Y006323D01*
D27*
X019400Y006515D03*
X021556Y006608D03*
X021775Y007796D03*
X022369Y007796D03*
X022994Y007765D03*
X023556Y007765D03*
X016884Y004983D03*
X017259Y004608D03*
X017572Y004608D03*
X017572Y004296D03*
X017259Y004296D03*
X015463Y004577D03*
X015119Y004577D03*
X017275Y003452D03*
X019025Y003202D03*
X021869Y003733D03*
X022588Y004515D03*
X014494Y003421D03*
X011367Y004388D03*
X008869Y004233D03*
X006150Y004358D03*
X006572Y005905D03*
X001713Y006140D03*
X005431Y002108D03*
X008306Y002171D03*
X016431Y001640D03*
X018869Y001452D03*
X019244Y001452D03*
X021431Y001233D03*
X023088Y001265D03*
D28*
X000400Y001015D02*
X000400Y003294D01*
X000426Y003231D01*
X000567Y003091D01*
X000751Y003015D01*
X000949Y003015D01*
X001133Y003091D01*
X001274Y003231D01*
X001350Y003415D01*
X001350Y003612D01*
X001573Y003612D01*
X001573Y003552D01*
X001641Y003484D01*
X001611Y003467D01*
X001583Y003439D01*
X001563Y003405D01*
X001553Y003367D01*
X001553Y003179D01*
X001852Y003179D01*
X001852Y003082D01*
X001553Y003082D01*
X001553Y002894D01*
X001563Y002856D01*
X001583Y002822D01*
X001611Y002794D01*
X001627Y002785D01*
X001573Y002732D01*
X001573Y002671D01*
X001426Y002671D01*
X001374Y002798D01*
X001233Y002938D01*
X001049Y003015D01*
X000851Y003015D01*
X000667Y002938D01*
X000526Y002798D01*
X000450Y002614D01*
X000450Y002415D01*
X000526Y002231D01*
X000667Y002091D01*
X000765Y002050D01*
X000617Y001988D01*
X000476Y001848D01*
X000400Y001664D01*
X000400Y001465D01*
X000476Y001281D01*
X000617Y001141D01*
X000801Y001065D01*
X000999Y001065D01*
X001183Y001141D01*
X001324Y001281D01*
X001400Y001465D01*
X001400Y001664D01*
X001324Y001848D01*
X001183Y001988D01*
X001085Y002029D01*
X001233Y002091D01*
X001374Y002231D01*
X001382Y002251D01*
X001573Y002251D01*
X001573Y002191D01*
X001649Y002115D01*
X002151Y002115D01*
X002227Y002191D01*
X002227Y002332D01*
X002322Y002332D01*
X002322Y002281D01*
X002398Y002205D01*
X002958Y002205D01*
X003034Y002281D01*
X003034Y002332D01*
X003641Y002332D01*
X003641Y002281D01*
X003717Y002205D01*
X004277Y002205D01*
X004353Y002281D01*
X004353Y002802D01*
X004343Y002813D01*
X004343Y002814D01*
X004363Y002848D01*
X004373Y002886D01*
X004373Y003063D01*
X004047Y003063D01*
X004047Y003162D01*
X004373Y003162D01*
X004373Y003339D01*
X004363Y003377D01*
X004343Y003411D01*
X004315Y003439D01*
X004281Y003459D01*
X004243Y003469D01*
X004047Y003469D01*
X004047Y003163D01*
X003947Y003163D01*
X003947Y003469D01*
X003751Y003469D01*
X003713Y003459D01*
X003678Y003439D01*
X003651Y003411D01*
X003631Y003377D01*
X003621Y003339D01*
X003621Y003162D01*
X003947Y003162D01*
X003947Y003063D01*
X003621Y003063D01*
X003621Y002886D01*
X003631Y002848D01*
X003651Y002814D01*
X003651Y002813D01*
X003641Y002802D01*
X003641Y002752D01*
X003034Y002752D01*
X003034Y002802D01*
X003024Y002813D01*
X003024Y002814D01*
X003044Y002848D01*
X003054Y002886D01*
X003054Y003063D01*
X002728Y003063D01*
X002728Y003162D01*
X003054Y003162D01*
X003054Y003339D01*
X003044Y003377D01*
X003024Y003411D01*
X002997Y003439D01*
X002962Y003459D01*
X002924Y003469D01*
X002728Y003469D01*
X002728Y003163D01*
X002628Y003163D01*
X002628Y003469D01*
X002432Y003469D01*
X002394Y003459D01*
X002360Y003439D01*
X002332Y003411D01*
X002312Y003377D01*
X002302Y003339D01*
X002302Y003162D01*
X002628Y003162D01*
X002628Y003063D01*
X002302Y003063D01*
X002302Y002886D01*
X002312Y002848D01*
X002332Y002814D01*
X002332Y002813D01*
X002322Y002802D01*
X002322Y002752D01*
X002207Y002752D01*
X002173Y002785D01*
X002189Y002794D01*
X002217Y002822D01*
X002237Y002856D01*
X002247Y002894D01*
X002247Y003082D01*
X001948Y003082D01*
X001948Y003179D01*
X002247Y003179D01*
X002247Y003367D01*
X002237Y003405D01*
X002217Y003439D01*
X002189Y003467D01*
X002159Y003484D01*
X002227Y003552D01*
X002227Y003612D01*
X002327Y003612D01*
X002638Y003924D01*
X002958Y003924D01*
X003034Y004000D01*
X003034Y004050D01*
X003641Y004050D01*
X003641Y004000D01*
X003717Y003924D01*
X004277Y003924D01*
X004353Y004000D01*
X004353Y004521D01*
X004343Y004532D01*
X004343Y004532D01*
X004363Y004567D01*
X004373Y004605D01*
X004373Y004781D01*
X004047Y004781D01*
X004047Y004881D01*
X004373Y004881D01*
X004373Y005058D01*
X004363Y005096D01*
X004343Y005130D01*
X004315Y005158D01*
X004281Y005178D01*
X004243Y005188D01*
X004047Y005188D01*
X004047Y004881D01*
X003947Y004881D01*
X003947Y004781D01*
X003621Y004781D01*
X003621Y004605D01*
X003631Y004567D01*
X003651Y004532D01*
X003641Y004521D01*
X003641Y004470D01*
X003034Y004470D01*
X003034Y004521D01*
X003024Y004532D01*
X003024Y004532D01*
X003044Y004567D01*
X003054Y004605D01*
X003054Y004781D01*
X002728Y004781D01*
X002728Y004881D01*
X003054Y004881D01*
X003054Y005058D01*
X003044Y005096D01*
X003024Y005130D01*
X002997Y005158D01*
X002962Y005178D01*
X002924Y005188D01*
X002728Y005188D01*
X002728Y004881D01*
X002628Y004881D01*
X002628Y004781D01*
X002302Y004781D01*
X002302Y004605D01*
X002312Y004567D01*
X002332Y004532D01*
X002322Y004521D01*
X002322Y004201D01*
X002220Y004099D01*
X002173Y004146D01*
X002189Y004155D01*
X002217Y004183D01*
X002237Y004217D01*
X002247Y004255D01*
X002247Y004443D01*
X001948Y004443D01*
X001948Y004540D01*
X001852Y004540D01*
X001852Y004858D01*
X001683Y004858D01*
X001645Y004848D01*
X001611Y004828D01*
X001583Y004800D01*
X001563Y004766D01*
X001553Y004728D01*
X001553Y004540D01*
X001852Y004540D01*
X001852Y004443D01*
X001553Y004443D01*
X001553Y004255D01*
X001563Y004217D01*
X001583Y004183D01*
X001611Y004155D01*
X001627Y004146D01*
X001573Y004093D01*
X001573Y004032D01*
X001149Y004032D01*
X001150Y004033D01*
X001223Y004070D01*
X001289Y004118D01*
X001347Y004176D01*
X001395Y004242D01*
X001432Y004315D01*
X001457Y004393D01*
X001469Y004465D01*
X001000Y004465D01*
X001000Y004565D01*
X000900Y004565D01*
X000900Y005015D01*
X000949Y005015D01*
X001133Y005091D01*
X001274Y005231D01*
X001350Y005415D01*
X001350Y005614D01*
X001274Y005798D01*
X001133Y005938D01*
X000949Y006015D01*
X000751Y006015D01*
X000567Y005938D01*
X000426Y005798D01*
X000400Y005735D01*
X000400Y008015D01*
X000680Y008015D01*
X000617Y007988D01*
X000476Y007848D01*
X000400Y007664D01*
X000400Y007465D01*
X000476Y007281D01*
X000617Y007141D01*
X000801Y007065D01*
X000999Y007065D01*
X001183Y007141D01*
X001324Y007281D01*
X001400Y007465D01*
X001400Y007664D01*
X001324Y007848D01*
X001183Y007988D01*
X001120Y008015D01*
X002680Y008015D01*
X002617Y007988D01*
X002476Y007848D01*
X002400Y007664D01*
X002400Y007465D01*
X002476Y007281D01*
X002617Y007141D01*
X002801Y007065D01*
X002999Y007065D01*
X003183Y007141D01*
X003324Y007281D01*
X003400Y007465D01*
X003400Y007664D01*
X003324Y007848D01*
X003183Y007988D01*
X003120Y008015D01*
X004680Y008015D01*
X004617Y007988D01*
X004476Y007848D01*
X004400Y007664D01*
X004400Y007465D01*
X004476Y007281D01*
X004617Y007141D01*
X004801Y007065D01*
X004999Y007065D01*
X005183Y007141D01*
X005324Y007281D01*
X005400Y007465D01*
X005400Y007664D01*
X005324Y007848D01*
X005183Y007988D01*
X005120Y008015D01*
X006680Y008015D01*
X006617Y007988D01*
X006476Y007848D01*
X006400Y007664D01*
X006400Y007465D01*
X006476Y007281D01*
X006617Y007141D01*
X006801Y007065D01*
X006999Y007065D01*
X007183Y007141D01*
X007324Y007281D01*
X007400Y007465D01*
X007400Y007664D01*
X007324Y007848D01*
X007183Y007988D01*
X007120Y008015D01*
X008680Y008015D01*
X008617Y007988D01*
X008476Y007848D01*
X008400Y007664D01*
X008400Y007465D01*
X008476Y007281D01*
X008617Y007141D01*
X008801Y007065D01*
X008999Y007065D01*
X009183Y007141D01*
X009324Y007281D01*
X009400Y007465D01*
X009400Y007664D01*
X009324Y007848D01*
X009183Y007988D01*
X009120Y008015D01*
X010680Y008015D01*
X010617Y007988D01*
X010476Y007848D01*
X010400Y007664D01*
X010400Y007465D01*
X010476Y007281D01*
X010617Y007141D01*
X010801Y007065D01*
X010999Y007065D01*
X011183Y007141D01*
X011324Y007281D01*
X011400Y007465D01*
X011400Y007664D01*
X011324Y007848D01*
X011183Y007988D01*
X011120Y008015D01*
X012680Y008015D01*
X012617Y007988D01*
X012476Y007848D01*
X012400Y007664D01*
X012400Y007465D01*
X012476Y007281D01*
X012617Y007141D01*
X012801Y007065D01*
X012999Y007065D01*
X013183Y007141D01*
X013324Y007281D01*
X013400Y007465D01*
X013400Y007515D01*
X013850Y007515D01*
X013850Y007983D01*
X013778Y007972D01*
X013700Y007946D01*
X013627Y007909D01*
X013561Y007861D01*
X013503Y007803D01*
X013455Y007737D01*
X013418Y007664D01*
X013400Y007608D01*
X013400Y007664D01*
X013324Y007848D01*
X013183Y007988D01*
X013120Y008015D01*
X015051Y008015D01*
X015050Y008013D01*
X015050Y007000D01*
X015126Y006924D01*
X015706Y006924D01*
X015782Y007000D01*
X015782Y008013D01*
X015781Y008015D01*
X016035Y008015D01*
X016034Y008013D01*
X016034Y007000D01*
X016110Y006924D01*
X016690Y006924D01*
X016766Y007000D01*
X016766Y008013D01*
X016765Y008015D01*
X017019Y008015D01*
X017018Y008013D01*
X017018Y007000D01*
X017094Y006924D01*
X017674Y006924D01*
X017750Y007000D01*
X017750Y008013D01*
X017749Y008015D01*
X021598Y008015D01*
X021538Y007954D01*
X021495Y007852D01*
X021495Y007740D01*
X021538Y007637D01*
X021555Y007620D01*
X021489Y007555D01*
X021489Y007053D01*
X021566Y006977D01*
X022008Y006977D01*
X022082Y007051D01*
X022156Y006977D01*
X022599Y006977D01*
X022673Y007051D01*
X022747Y006977D01*
X022844Y006977D01*
X022379Y006513D01*
X020625Y006513D01*
X020625Y006554D01*
X020549Y006630D01*
X020299Y006630D01*
X020272Y006657D01*
X020272Y006707D01*
X020273Y006707D01*
X020327Y006761D01*
X020336Y006745D01*
X020364Y006717D01*
X020398Y006698D01*
X020436Y006687D01*
X020575Y006687D01*
X020575Y006996D01*
X020612Y006996D01*
X020612Y007033D01*
X020881Y007033D01*
X020881Y007211D01*
X020871Y007250D01*
X020851Y007284D01*
X020823Y007312D01*
X020789Y007332D01*
X020751Y007342D01*
X020612Y007342D01*
X020612Y007033D01*
X020575Y007033D01*
X020575Y007342D01*
X020436Y007342D01*
X020398Y007332D01*
X020364Y007312D01*
X020336Y007284D01*
X020327Y007268D01*
X020273Y007322D01*
X019890Y007322D01*
X019814Y007246D01*
X019814Y006784D01*
X019890Y006707D01*
X019892Y006707D01*
X019892Y006500D01*
X020003Y006389D01*
X020050Y006341D01*
X020050Y006140D01*
X019163Y006140D01*
X019071Y006102D01*
X019001Y006031D01*
X018861Y005892D01*
X018762Y005892D01*
X018624Y005835D01*
X018517Y005728D01*
X018460Y005590D01*
X018460Y005491D01*
X018447Y005478D01*
X018409Y005386D01*
X018409Y004748D01*
X018389Y004748D01*
X018315Y004674D01*
X018315Y005947D01*
X018271Y006054D01*
X018189Y006135D01*
X017939Y006385D01*
X017833Y006430D01*
X016842Y006430D01*
X016736Y006385D01*
X016654Y006304D01*
X016400Y006050D01*
X016146Y006304D01*
X016064Y006385D01*
X015958Y006430D01*
X014967Y006430D01*
X014861Y006385D01*
X014155Y005680D01*
X011008Y005680D01*
X010901Y005635D01*
X010820Y005554D01*
X010797Y005500D01*
X009243Y003946D01*
X009056Y003946D01*
X008999Y003889D01*
X008801Y003889D01*
X008744Y003946D01*
X008243Y003946D01*
X008192Y003895D01*
X008065Y003895D01*
X008065Y003898D01*
X007989Y003975D01*
X007001Y003975D01*
X006925Y003898D01*
X006925Y003311D01*
X007001Y003235D01*
X007989Y003235D01*
X008065Y003311D01*
X008065Y003315D01*
X008181Y003315D01*
X008220Y003275D01*
X008205Y003266D01*
X008177Y003239D01*
X008157Y003204D01*
X008147Y003166D01*
X008147Y002978D01*
X008445Y002978D01*
X008445Y002881D01*
X008542Y002881D01*
X008542Y002563D01*
X008710Y002563D01*
X008748Y002574D01*
X008783Y002593D01*
X008811Y002621D01*
X008830Y002655D01*
X008841Y002694D01*
X008841Y002881D01*
X008542Y002881D01*
X008542Y002978D01*
X008841Y002978D01*
X008841Y003166D01*
X008830Y003204D01*
X008811Y003239D01*
X008783Y003266D01*
X008767Y003275D01*
X008801Y003309D01*
X008999Y003309D01*
X009033Y003275D01*
X009017Y003266D01*
X008989Y003239D01*
X008970Y003204D01*
X008959Y003166D01*
X008959Y002978D01*
X009258Y002978D01*
X009258Y002881D01*
X009355Y002881D01*
X009355Y002563D01*
X009523Y002563D01*
X009561Y002574D01*
X009595Y002593D01*
X009623Y002621D01*
X009643Y002655D01*
X009653Y002694D01*
X009653Y002881D01*
X009355Y002881D01*
X009355Y002978D01*
X009653Y002978D01*
X009653Y003166D01*
X009643Y003204D01*
X009623Y003239D01*
X009595Y003266D01*
X009580Y003275D01*
X009633Y003329D01*
X009633Y003516D01*
X011217Y005100D01*
X012419Y005100D01*
X012373Y005054D01*
X012205Y004886D01*
X012161Y004779D01*
X012161Y004145D01*
X012193Y004067D01*
X012193Y003975D01*
X012188Y003975D01*
X012065Y003852D01*
X011436Y003222D01*
X011314Y003222D01*
X011238Y003146D01*
X011238Y002724D01*
X011314Y002647D01*
X011736Y002647D01*
X011812Y002724D01*
X011812Y003005D01*
X012161Y003354D01*
X012161Y002906D01*
X012185Y002847D01*
X011893Y002554D01*
X011812Y002554D01*
X011812Y002556D01*
X011736Y002632D01*
X011314Y002632D01*
X011238Y002556D01*
X011238Y002133D01*
X011314Y002057D01*
X011736Y002057D01*
X011812Y002133D01*
X011812Y002134D01*
X012067Y002134D01*
X012400Y002468D01*
X012400Y002415D01*
X012476Y002231D01*
X012617Y002091D01*
X012713Y002051D01*
X012700Y002046D01*
X012627Y002009D01*
X012561Y001961D01*
X012503Y001903D01*
X012455Y001837D01*
X012418Y001764D01*
X012393Y001686D01*
X012381Y001615D01*
X012850Y001615D01*
X012850Y001515D01*
X012400Y001515D01*
X012400Y001564D01*
X012324Y001748D01*
X012183Y001888D01*
X011999Y001965D01*
X011801Y001965D01*
X011617Y001888D01*
X011476Y001748D01*
X011400Y001564D01*
X011400Y001365D01*
X011476Y001181D01*
X011617Y001041D01*
X011680Y001015D01*
X010120Y001015D01*
X010183Y001041D01*
X010324Y001181D01*
X010400Y001365D01*
X010400Y001564D01*
X010324Y001748D01*
X010183Y001888D01*
X009999Y001965D01*
X009801Y001965D01*
X009617Y001888D01*
X009476Y001748D01*
X009400Y001564D01*
X009400Y001365D01*
X009476Y001181D01*
X009617Y001041D01*
X009680Y001015D01*
X008120Y001015D01*
X008183Y001041D01*
X008324Y001181D01*
X008400Y001365D01*
X008400Y001564D01*
X008324Y001748D01*
X008183Y001888D01*
X007999Y001965D01*
X007801Y001965D01*
X007617Y001888D01*
X007476Y001748D01*
X007400Y001564D01*
X007400Y001365D01*
X007476Y001181D01*
X007617Y001041D01*
X007680Y001015D01*
X006120Y001015D01*
X006183Y001041D01*
X006324Y001181D01*
X006400Y001365D01*
X006400Y001564D01*
X006324Y001748D01*
X006183Y001888D01*
X005999Y001965D01*
X005801Y001965D01*
X005617Y001888D01*
X005476Y001748D01*
X005400Y001564D01*
X005400Y001365D01*
X005476Y001181D01*
X005617Y001041D01*
X005680Y001015D01*
X004120Y001015D01*
X004183Y001041D01*
X004324Y001181D01*
X004400Y001365D01*
X004400Y001564D01*
X004324Y001748D01*
X004183Y001888D01*
X003999Y001965D01*
X003801Y001965D01*
X003617Y001888D01*
X003476Y001748D01*
X003400Y001564D01*
X003400Y001365D01*
X003476Y001181D01*
X003617Y001041D01*
X003680Y001015D01*
X002120Y001015D01*
X002183Y001041D01*
X002324Y001181D01*
X002400Y001365D01*
X002400Y001564D01*
X002324Y001748D01*
X002183Y001888D01*
X001999Y001965D01*
X001801Y001965D01*
X001617Y001888D01*
X001476Y001748D01*
X001400Y001564D01*
X001400Y001365D01*
X001476Y001181D01*
X001617Y001041D01*
X001680Y001015D01*
X000400Y001015D01*
X000400Y001060D02*
X001597Y001060D01*
X001499Y001159D02*
X001201Y001159D01*
X001300Y001257D02*
X001445Y001257D01*
X001404Y001356D02*
X001355Y001356D01*
X001395Y001454D02*
X001400Y001454D01*
X001400Y001553D02*
X001400Y001553D01*
X001400Y001651D02*
X001436Y001651D01*
X001478Y001750D02*
X001365Y001750D01*
X001324Y001848D02*
X001576Y001848D01*
X001757Y001947D02*
X001225Y001947D01*
X001123Y002045D02*
X002753Y002045D01*
X002801Y002065D02*
X002617Y001988D01*
X002476Y001848D01*
X002400Y001664D01*
X002400Y001465D01*
X002476Y001281D01*
X002617Y001141D01*
X002801Y001065D01*
X002999Y001065D01*
X003183Y001141D01*
X003324Y001281D01*
X003400Y001465D01*
X003400Y001664D01*
X003324Y001848D01*
X003183Y001988D01*
X002999Y002065D01*
X002801Y002065D01*
X003047Y002045D02*
X004753Y002045D01*
X004801Y002065D02*
X004617Y001988D01*
X004476Y001848D01*
X004400Y001664D01*
X004400Y001465D01*
X004476Y001281D01*
X004617Y001141D01*
X004801Y001065D01*
X004999Y001065D01*
X005183Y001141D01*
X005324Y001281D01*
X005400Y001465D01*
X005400Y001664D01*
X005324Y001848D01*
X005183Y001988D01*
X004999Y002065D01*
X004801Y002065D01*
X005047Y002045D02*
X006753Y002045D01*
X006801Y002065D02*
X006617Y001988D01*
X006476Y001848D01*
X006400Y001664D01*
X006400Y001465D01*
X006476Y001281D01*
X006617Y001141D01*
X006801Y001065D01*
X006999Y001065D01*
X007183Y001141D01*
X007324Y001281D01*
X007400Y001465D01*
X007400Y001664D01*
X007324Y001848D01*
X007183Y001988D01*
X006999Y002065D01*
X006801Y002065D01*
X007047Y002045D02*
X008753Y002045D01*
X008801Y002065D02*
X008617Y001988D01*
X008476Y001848D01*
X008400Y001664D01*
X008400Y001465D01*
X008476Y001281D01*
X008617Y001141D01*
X008801Y001065D01*
X008999Y001065D01*
X009183Y001141D01*
X009324Y001281D01*
X009400Y001465D01*
X009400Y001664D01*
X009324Y001848D01*
X009183Y001988D01*
X008999Y002065D01*
X008801Y002065D01*
X009047Y002045D02*
X010753Y002045D01*
X010801Y002065D02*
X010617Y001988D01*
X010476Y001848D01*
X010400Y001664D01*
X010400Y001465D01*
X010476Y001281D01*
X010617Y001141D01*
X010801Y001065D01*
X010999Y001065D01*
X011183Y001141D01*
X011324Y001281D01*
X011400Y001465D01*
X011400Y001664D01*
X011324Y001848D01*
X011183Y001988D01*
X010999Y002065D01*
X010801Y002065D01*
X011047Y002045D02*
X012698Y002045D01*
X012564Y002144D02*
X012076Y002144D01*
X012174Y002242D02*
X012472Y002242D01*
X012431Y002341D02*
X012273Y002341D01*
X012371Y002439D02*
X012400Y002439D01*
X011975Y002636D02*
X009632Y002636D01*
X009653Y002735D02*
X011238Y002735D01*
X011238Y002833D02*
X009653Y002833D01*
X009355Y002833D02*
X009258Y002833D01*
X009258Y002881D02*
X009258Y002563D01*
X009090Y002563D01*
X009052Y002574D01*
X009017Y002593D01*
X008989Y002621D01*
X008970Y002655D01*
X008959Y002694D01*
X008959Y002881D01*
X009258Y002881D01*
X009258Y002932D02*
X008542Y002932D01*
X008445Y002932D02*
X004373Y002932D01*
X004355Y002833D02*
X008147Y002833D01*
X008147Y002881D02*
X008147Y002694D01*
X008157Y002655D01*
X008177Y002621D01*
X008205Y002593D01*
X008239Y002574D01*
X008277Y002563D01*
X008445Y002563D01*
X008445Y002881D01*
X008147Y002881D01*
X008445Y002833D02*
X008542Y002833D01*
X008542Y002735D02*
X008445Y002735D01*
X008445Y002636D02*
X008542Y002636D01*
X008819Y002636D02*
X008981Y002636D01*
X008959Y002735D02*
X008841Y002735D01*
X008841Y002833D02*
X008959Y002833D01*
X009258Y002735D02*
X009355Y002735D01*
X009355Y002636D02*
X009258Y002636D01*
X009355Y002932D02*
X011238Y002932D01*
X011238Y003030D02*
X009653Y003030D01*
X009653Y003129D02*
X011238Y003129D01*
X011441Y003227D02*
X009630Y003227D01*
X009630Y003326D02*
X011539Y003326D01*
X011638Y003424D02*
X009633Y003424D01*
X009640Y003523D02*
X011736Y003523D01*
X011835Y003621D02*
X009738Y003621D01*
X009837Y003720D02*
X011933Y003720D01*
X012032Y003818D02*
X009935Y003818D01*
X010034Y003917D02*
X012130Y003917D01*
X012193Y004015D02*
X010132Y004015D01*
X010231Y004114D02*
X012174Y004114D01*
X012161Y004212D02*
X010329Y004212D01*
X010428Y004311D02*
X012161Y004311D01*
X012161Y004409D02*
X010526Y004409D01*
X010625Y004508D02*
X012161Y004508D01*
X012161Y004606D02*
X010723Y004606D01*
X010822Y004705D02*
X012161Y004705D01*
X012171Y004803D02*
X010920Y004803D01*
X011019Y004902D02*
X012221Y004902D01*
X012319Y005000D02*
X011117Y005000D01*
X011216Y005099D02*
X012418Y005099D01*
X012741Y004600D02*
X014192Y004600D01*
X014168Y004575D01*
X014168Y004192D01*
X014244Y004116D01*
X014333Y004116D01*
X014865Y003584D01*
X014947Y003502D01*
X015053Y003458D01*
X015679Y003458D01*
X015679Y003014D01*
X015583Y003055D01*
X014592Y003055D01*
X014486Y003010D01*
X014361Y002885D01*
X014279Y002804D01*
X014235Y002697D01*
X014235Y002210D01*
X014196Y002171D01*
X014196Y002177D01*
X013888Y002177D01*
X013888Y002215D01*
X014196Y002215D01*
X014196Y002354D01*
X014186Y002392D01*
X014166Y002426D01*
X014138Y002454D01*
X014123Y002463D01*
X014176Y002516D01*
X014176Y002900D01*
X014100Y002976D01*
X013856Y002976D01*
X013716Y003116D01*
X014100Y003116D01*
X014176Y003192D01*
X014176Y003575D01*
X014112Y003640D01*
X014176Y003704D01*
X014176Y004087D01*
X014100Y004163D01*
X013898Y004163D01*
X013772Y004289D01*
X013649Y004412D01*
X013457Y004412D01*
X013457Y004465D01*
X013381Y004541D01*
X013028Y004541D01*
X013011Y004551D01*
X012973Y004561D01*
X012839Y004561D01*
X012839Y004216D01*
X012811Y004216D01*
X012811Y004561D01*
X012741Y004561D01*
X012741Y004600D01*
X012811Y004508D02*
X012839Y004508D01*
X012839Y004409D02*
X012811Y004409D01*
X012811Y004311D02*
X012839Y004311D01*
X013414Y004508D02*
X014168Y004508D01*
X014168Y004409D02*
X013652Y004409D01*
X013751Y004311D02*
X014168Y004311D01*
X014168Y004212D02*
X013849Y004212D01*
X014149Y004114D02*
X014335Y004114D01*
X014433Y004015D02*
X014176Y004015D01*
X014176Y003917D02*
X014532Y003917D01*
X014630Y003818D02*
X014176Y003818D01*
X014176Y003720D02*
X014729Y003720D01*
X014827Y003621D02*
X014130Y003621D01*
X014176Y003523D02*
X014926Y003523D01*
X014176Y003424D02*
X015679Y003424D01*
X015679Y003326D02*
X014176Y003326D01*
X014176Y003227D02*
X015679Y003227D01*
X015679Y003129D02*
X014112Y003129D01*
X013802Y003030D02*
X014533Y003030D01*
X014407Y002932D02*
X014144Y002932D01*
X014176Y002833D02*
X014308Y002833D01*
X014250Y002735D02*
X014176Y002735D01*
X014176Y002636D02*
X014235Y002636D01*
X014235Y002538D02*
X014176Y002538D01*
X014153Y002439D02*
X014235Y002439D01*
X014235Y002341D02*
X014196Y002341D01*
X014196Y002242D02*
X014235Y002242D01*
X013850Y002215D02*
X013850Y002177D01*
X013542Y002177D01*
X013542Y002039D01*
X013552Y002000D01*
X013572Y001966D01*
X013599Y001938D01*
X013634Y001919D01*
X013668Y001910D01*
X013617Y001888D01*
X013476Y001748D01*
X013400Y001564D01*
X013400Y001515D01*
X012950Y001515D01*
X012950Y001615D01*
X013419Y001615D01*
X013407Y001686D01*
X013382Y001764D01*
X013345Y001837D01*
X013297Y001903D01*
X013239Y001961D01*
X013173Y002009D01*
X013100Y002046D01*
X013087Y002051D01*
X013183Y002091D01*
X013324Y002231D01*
X013400Y002415D01*
X013400Y002614D01*
X013324Y002798D01*
X013183Y002938D01*
X013041Y002998D01*
X013241Y002998D01*
X013562Y002677D01*
X013562Y002516D01*
X013615Y002463D01*
X013599Y002454D01*
X013572Y002426D01*
X013552Y002392D01*
X013542Y002354D01*
X013542Y002215D01*
X013850Y002215D01*
X013542Y002242D02*
X013328Y002242D01*
X013369Y002341D02*
X013542Y002341D01*
X013585Y002439D02*
X013400Y002439D01*
X013400Y002538D02*
X013562Y002538D01*
X013562Y002636D02*
X013391Y002636D01*
X013350Y002735D02*
X013504Y002735D01*
X013405Y002833D02*
X013289Y002833D01*
X013307Y002932D02*
X013190Y002932D01*
X012172Y002833D02*
X011812Y002833D01*
X011812Y002735D02*
X012073Y002735D01*
X012161Y002932D02*
X011812Y002932D01*
X011837Y003030D02*
X012161Y003030D01*
X012161Y003129D02*
X011936Y003129D01*
X012034Y003227D02*
X012161Y003227D01*
X012161Y003326D02*
X012133Y003326D01*
X011238Y002538D02*
X004353Y002538D01*
X004353Y002636D02*
X008168Y002636D01*
X008147Y002735D02*
X004353Y002735D01*
X003639Y002833D02*
X003036Y002833D01*
X003054Y002932D02*
X003621Y002932D01*
X003621Y003030D02*
X003054Y003030D01*
X002728Y003129D02*
X003947Y003129D01*
X003947Y003227D02*
X004047Y003227D01*
X004047Y003129D02*
X008147Y003129D01*
X008147Y003030D02*
X004373Y003030D01*
X004373Y003227D02*
X008170Y003227D01*
X008817Y003227D02*
X008983Y003227D01*
X008959Y003129D02*
X008841Y003129D01*
X008841Y003030D02*
X008959Y003030D01*
X006925Y003326D02*
X004373Y003326D01*
X004331Y003424D02*
X006925Y003424D01*
X006925Y003523D02*
X002197Y003523D01*
X002226Y003424D02*
X002344Y003424D01*
X002302Y003326D02*
X002247Y003326D01*
X002247Y003227D02*
X002302Y003227D01*
X002628Y003227D02*
X002728Y003227D01*
X002728Y003326D02*
X002628Y003326D01*
X002628Y003424D02*
X002728Y003424D01*
X003012Y003424D02*
X003663Y003424D01*
X003621Y003326D02*
X003054Y003326D01*
X003054Y003227D02*
X003621Y003227D01*
X003947Y003326D02*
X004047Y003326D01*
X004047Y003424D02*
X003947Y003424D01*
X004502Y003714D02*
X004530Y003686D01*
X004564Y003666D01*
X004602Y003656D01*
X005005Y003656D01*
X005005Y004465D01*
X004472Y004465D01*
X004472Y003786D01*
X004482Y003748D01*
X004502Y003714D01*
X004498Y003720D02*
X002434Y003720D01*
X002533Y003818D02*
X004472Y003818D01*
X004472Y003917D02*
X002631Y003917D01*
X003034Y004015D02*
X003641Y004015D01*
X004353Y004015D02*
X004472Y004015D01*
X004472Y004114D02*
X004353Y004114D01*
X004353Y004212D02*
X004472Y004212D01*
X004472Y004311D02*
X004353Y004311D01*
X004353Y004409D02*
X004472Y004409D01*
X004353Y004508D02*
X005005Y004508D01*
X005005Y004465D02*
X005005Y004565D01*
X005005Y005373D01*
X004602Y005373D01*
X004564Y005363D01*
X004530Y005343D01*
X004502Y005315D01*
X004482Y005281D01*
X004472Y005243D01*
X004472Y004565D01*
X005005Y004565D01*
X005105Y004565D01*
X005105Y005373D01*
X005508Y005373D01*
X005546Y005363D01*
X005580Y005343D01*
X005608Y005315D01*
X005628Y005281D01*
X005638Y005243D01*
X005638Y004565D01*
X005105Y004565D01*
X005105Y004465D01*
X005638Y004465D01*
X005638Y003786D01*
X005628Y003748D01*
X005608Y003714D01*
X005580Y003686D01*
X005546Y003666D01*
X005508Y003656D01*
X005105Y003656D01*
X005105Y004465D01*
X005005Y004465D01*
X005005Y004409D02*
X005105Y004409D01*
X005105Y004311D02*
X005005Y004311D01*
X005005Y004212D02*
X005105Y004212D01*
X005105Y004114D02*
X005005Y004114D01*
X005005Y004015D02*
X005105Y004015D01*
X005105Y003917D02*
X005005Y003917D01*
X005005Y003818D02*
X005105Y003818D01*
X005105Y003720D02*
X005005Y003720D01*
X005611Y003720D02*
X006925Y003720D01*
X006925Y003818D02*
X005638Y003818D01*
X005638Y003917D02*
X006943Y003917D01*
X006997Y004135D02*
X007035Y004125D01*
X007445Y004125D01*
X007445Y004465D01*
X006905Y004465D01*
X006905Y004255D01*
X006915Y004217D01*
X006935Y004182D01*
X006963Y004155D01*
X006997Y004135D01*
X006918Y004212D02*
X005638Y004212D01*
X005638Y004311D02*
X006905Y004311D01*
X006905Y004409D02*
X005638Y004409D01*
X005638Y004606D02*
X006905Y004606D01*
X006905Y004565D02*
X006905Y004774D01*
X006915Y004812D01*
X006935Y004847D01*
X006963Y004875D01*
X006997Y004894D01*
X007035Y004905D01*
X007445Y004905D01*
X007445Y004565D01*
X007545Y004565D01*
X007545Y004905D01*
X007955Y004905D01*
X007993Y004894D01*
X008027Y004875D01*
X008055Y004847D01*
X008075Y004812D01*
X008085Y004774D01*
X008085Y004565D01*
X007545Y004565D01*
X007545Y004465D01*
X008085Y004465D01*
X008085Y004255D01*
X008075Y004217D01*
X008055Y004182D01*
X008027Y004155D01*
X007993Y004135D01*
X007955Y004125D01*
X007545Y004125D01*
X007545Y004465D01*
X007445Y004465D01*
X007445Y004565D01*
X006905Y004565D01*
X006905Y004705D02*
X005638Y004705D01*
X005638Y004803D02*
X006913Y004803D01*
X007024Y004902D02*
X005638Y004902D01*
X005638Y005000D02*
X008153Y005000D01*
X008157Y005017D02*
X008147Y004979D01*
X008147Y004791D01*
X008445Y004791D01*
X008445Y004694D01*
X008147Y004694D01*
X008147Y004506D01*
X008157Y004468D01*
X008177Y004434D01*
X008205Y004406D01*
X008239Y004386D01*
X008277Y004376D01*
X008445Y004376D01*
X008445Y004694D01*
X008542Y004694D01*
X008542Y004376D01*
X008710Y004376D01*
X008748Y004386D01*
X008783Y004406D01*
X008811Y004434D01*
X008830Y004468D01*
X008841Y004506D01*
X008841Y004694D01*
X008542Y004694D01*
X008542Y004791D01*
X008841Y004791D01*
X008841Y004979D01*
X008830Y005017D01*
X008811Y005051D01*
X008783Y005079D01*
X008767Y005088D01*
X008801Y005122D01*
X008999Y005122D01*
X009033Y005088D01*
X009017Y005079D01*
X008989Y005051D01*
X008970Y005017D01*
X008959Y004979D01*
X008959Y004791D01*
X009258Y004791D01*
X009258Y004694D01*
X009355Y004694D01*
X009355Y004791D01*
X009653Y004791D01*
X009653Y004979D01*
X009643Y005017D01*
X009623Y005051D01*
X009595Y005079D01*
X009580Y005088D01*
X009623Y005131D01*
X009750Y005131D01*
X009780Y005101D01*
X009919Y005043D01*
X010069Y005043D01*
X010208Y005101D01*
X010314Y005207D01*
X010371Y005346D01*
X010371Y005496D01*
X010314Y005635D01*
X010208Y005741D01*
X010069Y005798D01*
X009919Y005798D01*
X009780Y005741D01*
X009750Y005711D01*
X009604Y005711D01*
X009557Y005758D01*
X009056Y005758D01*
X008999Y005702D01*
X008801Y005702D01*
X008744Y005758D01*
X008243Y005758D01*
X008199Y005715D01*
X008065Y005715D01*
X008065Y005718D01*
X007989Y005795D01*
X007001Y005795D01*
X006925Y005718D01*
X006925Y005631D01*
X006331Y005631D01*
X005893Y006068D01*
X004639Y006068D01*
X004639Y006070D01*
X004563Y006146D01*
X004140Y006146D01*
X004064Y006070D01*
X004064Y005647D01*
X004140Y005571D01*
X004563Y005571D01*
X004639Y005647D01*
X004639Y005648D01*
X005719Y005648D01*
X006034Y005334D01*
X006157Y005211D01*
X006925Y005211D01*
X006925Y005131D01*
X007001Y005055D01*
X007989Y005055D01*
X008065Y005131D01*
X008065Y005135D01*
X008174Y005135D01*
X008220Y005088D01*
X008205Y005079D01*
X008177Y005051D01*
X008157Y005017D01*
X008210Y005099D02*
X008033Y005099D01*
X007966Y004902D02*
X008147Y004902D01*
X008147Y004803D02*
X008077Y004803D01*
X008085Y004705D02*
X008445Y004705D01*
X008542Y004705D02*
X009258Y004705D01*
X009258Y004694D02*
X008959Y004694D01*
X008959Y004506D01*
X008970Y004468D01*
X008989Y004434D01*
X009017Y004406D01*
X009052Y004386D01*
X009090Y004376D01*
X009258Y004376D01*
X009258Y004694D01*
X009258Y004606D02*
X009355Y004606D01*
X009355Y004694D02*
X009355Y004376D01*
X009523Y004376D01*
X009561Y004386D01*
X009595Y004406D01*
X009623Y004434D01*
X009643Y004468D01*
X009653Y004506D01*
X009653Y004694D01*
X009355Y004694D01*
X009355Y004705D02*
X010001Y004705D01*
X009903Y004606D02*
X009653Y004606D01*
X009653Y004508D02*
X009804Y004508D01*
X009706Y004409D02*
X009598Y004409D01*
X009607Y004311D02*
X008085Y004311D01*
X008085Y004409D02*
X008202Y004409D01*
X008147Y004508D02*
X007545Y004508D01*
X007545Y004606D02*
X007445Y004606D01*
X007445Y004508D02*
X005105Y004508D01*
X005105Y004606D02*
X005005Y004606D01*
X005005Y004705D02*
X005105Y004705D01*
X005105Y004803D02*
X005005Y004803D01*
X005005Y004902D02*
X005105Y004902D01*
X005105Y005000D02*
X005005Y005000D01*
X005005Y005099D02*
X005105Y005099D01*
X005105Y005197D02*
X005005Y005197D01*
X005005Y005296D02*
X005105Y005296D01*
X005619Y005296D02*
X006072Y005296D01*
X005974Y005394D02*
X001341Y005394D01*
X001350Y005493D02*
X005875Y005493D01*
X005777Y005591D02*
X004583Y005591D01*
X004120Y005591D02*
X003993Y005591D01*
X003972Y005571D02*
X004048Y005647D01*
X004048Y006070D01*
X003972Y006146D01*
X003550Y006146D01*
X003473Y006070D01*
X003473Y006068D01*
X003374Y006068D01*
X003374Y006160D01*
X003298Y006236D01*
X002796Y006236D01*
X002720Y006160D01*
X002720Y006142D01*
X002714Y006164D01*
X002695Y006198D01*
X002667Y006226D01*
X002633Y006246D01*
X002594Y006256D01*
X002426Y006256D01*
X002426Y005938D01*
X002329Y005938D01*
X002329Y005841D01*
X002031Y005841D01*
X002031Y005653D01*
X002041Y005615D01*
X002061Y005581D01*
X002089Y005553D01*
X002123Y005533D01*
X002161Y005523D01*
X002329Y005523D01*
X002329Y005841D01*
X002426Y005841D01*
X002426Y005523D01*
X002594Y005523D01*
X002633Y005533D01*
X002667Y005553D01*
X002695Y005581D01*
X002714Y005615D01*
X002720Y005637D01*
X002720Y005619D01*
X002796Y005543D01*
X003298Y005543D01*
X003374Y005619D01*
X003374Y005648D01*
X003473Y005648D01*
X003473Y005647D01*
X003550Y005571D01*
X003972Y005571D01*
X004048Y005690D02*
X004064Y005690D01*
X004064Y005788D02*
X004048Y005788D01*
X004048Y005887D02*
X004064Y005887D01*
X004064Y005985D02*
X004048Y005985D01*
X004035Y006084D02*
X004078Y006084D01*
X004625Y006084D02*
X014559Y006084D01*
X014657Y006182D02*
X003352Y006182D01*
X003374Y006084D02*
X003487Y006084D01*
X002742Y006182D02*
X002704Y006182D01*
X002426Y006182D02*
X002329Y006182D01*
X002329Y006256D02*
X002161Y006256D01*
X002123Y006246D01*
X002089Y006226D01*
X002061Y006198D01*
X002041Y006164D01*
X002031Y006126D01*
X002031Y005938D01*
X002329Y005938D01*
X002329Y006256D01*
X002052Y006182D02*
X001325Y006182D01*
X001374Y006231D02*
X001233Y006091D01*
X001049Y006015D01*
X000851Y006015D01*
X000667Y006091D01*
X000526Y006231D01*
X000450Y006415D01*
X000450Y006614D01*
X000526Y006798D01*
X000667Y006938D01*
X000851Y007015D01*
X001049Y007015D01*
X001233Y006938D01*
X001374Y006798D01*
X001450Y006614D01*
X001450Y006415D01*
X001374Y006231D01*
X001394Y006281D02*
X014756Y006281D01*
X014854Y006379D02*
X001435Y006379D01*
X001450Y006478D02*
X019914Y006478D01*
X020012Y006379D02*
X017946Y006379D01*
X018044Y006281D02*
X020050Y006281D01*
X020050Y006182D02*
X018143Y006182D01*
X018241Y006084D02*
X019053Y006084D01*
X018954Y005985D02*
X018299Y005985D01*
X018315Y005887D02*
X018749Y005887D01*
X018577Y005788D02*
X018315Y005788D01*
X018315Y005690D02*
X018501Y005690D01*
X018461Y005591D02*
X018315Y005591D01*
X018315Y005493D02*
X018460Y005493D01*
X018412Y005394D02*
X018315Y005394D01*
X018315Y005296D02*
X018409Y005296D01*
X018409Y005197D02*
X018315Y005197D01*
X018315Y005099D02*
X018409Y005099D01*
X018409Y005000D02*
X018315Y005000D01*
X018315Y004902D02*
X018409Y004902D01*
X018409Y004803D02*
X018315Y004803D01*
X018315Y004705D02*
X018346Y004705D01*
X018909Y004748D02*
X018909Y005137D01*
X018913Y005137D01*
X019049Y005194D01*
X019475Y004768D01*
X019377Y004768D01*
X019377Y004469D01*
X019695Y004469D01*
X019695Y004548D01*
X019876Y004366D01*
X019876Y004221D01*
X019952Y004145D01*
X020336Y004145D01*
X020389Y004198D01*
X020398Y004183D01*
X020426Y004155D01*
X020460Y004135D01*
X020498Y004125D01*
X020637Y004125D01*
X020637Y004433D01*
X020675Y004433D01*
X020675Y004471D01*
X020944Y004471D01*
X020944Y004648D01*
X021282Y004648D01*
X021659Y004271D01*
X021659Y003919D01*
X021631Y003892D01*
X021589Y003789D01*
X021589Y003678D01*
X021631Y003575D01*
X021710Y003496D01*
X021813Y003453D01*
X021924Y003453D01*
X022027Y003496D01*
X022106Y003575D01*
X022149Y003678D01*
X022149Y003789D01*
X022106Y003892D01*
X022079Y003919D01*
X022079Y004445D01*
X021579Y004945D01*
X021456Y005068D01*
X020688Y005068D01*
X020588Y005169D01*
X020683Y005169D01*
X020683Y005467D01*
X020740Y005467D01*
X020740Y005169D01*
X020889Y005169D01*
X020927Y005179D01*
X020961Y005199D01*
X020989Y005227D01*
X021009Y005261D01*
X021019Y005299D01*
X021019Y005467D01*
X020740Y005467D01*
X020740Y005525D01*
X021019Y005525D01*
X021019Y005640D01*
X022450Y005640D01*
X022542Y005678D01*
X022612Y005748D01*
X023254Y006390D01*
X023400Y006390D01*
X023400Y002052D01*
X023337Y002052D01*
X023263Y001978D01*
X023189Y002052D01*
X022747Y002052D01*
X022673Y001978D01*
X022599Y002052D01*
X022156Y002052D01*
X022082Y001978D01*
X022008Y002052D01*
X021566Y002052D01*
X021489Y001976D01*
X021489Y001475D01*
X021566Y001398D01*
X022008Y001398D01*
X022082Y001472D01*
X022156Y001398D01*
X022599Y001398D01*
X022673Y001472D01*
X022747Y001398D01*
X023189Y001398D01*
X023263Y001472D01*
X023337Y001398D01*
X023400Y001398D01*
X023400Y001015D01*
X018122Y001015D01*
X018184Y001076D01*
X018184Y002522D01*
X018107Y002598D01*
X017394Y002598D01*
X018189Y003394D01*
X018189Y003394D01*
X018271Y003475D01*
X018315Y003582D01*
X018315Y004168D01*
X018389Y004094D01*
X018929Y004094D01*
X018983Y004147D01*
X018992Y004132D01*
X019020Y004104D01*
X019054Y004084D01*
X019092Y004074D01*
X019280Y004074D01*
X019280Y004372D01*
X019377Y004372D01*
X019377Y004074D01*
X019565Y004074D01*
X019603Y004084D01*
X019637Y004104D01*
X019665Y004132D01*
X019685Y004166D01*
X019695Y004204D01*
X019695Y004372D01*
X019377Y004372D01*
X019377Y004469D01*
X019280Y004469D01*
X019280Y004768D01*
X019092Y004768D01*
X019054Y004757D01*
X019020Y004738D01*
X018992Y004710D01*
X018983Y004694D01*
X018929Y004748D01*
X018909Y004748D01*
X018909Y004803D02*
X019440Y004803D01*
X019341Y004902D02*
X018909Y004902D01*
X018909Y005000D02*
X019243Y005000D01*
X019144Y005099D02*
X018909Y005099D01*
X017735Y004819D02*
X017674Y004759D01*
X017094Y004759D01*
X017018Y004835D01*
X017018Y005847D01*
X016766Y005596D01*
X016766Y004835D01*
X016690Y004759D01*
X016110Y004759D01*
X016034Y004835D01*
X016034Y005596D01*
X015782Y005847D01*
X015782Y004835D01*
X015706Y004759D01*
X015126Y004759D01*
X015050Y004835D01*
X015050Y005051D01*
X015041Y005051D01*
X014782Y004793D01*
X014782Y004704D01*
X014718Y004640D01*
X014782Y004575D01*
X014782Y004487D01*
X015231Y004038D01*
X015679Y004038D01*
X015679Y004609D01*
X015756Y004685D01*
X016257Y004685D01*
X016333Y004609D01*
X016333Y002887D01*
X016257Y002811D01*
X015889Y002811D01*
X015895Y002805D01*
X016533Y002805D01*
X016505Y002821D01*
X016477Y002849D01*
X016457Y002883D01*
X016447Y002921D01*
X016447Y003699D01*
X016745Y003699D01*
X016745Y003796D01*
X016447Y003796D01*
X016447Y004575D01*
X016457Y004613D01*
X016477Y004647D01*
X016505Y004675D01*
X016539Y004695D01*
X016577Y004705D01*
X016745Y004705D01*
X016745Y003796D01*
X016842Y003796D01*
X017141Y003796D01*
X017141Y004575D01*
X017130Y004613D01*
X017111Y004647D01*
X017083Y004675D01*
X017048Y004695D01*
X017010Y004705D01*
X016842Y004705D01*
X016842Y003796D01*
X016842Y003699D01*
X017141Y003699D01*
X017141Y003165D01*
X017735Y003760D01*
X017735Y004819D01*
X017735Y004803D02*
X017719Y004803D01*
X017735Y004705D02*
X017012Y004705D01*
X017132Y004606D02*
X017735Y004606D01*
X017735Y004508D02*
X017141Y004508D01*
X017141Y004409D02*
X017735Y004409D01*
X017735Y004311D02*
X017141Y004311D01*
X017141Y004212D02*
X017735Y004212D01*
X017735Y004114D02*
X017141Y004114D01*
X017141Y004015D02*
X017735Y004015D01*
X017735Y003917D02*
X017141Y003917D01*
X017141Y003818D02*
X017735Y003818D01*
X017695Y003720D02*
X016842Y003720D01*
X016745Y003720D02*
X016333Y003720D01*
X016333Y003818D02*
X016447Y003818D01*
X016447Y003917D02*
X016333Y003917D01*
X016333Y004015D02*
X016447Y004015D01*
X016447Y004114D02*
X016333Y004114D01*
X016333Y004212D02*
X016447Y004212D01*
X016447Y004311D02*
X016333Y004311D01*
X016333Y004409D02*
X016447Y004409D01*
X016447Y004508D02*
X016333Y004508D01*
X016333Y004606D02*
X016455Y004606D01*
X016576Y004705D02*
X014782Y004705D01*
X014751Y004606D02*
X015679Y004606D01*
X015679Y004508D02*
X014782Y004508D01*
X014860Y004409D02*
X015679Y004409D01*
X015679Y004311D02*
X014958Y004311D01*
X015057Y004212D02*
X015679Y004212D01*
X015679Y004114D02*
X015155Y004114D01*
X016333Y003621D02*
X016447Y003621D01*
X016447Y003523D02*
X016333Y003523D01*
X016333Y003424D02*
X016447Y003424D01*
X016447Y003326D02*
X016333Y003326D01*
X016333Y003227D02*
X016447Y003227D01*
X016447Y003129D02*
X016333Y003129D01*
X016333Y003030D02*
X016447Y003030D01*
X016447Y002932D02*
X016333Y002932D01*
X016279Y002833D02*
X016492Y002833D01*
X015679Y003030D02*
X015642Y003030D01*
X017141Y003227D02*
X017202Y003227D01*
X017141Y003326D02*
X017301Y003326D01*
X017399Y003424D02*
X017141Y003424D01*
X017141Y003523D02*
X017498Y003523D01*
X017596Y003621D02*
X017141Y003621D01*
X016842Y003818D02*
X016745Y003818D01*
X016745Y003917D02*
X016842Y003917D01*
X016842Y004015D02*
X016745Y004015D01*
X016745Y004114D02*
X016842Y004114D01*
X016842Y004212D02*
X016745Y004212D01*
X016745Y004311D02*
X016842Y004311D01*
X016842Y004409D02*
X016745Y004409D01*
X016745Y004508D02*
X016842Y004508D01*
X016842Y004606D02*
X016745Y004606D01*
X016745Y004705D02*
X016842Y004705D01*
X016735Y004803D02*
X017050Y004803D01*
X017018Y004902D02*
X016766Y004902D01*
X016766Y005000D02*
X017018Y005000D01*
X017018Y005099D02*
X016766Y005099D01*
X016766Y005197D02*
X017018Y005197D01*
X017018Y005296D02*
X016766Y005296D01*
X016766Y005394D02*
X017018Y005394D01*
X017018Y005493D02*
X016766Y005493D01*
X016766Y005591D02*
X017018Y005591D01*
X017018Y005690D02*
X016860Y005690D01*
X016959Y005788D02*
X017018Y005788D01*
X016434Y006084D02*
X016366Y006084D01*
X016268Y006182D02*
X016532Y006182D01*
X016631Y006281D02*
X016169Y006281D01*
X016146Y006304D02*
X016146Y006304D01*
X016071Y006379D02*
X016729Y006379D01*
X016736Y006970D02*
X017048Y006970D01*
X017018Y007069D02*
X016766Y007069D01*
X016766Y007167D02*
X017018Y007167D01*
X017018Y007266D02*
X016766Y007266D01*
X016766Y007364D02*
X017018Y007364D01*
X017018Y007463D02*
X016766Y007463D01*
X016766Y007561D02*
X017018Y007561D01*
X017018Y007660D02*
X016766Y007660D01*
X016766Y007758D02*
X017018Y007758D01*
X017018Y007857D02*
X016766Y007857D01*
X016766Y007955D02*
X017018Y007955D01*
X017750Y007955D02*
X021538Y007955D01*
X021497Y007857D02*
X017750Y007857D01*
X017750Y007758D02*
X021495Y007758D01*
X021528Y007660D02*
X017750Y007660D01*
X017750Y007561D02*
X021496Y007561D01*
X021489Y007463D02*
X017750Y007463D01*
X017750Y007364D02*
X021489Y007364D01*
X021489Y007266D02*
X020862Y007266D01*
X020881Y007167D02*
X021489Y007167D01*
X021489Y007069D02*
X020881Y007069D01*
X020881Y006996D02*
X020612Y006996D01*
X020612Y006687D01*
X020751Y006687D01*
X020789Y006698D01*
X020823Y006717D01*
X020851Y006745D01*
X020871Y006780D01*
X020881Y006818D01*
X020881Y006996D01*
X020881Y006970D02*
X022837Y006970D01*
X022738Y006872D02*
X020881Y006872D01*
X020867Y006773D02*
X022640Y006773D01*
X022541Y006675D02*
X020272Y006675D01*
X020575Y006773D02*
X020612Y006773D01*
X020612Y006872D02*
X020575Y006872D01*
X020575Y006970D02*
X020612Y006970D01*
X020612Y007069D02*
X020575Y007069D01*
X020575Y007167D02*
X020612Y007167D01*
X020612Y007266D02*
X020575Y007266D01*
X019834Y007266D02*
X017750Y007266D01*
X017750Y007167D02*
X019814Y007167D01*
X019814Y007069D02*
X017750Y007069D01*
X017720Y006970D02*
X019814Y006970D01*
X019814Y006872D02*
X001300Y006872D01*
X001384Y006773D02*
X019824Y006773D01*
X019892Y006675D02*
X001425Y006675D01*
X001450Y006576D02*
X019892Y006576D01*
X020603Y006576D02*
X022443Y006576D01*
X023243Y006379D02*
X023400Y006379D01*
X023400Y006281D02*
X023145Y006281D01*
X023046Y006182D02*
X023400Y006182D01*
X023400Y006084D02*
X022948Y006084D01*
X022849Y005985D02*
X023400Y005985D01*
X023400Y005887D02*
X022751Y005887D01*
X022652Y005788D02*
X023400Y005788D01*
X023400Y005690D02*
X022554Y005690D01*
X023400Y005591D02*
X021019Y005591D01*
X020740Y005493D02*
X023400Y005493D01*
X023400Y005394D02*
X021019Y005394D01*
X020740Y005394D02*
X020683Y005394D01*
X020683Y005467D02*
X020404Y005467D01*
X020404Y005352D01*
X020251Y005505D01*
X020251Y005640D01*
X020404Y005640D01*
X020404Y005525D01*
X020683Y005525D01*
X020683Y005467D01*
X020683Y005493D02*
X020264Y005493D01*
X020251Y005591D02*
X020404Y005591D01*
X020404Y005394D02*
X020362Y005394D01*
X020683Y005296D02*
X020740Y005296D01*
X020740Y005197D02*
X020683Y005197D01*
X020658Y005099D02*
X023400Y005099D01*
X023400Y005197D02*
X020958Y005197D01*
X021018Y005296D02*
X023400Y005296D01*
X023400Y005000D02*
X021524Y005000D01*
X021622Y004902D02*
X023400Y004902D01*
X023400Y004803D02*
X021721Y004803D01*
X021819Y004705D02*
X023400Y004705D01*
X023400Y004606D02*
X021918Y004606D01*
X022016Y004508D02*
X023400Y004508D01*
X023400Y004409D02*
X022079Y004409D01*
X022079Y004311D02*
X023400Y004311D01*
X023400Y004212D02*
X022079Y004212D01*
X022079Y004114D02*
X023400Y004114D01*
X023400Y004015D02*
X022079Y004015D01*
X022081Y003917D02*
X023400Y003917D01*
X023400Y003818D02*
X022137Y003818D01*
X022149Y003720D02*
X023400Y003720D01*
X023400Y003621D02*
X022125Y003621D01*
X022054Y003523D02*
X023400Y003523D01*
X023400Y003424D02*
X021408Y003424D01*
X021394Y003410D02*
X021470Y003486D01*
X021470Y003929D01*
X021394Y004005D01*
X020892Y004005D01*
X020816Y003929D01*
X020816Y003486D01*
X020892Y003410D01*
X021394Y003410D01*
X021394Y003355D02*
X020892Y003355D01*
X020816Y003279D01*
X020816Y002837D01*
X020892Y002761D01*
X021394Y002761D01*
X021470Y002837D01*
X021470Y003279D01*
X021394Y003355D01*
X021423Y003326D02*
X023400Y003326D01*
X023400Y003227D02*
X021470Y003227D01*
X021470Y003129D02*
X023400Y003129D01*
X023400Y003030D02*
X021470Y003030D01*
X021470Y002932D02*
X023400Y002932D01*
X023400Y002833D02*
X021466Y002833D01*
X020820Y002833D02*
X017629Y002833D01*
X017727Y002932D02*
X020816Y002932D01*
X020816Y003030D02*
X017826Y003030D01*
X017924Y003129D02*
X020816Y003129D01*
X020816Y003227D02*
X018023Y003227D01*
X018121Y003326D02*
X020863Y003326D01*
X020878Y003424D02*
X018220Y003424D01*
X018290Y003523D02*
X020816Y003523D01*
X020816Y003621D02*
X018315Y003621D01*
X018315Y003720D02*
X020816Y003720D01*
X020816Y003818D02*
X018315Y003818D01*
X018315Y003917D02*
X020816Y003917D01*
X021470Y003917D02*
X021656Y003917D01*
X021659Y004015D02*
X018315Y004015D01*
X018315Y004114D02*
X018369Y004114D01*
X018949Y004114D02*
X019010Y004114D01*
X019280Y004114D02*
X019377Y004114D01*
X019647Y004114D02*
X021659Y004114D01*
X021659Y004212D02*
X020931Y004212D01*
X020933Y004217D02*
X020944Y004255D01*
X020944Y004433D01*
X020675Y004433D01*
X020675Y004125D01*
X020813Y004125D01*
X020852Y004135D01*
X020886Y004155D01*
X020914Y004183D01*
X020933Y004217D01*
X020944Y004311D02*
X021620Y004311D01*
X021521Y004409D02*
X020944Y004409D01*
X020944Y004508D02*
X021423Y004508D01*
X021324Y004606D02*
X020944Y004606D01*
X020675Y004409D02*
X020637Y004409D01*
X020637Y004311D02*
X020675Y004311D01*
X020675Y004212D02*
X020637Y004212D01*
X019885Y004212D02*
X019695Y004212D01*
X019695Y004311D02*
X019876Y004311D01*
X019834Y004409D02*
X019377Y004409D01*
X019377Y004311D02*
X019280Y004311D01*
X019280Y004212D02*
X019377Y004212D01*
X019377Y004508D02*
X019280Y004508D01*
X019280Y004606D02*
X019377Y004606D01*
X019377Y004705D02*
X019280Y004705D01*
X018989Y004705D02*
X018973Y004705D01*
X019695Y004508D02*
X019735Y004508D01*
X021470Y003818D02*
X021601Y003818D01*
X021589Y003720D02*
X021470Y003720D01*
X021470Y003621D02*
X021612Y003621D01*
X021684Y003523D02*
X021470Y003523D01*
X023400Y002735D02*
X017530Y002735D01*
X017432Y002636D02*
X023400Y002636D01*
X023400Y002538D02*
X018168Y002538D01*
X018184Y002439D02*
X023400Y002439D01*
X023400Y002341D02*
X018184Y002341D01*
X018184Y002242D02*
X023400Y002242D01*
X023400Y002144D02*
X018184Y002144D01*
X018184Y002045D02*
X021559Y002045D01*
X021489Y001947D02*
X018184Y001947D01*
X018184Y001848D02*
X021489Y001848D01*
X021489Y001750D02*
X018184Y001750D01*
X018184Y001651D02*
X021489Y001651D01*
X021489Y001553D02*
X018184Y001553D01*
X018184Y001454D02*
X021510Y001454D01*
X022064Y001454D02*
X022100Y001454D01*
X022654Y001454D02*
X022691Y001454D01*
X023245Y001454D02*
X023282Y001454D01*
X023400Y001356D02*
X018184Y001356D01*
X018184Y001257D02*
X023400Y001257D01*
X023400Y001159D02*
X018184Y001159D01*
X018168Y001060D02*
X023400Y001060D01*
X023330Y002045D02*
X023196Y002045D01*
X022740Y002045D02*
X022606Y002045D01*
X022149Y002045D02*
X022015Y002045D01*
X017294Y002045D02*
X015506Y002045D01*
X015506Y001947D02*
X017294Y001947D01*
X017294Y001848D02*
X015506Y001848D01*
X015506Y001750D02*
X017294Y001750D01*
X017294Y001651D02*
X015506Y001651D01*
X015506Y001553D02*
X017294Y001553D01*
X017294Y001454D02*
X015506Y001454D01*
X015506Y001356D02*
X017294Y001356D01*
X017294Y001257D02*
X015506Y001257D01*
X015506Y001159D02*
X017294Y001159D01*
X017294Y001076D02*
X017355Y001015D01*
X015445Y001015D01*
X015506Y001076D01*
X015506Y002373D01*
X015611Y002269D01*
X015717Y002225D01*
X016958Y002225D01*
X017064Y002269D01*
X017146Y002350D01*
X017146Y002350D01*
X017294Y002498D01*
X017294Y001076D01*
X017309Y001060D02*
X015491Y001060D01*
X013680Y001015D02*
X012120Y001015D01*
X012183Y001041D01*
X012324Y001181D01*
X012400Y001365D01*
X012400Y001421D01*
X012418Y001365D01*
X012455Y001292D01*
X012503Y001226D01*
X012561Y001168D01*
X012627Y001120D01*
X012700Y001083D01*
X012778Y001057D01*
X012850Y001046D01*
X012850Y001515D01*
X012950Y001515D01*
X012950Y001046D01*
X013022Y001057D01*
X013100Y001083D01*
X013173Y001120D01*
X013239Y001168D01*
X013297Y001226D01*
X013345Y001292D01*
X013382Y001365D01*
X013400Y001421D01*
X013400Y001365D01*
X013476Y001181D01*
X013617Y001041D01*
X013680Y001015D01*
X013597Y001060D02*
X013030Y001060D01*
X012950Y001060D02*
X012850Y001060D01*
X012770Y001060D02*
X012203Y001060D01*
X012301Y001159D02*
X012574Y001159D01*
X012481Y001257D02*
X012355Y001257D01*
X012850Y001257D02*
X012950Y001257D01*
X012950Y001159D02*
X012850Y001159D01*
X013226Y001159D02*
X013499Y001159D01*
X013445Y001257D02*
X013319Y001257D01*
X013377Y001356D02*
X013404Y001356D01*
X012950Y001356D02*
X012850Y001356D01*
X012850Y001454D02*
X012950Y001454D01*
X012950Y001553D02*
X013400Y001553D01*
X013413Y001651D02*
X013436Y001651D01*
X013478Y001750D02*
X013387Y001750D01*
X013337Y001848D02*
X013576Y001848D01*
X013591Y001947D02*
X013253Y001947D01*
X013102Y002045D02*
X013542Y002045D01*
X013542Y002144D02*
X013236Y002144D01*
X012547Y001947D02*
X012043Y001947D01*
X011757Y001947D02*
X011225Y001947D01*
X011324Y001848D02*
X011576Y001848D01*
X011478Y001750D02*
X011365Y001750D01*
X011400Y001651D02*
X011436Y001651D01*
X011400Y001553D02*
X011400Y001553D01*
X011395Y001454D02*
X011400Y001454D01*
X011404Y001356D02*
X011355Y001356D01*
X011300Y001257D02*
X011445Y001257D01*
X011499Y001159D02*
X011201Y001159D01*
X011597Y001060D02*
X010203Y001060D01*
X010301Y001159D02*
X010599Y001159D01*
X010500Y001257D02*
X010355Y001257D01*
X010396Y001356D02*
X010445Y001356D01*
X010405Y001454D02*
X010400Y001454D01*
X010400Y001553D02*
X010400Y001553D01*
X010400Y001651D02*
X010364Y001651D01*
X010322Y001750D02*
X010435Y001750D01*
X010476Y001848D02*
X010224Y001848D01*
X010043Y001947D02*
X010575Y001947D01*
X009757Y001947D02*
X009225Y001947D01*
X009324Y001848D02*
X009576Y001848D01*
X009478Y001750D02*
X009365Y001750D01*
X009400Y001651D02*
X009436Y001651D01*
X009400Y001553D02*
X009400Y001553D01*
X009395Y001454D02*
X009400Y001454D01*
X009404Y001356D02*
X009355Y001356D01*
X009300Y001257D02*
X009445Y001257D01*
X009499Y001159D02*
X009201Y001159D01*
X009597Y001060D02*
X008203Y001060D01*
X008301Y001159D02*
X008599Y001159D01*
X008500Y001257D02*
X008355Y001257D01*
X008396Y001356D02*
X008445Y001356D01*
X008405Y001454D02*
X008400Y001454D01*
X008400Y001553D02*
X008400Y001553D01*
X008400Y001651D02*
X008364Y001651D01*
X008322Y001750D02*
X008435Y001750D01*
X008476Y001848D02*
X008224Y001848D01*
X008043Y001947D02*
X008575Y001947D01*
X007757Y001947D02*
X007225Y001947D01*
X007324Y001848D02*
X007576Y001848D01*
X007478Y001750D02*
X007365Y001750D01*
X007400Y001651D02*
X007436Y001651D01*
X007400Y001553D02*
X007400Y001553D01*
X007395Y001454D02*
X007400Y001454D01*
X007404Y001356D02*
X007355Y001356D01*
X007300Y001257D02*
X007445Y001257D01*
X007499Y001159D02*
X007201Y001159D01*
X007597Y001060D02*
X006203Y001060D01*
X006301Y001159D02*
X006599Y001159D01*
X006500Y001257D02*
X006355Y001257D01*
X006396Y001356D02*
X006445Y001356D01*
X006405Y001454D02*
X006400Y001454D01*
X006400Y001553D02*
X006400Y001553D01*
X006400Y001651D02*
X006364Y001651D01*
X006322Y001750D02*
X006435Y001750D01*
X006476Y001848D02*
X006224Y001848D01*
X006043Y001947D02*
X006575Y001947D01*
X005757Y001947D02*
X005225Y001947D01*
X005324Y001848D02*
X005576Y001848D01*
X005478Y001750D02*
X005365Y001750D01*
X005400Y001651D02*
X005436Y001651D01*
X005400Y001553D02*
X005400Y001553D01*
X005395Y001454D02*
X005400Y001454D01*
X005404Y001356D02*
X005355Y001356D01*
X005300Y001257D02*
X005445Y001257D01*
X005499Y001159D02*
X005201Y001159D01*
X005597Y001060D02*
X004203Y001060D01*
X004301Y001159D02*
X004599Y001159D01*
X004500Y001257D02*
X004355Y001257D01*
X004396Y001356D02*
X004445Y001356D01*
X004405Y001454D02*
X004400Y001454D01*
X004400Y001553D02*
X004400Y001553D01*
X004400Y001651D02*
X004364Y001651D01*
X004322Y001750D02*
X004435Y001750D01*
X004476Y001848D02*
X004224Y001848D01*
X004043Y001947D02*
X004575Y001947D01*
X003757Y001947D02*
X003225Y001947D01*
X003324Y001848D02*
X003576Y001848D01*
X003478Y001750D02*
X003365Y001750D01*
X003400Y001651D02*
X003436Y001651D01*
X003400Y001553D02*
X003400Y001553D01*
X003395Y001454D02*
X003400Y001454D01*
X003404Y001356D02*
X003355Y001356D01*
X003300Y001257D02*
X003445Y001257D01*
X003499Y001159D02*
X003201Y001159D01*
X003597Y001060D02*
X002203Y001060D01*
X002301Y001159D02*
X002599Y001159D01*
X002500Y001257D02*
X002355Y001257D01*
X002396Y001356D02*
X002445Y001356D01*
X002405Y001454D02*
X002400Y001454D01*
X002400Y001553D02*
X002400Y001553D01*
X002400Y001651D02*
X002364Y001651D01*
X002322Y001750D02*
X002435Y001750D01*
X002476Y001848D02*
X002224Y001848D01*
X002043Y001947D02*
X002575Y001947D01*
X002180Y002144D02*
X011238Y002144D01*
X011238Y002242D02*
X004314Y002242D01*
X004353Y002341D02*
X011238Y002341D01*
X011238Y002439D02*
X004353Y002439D01*
X003680Y002242D02*
X002995Y002242D01*
X002361Y002242D02*
X002227Y002242D01*
X001620Y002144D02*
X001286Y002144D01*
X001378Y002242D02*
X001573Y002242D01*
X000753Y002045D02*
X000400Y002045D01*
X000400Y001947D02*
X000575Y001947D01*
X000476Y001848D02*
X000400Y001848D01*
X000400Y001750D02*
X000435Y001750D01*
X000400Y001651D02*
X000400Y001651D01*
X000400Y001553D02*
X000400Y001553D01*
X000400Y001454D02*
X000405Y001454D01*
X000400Y001356D02*
X000445Y001356D01*
X000400Y001257D02*
X000500Y001257D01*
X000599Y001159D02*
X000400Y001159D01*
X000400Y002144D02*
X000614Y002144D01*
X000522Y002242D02*
X000400Y002242D01*
X000400Y002341D02*
X000481Y002341D01*
X000450Y002439D02*
X000400Y002439D01*
X000400Y002538D02*
X000450Y002538D01*
X000459Y002636D02*
X000400Y002636D01*
X000400Y002735D02*
X000500Y002735D01*
X000561Y002833D02*
X000400Y002833D01*
X000400Y002932D02*
X000660Y002932D01*
X000713Y003030D02*
X000400Y003030D01*
X000400Y003129D02*
X000529Y003129D01*
X000430Y003227D02*
X000400Y003227D01*
X000987Y003030D02*
X001553Y003030D01*
X001852Y003129D02*
X001171Y003129D01*
X001270Y003227D02*
X001553Y003227D01*
X001553Y003326D02*
X001313Y003326D01*
X001350Y003424D02*
X001574Y003424D01*
X001603Y003523D02*
X001350Y003523D01*
X000426Y003798D02*
X000400Y003735D01*
X000400Y005294D01*
X000426Y005231D01*
X000567Y005091D01*
X000751Y005015D01*
X000806Y005015D01*
X000750Y004996D01*
X000677Y004959D01*
X000611Y004911D01*
X000553Y004853D01*
X000505Y004787D01*
X000468Y004714D01*
X000443Y004636D01*
X000431Y004565D01*
X000900Y004565D01*
X000900Y004465D01*
X000431Y004465D01*
X000443Y004393D01*
X000468Y004315D01*
X000505Y004242D01*
X000553Y004176D01*
X000611Y004118D01*
X000677Y004070D01*
X000750Y004033D01*
X000806Y004015D01*
X000751Y004015D01*
X000567Y003938D01*
X000426Y003798D01*
X000446Y003818D02*
X000400Y003818D01*
X000400Y003917D02*
X000545Y003917D01*
X000400Y004015D02*
X000805Y004015D01*
X000900Y004015D02*
X001000Y004015D01*
X001000Y003996D02*
X001041Y004002D01*
X001023Y003984D01*
X000949Y004015D01*
X000900Y004015D01*
X000900Y004465D01*
X001000Y004465D01*
X001000Y003996D01*
X001000Y004114D02*
X000900Y004114D01*
X000617Y004114D02*
X000400Y004114D01*
X000400Y004212D02*
X000527Y004212D01*
X000470Y004311D02*
X000400Y004311D01*
X000400Y004409D02*
X000440Y004409D01*
X000400Y004508D02*
X000900Y004508D01*
X000900Y004606D02*
X001000Y004606D01*
X001000Y004565D02*
X001000Y005033D01*
X001072Y005022D01*
X001150Y004996D01*
X001223Y004959D01*
X001289Y004911D01*
X001347Y004853D01*
X001395Y004787D01*
X001432Y004714D01*
X001457Y004636D01*
X001469Y004565D01*
X001000Y004565D01*
X001000Y004508D02*
X001852Y004508D01*
X001948Y004508D02*
X002322Y004508D01*
X002332Y004532D02*
X002332Y004532D01*
X002302Y004606D02*
X002247Y004606D01*
X002247Y004540D02*
X001948Y004540D01*
X001948Y004858D01*
X002117Y004858D01*
X002155Y004848D01*
X002189Y004828D01*
X002217Y004800D01*
X002237Y004766D01*
X002247Y004728D01*
X002247Y004540D01*
X002247Y004409D02*
X002322Y004409D01*
X002322Y004311D02*
X002247Y004311D01*
X002234Y004212D02*
X002322Y004212D01*
X002234Y004114D02*
X002206Y004114D01*
X001594Y004114D02*
X001283Y004114D01*
X001373Y004212D02*
X001566Y004212D01*
X001553Y004311D02*
X001430Y004311D01*
X001460Y004409D02*
X001553Y004409D01*
X001553Y004606D02*
X001462Y004606D01*
X001435Y004705D02*
X001553Y004705D01*
X001852Y004705D02*
X001948Y004705D01*
X001948Y004606D02*
X001852Y004606D01*
X002247Y004705D02*
X002302Y004705D01*
X002214Y004803D02*
X002628Y004803D01*
X002628Y004881D02*
X002302Y004881D01*
X002302Y005058D01*
X002312Y005096D01*
X002332Y005130D01*
X002360Y005158D01*
X002394Y005178D01*
X002432Y005188D01*
X002628Y005188D01*
X002628Y004881D01*
X002628Y004902D02*
X002728Y004902D01*
X002728Y005000D02*
X002628Y005000D01*
X002628Y005099D02*
X002728Y005099D01*
X003043Y005099D02*
X003632Y005099D01*
X003631Y005096D02*
X003621Y005058D01*
X003621Y004881D01*
X003947Y004881D01*
X003947Y005188D01*
X003751Y005188D01*
X003713Y005178D01*
X003678Y005158D01*
X003651Y005130D01*
X003631Y005096D01*
X003621Y005000D02*
X003054Y005000D01*
X003054Y004902D02*
X003621Y004902D01*
X003947Y004902D02*
X004047Y004902D01*
X004047Y005000D02*
X003947Y005000D01*
X003947Y005099D02*
X004047Y005099D01*
X004362Y005099D02*
X004472Y005099D01*
X004472Y005197D02*
X001240Y005197D01*
X001300Y005296D02*
X004490Y005296D01*
X004472Y005000D02*
X004373Y005000D01*
X004373Y004902D02*
X004472Y004902D01*
X004472Y004803D02*
X004047Y004803D01*
X003947Y004803D02*
X002728Y004803D01*
X002302Y004902D02*
X001298Y004902D01*
X001383Y004803D02*
X001586Y004803D01*
X001852Y004803D02*
X001948Y004803D01*
X002302Y005000D02*
X001139Y005000D01*
X001141Y005099D02*
X002313Y005099D01*
X003054Y004705D02*
X003621Y004705D01*
X003621Y004606D02*
X003054Y004606D01*
X003034Y004508D02*
X003641Y004508D01*
X003651Y004532D02*
X003651Y004532D01*
X004373Y004606D02*
X004472Y004606D01*
X004472Y004705D02*
X004373Y004705D01*
X005638Y005099D02*
X006957Y005099D01*
X006925Y005197D02*
X005638Y005197D01*
X006272Y005690D02*
X006925Y005690D01*
X006995Y005788D02*
X006173Y005788D01*
X006075Y005887D02*
X014362Y005887D01*
X014263Y005788D02*
X010094Y005788D01*
X010259Y005690D02*
X014165Y005690D01*
X014460Y005985D02*
X005976Y005985D01*
X007995Y005788D02*
X009894Y005788D01*
X010332Y005591D02*
X010857Y005591D01*
X010789Y005493D02*
X010371Y005493D01*
X010371Y005394D02*
X010691Y005394D01*
X010592Y005296D02*
X010350Y005296D01*
X010304Y005197D02*
X010494Y005197D01*
X010395Y005099D02*
X010202Y005099D01*
X010297Y005000D02*
X009647Y005000D01*
X009653Y004902D02*
X010198Y004902D01*
X010100Y004803D02*
X009653Y004803D01*
X008959Y004803D02*
X008841Y004803D01*
X008841Y004902D02*
X008959Y004902D01*
X008965Y005000D02*
X008835Y005000D01*
X008778Y005099D02*
X009022Y005099D01*
X009590Y005099D02*
X009785Y005099D01*
X008959Y004606D02*
X008841Y004606D01*
X008841Y004508D02*
X008959Y004508D01*
X009014Y004409D02*
X008786Y004409D01*
X008542Y004409D02*
X008445Y004409D01*
X008445Y004508D02*
X008542Y004508D01*
X008542Y004606D02*
X008445Y004606D01*
X008147Y004606D02*
X008085Y004606D01*
X007545Y004705D02*
X007445Y004705D01*
X007445Y004803D02*
X007545Y004803D01*
X007545Y004902D02*
X007445Y004902D01*
X007445Y004409D02*
X007545Y004409D01*
X007545Y004311D02*
X007445Y004311D01*
X007445Y004212D02*
X007545Y004212D01*
X008072Y004212D02*
X009509Y004212D01*
X009410Y004114D02*
X005638Y004114D01*
X005638Y004015D02*
X009312Y004015D01*
X009026Y003917D02*
X008774Y003917D01*
X008214Y003917D02*
X008047Y003917D01*
X006925Y003621D02*
X002336Y003621D01*
X002628Y003129D02*
X001948Y003129D01*
X002247Y003030D02*
X002302Y003030D01*
X002302Y002932D02*
X002247Y002932D01*
X002223Y002833D02*
X002320Y002833D01*
X001577Y002833D02*
X001339Y002833D01*
X001400Y002735D02*
X001576Y002735D01*
X001553Y002932D02*
X001240Y002932D01*
X001000Y004212D02*
X000900Y004212D01*
X000900Y004311D02*
X001000Y004311D01*
X001000Y004409D02*
X000900Y004409D01*
X000438Y004606D02*
X000400Y004606D01*
X000400Y004705D02*
X000465Y004705D01*
X000517Y004803D02*
X000400Y004803D01*
X000400Y004902D02*
X000602Y004902D01*
X000761Y005000D02*
X000400Y005000D01*
X000400Y005099D02*
X000559Y005099D01*
X000460Y005197D02*
X000400Y005197D01*
X000900Y005000D02*
X001000Y005000D01*
X001000Y004902D02*
X000900Y004902D01*
X000900Y004803D02*
X001000Y004803D01*
X001000Y004705D02*
X000900Y004705D01*
X001350Y005591D02*
X002055Y005591D01*
X002031Y005690D02*
X001319Y005690D01*
X001278Y005788D02*
X002031Y005788D01*
X002329Y005788D02*
X002426Y005788D01*
X002426Y005690D02*
X002329Y005690D01*
X002329Y005591D02*
X002426Y005591D01*
X002701Y005591D02*
X002748Y005591D01*
X003346Y005591D02*
X003529Y005591D01*
X002329Y005887D02*
X001185Y005887D01*
X001021Y005985D02*
X002031Y005985D01*
X002031Y006084D02*
X001216Y006084D01*
X000684Y006084D02*
X000400Y006084D01*
X000400Y006182D02*
X000575Y006182D01*
X000506Y006281D02*
X000400Y006281D01*
X000400Y006379D02*
X000465Y006379D01*
X000450Y006478D02*
X000400Y006478D01*
X000400Y006576D02*
X000450Y006576D01*
X000475Y006675D02*
X000400Y006675D01*
X000400Y006773D02*
X000516Y006773D01*
X000600Y006872D02*
X000400Y006872D01*
X000400Y006970D02*
X000743Y006970D01*
X000791Y007069D02*
X000400Y007069D01*
X000400Y007167D02*
X000590Y007167D01*
X000492Y007266D02*
X000400Y007266D01*
X000400Y007364D02*
X000442Y007364D01*
X000400Y007463D02*
X000401Y007463D01*
X000400Y007561D02*
X000400Y007561D01*
X000400Y007660D02*
X000400Y007660D01*
X000400Y007758D02*
X000439Y007758D01*
X000400Y007857D02*
X000485Y007857D01*
X000400Y007955D02*
X000583Y007955D01*
X001217Y007955D02*
X001778Y007955D01*
X001801Y007965D02*
X001617Y007888D01*
X001476Y007748D01*
X001400Y007564D01*
X001400Y007365D01*
X001476Y007181D01*
X001617Y007041D01*
X001801Y006965D01*
X001999Y006965D01*
X002183Y007041D01*
X002324Y007181D01*
X002400Y007365D01*
X002400Y007564D01*
X002324Y007748D01*
X002183Y007888D01*
X001999Y007965D01*
X001801Y007965D01*
X002022Y007955D02*
X002583Y007955D01*
X002485Y007857D02*
X002215Y007857D01*
X002314Y007758D02*
X002439Y007758D01*
X002400Y007660D02*
X002360Y007660D01*
X002400Y007561D02*
X002400Y007561D01*
X002400Y007463D02*
X002401Y007463D01*
X002400Y007364D02*
X002442Y007364D01*
X002492Y007266D02*
X002359Y007266D01*
X002310Y007167D02*
X002590Y007167D01*
X002791Y007069D02*
X002211Y007069D01*
X002013Y006970D02*
X003787Y006970D01*
X003801Y006965D02*
X003999Y006965D01*
X004183Y007041D01*
X004324Y007181D01*
X004400Y007365D01*
X004400Y007564D01*
X004324Y007748D01*
X004183Y007888D01*
X003999Y007965D01*
X003801Y007965D01*
X003617Y007888D01*
X003476Y007748D01*
X003400Y007564D01*
X003400Y007365D01*
X003476Y007181D01*
X003617Y007041D01*
X003801Y006965D01*
X004013Y006970D02*
X005787Y006970D01*
X005801Y006965D02*
X005999Y006965D01*
X006183Y007041D01*
X006324Y007181D01*
X006400Y007365D01*
X006400Y007564D01*
X006324Y007748D01*
X006183Y007888D01*
X005999Y007965D01*
X005801Y007965D01*
X005617Y007888D01*
X005476Y007748D01*
X005400Y007564D01*
X005400Y007365D01*
X005476Y007181D01*
X005617Y007041D01*
X005801Y006965D01*
X006013Y006970D02*
X007787Y006970D01*
X007801Y006965D02*
X007999Y006965D01*
X008183Y007041D01*
X008324Y007181D01*
X008400Y007365D01*
X008400Y007564D01*
X008324Y007748D01*
X008183Y007888D01*
X007999Y007965D01*
X007801Y007965D01*
X007617Y007888D01*
X007476Y007748D01*
X007400Y007564D01*
X007400Y007365D01*
X007476Y007181D01*
X007617Y007041D01*
X007801Y006965D01*
X008013Y006970D02*
X009787Y006970D01*
X009801Y006965D02*
X009999Y006965D01*
X010183Y007041D01*
X010324Y007181D01*
X010400Y007365D01*
X010400Y007564D01*
X010324Y007748D01*
X010183Y007888D01*
X009999Y007965D01*
X009801Y007965D01*
X009617Y007888D01*
X009476Y007748D01*
X009400Y007564D01*
X009400Y007365D01*
X009476Y007181D01*
X009617Y007041D01*
X009801Y006965D01*
X010013Y006970D02*
X011787Y006970D01*
X011801Y006965D02*
X011999Y006965D01*
X012183Y007041D01*
X012324Y007181D01*
X012400Y007365D01*
X012400Y007564D01*
X012324Y007748D01*
X012183Y007888D01*
X011999Y007965D01*
X011801Y007965D01*
X011617Y007888D01*
X011476Y007748D01*
X011400Y007564D01*
X011400Y007365D01*
X011476Y007181D01*
X011617Y007041D01*
X011801Y006965D01*
X012013Y006970D02*
X013739Y006970D01*
X013700Y006983D02*
X013778Y006957D01*
X013850Y006946D01*
X013850Y007415D01*
X013381Y007415D01*
X013393Y007343D01*
X013418Y007265D01*
X013455Y007192D01*
X013503Y007126D01*
X013561Y007068D01*
X013627Y007020D01*
X013700Y006983D01*
X013850Y006970D02*
X013950Y006970D01*
X013950Y006946D02*
X014022Y006957D01*
X014100Y006983D01*
X014173Y007020D01*
X014239Y007068D01*
X014297Y007126D01*
X014345Y007192D01*
X014382Y007265D01*
X014407Y007343D01*
X014419Y007415D01*
X013950Y007415D01*
X013950Y007515D01*
X013850Y007515D01*
X013850Y007415D01*
X013950Y007415D01*
X013950Y006946D01*
X014061Y006970D02*
X015080Y006970D01*
X015050Y007069D02*
X014239Y007069D01*
X014327Y007167D02*
X015050Y007167D01*
X015050Y007266D02*
X014382Y007266D01*
X014411Y007364D02*
X015050Y007364D01*
X015050Y007463D02*
X013950Y007463D01*
X013950Y007515D02*
X014419Y007515D01*
X014407Y007586D01*
X014382Y007664D01*
X014345Y007737D01*
X014297Y007803D01*
X014239Y007861D01*
X014173Y007909D01*
X014100Y007946D01*
X014022Y007972D01*
X013950Y007983D01*
X013950Y007515D01*
X013950Y007561D02*
X013850Y007561D01*
X013850Y007463D02*
X013399Y007463D01*
X013389Y007364D02*
X013358Y007364D01*
X013308Y007266D02*
X013418Y007266D01*
X013473Y007167D02*
X013210Y007167D01*
X013009Y007069D02*
X013561Y007069D01*
X013850Y007069D02*
X013950Y007069D01*
X013950Y007167D02*
X013850Y007167D01*
X013850Y007266D02*
X013950Y007266D01*
X013950Y007364D02*
X013850Y007364D01*
X014411Y007561D02*
X015050Y007561D01*
X015050Y007660D02*
X014383Y007660D01*
X014330Y007758D02*
X015050Y007758D01*
X015050Y007857D02*
X014243Y007857D01*
X014073Y007955D02*
X015050Y007955D01*
X015782Y007955D02*
X016034Y007955D01*
X016034Y007857D02*
X015782Y007857D01*
X015782Y007758D02*
X016034Y007758D01*
X016034Y007660D02*
X015782Y007660D01*
X015782Y007561D02*
X016034Y007561D01*
X016034Y007463D02*
X015782Y007463D01*
X015782Y007364D02*
X016034Y007364D01*
X016034Y007266D02*
X015782Y007266D01*
X015782Y007167D02*
X016034Y007167D01*
X016034Y007069D02*
X015782Y007069D01*
X015752Y006970D02*
X016064Y006970D01*
X013950Y007660D02*
X013850Y007660D01*
X013850Y007758D02*
X013950Y007758D01*
X013950Y007857D02*
X013850Y007857D01*
X013850Y007955D02*
X013950Y007955D01*
X013727Y007955D02*
X013217Y007955D01*
X013315Y007857D02*
X013557Y007857D01*
X013470Y007758D02*
X013361Y007758D01*
X013400Y007660D02*
X013417Y007660D01*
X012583Y007955D02*
X012022Y007955D01*
X012215Y007857D02*
X012485Y007857D01*
X012439Y007758D02*
X012314Y007758D01*
X012360Y007660D02*
X012400Y007660D01*
X012400Y007561D02*
X012400Y007561D01*
X012400Y007463D02*
X012401Y007463D01*
X012400Y007364D02*
X012442Y007364D01*
X012492Y007266D02*
X012359Y007266D01*
X012310Y007167D02*
X012590Y007167D01*
X012791Y007069D02*
X012211Y007069D01*
X011589Y007069D02*
X011009Y007069D01*
X010791Y007069D02*
X010211Y007069D01*
X010310Y007167D02*
X010590Y007167D01*
X010492Y007266D02*
X010359Y007266D01*
X010400Y007364D02*
X010442Y007364D01*
X010400Y007463D02*
X010401Y007463D01*
X010400Y007561D02*
X010400Y007561D01*
X010400Y007660D02*
X010360Y007660D01*
X010314Y007758D02*
X010439Y007758D01*
X010485Y007857D02*
X010215Y007857D01*
X010022Y007955D02*
X010583Y007955D01*
X009778Y007955D02*
X009217Y007955D01*
X009315Y007857D02*
X009585Y007857D01*
X009486Y007758D02*
X009361Y007758D01*
X009400Y007660D02*
X009440Y007660D01*
X009400Y007561D02*
X009400Y007561D01*
X009399Y007463D02*
X009400Y007463D01*
X009400Y007364D02*
X009358Y007364D01*
X009308Y007266D02*
X009441Y007266D01*
X009490Y007167D02*
X009210Y007167D01*
X009009Y007069D02*
X009589Y007069D01*
X008791Y007069D02*
X008211Y007069D01*
X008310Y007167D02*
X008590Y007167D01*
X008492Y007266D02*
X008359Y007266D01*
X008400Y007364D02*
X008442Y007364D01*
X008400Y007463D02*
X008401Y007463D01*
X008400Y007561D02*
X008400Y007561D01*
X008400Y007660D02*
X008360Y007660D01*
X008314Y007758D02*
X008439Y007758D01*
X008485Y007857D02*
X008215Y007857D01*
X008022Y007955D02*
X008583Y007955D01*
X007778Y007955D02*
X007217Y007955D01*
X007315Y007857D02*
X007585Y007857D01*
X007486Y007758D02*
X007361Y007758D01*
X007400Y007660D02*
X007440Y007660D01*
X007400Y007561D02*
X007400Y007561D01*
X007399Y007463D02*
X007400Y007463D01*
X007400Y007364D02*
X007358Y007364D01*
X007308Y007266D02*
X007441Y007266D01*
X007490Y007167D02*
X007210Y007167D01*
X007009Y007069D02*
X007589Y007069D01*
X006791Y007069D02*
X006211Y007069D01*
X006310Y007167D02*
X006590Y007167D01*
X006492Y007266D02*
X006359Y007266D01*
X006400Y007364D02*
X006442Y007364D01*
X006400Y007463D02*
X006401Y007463D01*
X006400Y007561D02*
X006400Y007561D01*
X006400Y007660D02*
X006360Y007660D01*
X006314Y007758D02*
X006439Y007758D01*
X006485Y007857D02*
X006215Y007857D01*
X006022Y007955D02*
X006583Y007955D01*
X005778Y007955D02*
X005217Y007955D01*
X005315Y007857D02*
X005585Y007857D01*
X005486Y007758D02*
X005361Y007758D01*
X005400Y007660D02*
X005440Y007660D01*
X005400Y007561D02*
X005400Y007561D01*
X005399Y007463D02*
X005400Y007463D01*
X005400Y007364D02*
X005358Y007364D01*
X005308Y007266D02*
X005441Y007266D01*
X005490Y007167D02*
X005210Y007167D01*
X005009Y007069D02*
X005589Y007069D01*
X004791Y007069D02*
X004211Y007069D01*
X004310Y007167D02*
X004590Y007167D01*
X004492Y007266D02*
X004359Y007266D01*
X004400Y007364D02*
X004442Y007364D01*
X004400Y007463D02*
X004401Y007463D01*
X004400Y007561D02*
X004400Y007561D01*
X004400Y007660D02*
X004360Y007660D01*
X004314Y007758D02*
X004439Y007758D01*
X004485Y007857D02*
X004215Y007857D01*
X004022Y007955D02*
X004583Y007955D01*
X003778Y007955D02*
X003217Y007955D01*
X003315Y007857D02*
X003585Y007857D01*
X003486Y007758D02*
X003361Y007758D01*
X003400Y007660D02*
X003440Y007660D01*
X003400Y007561D02*
X003400Y007561D01*
X003399Y007463D02*
X003400Y007463D01*
X003400Y007364D02*
X003358Y007364D01*
X003308Y007266D02*
X003441Y007266D01*
X003490Y007167D02*
X003210Y007167D01*
X003009Y007069D02*
X003589Y007069D01*
X001787Y006970D02*
X001157Y006970D01*
X001009Y007069D02*
X001589Y007069D01*
X001490Y007167D02*
X001210Y007167D01*
X001308Y007266D02*
X001441Y007266D01*
X001400Y007364D02*
X001358Y007364D01*
X001399Y007463D02*
X001400Y007463D01*
X001400Y007561D02*
X001400Y007561D01*
X001400Y007660D02*
X001440Y007660D01*
X001486Y007758D02*
X001361Y007758D01*
X001315Y007857D02*
X001585Y007857D01*
X002329Y006084D02*
X002426Y006084D01*
X002426Y005985D02*
X002329Y005985D01*
X000679Y005985D02*
X000400Y005985D01*
X000400Y005887D02*
X000515Y005887D01*
X000422Y005788D02*
X000400Y005788D01*
X009258Y004508D02*
X009355Y004508D01*
X009355Y004409D02*
X009258Y004409D01*
X014793Y004803D02*
X015081Y004803D01*
X015050Y004902D02*
X014891Y004902D01*
X014990Y005000D02*
X015050Y005000D01*
X015750Y004803D02*
X016065Y004803D01*
X016034Y004902D02*
X015782Y004902D01*
X015782Y005000D02*
X016034Y005000D01*
X016034Y005099D02*
X015782Y005099D01*
X015782Y005197D02*
X016034Y005197D01*
X016034Y005296D02*
X015782Y005296D01*
X015782Y005394D02*
X016034Y005394D01*
X016034Y005493D02*
X015782Y005493D01*
X015782Y005591D02*
X016034Y005591D01*
X015940Y005690D02*
X015782Y005690D01*
X015782Y005788D02*
X015841Y005788D01*
X011490Y007167D02*
X011210Y007167D01*
X011308Y007266D02*
X011441Y007266D01*
X011400Y007364D02*
X011358Y007364D01*
X011399Y007463D02*
X011400Y007463D01*
X011400Y007561D02*
X011400Y007561D01*
X011400Y007660D02*
X011440Y007660D01*
X011486Y007758D02*
X011361Y007758D01*
X011315Y007857D02*
X011585Y007857D01*
X011778Y007955D02*
X011217Y007955D01*
X017235Y002439D02*
X017294Y002439D01*
X017294Y002341D02*
X017136Y002341D01*
X017000Y002242D02*
X017294Y002242D01*
X017294Y002144D02*
X015506Y002144D01*
X015506Y002242D02*
X015675Y002242D01*
X015539Y002341D02*
X015506Y002341D01*
X012850Y001553D02*
X012400Y001553D01*
X012387Y001651D02*
X012364Y001651D01*
X012322Y001750D02*
X012413Y001750D01*
X012463Y001848D02*
X012224Y001848D01*
X012396Y001356D02*
X012423Y001356D01*
D29*
X013900Y001465D02*
X014525Y002090D01*
X014525Y002640D01*
X014650Y002765D01*
X015525Y002765D01*
X015775Y002515D01*
X016900Y002515D01*
X018025Y003640D01*
X018025Y005890D01*
X017775Y006140D01*
X016900Y006140D01*
X016400Y005640D01*
X015900Y006140D01*
X015025Y006140D01*
X014275Y005390D01*
X011065Y005390D01*
X011065Y005358D01*
X009306Y003599D01*
X008494Y003599D01*
X008488Y003605D01*
X007495Y003605D01*
X012451Y003336D02*
X012451Y002964D01*
X012525Y002890D01*
X012900Y002515D01*
X014475Y004384D02*
X015111Y003748D01*
X016006Y003748D01*
X012619Y004890D02*
X012451Y004722D01*
X012451Y004202D01*
X012619Y004890D02*
X014469Y004890D01*
X014475Y004895D01*
X014921Y005341D01*
X015416Y005341D01*
X016400Y005341D02*
X016400Y005640D01*
X009994Y005421D02*
X009284Y005421D01*
X009306Y005412D02*
X008494Y005412D01*
X008481Y005425D01*
X007495Y005425D01*
X021056Y001265D02*
X025088Y001265D01*
X025119Y001233D01*
X025330Y001445D01*
X025330Y001725D01*
D30*
X021869Y003733D02*
X021869Y004358D01*
X021369Y004858D01*
X020601Y004858D01*
X019963Y005496D01*
X022968Y007304D02*
X022968Y007739D01*
X022994Y007765D01*
X023556Y007765D02*
X023556Y007306D01*
X023558Y007304D01*
X013869Y003895D02*
X013562Y004202D01*
X013199Y004202D01*
X013400Y003765D02*
X012275Y003765D01*
X011525Y003015D01*
X011525Y002935D01*
X011980Y002344D02*
X012525Y002890D01*
X013199Y003336D02*
X013827Y002708D01*
X013869Y002708D01*
X011980Y002344D02*
X011525Y002344D01*
X013400Y003765D02*
X013781Y003384D01*
X013869Y003384D01*
X007495Y005425D02*
X007491Y005421D01*
X006244Y005421D01*
X005806Y005858D01*
X004352Y005858D01*
X003761Y005858D02*
X003078Y005858D01*
X003047Y005890D01*
X002678Y004260D02*
X003997Y004260D01*
X002678Y004260D02*
X002240Y003822D01*
X001900Y003822D01*
X001158Y003822D01*
X000850Y003515D01*
X001900Y002461D02*
X001980Y002542D01*
X002678Y002542D01*
X002598Y002461D01*
X002678Y002542D02*
X003997Y002542D01*
X001900Y002461D02*
X001003Y002461D01*
X000950Y002515D01*
X001847Y002515D02*
X001900Y002461D01*
D31*
X009994Y005421D03*
X018838Y005515D03*
D32*
X018659Y005336D01*
X018659Y004421D01*
X019082Y005515D02*
X020144Y004452D01*
X019082Y005515D02*
X018838Y005515D01*
X019213Y005890D01*
X022400Y005890D01*
X023150Y006640D01*
X025088Y006640D01*
X025330Y006882D01*
X025330Y007304D01*
M02*
