%
M48
M72
T01C0.0140
T02C0.0330
T03C0.0400
%
T01
X5431Y2108
X8306Y2171
X14494Y3421
X17275Y3452
X19025Y3202
X21869Y3733
X22588Y4515
X17572Y4608
X17259Y4608
X17259Y4296
X17572Y4296
X16884Y4983
X15463Y4577
X15119Y4577
X11367Y4388
X8869Y4233
X6150Y4358
X6572Y5905
X1713Y6140
X16431Y1640
X18869Y1452
X19244Y1452
X21431Y1233
X23088Y1265
X19400Y6515
X21556Y6608
X21775Y7796
X22369Y7796
X22994Y7765
X23556Y7765
T02
X18838Y5515
X9994Y5421
T03
X1900Y1465
X900Y1565
X2900Y1565
X3900Y1465
X4900Y1565
X5900Y1465
X6900Y1565
X7900Y1465
X8900Y1565
X9900Y1465
X10900Y1565
X11900Y1465
X12900Y1565
X13900Y1465
X12900Y2515
X950Y2515
X850Y3515
X950Y4515
X850Y5515
X950Y6515
X1900Y7465
X900Y7565
X2900Y7565
X3900Y7465
X4900Y7565
X5900Y7465
X6900Y7565
X7900Y7465
X8900Y7565
X9900Y7465
X10900Y7565
X11900Y7465
X12900Y7565
X13900Y7465
M30
