%
M48
M72
T01C0.0140
T02C0.0330
T03C0.0400
%
T01
X5591Y2108
X8466Y2171
X14654Y3421
X17435Y3452
X19185Y3202
X22029Y3733
X22748Y4515
X17732Y4608
X17419Y4608
X17419Y4296
X17732Y4296
X15623Y4577
X15279Y4577
X17044Y4983
X19560Y6515
X21716Y6608
X23154Y7765
X23716Y7765
X22529Y7796
X21935Y7796
X11527Y4388
X9029Y4233
X6310Y4358
X6732Y5905
X1873Y6140
X16591Y1640
X19029Y1452
X19404Y1452
X21591Y1233
X23248Y1265
T02
X10154Y5421
X18998Y5515
T03
X2060Y1465
X3060Y1565
X4060Y1465
X5060Y1565
X6060Y1465
X7060Y1565
X8060Y1465
X9060Y1565
X10060Y1465
X11060Y1565
X12060Y1465
X13060Y1565
X14060Y1465
X13060Y2515
X1110Y2515
X1060Y1565
X1010Y3515
X1110Y4515
X1010Y5515
X1110Y6515
X2060Y7465
X3060Y7565
X4060Y7465
X5060Y7565
X6060Y7465
X7060Y7565
X8060Y7465
X9060Y7565
X10060Y7465
X11060Y7565
X12060Y7465
X13060Y7565
X14060Y7465
X1060Y7565
M30
