%
M48
M72
T01C0.0140
T02C0.0200
T03C0.0330
T04C0.0393
T05C0.0400
%
T01
X2560Y3640
X1873Y6140
X5623Y3546
X5591Y2108
X7435Y4390
X9373Y3108
X11154Y4515
X11279Y2233
X14654Y3421
X15279Y4577
X15623Y4577
X17044Y4983
X17419Y4608
X17419Y4296
X17732Y4296
X17732Y4608
X18779Y5046
X18779Y4155
X19810Y4140
X17435Y3452
X16560Y1702
X18623Y1671
X20560Y1640
X22560Y2015
X24560Y1702
X25685Y3046
X26998Y5108
X27529Y4983
X28560Y4015
X29154Y4015
X29748Y4015
X29435Y3327
X29623Y2640
X29748Y1265
X28216Y6608
X28435Y7640
X29029Y7640
X29748Y9095
X29623Y10470
X29435Y11157
X29154Y11845
X29748Y11845
X28560Y11845
X27529Y12813
X26998Y12938
X26310Y14532
X24810Y15032
X24623Y14470
X24060Y14470
X23435Y14470
X22873Y14470
X22248Y14470
X19810Y11970
X18779Y11985
X18779Y12876
X17732Y12438
X17732Y12126
X17419Y12126
X17419Y12438
X17044Y12813
X15623Y12407
X15279Y12407
X14654Y11251
X16560Y9532
X17435Y11282
X18623Y9501
X20560Y9470
X22560Y9845
X24560Y9532
X25685Y10876
X24810Y7202
X24623Y6640
X24060Y6640
X23435Y6640
X22873Y6640
X22248Y6640
X26310Y6702
X28216Y14438
X28435Y15470
X29029Y15470
X29748Y16925
X29623Y18300
X29435Y18987
X29154Y19675
X29748Y19675
X28560Y19675
X27529Y20643
X26998Y20768
X26310Y22362
X24810Y22862
X24623Y22300
X24060Y22300
X23435Y22300
X22873Y22300
X22248Y22300
X19810Y19800
X18779Y19815
X18779Y20706
X17732Y20268
X17732Y19956
X17419Y19956
X17419Y20268
X17044Y20643
X15623Y20237
X15279Y20237
X14654Y19081
X16560Y17362
X17435Y19112
X18623Y17331
X20560Y17300
X22560Y17675
X24560Y17362
X25685Y18706
X28216Y22268
X28435Y23300
X29029Y23300
X29748Y24755
X29623Y26130
X29435Y26817
X29154Y27505
X29748Y27505
X28560Y27505
X27529Y28473
X26998Y28598
X26310Y30192
X24810Y30692
X24623Y30130
X24060Y30130
X23435Y30130
X22873Y30130
X22248Y30130
X19810Y27630
X18779Y27645
X18779Y28536
X17732Y28098
X17732Y27786
X17419Y27786
X17419Y28098
X17044Y28473
X15623Y28067
X15279Y28067
X14654Y26911
X16560Y25192
X17435Y26942
X18623Y25161
X20560Y25130
X22560Y25505
X24560Y25192
X25685Y26536
X28216Y30098
X28435Y31130
X29029Y31130
X11279Y25723
X9373Y26598
X11154Y28005
X7435Y27880
X5623Y27036
X5591Y25598
X2560Y27130
X1873Y29630
X7013Y29739
X7013Y21909
X7435Y20050
X5623Y19206
X5591Y17768
X2560Y19300
X1873Y21800
X9373Y18768
X11154Y20175
X11279Y17893
X7013Y14079
X7435Y12220
X5623Y11376
X5591Y9938
X2560Y11470
X1873Y13970
X9373Y10938
X11154Y12345
X11279Y10063
X7013Y6249
T02
X18498Y3046
X19998Y3202
X18498Y10876
X19998Y11032
X18498Y18706
X19998Y18862
X18498Y26536
X19998Y26692
T03
X25498Y29005
X25498Y21175
X25498Y13345
X25498Y5515
X11341Y5077
X11341Y12907
X11341Y20737
X11341Y28567
T04
X32060Y31255
X32060Y24755
X32060Y23425
X32060Y16925
X32060Y15595
X32060Y9095
X32060Y7765
X32060Y1265
T05
X1060Y1565
X2060Y1465
X3060Y1565
X4060Y1465
X5060Y1565
X6060Y1465
X7060Y1565
X8060Y1465
X9060Y1565
X10060Y1465
X11060Y1565
X12060Y1465
X13060Y1565
X13060Y2515
X14060Y1465
X14060Y7465
X13060Y7565
X12060Y7465
X11060Y7565
X10060Y7465
X9060Y7565
X8060Y7465
X7060Y7565
X6060Y7465
X5060Y7565
X4060Y7465
X3060Y7565
X2060Y7465
X1060Y7565
X1110Y6515
X1010Y5515
X1110Y4515
X1010Y3515
X1110Y2515
X3010Y6265
X4110Y6265
X4060Y9295
X3060Y9395
X2060Y9295
X1060Y9395
X1110Y10345
X1010Y11345
X1110Y12345
X1010Y13345
X1110Y14345
X1060Y15395
X2060Y15295
X3060Y15395
X4060Y15295
X5060Y15395
X6060Y15295
X7060Y15395
X8060Y15295
X9060Y15395
X10060Y15295
X11060Y15395
X12060Y15295
X13060Y15395
X14060Y15295
X14060Y17125
X13060Y17225
X13060Y18175
X12060Y17125
X11060Y17225
X10060Y17125
X9060Y17225
X8060Y17125
X7060Y17225
X6060Y17125
X5060Y17225
X4060Y17125
X3060Y17225
X2060Y17125
X1060Y17225
X1110Y18175
X1010Y19175
X1110Y20175
X1010Y21175
X1110Y22175
X1060Y23225
X2060Y23125
X3060Y23225
X4060Y23125
X5060Y23225
X6060Y23125
X7060Y23225
X8060Y23125
X9060Y23225
X10060Y23125
X11060Y23225
X12060Y23125
X13060Y23225
X14060Y23125
X14060Y24955
X13060Y25055
X13060Y26005
X12060Y24955
X11060Y25055
X10060Y24955
X9060Y25055
X8060Y24955
X7060Y25055
X6060Y24955
X5060Y25055
X4060Y24955
X3060Y25055
X2060Y24955
X1060Y25055
X1110Y26005
X1010Y27005
X1110Y28005
X1010Y29005
X1110Y30005
X1060Y31055
X2060Y30955
X3060Y31055
X4060Y30955
X5060Y31055
X6060Y30955
X7060Y31055
X8060Y30955
X9060Y31055
X10060Y30955
X11060Y31055
X12060Y30955
X13060Y31055
X14060Y30955
X4110Y29755
X3010Y29755
X3010Y21925
X4110Y21925
X4110Y14095
X3010Y14095
X5060Y9395
X6060Y9295
X7060Y9395
X8060Y9295
X9060Y9395
X10060Y9295
X11060Y9395
X12060Y9295
X13060Y9395
X13060Y10345
X14060Y9295
M30
