G75*
G70*
%OFA0B0*%
%FSLAX24Y24*%
%IPPOS*%
%LPD*%
%AMOC8*
5,1,8,0,0,1.08239X$1,22.5*
%
%ADD10C,0.0740*%
%ADD11C,0.0600*%
%ADD12C,0.0120*%
%ADD13C,0.0300*%
%ADD14C,0.0110*%
%ADD15C,0.0100*%
%ADD16C,0.0160*%
%ADD17C,0.0360*%
%ADD18C,0.0495*%
%ADD19C,0.0320*%
D10*
X001060Y001565D03*
X002060Y001465D03*
X003060Y001565D03*
X004060Y001465D03*
X005060Y001565D03*
X006060Y001465D03*
X007060Y001565D03*
X008060Y001465D03*
X009060Y001565D03*
X010060Y001465D03*
X011060Y001565D03*
X012060Y001465D03*
X013060Y001565D03*
X013060Y002515D03*
X014060Y001465D03*
X014060Y007465D03*
X013060Y007565D03*
X012060Y007465D03*
X011060Y007565D03*
X010060Y007465D03*
X009060Y007565D03*
X008060Y007465D03*
X007060Y007565D03*
X006060Y007465D03*
X005060Y007565D03*
X004060Y007465D03*
X003060Y007565D03*
X002060Y007465D03*
X001060Y007565D03*
X001110Y006515D03*
X001010Y005515D03*
X001110Y004515D03*
X001010Y003515D03*
X001110Y002515D03*
X002060Y009295D03*
X001060Y009395D03*
X001110Y010345D03*
X001010Y011345D03*
X001110Y012345D03*
X001010Y013345D03*
X001110Y014345D03*
X001060Y015395D03*
X002060Y015295D03*
X003060Y015395D03*
X004060Y015295D03*
X005060Y015395D03*
X006060Y015295D03*
X007060Y015395D03*
X008060Y015295D03*
X009060Y015395D03*
X010060Y015295D03*
X011060Y015395D03*
X012060Y015295D03*
X013060Y015395D03*
X014060Y015295D03*
X014060Y017125D03*
X013060Y017225D03*
X013060Y018175D03*
X012060Y017125D03*
X011060Y017225D03*
X010060Y017125D03*
X009060Y017225D03*
X008060Y017125D03*
X007060Y017225D03*
X006060Y017125D03*
X005060Y017225D03*
X004060Y017125D03*
X003060Y017225D03*
X002060Y017125D03*
X001060Y017225D03*
X001110Y018175D03*
X001010Y019175D03*
X001110Y020175D03*
X001010Y021175D03*
X001110Y022175D03*
X001060Y023225D03*
X002060Y023125D03*
X003060Y023225D03*
X004060Y023125D03*
X005060Y023225D03*
X006060Y023125D03*
X007060Y023225D03*
X008060Y023125D03*
X009060Y023225D03*
X010060Y023125D03*
X011060Y023225D03*
X012060Y023125D03*
X013060Y023225D03*
X014060Y023125D03*
X014060Y024955D03*
X013060Y025055D03*
X013060Y026005D03*
X012060Y024955D03*
X011060Y025055D03*
X010060Y024955D03*
X009060Y025055D03*
X008060Y024955D03*
X007060Y025055D03*
X006060Y024955D03*
X005060Y025055D03*
X004060Y024955D03*
X003060Y025055D03*
X002060Y024955D03*
X001060Y025055D03*
X001110Y026005D03*
X001010Y027005D03*
X001110Y028005D03*
X001010Y029005D03*
X001110Y030005D03*
X001060Y031055D03*
X002060Y030955D03*
X003060Y031055D03*
X004060Y030955D03*
X005060Y031055D03*
X006060Y030955D03*
X007060Y031055D03*
X008060Y030955D03*
X009060Y031055D03*
X010060Y030955D03*
X011060Y031055D03*
X012060Y030955D03*
X013060Y031055D03*
X014060Y030955D03*
X013060Y010345D03*
X013060Y009395D03*
X012060Y009295D03*
X011060Y009395D03*
X010060Y009295D03*
X009060Y009395D03*
X008060Y009295D03*
X007060Y009395D03*
X006060Y009295D03*
X005060Y009395D03*
X004060Y009295D03*
X003060Y009395D03*
X014060Y009295D03*
D11*
X004110Y006565D02*
X004110Y005965D01*
X003010Y005965D02*
X003010Y006565D01*
X003010Y013795D02*
X003010Y014395D01*
X004110Y014395D02*
X004110Y013795D01*
X004110Y021625D02*
X004110Y022225D01*
X003010Y022225D02*
X003010Y021625D01*
X003010Y029455D02*
X003010Y030055D01*
X004110Y030055D02*
X004110Y029455D01*
D12*
X003748Y029005D02*
X004498Y029005D01*
X004623Y029130D01*
X016185Y029130D01*
X016685Y029630D01*
X028935Y029630D01*
X029154Y029411D01*
X029154Y027505D01*
X029748Y027505D02*
X029748Y029442D01*
X029373Y029817D01*
X016435Y029817D01*
X015935Y029317D01*
X006548Y029317D01*
X005391Y030473D01*
X004154Y030473D01*
X003966Y030473D02*
X003654Y030473D01*
X003073Y031055D01*
X003060Y031055D01*
X003185Y030505D02*
X002510Y030505D01*
X002060Y030955D01*
X001135Y031055D02*
X002435Y029755D01*
X002435Y029380D01*
X002998Y028817D01*
X004623Y028817D01*
X004748Y028942D01*
X016435Y028942D01*
X016935Y029442D01*
X028123Y029442D01*
X028560Y029005D01*
X028560Y027505D01*
X028060Y027317D02*
X029248Y026130D01*
X029623Y026130D01*
X028060Y027317D02*
X028060Y029067D01*
X027873Y029255D01*
X026185Y029255D01*
X025935Y029005D01*
X025935Y028317D01*
X025623Y028005D01*
X018373Y028005D01*
X017810Y027442D01*
X017341Y027442D01*
X017060Y027723D01*
X011404Y027723D01*
X009716Y026036D01*
X003141Y026036D01*
X002060Y024955D01*
X002060Y023125D02*
X002510Y022675D01*
X003185Y022675D01*
X003560Y022300D01*
X003560Y021362D01*
X003748Y021175D01*
X004498Y021175D01*
X004623Y021300D01*
X016185Y021300D01*
X016685Y021800D01*
X028935Y021800D01*
X029154Y021581D01*
X029154Y019675D01*
X029748Y019675D02*
X029748Y021612D01*
X029373Y021987D01*
X016435Y021987D01*
X015935Y021487D01*
X006548Y021487D01*
X005391Y022643D01*
X004154Y022643D01*
X003966Y022643D02*
X003654Y022643D01*
X003073Y023225D01*
X003060Y023225D01*
X002435Y021925D02*
X002435Y021550D01*
X002998Y020987D01*
X004623Y020987D01*
X004748Y021112D01*
X016435Y021112D01*
X016935Y021612D01*
X028123Y021612D01*
X028560Y021175D01*
X028560Y019675D01*
X028060Y019487D02*
X029248Y018300D01*
X029623Y018300D01*
X028060Y019487D02*
X028060Y021237D01*
X027873Y021425D01*
X026185Y021425D01*
X025935Y021175D01*
X025935Y020487D01*
X025623Y020175D01*
X018373Y020175D01*
X017810Y019612D01*
X017341Y019612D01*
X017060Y019893D01*
X011404Y019893D01*
X009716Y018206D01*
X003141Y018206D01*
X002060Y017125D01*
X002060Y015295D02*
X002510Y014845D01*
X003185Y014845D01*
X003560Y014470D01*
X003560Y013532D01*
X003748Y013345D01*
X004498Y013345D01*
X004623Y013470D01*
X016185Y013470D01*
X016685Y013970D01*
X028935Y013970D01*
X029154Y013751D01*
X029154Y011845D01*
X029748Y011845D02*
X029748Y013782D01*
X029373Y014157D01*
X016435Y014157D01*
X015935Y013657D01*
X006548Y013657D01*
X005391Y014813D01*
X004154Y014813D01*
X003966Y014813D02*
X003654Y014813D01*
X003073Y015395D01*
X003060Y015395D01*
X002435Y014095D02*
X002435Y013720D01*
X002998Y013157D01*
X004623Y013157D01*
X004748Y013282D01*
X016435Y013282D01*
X016935Y013782D01*
X028123Y013782D01*
X028560Y013345D01*
X028560Y011845D01*
X028060Y011657D02*
X029248Y010470D01*
X029623Y010470D01*
X028060Y011657D02*
X028060Y013407D01*
X027873Y013595D01*
X026185Y013595D01*
X025935Y013345D01*
X025935Y012657D01*
X025623Y012345D01*
X018373Y012345D01*
X017810Y011782D01*
X017341Y011782D01*
X017060Y012063D01*
X011404Y012063D01*
X009716Y010376D01*
X003141Y010376D01*
X002060Y009295D01*
X001135Y007565D02*
X002435Y006265D01*
X002435Y005890D01*
X002998Y005327D01*
X004623Y005327D01*
X004748Y005452D01*
X016435Y005452D01*
X016935Y005952D01*
X028123Y005952D01*
X028560Y005515D01*
X028560Y004015D01*
X028060Y003827D02*
X029248Y002640D01*
X029623Y002640D01*
X029748Y004015D02*
X029748Y005952D01*
X029373Y006327D01*
X016435Y006327D01*
X015935Y005827D01*
X006548Y005827D01*
X005391Y006983D01*
X004154Y006983D01*
X003966Y006983D02*
X003654Y006983D01*
X003073Y007565D01*
X003060Y007565D01*
X003185Y007015D02*
X002510Y007015D01*
X002060Y007465D01*
X001135Y007565D02*
X001060Y007565D01*
X003185Y007015D02*
X003560Y006640D01*
X003560Y005702D01*
X003748Y005515D01*
X004498Y005515D01*
X004623Y005640D01*
X016185Y005640D01*
X016685Y006140D01*
X028935Y006140D01*
X029154Y005921D01*
X029154Y004015D01*
X028060Y003827D02*
X028060Y005577D01*
X027873Y005765D01*
X026185Y005765D01*
X025935Y005515D01*
X025935Y004827D01*
X025623Y004515D01*
X018373Y004515D01*
X017810Y003952D01*
X017341Y003952D01*
X017060Y004233D01*
X011404Y004233D01*
X009716Y002546D01*
X003141Y002546D01*
X002060Y001465D01*
X008060Y007465D02*
X009323Y006202D01*
X015435Y006202D01*
X016185Y006952D01*
X022560Y006952D01*
X022873Y006640D01*
X022935Y007140D02*
X023435Y006640D01*
X022935Y007140D02*
X015935Y007140D01*
X015185Y006390D01*
X010235Y006390D01*
X009060Y007565D01*
X010060Y007465D02*
X010948Y006577D01*
X014935Y006577D01*
X015685Y007327D01*
X023373Y007327D01*
X024060Y006640D01*
X024623Y006640D02*
X023748Y007515D01*
X015435Y007515D01*
X014685Y006765D01*
X011860Y006765D01*
X011060Y007565D01*
X012060Y007465D02*
X012573Y006952D01*
X014498Y006952D01*
X015248Y007702D01*
X027873Y007702D01*
X028248Y007327D01*
X028623Y007327D01*
X028935Y007640D01*
X029029Y007640D01*
X028435Y007640D02*
X028123Y007952D01*
X014123Y007952D01*
X013998Y007952D02*
X013448Y007952D01*
X013060Y007565D01*
X015685Y006015D02*
X016435Y006765D01*
X022123Y006765D01*
X022248Y006640D01*
X025654Y003765D02*
X026998Y005108D01*
X025654Y003765D02*
X017248Y003765D01*
X016998Y004015D01*
X011748Y004015D01*
X009298Y001565D01*
X009060Y001565D01*
X008610Y006015D02*
X015685Y006015D01*
X017248Y011595D02*
X025654Y011595D01*
X026998Y012938D01*
X028248Y015157D02*
X028623Y015157D01*
X028935Y015470D01*
X029029Y015470D01*
X028435Y015470D02*
X028123Y015782D01*
X014123Y015782D01*
X013998Y015782D02*
X013448Y015782D01*
X013060Y015395D01*
X012573Y014782D02*
X014498Y014782D01*
X015248Y015532D01*
X027873Y015532D01*
X028248Y015157D01*
X024623Y014470D02*
X023748Y015345D01*
X015435Y015345D01*
X014685Y014595D01*
X011860Y014595D01*
X011060Y015395D01*
X010948Y014407D02*
X014935Y014407D01*
X015685Y015157D01*
X023373Y015157D01*
X024060Y014470D01*
X023435Y014470D02*
X022935Y014970D01*
X015935Y014970D01*
X015185Y014220D01*
X010235Y014220D01*
X009060Y015395D01*
X008060Y015295D02*
X009323Y014032D01*
X015435Y014032D01*
X016185Y014782D01*
X022560Y014782D01*
X022873Y014470D01*
X022248Y014470D02*
X022123Y014595D01*
X016435Y014595D01*
X015685Y013845D01*
X008610Y013845D01*
X007060Y015395D01*
X009060Y017225D02*
X009298Y017225D01*
X011748Y019675D01*
X016998Y019675D01*
X017248Y019425D01*
X025654Y019425D01*
X026998Y020768D01*
X028248Y022987D02*
X028623Y022987D01*
X028935Y023300D01*
X029029Y023300D01*
X028435Y023300D02*
X028123Y023612D01*
X014123Y023612D01*
X013998Y023612D02*
X013448Y023612D01*
X013060Y023225D01*
X012573Y022612D02*
X014498Y022612D01*
X015248Y023362D01*
X027873Y023362D01*
X028248Y022987D01*
X024623Y022300D02*
X023748Y023175D01*
X015435Y023175D01*
X014685Y022425D01*
X011860Y022425D01*
X011060Y023225D01*
X010948Y022237D02*
X014935Y022237D01*
X015685Y022987D01*
X023373Y022987D01*
X024060Y022300D01*
X023435Y022300D02*
X022935Y022800D01*
X015935Y022800D01*
X015185Y022050D01*
X010235Y022050D01*
X009060Y023225D01*
X008060Y023125D02*
X009323Y021862D01*
X015435Y021862D01*
X016185Y022612D01*
X022560Y022612D01*
X022873Y022300D01*
X022248Y022300D02*
X022123Y022425D01*
X016435Y022425D01*
X015685Y021675D01*
X008610Y021675D01*
X007060Y023225D01*
X009060Y025055D02*
X009298Y025055D01*
X011748Y027505D01*
X016998Y027505D01*
X017248Y027255D01*
X025654Y027255D01*
X026998Y028598D01*
X028248Y030817D02*
X028623Y030817D01*
X028935Y031130D01*
X029029Y031130D01*
X028435Y031130D02*
X028123Y031442D01*
X014123Y031442D01*
X013998Y031442D02*
X013448Y031442D01*
X013060Y031055D01*
X012573Y030442D02*
X014498Y030442D01*
X015248Y031192D01*
X027873Y031192D01*
X028248Y030817D01*
X024623Y030130D02*
X023748Y031005D01*
X015435Y031005D01*
X014685Y030255D01*
X011860Y030255D01*
X011060Y031055D01*
X010948Y030067D02*
X014935Y030067D01*
X015685Y030817D01*
X023373Y030817D01*
X024060Y030130D01*
X023435Y030130D02*
X022935Y030630D01*
X015935Y030630D01*
X015185Y029880D01*
X010235Y029880D01*
X009060Y031055D01*
X008060Y030955D02*
X009323Y029692D01*
X015435Y029692D01*
X016185Y030442D01*
X022560Y030442D01*
X022873Y030130D01*
X022248Y030130D02*
X022123Y030255D01*
X016435Y030255D01*
X015685Y029505D01*
X008610Y029505D01*
X007060Y031055D01*
X010060Y030955D02*
X010948Y030067D01*
X012060Y030955D02*
X012573Y030442D01*
X012060Y023125D02*
X012573Y022612D01*
X010948Y022237D02*
X010060Y023125D01*
X003748Y029005D02*
X003560Y029192D01*
X003560Y030130D01*
X003185Y030505D01*
X001135Y031055D02*
X001060Y031055D01*
X001060Y023225D02*
X001135Y023225D01*
X002435Y021925D01*
X001135Y015395D02*
X002435Y014095D01*
X001135Y015395D02*
X001060Y015395D01*
X009060Y009395D02*
X009298Y009395D01*
X011748Y011845D01*
X016998Y011845D01*
X017248Y011595D01*
X012573Y014782D02*
X012060Y015295D01*
X010948Y014407D02*
X010060Y015295D01*
X007060Y007565D02*
X008610Y006015D01*
D13*
X007013Y006249D03*
X007435Y004390D03*
X005623Y003546D03*
X005591Y002108D03*
X002560Y003640D03*
X001873Y006140D03*
X005591Y009938D03*
X005623Y011376D03*
X007435Y012220D03*
X009373Y010938D03*
X011154Y012345D03*
X011279Y010063D03*
X014654Y011251D03*
X015279Y012407D03*
X015623Y012407D03*
X017044Y012813D03*
X017419Y012438D03*
X017419Y012126D03*
X017732Y012126D03*
X017732Y012438D03*
X018779Y012876D03*
X018779Y011985D03*
X019810Y011970D03*
X017435Y011282D03*
X016560Y009532D03*
X018623Y009501D03*
X020560Y009470D03*
X022560Y009845D03*
X024560Y009532D03*
X025685Y010876D03*
X026998Y012938D03*
X027529Y012813D03*
X028560Y011845D03*
X029154Y011845D03*
X029748Y011845D03*
X029435Y011157D03*
X029623Y010470D03*
X029748Y009095D03*
X029029Y007640D03*
X028435Y007640D03*
X028216Y006608D03*
X027529Y004983D03*
X026998Y005108D03*
X028560Y004015D03*
X029154Y004015D03*
X029748Y004015D03*
X029435Y003327D03*
X029623Y002640D03*
X029748Y001265D03*
X025685Y003046D03*
X024560Y001702D03*
X022560Y002015D03*
X020560Y001640D03*
X018623Y001671D03*
X017435Y003452D03*
X017419Y004296D03*
X017419Y004608D03*
X017732Y004608D03*
X017732Y004296D03*
X017044Y004983D03*
X015623Y004577D03*
X015279Y004577D03*
X014654Y003421D03*
X016560Y001702D03*
X018779Y004155D03*
X018779Y005046D03*
X019810Y004140D03*
X022248Y006640D03*
X022873Y006640D03*
X023435Y006640D03*
X024060Y006640D03*
X024623Y006640D03*
X024810Y007202D03*
X026310Y006702D03*
X026310Y014532D03*
X024810Y015032D03*
X024623Y014470D03*
X024060Y014470D03*
X023435Y014470D03*
X022873Y014470D03*
X022248Y014470D03*
X020560Y017300D03*
X018623Y017331D03*
X017435Y019112D03*
X017419Y019956D03*
X017419Y020268D03*
X017732Y020268D03*
X017732Y019956D03*
X017044Y020643D03*
X015623Y020237D03*
X015279Y020237D03*
X014654Y019081D03*
X016560Y017362D03*
X018779Y019815D03*
X018779Y020706D03*
X019810Y019800D03*
X022560Y017675D03*
X024560Y017362D03*
X025685Y018706D03*
X026998Y020768D03*
X027529Y020643D03*
X028560Y019675D03*
X029154Y019675D03*
X029748Y019675D03*
X029435Y018987D03*
X029623Y018300D03*
X029748Y016925D03*
X029029Y015470D03*
X028435Y015470D03*
X028216Y014438D03*
X028216Y022268D03*
X028435Y023300D03*
X029029Y023300D03*
X029748Y024755D03*
X029623Y026130D03*
X029435Y026817D03*
X029154Y027505D03*
X029748Y027505D03*
X028560Y027505D03*
X027529Y028473D03*
X026998Y028598D03*
X026310Y030192D03*
X024810Y030692D03*
X024623Y030130D03*
X024060Y030130D03*
X023435Y030130D03*
X022873Y030130D03*
X022248Y030130D03*
X019810Y027630D03*
X018779Y027645D03*
X018779Y028536D03*
X017732Y028098D03*
X017732Y027786D03*
X017419Y027786D03*
X017419Y028098D03*
X017044Y028473D03*
X015623Y028067D03*
X015279Y028067D03*
X014654Y026911D03*
X016560Y025192D03*
X017435Y026942D03*
X018623Y025161D03*
X020560Y025130D03*
X022560Y025505D03*
X024560Y025192D03*
X025685Y026536D03*
X024810Y022862D03*
X024623Y022300D03*
X024060Y022300D03*
X023435Y022300D03*
X022873Y022300D03*
X022248Y022300D03*
X026310Y022362D03*
X028216Y030098D03*
X028435Y031130D03*
X029029Y031130D03*
X011279Y025723D03*
X009373Y026598D03*
X011154Y028005D03*
X007435Y027880D03*
X005623Y027036D03*
X005591Y025598D03*
X002560Y027130D03*
X001873Y029630D03*
X007013Y029739D03*
X007013Y021909D03*
X007435Y020050D03*
X005623Y019206D03*
X005591Y017768D03*
X002560Y019300D03*
X001873Y021800D03*
X009373Y018768D03*
X011154Y020175D03*
X011279Y017893D03*
X007013Y014079D03*
X002560Y011470D03*
X001873Y013970D03*
X011154Y004515D03*
X009373Y003108D03*
X011279Y002233D03*
D14*
X013998Y007952D02*
X014123Y007952D01*
X013998Y015782D02*
X014123Y015782D01*
X013998Y023612D02*
X014123Y023612D01*
X013998Y031442D02*
X014123Y031442D01*
D15*
X000560Y003294D02*
X000560Y001015D01*
X001840Y001015D01*
X001777Y001041D01*
X001636Y001181D01*
X001560Y001365D01*
X001560Y001564D01*
X001636Y001748D01*
X001777Y001888D01*
X001961Y001965D01*
X002159Y001965D01*
X002253Y001926D01*
X002951Y002625D01*
X003063Y002736D01*
X009638Y002736D01*
X011214Y004312D01*
X011325Y004423D01*
X017139Y004423D01*
X017420Y004142D01*
X017731Y004142D01*
X018183Y004593D01*
X018294Y004705D01*
X025544Y004705D01*
X011428Y004705D01*
X011416Y004700D02*
X011555Y004757D01*
X011585Y004787D01*
X016618Y004787D01*
X016724Y004831D01*
X017118Y005225D01*
X025254Y005225D01*
X025284Y005195D01*
X025422Y005137D01*
X025573Y005137D01*
X025711Y005195D01*
X025745Y005228D01*
X025745Y004906D01*
X025544Y004705D01*
X025642Y004803D02*
X016656Y004803D01*
X016795Y004902D02*
X025741Y004902D01*
X025745Y005000D02*
X016893Y005000D01*
X016992Y005099D02*
X025745Y005099D01*
X025745Y005197D02*
X025714Y005197D01*
X026125Y005197D02*
X026731Y005197D01*
X026718Y005164D02*
X026718Y005097D01*
X025575Y003955D01*
X018081Y003955D01*
X018451Y004325D01*
X025701Y004325D01*
X026014Y004637D01*
X026125Y004748D01*
X026125Y005436D01*
X026264Y005575D01*
X027794Y005575D01*
X027870Y005498D01*
X027870Y003748D01*
X029058Y002561D01*
X029169Y002450D01*
X029417Y002450D01*
X029464Y002402D01*
X029567Y002360D01*
X029678Y002360D01*
X029781Y002402D01*
X029860Y002481D01*
X029902Y002584D01*
X029902Y002695D01*
X029860Y002798D01*
X029781Y002877D01*
X029678Y002920D01*
X029567Y002920D01*
X029464Y002877D01*
X029417Y002830D01*
X029326Y002830D01*
X028250Y003906D01*
X028250Y005556D01*
X028370Y005436D01*
X028370Y004221D01*
X028323Y004173D01*
X028280Y004070D01*
X028280Y003959D01*
X028323Y003856D01*
X028401Y003777D01*
X028504Y003735D01*
X028616Y003735D01*
X028719Y003777D01*
X028797Y003856D01*
X028840Y003959D01*
X028840Y004070D01*
X028797Y004173D01*
X028750Y004221D01*
X028750Y005593D01*
X028639Y005705D01*
X028394Y005950D01*
X028856Y005950D01*
X028964Y005842D01*
X028964Y004221D01*
X028916Y004173D01*
X028874Y004070D01*
X028874Y003959D01*
X028916Y003856D01*
X028995Y003777D01*
X029098Y003735D01*
X029209Y003735D01*
X029312Y003777D01*
X029391Y003856D01*
X029434Y003959D01*
X029434Y004070D01*
X029391Y004173D01*
X029344Y004221D01*
X029344Y006000D01*
X029232Y006111D01*
X029206Y006137D01*
X029294Y006137D01*
X029558Y005873D01*
X029558Y004221D01*
X029510Y004173D01*
X029468Y004070D01*
X029468Y003959D01*
X029510Y003856D01*
X029589Y003777D01*
X029692Y003735D01*
X029803Y003735D01*
X029906Y003777D01*
X029985Y003856D01*
X030027Y003959D01*
X030027Y004070D01*
X029985Y004173D01*
X029937Y004221D01*
X029937Y006031D01*
X029826Y006142D01*
X029451Y006517D01*
X024875Y006517D01*
X024902Y006584D01*
X024902Y006695D01*
X024860Y006798D01*
X024781Y006877D01*
X024678Y006920D01*
X024611Y006920D01*
X024019Y007512D01*
X027794Y007512D01*
X028058Y007248D01*
X028169Y007137D01*
X028701Y007137D01*
X028938Y007374D01*
X028973Y007360D01*
X029084Y007360D01*
X029187Y007402D01*
X029266Y007481D01*
X029309Y007584D01*
X029309Y007695D01*
X029266Y007798D01*
X029187Y007877D01*
X029084Y007920D01*
X028973Y007920D01*
X028870Y007877D01*
X028791Y007798D01*
X028768Y007741D01*
X028745Y007718D01*
X028715Y007688D01*
X028715Y007695D01*
X028672Y007798D01*
X028594Y007877D01*
X028491Y007920D01*
X028424Y007920D01*
X028329Y008015D01*
X030060Y008015D01*
X030060Y001015D01*
X014280Y001015D01*
X014343Y001041D01*
X014484Y001181D01*
X014560Y001365D01*
X014560Y001564D01*
X014484Y001748D01*
X014343Y001888D01*
X014159Y001965D01*
X013961Y001965D01*
X013777Y001888D01*
X013636Y001748D01*
X013560Y001564D01*
X013560Y001515D01*
X013110Y001515D01*
X013110Y001615D01*
X013579Y001615D01*
X013567Y001686D01*
X013542Y001764D01*
X013505Y001837D01*
X013457Y001903D01*
X013399Y001961D01*
X013333Y002009D01*
X013260Y002046D01*
X013247Y002051D01*
X013343Y002091D01*
X013484Y002231D01*
X013560Y002415D01*
X013560Y002614D01*
X013484Y002798D01*
X013415Y002867D01*
X013504Y002867D01*
X014098Y002273D01*
X019366Y002273D01*
X019984Y002892D01*
X020059Y002892D01*
X020173Y002939D01*
X020260Y003026D01*
X020307Y003140D01*
X020307Y003264D01*
X020260Y003378D01*
X020173Y003465D01*
X020059Y003512D01*
X019936Y003512D01*
X019822Y003465D01*
X019735Y003378D01*
X019688Y003264D01*
X019688Y003189D01*
X019192Y002693D01*
X014272Y002693D01*
X013801Y003164D01*
X013678Y003287D01*
X012473Y003287D01*
X011224Y002038D01*
X011159Y002065D01*
X010961Y002065D01*
X010954Y002062D01*
X012228Y003336D01*
X013661Y003336D01*
X014038Y002959D01*
X014161Y002836D01*
X018269Y002836D01*
X018322Y002783D01*
X018436Y002736D01*
X018559Y002736D01*
X018673Y002783D01*
X018760Y002870D01*
X018807Y002984D01*
X018807Y003107D01*
X018760Y003221D01*
X018673Y003309D01*
X018559Y003356D01*
X018436Y003356D01*
X018322Y003309D01*
X018269Y003256D01*
X014334Y003256D01*
X013834Y003756D01*
X012054Y003756D01*
X011931Y003633D01*
X010233Y001934D01*
X010159Y001965D01*
X009966Y001965D01*
X011826Y003825D01*
X016919Y003825D01*
X017058Y003686D01*
X017169Y003575D01*
X025732Y003575D01*
X026986Y004828D01*
X027053Y004828D01*
X027156Y004871D01*
X027235Y004950D01*
X027277Y005053D01*
X027277Y005164D01*
X027235Y005267D01*
X027156Y005346D01*
X027053Y005388D01*
X026942Y005388D01*
X026839Y005346D01*
X026760Y005267D01*
X026718Y005164D01*
X026718Y005099D02*
X026125Y005099D01*
X026125Y005000D02*
X026621Y005000D01*
X026522Y004902D02*
X026125Y004902D01*
X026125Y004803D02*
X026424Y004803D01*
X026325Y004705D02*
X026081Y004705D01*
X025983Y004606D02*
X026227Y004606D01*
X026128Y004508D02*
X025884Y004508D01*
X025786Y004409D02*
X026030Y004409D01*
X025931Y004311D02*
X018437Y004311D01*
X018339Y004212D02*
X025833Y004212D01*
X025734Y004114D02*
X018240Y004114D01*
X018142Y004015D02*
X025636Y004015D01*
X025877Y003720D02*
X027899Y003720D01*
X027870Y003818D02*
X025976Y003818D01*
X026074Y003917D02*
X027870Y003917D01*
X027870Y004015D02*
X026173Y004015D01*
X026271Y004114D02*
X027870Y004114D01*
X027870Y004212D02*
X026370Y004212D01*
X026468Y004311D02*
X027870Y004311D01*
X027870Y004409D02*
X026567Y004409D01*
X026665Y004508D02*
X027870Y004508D01*
X027870Y004606D02*
X026764Y004606D01*
X026862Y004705D02*
X027870Y004705D01*
X027870Y004803D02*
X026961Y004803D01*
X027187Y004902D02*
X027870Y004902D01*
X027870Y005000D02*
X027256Y005000D01*
X027277Y005099D02*
X027870Y005099D01*
X027870Y005197D02*
X027264Y005197D01*
X027206Y005296D02*
X027870Y005296D01*
X027870Y005394D02*
X026125Y005394D01*
X026125Y005296D02*
X026789Y005296D01*
X026182Y005493D02*
X027870Y005493D01*
X028250Y005493D02*
X028313Y005493D01*
X028370Y005394D02*
X028250Y005394D01*
X028250Y005296D02*
X028370Y005296D01*
X028370Y005197D02*
X028250Y005197D01*
X028250Y005099D02*
X028370Y005099D01*
X028370Y005000D02*
X028250Y005000D01*
X028250Y004902D02*
X028370Y004902D01*
X028370Y004803D02*
X028250Y004803D01*
X028250Y004705D02*
X028370Y004705D01*
X028370Y004606D02*
X028250Y004606D01*
X028250Y004508D02*
X028370Y004508D01*
X028370Y004409D02*
X028250Y004409D01*
X028250Y004311D02*
X028370Y004311D01*
X028362Y004212D02*
X028250Y004212D01*
X028250Y004114D02*
X028298Y004114D01*
X028280Y004015D02*
X028250Y004015D01*
X028250Y003917D02*
X028298Y003917D01*
X028338Y003818D02*
X028361Y003818D01*
X028436Y003720D02*
X030060Y003720D01*
X030060Y003818D02*
X029947Y003818D01*
X030010Y003917D02*
X030060Y003917D01*
X030060Y004015D02*
X030027Y004015D01*
X030010Y004114D02*
X030060Y004114D01*
X030060Y004212D02*
X029946Y004212D01*
X029937Y004311D02*
X030060Y004311D01*
X030060Y004409D02*
X029937Y004409D01*
X029937Y004508D02*
X030060Y004508D01*
X030060Y004606D02*
X029937Y004606D01*
X029937Y004705D02*
X030060Y004705D01*
X030060Y004803D02*
X029937Y004803D01*
X029937Y004902D02*
X030060Y004902D01*
X030060Y005000D02*
X029937Y005000D01*
X029937Y005099D02*
X030060Y005099D01*
X030060Y005197D02*
X029937Y005197D01*
X029937Y005296D02*
X030060Y005296D01*
X030060Y005394D02*
X029937Y005394D01*
X029937Y005493D02*
X030060Y005493D01*
X030060Y005591D02*
X029937Y005591D01*
X029937Y005690D02*
X030060Y005690D01*
X030060Y005788D02*
X029937Y005788D01*
X029937Y005887D02*
X030060Y005887D01*
X030060Y005985D02*
X029937Y005985D01*
X029885Y006084D02*
X030060Y006084D01*
X030060Y006182D02*
X029786Y006182D01*
X029826Y006142D02*
X029826Y006142D01*
X029688Y006281D02*
X030060Y006281D01*
X030060Y006379D02*
X029589Y006379D01*
X029491Y006478D02*
X030060Y006478D01*
X030060Y006576D02*
X024899Y006576D01*
X024902Y006675D02*
X030060Y006675D01*
X030060Y006773D02*
X024870Y006773D01*
X024786Y006872D02*
X030060Y006872D01*
X030060Y006970D02*
X024561Y006970D01*
X024462Y007069D02*
X030060Y007069D01*
X030060Y007167D02*
X028731Y007167D01*
X028830Y007266D02*
X030060Y007266D01*
X030060Y007364D02*
X029095Y007364D01*
X028962Y007364D02*
X028928Y007364D01*
X029248Y007463D02*
X030060Y007463D01*
X030060Y007561D02*
X029299Y007561D01*
X029309Y007660D02*
X030060Y007660D01*
X030060Y007758D02*
X029283Y007758D01*
X029208Y007857D02*
X030060Y007857D01*
X030060Y007955D02*
X028388Y007955D01*
X028614Y007857D02*
X028850Y007857D01*
X028775Y007758D02*
X028689Y007758D01*
X028139Y007167D02*
X024364Y007167D01*
X024265Y007266D02*
X028040Y007266D01*
X027942Y007364D02*
X024167Y007364D01*
X024068Y007463D02*
X027843Y007463D01*
X028457Y005887D02*
X028919Y005887D01*
X028964Y005788D02*
X028555Y005788D01*
X028654Y005690D02*
X028964Y005690D01*
X028964Y005591D02*
X028750Y005591D01*
X028750Y005493D02*
X028964Y005493D01*
X028964Y005394D02*
X028750Y005394D01*
X028750Y005296D02*
X028964Y005296D01*
X028964Y005197D02*
X028750Y005197D01*
X028750Y005099D02*
X028964Y005099D01*
X028964Y005000D02*
X028750Y005000D01*
X028750Y004902D02*
X028964Y004902D01*
X028964Y004803D02*
X028750Y004803D01*
X028750Y004705D02*
X028964Y004705D01*
X028964Y004606D02*
X028750Y004606D01*
X028750Y004508D02*
X028964Y004508D01*
X028964Y004409D02*
X028750Y004409D01*
X028750Y004311D02*
X028964Y004311D01*
X028955Y004212D02*
X028758Y004212D01*
X028822Y004114D02*
X028892Y004114D01*
X028874Y004015D02*
X028840Y004015D01*
X028822Y003917D02*
X028891Y003917D01*
X028954Y003818D02*
X028759Y003818D01*
X028535Y003621D02*
X030060Y003621D01*
X030060Y003523D02*
X028633Y003523D01*
X028732Y003424D02*
X030060Y003424D01*
X030060Y003326D02*
X028830Y003326D01*
X028929Y003227D02*
X030060Y003227D01*
X030060Y003129D02*
X029027Y003129D01*
X029126Y003030D02*
X030060Y003030D01*
X030060Y002932D02*
X029224Y002932D01*
X029323Y002833D02*
X029420Y002833D01*
X029427Y002439D02*
X019531Y002439D01*
X019433Y002341D02*
X030060Y002341D01*
X030060Y002439D02*
X029818Y002439D01*
X029883Y002538D02*
X030060Y002538D01*
X030060Y002636D02*
X029902Y002636D01*
X029886Y002735D02*
X030060Y002735D01*
X030060Y002833D02*
X029825Y002833D01*
X030060Y002242D02*
X013488Y002242D01*
X013529Y002341D02*
X014031Y002341D01*
X013932Y002439D02*
X013560Y002439D01*
X013560Y002538D02*
X013834Y002538D01*
X013735Y002636D02*
X013551Y002636D01*
X013510Y002735D02*
X013637Y002735D01*
X013538Y002833D02*
X013449Y002833D01*
X013837Y003129D02*
X013868Y003129D01*
X013935Y003030D02*
X013966Y003030D01*
X014034Y002932D02*
X014065Y002932D01*
X014132Y002833D02*
X018272Y002833D01*
X018723Y002833D02*
X019332Y002833D01*
X019430Y002932D02*
X018786Y002932D01*
X018807Y003030D02*
X019529Y003030D01*
X019627Y003129D02*
X018799Y003129D01*
X018755Y003227D02*
X019688Y003227D01*
X019713Y003326D02*
X018632Y003326D01*
X018363Y003326D02*
X014265Y003326D01*
X014166Y003424D02*
X019781Y003424D01*
X020214Y003424D02*
X028194Y003424D01*
X028096Y003523D02*
X014068Y003523D01*
X013969Y003621D02*
X017122Y003621D01*
X017024Y003720D02*
X013871Y003720D01*
X013671Y003326D02*
X012218Y003326D01*
X012119Y003227D02*
X012413Y003227D01*
X012315Y003129D02*
X012021Y003129D01*
X011922Y003030D02*
X012216Y003030D01*
X012118Y002932D02*
X011824Y002932D01*
X011725Y002833D02*
X012019Y002833D01*
X011921Y002735D02*
X011627Y002735D01*
X011528Y002636D02*
X011822Y002636D01*
X011724Y002538D02*
X011430Y002538D01*
X011331Y002439D02*
X011625Y002439D01*
X011527Y002341D02*
X011233Y002341D01*
X011134Y002242D02*
X011428Y002242D01*
X011330Y002144D02*
X011036Y002144D01*
X011207Y002045D02*
X011231Y002045D01*
X011529Y001750D02*
X011638Y001750D01*
X011636Y001748D02*
X011560Y001564D01*
X011560Y001365D01*
X011636Y001181D01*
X011777Y001041D01*
X011840Y001015D01*
X010280Y001015D01*
X010343Y001041D01*
X010484Y001181D01*
X010560Y001365D01*
X010560Y001564D01*
X010530Y001637D01*
X010563Y001670D01*
X010560Y001664D01*
X010560Y001465D01*
X010636Y001281D01*
X010777Y001141D01*
X010961Y001065D01*
X011159Y001065D01*
X011343Y001141D01*
X011484Y001281D01*
X011560Y001465D01*
X011560Y001664D01*
X011526Y001746D01*
X012647Y002867D01*
X012705Y002867D01*
X012636Y002798D01*
X012560Y002614D01*
X012560Y002415D01*
X012636Y002231D01*
X012777Y002091D01*
X012873Y002051D01*
X012860Y002046D01*
X012787Y002009D01*
X012721Y001961D01*
X012663Y001903D01*
X012615Y001837D01*
X012578Y001764D01*
X012553Y001686D01*
X012541Y001615D01*
X013010Y001615D01*
X013010Y001515D01*
X012560Y001515D01*
X012560Y001564D01*
X012484Y001748D01*
X012343Y001888D01*
X012159Y001965D01*
X011961Y001965D01*
X011777Y001888D01*
X011636Y001748D01*
X011628Y001848D02*
X011736Y001848D01*
X011726Y001947D02*
X011917Y001947D01*
X011825Y002045D02*
X012858Y002045D01*
X012724Y002144D02*
X011923Y002144D01*
X012022Y002242D02*
X012632Y002242D01*
X012591Y002341D02*
X012120Y002341D01*
X012219Y002439D02*
X012560Y002439D01*
X012560Y002538D02*
X012317Y002538D01*
X012416Y002636D02*
X012569Y002636D01*
X012610Y002735D02*
X012514Y002735D01*
X012613Y002833D02*
X012671Y002833D01*
X013262Y002045D02*
X030060Y002045D01*
X030060Y001947D02*
X014203Y001947D01*
X014384Y001848D02*
X030060Y001848D01*
X030060Y001750D02*
X014482Y001750D01*
X014524Y001651D02*
X030060Y001651D01*
X030060Y001553D02*
X014560Y001553D01*
X014560Y001454D02*
X030060Y001454D01*
X030060Y001356D02*
X014556Y001356D01*
X014515Y001257D02*
X030060Y001257D01*
X030060Y001159D02*
X014461Y001159D01*
X014363Y001060D02*
X030060Y001060D01*
X030060Y002144D02*
X013396Y002144D01*
X013413Y001947D02*
X013917Y001947D01*
X013736Y001848D02*
X013497Y001848D01*
X013547Y001750D02*
X013638Y001750D01*
X013596Y001651D02*
X013573Y001651D01*
X013560Y001553D02*
X013110Y001553D01*
X013110Y001515D02*
X013110Y001046D01*
X013182Y001057D01*
X013260Y001083D01*
X013333Y001120D01*
X013399Y001168D01*
X013457Y001226D01*
X013505Y001292D01*
X013542Y001365D01*
X013560Y001421D01*
X013560Y001365D01*
X013636Y001181D01*
X013777Y001041D01*
X013840Y001015D01*
X012280Y001015D01*
X012343Y001041D01*
X012484Y001181D01*
X012560Y001365D01*
X012560Y001421D01*
X012578Y001365D01*
X012615Y001292D01*
X012663Y001226D01*
X012721Y001168D01*
X012787Y001120D01*
X012860Y001083D01*
X012938Y001057D01*
X013010Y001046D01*
X013010Y001515D01*
X013110Y001515D01*
X013110Y001454D02*
X013010Y001454D01*
X013010Y001356D02*
X013110Y001356D01*
X013110Y001257D02*
X013010Y001257D01*
X013010Y001159D02*
X013110Y001159D01*
X013110Y001060D02*
X013010Y001060D01*
X012930Y001060D02*
X012363Y001060D01*
X012461Y001159D02*
X012734Y001159D01*
X012641Y001257D02*
X012515Y001257D01*
X012556Y001356D02*
X012583Y001356D01*
X012560Y001553D02*
X013010Y001553D01*
X012623Y001848D02*
X012384Y001848D01*
X012482Y001750D02*
X012573Y001750D01*
X012547Y001651D02*
X012524Y001651D01*
X012707Y001947D02*
X012203Y001947D01*
X011596Y001651D02*
X011560Y001651D01*
X011560Y001553D02*
X011560Y001553D01*
X011555Y001454D02*
X011560Y001454D01*
X011564Y001356D02*
X011515Y001356D01*
X011460Y001257D02*
X011605Y001257D01*
X011659Y001159D02*
X011361Y001159D01*
X011757Y001060D02*
X010363Y001060D01*
X010461Y001159D02*
X010759Y001159D01*
X010660Y001257D02*
X010515Y001257D01*
X010556Y001356D02*
X010605Y001356D01*
X010565Y001454D02*
X010560Y001454D01*
X010560Y001553D02*
X010560Y001553D01*
X010560Y001651D02*
X010543Y001651D01*
X010245Y001947D02*
X010203Y001947D01*
X010344Y002045D02*
X010047Y002045D01*
X010145Y002144D02*
X010442Y002144D01*
X010541Y002242D02*
X010244Y002242D01*
X010342Y002341D02*
X010639Y002341D01*
X010738Y002439D02*
X010441Y002439D01*
X010539Y002538D02*
X010836Y002538D01*
X010935Y002636D02*
X010638Y002636D01*
X010736Y002735D02*
X011033Y002735D01*
X011132Y002833D02*
X010835Y002833D01*
X010933Y002932D02*
X011230Y002932D01*
X011329Y003030D02*
X011032Y003030D01*
X011130Y003129D02*
X011427Y003129D01*
X011526Y003227D02*
X011229Y003227D01*
X011327Y003326D02*
X011624Y003326D01*
X011723Y003424D02*
X011426Y003424D01*
X011524Y003523D02*
X011821Y003523D01*
X011920Y003621D02*
X011623Y003621D01*
X011721Y003720D02*
X012018Y003720D01*
X011820Y003818D02*
X016925Y003818D01*
X017350Y004212D02*
X017801Y004212D01*
X017900Y004311D02*
X017251Y004311D01*
X017153Y004409D02*
X017998Y004409D01*
X018097Y004508D02*
X001160Y004508D01*
X001160Y004465D02*
X001160Y004565D01*
X001060Y004565D01*
X001060Y005015D01*
X001109Y005015D01*
X001293Y005091D01*
X001434Y005231D01*
X001510Y005415D01*
X001510Y005614D01*
X001434Y005798D01*
X001293Y005938D01*
X001109Y006015D01*
X000911Y006015D01*
X000727Y005938D01*
X000586Y005798D01*
X000560Y005735D01*
X000560Y008015D01*
X000840Y008015D01*
X000777Y007988D01*
X000636Y007848D01*
X000560Y007664D01*
X000560Y007465D01*
X000636Y007281D01*
X000777Y007141D01*
X000961Y007065D01*
X001159Y007065D01*
X001306Y007125D01*
X002245Y006186D01*
X002245Y005811D01*
X002808Y005248D01*
X002919Y005137D01*
X004701Y005137D01*
X004826Y005262D01*
X011009Y005262D01*
X010964Y005152D01*
X010964Y005002D01*
X011021Y004863D01*
X011127Y004757D01*
X011266Y004700D01*
X011416Y004700D01*
X011254Y004705D02*
X001595Y004705D01*
X001592Y004714D02*
X001555Y004787D01*
X001507Y004853D01*
X001449Y004911D01*
X001383Y004959D01*
X001310Y004996D01*
X001232Y005022D01*
X001160Y005033D01*
X001160Y004565D01*
X001629Y004565D01*
X001617Y004636D01*
X001592Y004714D01*
X001543Y004803D02*
X011081Y004803D01*
X011005Y004902D02*
X001458Y004902D01*
X001299Y005000D02*
X010965Y005000D01*
X010964Y005099D02*
X001301Y005099D01*
X001400Y005197D02*
X002859Y005197D01*
X002760Y005296D02*
X001460Y005296D01*
X001501Y005394D02*
X002662Y005394D01*
X002563Y005493D02*
X001510Y005493D01*
X001510Y005591D02*
X002465Y005591D01*
X002366Y005690D02*
X001479Y005690D01*
X001438Y005788D02*
X002268Y005788D01*
X002245Y005887D02*
X001345Y005887D01*
X001209Y006015D02*
X001393Y006091D01*
X001534Y006231D01*
X001610Y006415D01*
X001610Y006614D01*
X001534Y006798D01*
X001393Y006938D01*
X001209Y007015D01*
X001011Y007015D01*
X000827Y006938D01*
X000686Y006798D01*
X000610Y006614D01*
X000610Y006415D01*
X000686Y006231D01*
X000827Y006091D01*
X001011Y006015D01*
X001209Y006015D01*
X001181Y005985D02*
X002245Y005985D01*
X002245Y006084D02*
X001376Y006084D01*
X001485Y006182D02*
X002245Y006182D01*
X002150Y006281D02*
X001554Y006281D01*
X001595Y006379D02*
X002052Y006379D01*
X001953Y006478D02*
X001610Y006478D01*
X001610Y006576D02*
X001855Y006576D01*
X001756Y006675D02*
X001585Y006675D01*
X001544Y006773D02*
X001658Y006773D01*
X001559Y006872D02*
X001460Y006872D01*
X001461Y006970D02*
X001317Y006970D01*
X001362Y007069D02*
X001169Y007069D01*
X000951Y007069D02*
X000560Y007069D01*
X000560Y007167D02*
X000750Y007167D01*
X000652Y007266D02*
X000560Y007266D01*
X000560Y007364D02*
X000602Y007364D01*
X000560Y007463D02*
X000561Y007463D01*
X000560Y007561D02*
X000560Y007561D01*
X000560Y007660D02*
X000560Y007660D01*
X000560Y007758D02*
X000599Y007758D01*
X000560Y007857D02*
X000645Y007857D01*
X000560Y007955D02*
X000743Y007955D01*
X000560Y008845D02*
X000560Y011124D01*
X000586Y011061D01*
X000727Y010921D01*
X000911Y010845D01*
X001109Y010845D01*
X001293Y010921D01*
X001434Y011061D01*
X001510Y011245D01*
X001510Y011444D01*
X001434Y011628D01*
X001293Y011768D01*
X001109Y011845D01*
X001060Y011845D01*
X001060Y012295D01*
X000591Y012295D01*
X000603Y012223D01*
X000628Y012145D01*
X000665Y012072D01*
X000713Y012006D01*
X000771Y011948D01*
X000837Y011900D01*
X000910Y011863D01*
X000966Y011845D01*
X000911Y011845D01*
X000727Y011768D01*
X000586Y011628D01*
X000560Y011565D01*
X000560Y013124D01*
X000586Y013061D01*
X000727Y012921D01*
X000911Y012845D01*
X000966Y012845D01*
X000910Y012826D01*
X000837Y012789D01*
X000771Y012741D01*
X000713Y012683D01*
X000560Y012683D01*
X000560Y012585D02*
X000649Y012585D01*
X000665Y012617D02*
X000628Y012544D01*
X000603Y012466D01*
X000591Y012395D01*
X001060Y012395D01*
X001060Y012845D01*
X001109Y012845D01*
X001293Y012921D01*
X001434Y013061D01*
X001510Y013245D01*
X001510Y013444D01*
X001434Y013628D01*
X001293Y013768D01*
X001109Y013845D01*
X000911Y013845D01*
X000727Y013768D01*
X000586Y013628D01*
X000560Y013565D01*
X000560Y015845D01*
X000840Y015845D01*
X000777Y015818D01*
X000636Y015678D01*
X000560Y015494D01*
X000560Y015295D01*
X000636Y015111D01*
X000777Y014971D01*
X000961Y014895D01*
X001159Y014895D01*
X001306Y014955D01*
X002245Y014016D01*
X002245Y013641D01*
X002808Y013078D01*
X002919Y012967D01*
X004701Y012967D01*
X004826Y013092D01*
X011009Y013092D01*
X010964Y012982D01*
X010964Y012832D01*
X011021Y012693D01*
X011127Y012587D01*
X011266Y012530D01*
X011416Y012530D01*
X011555Y012587D01*
X011585Y012617D01*
X016618Y012617D01*
X016724Y012661D01*
X017118Y013055D01*
X025254Y013055D01*
X025284Y013025D01*
X025422Y012967D01*
X025573Y012967D01*
X025711Y013025D01*
X025745Y013058D01*
X025745Y012736D01*
X025544Y012535D01*
X018294Y012535D01*
X018183Y012423D01*
X017731Y011972D01*
X017420Y011972D01*
X017139Y012253D01*
X011325Y012253D01*
X011214Y012142D01*
X009638Y010566D01*
X003063Y010566D01*
X002951Y010455D01*
X002253Y009756D01*
X002159Y009795D01*
X001961Y009795D01*
X001777Y009718D01*
X001636Y009578D01*
X001560Y009394D01*
X001560Y009195D01*
X001636Y009011D01*
X001777Y008871D01*
X001840Y008845D01*
X000560Y008845D01*
X000560Y008940D02*
X000851Y008940D01*
X000777Y008971D02*
X000961Y008895D01*
X001159Y008895D01*
X001343Y008971D01*
X001484Y009111D01*
X001560Y009295D01*
X001560Y009494D01*
X001484Y009678D01*
X001343Y009818D01*
X001245Y009859D01*
X001393Y009921D01*
X001534Y010061D01*
X001610Y010245D01*
X001610Y010444D01*
X001534Y010628D01*
X001393Y010768D01*
X001209Y010845D01*
X001011Y010845D01*
X000827Y010768D01*
X000686Y010628D01*
X000610Y010444D01*
X000610Y010245D01*
X000686Y010061D01*
X000827Y009921D01*
X000925Y009880D01*
X000777Y009818D01*
X000636Y009678D01*
X000560Y009494D01*
X000560Y009295D01*
X000636Y009111D01*
X000777Y008971D01*
X000709Y009039D02*
X000560Y009039D01*
X000560Y009137D02*
X000625Y009137D01*
X000585Y009236D02*
X000560Y009236D01*
X000560Y009334D02*
X000560Y009334D01*
X000560Y009433D02*
X000560Y009433D01*
X000560Y009531D02*
X000575Y009531D01*
X000560Y009630D02*
X000616Y009630D01*
X000560Y009728D02*
X000686Y009728D01*
X000796Y009827D02*
X000560Y009827D01*
X000560Y009925D02*
X000822Y009925D01*
X000724Y010024D02*
X000560Y010024D01*
X000560Y010122D02*
X000661Y010122D01*
X000620Y010221D02*
X000560Y010221D01*
X000560Y010319D02*
X000610Y010319D01*
X000610Y010418D02*
X000560Y010418D01*
X000560Y010516D02*
X000640Y010516D01*
X000681Y010615D02*
X000560Y010615D01*
X000560Y010713D02*
X000771Y010713D01*
X000931Y010812D02*
X000560Y010812D01*
X000560Y010910D02*
X000752Y010910D01*
X000639Y011009D02*
X000560Y011009D01*
X000560Y011107D02*
X000567Y011107D01*
X000560Y011600D02*
X000574Y011600D01*
X000560Y011698D02*
X000656Y011698D01*
X000560Y011797D02*
X000795Y011797D01*
X000847Y011895D02*
X000560Y011895D01*
X000560Y011994D02*
X000726Y011994D01*
X000655Y012092D02*
X000560Y012092D01*
X000560Y012191D02*
X000613Y012191D01*
X000592Y012289D02*
X000560Y012289D01*
X000560Y012388D02*
X001060Y012388D01*
X001060Y012395D02*
X001060Y012295D01*
X001160Y012295D01*
X001160Y012395D01*
X001060Y012395D01*
X001060Y012486D02*
X001160Y012486D01*
X001160Y012395D02*
X001160Y012863D01*
X001232Y012852D01*
X001310Y012826D01*
X001383Y012789D01*
X001449Y012741D01*
X001507Y012683D01*
X011031Y012683D01*
X010985Y012782D02*
X001393Y012782D01*
X001507Y012683D02*
X001555Y012617D01*
X001592Y012544D01*
X001617Y012466D01*
X001629Y012395D01*
X001160Y012395D01*
X001160Y012388D02*
X018147Y012388D01*
X018183Y012423D02*
X018183Y012423D01*
X018245Y012486D02*
X001611Y012486D01*
X001571Y012585D02*
X011133Y012585D01*
X010964Y012880D02*
X001195Y012880D01*
X001160Y012782D02*
X001060Y012782D01*
X001060Y012683D02*
X001160Y012683D01*
X001160Y012585D02*
X001060Y012585D01*
X001060Y012289D02*
X001160Y012289D01*
X001160Y012295D02*
X001160Y011826D01*
X001232Y011837D01*
X001310Y011863D01*
X001383Y011900D01*
X001449Y011948D01*
X001507Y012006D01*
X001555Y012072D01*
X001592Y012145D01*
X001617Y012223D01*
X001629Y012295D01*
X001160Y012295D01*
X001160Y012191D02*
X001060Y012191D01*
X001060Y012092D02*
X001160Y012092D01*
X001160Y011994D02*
X001060Y011994D01*
X001060Y011895D02*
X001160Y011895D01*
X001225Y011797D02*
X010868Y011797D01*
X010967Y011895D02*
X001373Y011895D01*
X001494Y011994D02*
X011065Y011994D01*
X011164Y012092D02*
X001565Y012092D01*
X001607Y012191D02*
X011262Y012191D01*
X011482Y011873D02*
X011508Y011873D01*
X009398Y009764D01*
X009343Y009818D01*
X009159Y009895D01*
X008961Y009895D01*
X008777Y009818D01*
X008636Y009678D01*
X008560Y009494D01*
X008560Y009295D01*
X008636Y009111D01*
X008777Y008971D01*
X008961Y008895D01*
X009159Y008895D01*
X009343Y008971D01*
X009484Y009111D01*
X009560Y009295D01*
X009560Y009388D01*
X009560Y009388D01*
X009560Y009195D01*
X009636Y009011D01*
X009777Y008871D01*
X009840Y008845D01*
X008280Y008845D01*
X008343Y008871D01*
X008484Y009011D01*
X008560Y009195D01*
X008560Y009394D01*
X008484Y009578D01*
X008343Y009718D01*
X008159Y009795D01*
X007961Y009795D01*
X007777Y009718D01*
X007636Y009578D01*
X007560Y009394D01*
X007560Y009195D01*
X007636Y009011D01*
X007777Y008871D01*
X007840Y008845D01*
X006280Y008845D01*
X006343Y008871D01*
X006484Y009011D01*
X006560Y009195D01*
X006560Y009394D01*
X006484Y009578D01*
X006343Y009718D01*
X006159Y009795D01*
X005961Y009795D01*
X005777Y009718D01*
X005636Y009578D01*
X005560Y009394D01*
X005560Y009195D01*
X005636Y009011D01*
X005777Y008871D01*
X005840Y008845D01*
X004280Y008845D01*
X004343Y008871D01*
X004484Y009011D01*
X004560Y009195D01*
X004560Y009394D01*
X004484Y009578D01*
X004343Y009718D01*
X004159Y009795D01*
X003961Y009795D01*
X003777Y009718D01*
X003636Y009578D01*
X003560Y009394D01*
X003560Y009195D01*
X003636Y009011D01*
X003777Y008871D01*
X003840Y008845D01*
X002280Y008845D01*
X002343Y008871D01*
X002484Y009011D01*
X002560Y009195D01*
X002560Y009394D01*
X002521Y009487D01*
X002583Y009548D01*
X002560Y009494D01*
X002560Y009295D01*
X002636Y009111D01*
X002777Y008971D01*
X002961Y008895D01*
X003159Y008895D01*
X003343Y008971D01*
X003484Y009111D01*
X003560Y009295D01*
X003560Y009494D01*
X003484Y009678D01*
X003343Y009818D01*
X003159Y009895D01*
X002961Y009895D01*
X002906Y009872D01*
X003220Y010186D01*
X009795Y010186D01*
X011482Y011873D01*
X011431Y011797D02*
X011406Y011797D01*
X011332Y011698D02*
X011307Y011698D01*
X011234Y011600D02*
X011209Y011600D01*
X011135Y011501D02*
X011110Y011501D01*
X011037Y011403D02*
X011012Y011403D01*
X010938Y011304D02*
X010913Y011304D01*
X010840Y011206D02*
X010815Y011206D01*
X010741Y011107D02*
X010716Y011107D01*
X010643Y011009D02*
X010618Y011009D01*
X010544Y010910D02*
X010519Y010910D01*
X010446Y010812D02*
X010421Y010812D01*
X010347Y010713D02*
X010322Y010713D01*
X010249Y010615D02*
X010224Y010615D01*
X010150Y010516D02*
X010125Y010516D01*
X010052Y010418D02*
X010027Y010418D01*
X009953Y010319D02*
X009928Y010319D01*
X009855Y010221D02*
X009830Y010221D01*
X009756Y010122D02*
X003156Y010122D01*
X003058Y010024D02*
X009658Y010024D01*
X009559Y009925D02*
X002959Y009925D01*
X003324Y009827D02*
X004796Y009827D01*
X004777Y009818D02*
X004636Y009678D01*
X004560Y009494D01*
X004560Y009295D01*
X004636Y009111D01*
X004777Y008971D01*
X004961Y008895D01*
X005159Y008895D01*
X005343Y008971D01*
X005484Y009111D01*
X005560Y009295D01*
X005560Y009494D01*
X005484Y009678D01*
X005343Y009818D01*
X005159Y009895D01*
X004961Y009895D01*
X004777Y009818D01*
X004686Y009728D02*
X004320Y009728D01*
X004432Y009630D02*
X004616Y009630D01*
X004575Y009531D02*
X004503Y009531D01*
X004544Y009433D02*
X004560Y009433D01*
X004560Y009334D02*
X004560Y009334D01*
X004560Y009236D02*
X004585Y009236D01*
X004625Y009137D02*
X004536Y009137D01*
X004495Y009039D02*
X004709Y009039D01*
X004851Y008940D02*
X004413Y008940D01*
X003707Y008940D02*
X003269Y008940D01*
X003411Y009039D02*
X003625Y009039D01*
X003584Y009137D02*
X003495Y009137D01*
X003535Y009236D02*
X003560Y009236D01*
X003560Y009334D02*
X003560Y009334D01*
X003560Y009433D02*
X003576Y009433D01*
X003545Y009531D02*
X003617Y009531D01*
X003688Y009630D02*
X003504Y009630D01*
X003434Y009728D02*
X003800Y009728D01*
X002816Y010319D02*
X001610Y010319D01*
X001610Y010418D02*
X002914Y010418D01*
X003013Y010516D02*
X001580Y010516D01*
X001539Y010615D02*
X009686Y010615D01*
X009785Y010713D02*
X001449Y010713D01*
X001289Y010812D02*
X009883Y010812D01*
X009982Y010910D02*
X001268Y010910D01*
X001381Y011009D02*
X010080Y011009D01*
X010179Y011107D02*
X001453Y011107D01*
X001494Y011206D02*
X010277Y011206D01*
X010376Y011304D02*
X001510Y011304D01*
X001510Y011403D02*
X010474Y011403D01*
X010573Y011501D02*
X001486Y011501D01*
X001446Y011600D02*
X010671Y011600D01*
X010770Y011698D02*
X001364Y011698D01*
X001628Y012289D02*
X018048Y012289D01*
X017950Y012191D02*
X017201Y012191D01*
X017300Y012092D02*
X017851Y012092D01*
X017753Y011994D02*
X017398Y011994D01*
X016974Y011600D02*
X011771Y011600D01*
X011826Y011655D02*
X016919Y011655D01*
X017058Y011516D01*
X017169Y011405D01*
X025732Y011405D01*
X026986Y012658D01*
X027053Y012658D01*
X027156Y012701D01*
X027235Y012780D01*
X027277Y012883D01*
X027277Y012994D01*
X027235Y013097D01*
X027156Y013176D01*
X027053Y013218D01*
X026942Y013218D01*
X026839Y013176D01*
X026760Y013097D01*
X026718Y012994D01*
X026718Y012927D01*
X025575Y011785D01*
X018081Y011785D01*
X018451Y012155D01*
X025701Y012155D01*
X026014Y012467D01*
X026125Y012578D01*
X026125Y013266D01*
X026264Y013405D01*
X027794Y013405D01*
X027870Y013328D01*
X027870Y011578D01*
X029058Y010391D01*
X029169Y010280D01*
X029417Y010280D01*
X029464Y010232D01*
X029567Y010190D01*
X029678Y010190D01*
X029781Y010232D01*
X029860Y010311D01*
X029902Y010414D01*
X029902Y010525D01*
X029860Y010628D01*
X029781Y010707D01*
X029678Y010750D01*
X029567Y010750D01*
X029464Y010707D01*
X029417Y010660D01*
X029326Y010660D01*
X028250Y011736D01*
X028250Y013386D01*
X028370Y013266D01*
X028370Y012051D01*
X028323Y012003D01*
X028280Y011900D01*
X028280Y011789D01*
X028323Y011686D01*
X028401Y011607D01*
X028504Y011565D01*
X028616Y011565D01*
X028719Y011607D01*
X028797Y011686D01*
X028840Y011789D01*
X028840Y011900D01*
X028797Y012003D01*
X028750Y012051D01*
X028750Y013423D01*
X028639Y013535D01*
X028394Y013780D01*
X028856Y013780D01*
X028964Y013672D01*
X028964Y012051D01*
X028916Y012003D01*
X028874Y011900D01*
X028874Y011789D01*
X028916Y011686D01*
X028995Y011607D01*
X029098Y011565D01*
X029209Y011565D01*
X029312Y011607D01*
X029391Y011686D01*
X029434Y011789D01*
X029434Y011900D01*
X029391Y012003D01*
X029344Y012051D01*
X029344Y013830D01*
X029232Y013941D01*
X029206Y013967D01*
X029294Y013967D01*
X029558Y013703D01*
X029558Y012051D01*
X029510Y012003D01*
X029468Y011900D01*
X029468Y011789D01*
X029510Y011686D01*
X029589Y011607D01*
X029692Y011565D01*
X029803Y011565D01*
X029906Y011607D01*
X029985Y011686D01*
X030027Y011789D01*
X030027Y011900D01*
X029985Y012003D01*
X029937Y012051D01*
X029937Y013861D01*
X029826Y013972D01*
X029451Y014347D01*
X024875Y014347D01*
X024902Y014414D01*
X024902Y014525D01*
X024860Y014628D01*
X024781Y014707D01*
X024678Y014750D01*
X024611Y014750D01*
X024019Y015342D01*
X027794Y015342D01*
X028058Y015078D01*
X028169Y014967D01*
X028701Y014967D01*
X028938Y015204D01*
X028973Y015190D01*
X029084Y015190D01*
X029187Y015232D01*
X029266Y015311D01*
X029309Y015414D01*
X029309Y015525D01*
X029266Y015628D01*
X029187Y015707D01*
X029084Y015750D01*
X028973Y015750D01*
X028870Y015707D01*
X028791Y015628D01*
X028768Y015571D01*
X028745Y015548D01*
X028715Y015518D01*
X028715Y015525D01*
X028672Y015628D01*
X028594Y015707D01*
X028491Y015750D01*
X028424Y015750D01*
X028329Y015845D01*
X030060Y015845D01*
X030060Y008845D01*
X014280Y008845D01*
X014343Y008871D01*
X014484Y009011D01*
X014560Y009195D01*
X014560Y009394D01*
X014484Y009578D01*
X014343Y009718D01*
X014159Y009795D01*
X013961Y009795D01*
X013777Y009718D01*
X013636Y009578D01*
X013560Y009394D01*
X013560Y009345D01*
X013110Y009345D01*
X013110Y009445D01*
X013579Y009445D01*
X013567Y009516D01*
X013542Y009594D01*
X013505Y009667D01*
X013457Y009733D01*
X013399Y009791D01*
X013333Y009839D01*
X013260Y009876D01*
X013247Y009881D01*
X013343Y009921D01*
X013484Y010061D01*
X013560Y010245D01*
X013560Y010444D01*
X013484Y010628D01*
X013415Y010697D01*
X013504Y010697D01*
X014098Y010103D01*
X019366Y010103D01*
X019984Y010722D01*
X020059Y010722D01*
X020173Y010769D01*
X020260Y010856D01*
X020307Y010970D01*
X020307Y011094D01*
X020260Y011208D01*
X020173Y011295D01*
X020059Y011342D01*
X019936Y011342D01*
X019822Y011295D01*
X019735Y011208D01*
X019688Y011094D01*
X019688Y011019D01*
X019192Y010523D01*
X014272Y010523D01*
X013801Y010994D01*
X013678Y011117D01*
X012473Y011117D01*
X011224Y009868D01*
X011159Y009895D01*
X010961Y009895D01*
X010954Y009892D01*
X012228Y011166D01*
X013661Y011166D01*
X014038Y010789D01*
X014161Y010666D01*
X018269Y010666D01*
X018322Y010613D01*
X018436Y010566D01*
X018559Y010566D01*
X018673Y010613D01*
X018760Y010700D01*
X018807Y010814D01*
X018807Y010937D01*
X018760Y011051D01*
X018673Y011139D01*
X018559Y011186D01*
X018436Y011186D01*
X018322Y011139D01*
X018269Y011086D01*
X014334Y011086D01*
X013834Y011586D01*
X012054Y011586D01*
X011931Y011463D01*
X010233Y009764D01*
X010159Y009795D01*
X009966Y009795D01*
X011826Y011655D01*
X011970Y011501D02*
X011673Y011501D01*
X011574Y011403D02*
X011871Y011403D01*
X011773Y011304D02*
X011476Y011304D01*
X011377Y011206D02*
X011674Y011206D01*
X011576Y011107D02*
X011279Y011107D01*
X011180Y011009D02*
X011477Y011009D01*
X011379Y010910D02*
X011082Y010910D01*
X010983Y010812D02*
X011280Y010812D01*
X011182Y010713D02*
X010885Y010713D01*
X010786Y010615D02*
X011083Y010615D01*
X010985Y010516D02*
X010688Y010516D01*
X010589Y010418D02*
X010886Y010418D01*
X010788Y010319D02*
X010491Y010319D01*
X010392Y010221D02*
X010689Y010221D01*
X010591Y010122D02*
X010294Y010122D01*
X010195Y010024D02*
X010492Y010024D01*
X010394Y009925D02*
X010097Y009925D01*
X009998Y009827D02*
X010295Y009827D01*
X010563Y009500D02*
X010560Y009494D01*
X010560Y009295D01*
X010636Y009111D01*
X010777Y008971D01*
X010961Y008895D01*
X011159Y008895D01*
X011343Y008971D01*
X011484Y009111D01*
X011560Y009295D01*
X011560Y009494D01*
X011526Y009576D01*
X012647Y010697D01*
X012705Y010697D01*
X012636Y010628D01*
X012560Y010444D01*
X012560Y010245D01*
X012636Y010061D01*
X012777Y009921D01*
X012873Y009881D01*
X012860Y009876D01*
X012787Y009839D01*
X012721Y009791D01*
X012663Y009733D01*
X012615Y009667D01*
X012578Y009594D01*
X012553Y009516D01*
X012541Y009445D01*
X013010Y009445D01*
X013010Y009345D01*
X012560Y009345D01*
X012560Y009394D01*
X012484Y009578D01*
X012343Y009718D01*
X012159Y009795D01*
X011961Y009795D01*
X011777Y009718D01*
X011636Y009578D01*
X011560Y009394D01*
X011560Y009195D01*
X011636Y009011D01*
X011777Y008871D01*
X011840Y008845D01*
X010280Y008845D01*
X010343Y008871D01*
X010484Y009011D01*
X010560Y009195D01*
X010560Y009394D01*
X010530Y009467D01*
X010563Y009500D01*
X010560Y009433D02*
X010544Y009433D01*
X010560Y009334D02*
X010560Y009334D01*
X010560Y009236D02*
X010585Y009236D01*
X010625Y009137D02*
X010536Y009137D01*
X010495Y009039D02*
X010709Y009039D01*
X010851Y008940D02*
X010413Y008940D01*
X009707Y008940D02*
X009269Y008940D01*
X009411Y009039D02*
X009625Y009039D01*
X009584Y009137D02*
X009495Y009137D01*
X009535Y009236D02*
X009560Y009236D01*
X009560Y009334D02*
X009560Y009334D01*
X009461Y009827D02*
X009324Y009827D01*
X008796Y009827D02*
X007324Y009827D01*
X007343Y009818D02*
X007159Y009895D01*
X006961Y009895D01*
X006777Y009818D01*
X006636Y009678D01*
X006560Y009494D01*
X006560Y009295D01*
X006636Y009111D01*
X006777Y008971D01*
X006961Y008895D01*
X007159Y008895D01*
X007343Y008971D01*
X007484Y009111D01*
X007560Y009295D01*
X007560Y009494D01*
X007484Y009678D01*
X007343Y009818D01*
X007434Y009728D02*
X007800Y009728D01*
X007688Y009630D02*
X007504Y009630D01*
X007545Y009531D02*
X007617Y009531D01*
X007576Y009433D02*
X007560Y009433D01*
X007560Y009334D02*
X007560Y009334D01*
X007560Y009236D02*
X007535Y009236D01*
X007495Y009137D02*
X007584Y009137D01*
X007625Y009039D02*
X007411Y009039D01*
X007269Y008940D02*
X007707Y008940D01*
X008413Y008940D02*
X008851Y008940D01*
X008709Y009039D02*
X008495Y009039D01*
X008536Y009137D02*
X008625Y009137D01*
X008585Y009236D02*
X008560Y009236D01*
X008560Y009334D02*
X008560Y009334D01*
X008560Y009433D02*
X008544Y009433D01*
X008575Y009531D02*
X008503Y009531D01*
X008432Y009630D02*
X008616Y009630D01*
X008686Y009728D02*
X008320Y009728D01*
X006796Y009827D02*
X005324Y009827D01*
X005434Y009728D02*
X005800Y009728D01*
X005688Y009630D02*
X005504Y009630D01*
X005545Y009531D02*
X005617Y009531D01*
X005576Y009433D02*
X005560Y009433D01*
X005560Y009334D02*
X005560Y009334D01*
X005560Y009236D02*
X005535Y009236D01*
X005495Y009137D02*
X005584Y009137D01*
X005625Y009039D02*
X005411Y009039D01*
X005269Y008940D02*
X005707Y008940D01*
X006413Y008940D02*
X006851Y008940D01*
X006709Y009039D02*
X006495Y009039D01*
X006536Y009137D02*
X006625Y009137D01*
X006585Y009236D02*
X006560Y009236D01*
X006560Y009334D02*
X006560Y009334D01*
X006560Y009433D02*
X006544Y009433D01*
X006575Y009531D02*
X006503Y009531D01*
X006432Y009630D02*
X006616Y009630D01*
X006686Y009728D02*
X006320Y009728D01*
X006159Y007965D02*
X005961Y007965D01*
X005777Y007888D01*
X005636Y007748D01*
X005560Y007564D01*
X005560Y007365D01*
X005636Y007181D01*
X005777Y007041D01*
X005961Y006965D01*
X006159Y006965D01*
X006343Y007041D01*
X006484Y007181D01*
X006560Y007365D01*
X006560Y007564D01*
X006484Y007748D01*
X006343Y007888D01*
X006159Y007965D01*
X006182Y007955D02*
X006743Y007955D01*
X006777Y007988D02*
X006636Y007848D01*
X006560Y007664D01*
X006560Y007465D01*
X006636Y007281D01*
X006777Y007141D01*
X006961Y007065D01*
X007159Y007065D01*
X007253Y007103D01*
X008339Y006017D01*
X006626Y006017D01*
X005581Y007062D01*
X005470Y007173D01*
X005376Y007173D01*
X005484Y007281D01*
X005560Y007465D01*
X005560Y007664D01*
X005484Y007848D01*
X005343Y007988D01*
X005280Y008015D01*
X006840Y008015D01*
X006777Y007988D01*
X006645Y007857D02*
X006375Y007857D01*
X006474Y007758D02*
X006599Y007758D01*
X006560Y007660D02*
X006520Y007660D01*
X006560Y007561D02*
X006560Y007561D01*
X006560Y007463D02*
X006561Y007463D01*
X006560Y007364D02*
X006602Y007364D01*
X006652Y007266D02*
X006519Y007266D01*
X006470Y007167D02*
X006750Y007167D01*
X006951Y007069D02*
X006371Y007069D01*
X006173Y006970D02*
X007386Y006970D01*
X007484Y006872D02*
X005772Y006872D01*
X005673Y006970D02*
X005947Y006970D01*
X005870Y006773D02*
X007583Y006773D01*
X007681Y006675D02*
X005969Y006675D01*
X006067Y006576D02*
X007780Y006576D01*
X007878Y006478D02*
X006166Y006478D01*
X006264Y006379D02*
X007977Y006379D01*
X008075Y006281D02*
X006363Y006281D01*
X006461Y006182D02*
X008174Y006182D01*
X008272Y006084D02*
X006560Y006084D01*
X007169Y007069D02*
X007287Y007069D01*
X005749Y007069D02*
X005575Y007069D01*
X005581Y007062D02*
X005581Y007062D01*
X005650Y007167D02*
X005476Y007167D01*
X005468Y007266D02*
X005601Y007266D01*
X005560Y007364D02*
X005518Y007364D01*
X005559Y007463D02*
X005560Y007463D01*
X005560Y007561D02*
X005560Y007561D01*
X005560Y007660D02*
X005600Y007660D01*
X005646Y007758D02*
X005521Y007758D01*
X005475Y007857D02*
X005745Y007857D01*
X005938Y007955D02*
X005377Y007955D01*
X004154Y006983D02*
X003966Y006983D01*
X004761Y005197D02*
X010982Y005197D01*
X011311Y004409D02*
X001620Y004409D01*
X001617Y004393D02*
X001629Y004465D01*
X001160Y004465D01*
X001160Y003996D01*
X001232Y004007D01*
X001310Y004033D01*
X001383Y004070D01*
X001449Y004118D01*
X001507Y004176D01*
X001555Y004242D01*
X001592Y004315D01*
X001617Y004393D01*
X001590Y004311D02*
X011212Y004311D01*
X011114Y004212D02*
X001533Y004212D01*
X001443Y004114D02*
X011015Y004114D01*
X010917Y004015D02*
X001255Y004015D01*
X001293Y003938D02*
X001109Y004015D01*
X001060Y004015D01*
X001160Y004015D01*
X001160Y004114D02*
X001060Y004114D01*
X001060Y004212D02*
X001160Y004212D01*
X001160Y004311D02*
X001060Y004311D01*
X001060Y004409D02*
X001160Y004409D01*
X001160Y004465D02*
X001060Y004465D01*
X000591Y004465D01*
X000603Y004393D01*
X000628Y004315D01*
X000665Y004242D01*
X000713Y004176D01*
X000771Y004118D01*
X000837Y004070D01*
X000910Y004033D01*
X000966Y004015D01*
X000911Y004015D01*
X000727Y003938D01*
X000586Y003798D01*
X000560Y003735D01*
X000560Y005294D01*
X000586Y005231D01*
X000727Y005091D01*
X000911Y005015D01*
X000966Y005015D01*
X000910Y004996D01*
X000837Y004959D01*
X000771Y004911D01*
X000713Y004853D01*
X000665Y004787D01*
X000628Y004714D01*
X000603Y004636D01*
X000591Y004565D01*
X001060Y004565D01*
X001060Y004465D01*
X001060Y004015D01*
X000965Y004015D02*
X000560Y004015D01*
X000560Y003917D02*
X000705Y003917D01*
X000606Y003818D02*
X000560Y003818D01*
X000560Y004114D02*
X000777Y004114D01*
X000687Y004212D02*
X000560Y004212D01*
X000560Y004311D02*
X000630Y004311D01*
X000600Y004409D02*
X000560Y004409D01*
X000560Y004508D02*
X001060Y004508D01*
X001060Y004606D02*
X001160Y004606D01*
X001160Y004705D02*
X001060Y004705D01*
X001060Y004803D02*
X001160Y004803D01*
X001160Y004902D02*
X001060Y004902D01*
X001060Y005000D02*
X001160Y005000D01*
X000921Y005000D02*
X000560Y005000D01*
X000560Y004902D02*
X000762Y004902D01*
X000677Y004803D02*
X000560Y004803D01*
X000560Y004705D02*
X000625Y004705D01*
X000598Y004606D02*
X000560Y004606D01*
X000560Y005099D02*
X000719Y005099D01*
X000620Y005197D02*
X000560Y005197D01*
X000560Y005788D02*
X000582Y005788D01*
X000560Y005887D02*
X000675Y005887D01*
X000560Y005985D02*
X000839Y005985D01*
X000844Y006084D02*
X000560Y006084D01*
X000560Y006182D02*
X000735Y006182D01*
X000666Y006281D02*
X000560Y006281D01*
X000560Y006379D02*
X000625Y006379D01*
X000610Y006478D02*
X000560Y006478D01*
X000560Y006576D02*
X000610Y006576D01*
X000635Y006675D02*
X000560Y006675D01*
X000560Y006773D02*
X000676Y006773D01*
X000760Y006872D02*
X000560Y006872D01*
X000560Y006970D02*
X000903Y006970D01*
X001269Y008940D02*
X001707Y008940D01*
X001625Y009039D02*
X001411Y009039D01*
X001495Y009137D02*
X001584Y009137D01*
X001560Y009236D02*
X001535Y009236D01*
X001560Y009334D02*
X001560Y009334D01*
X001560Y009433D02*
X001576Y009433D01*
X001545Y009531D02*
X001617Y009531D01*
X001688Y009630D02*
X001504Y009630D01*
X001434Y009728D02*
X001800Y009728D01*
X001496Y010024D02*
X002520Y010024D01*
X002619Y010122D02*
X001559Y010122D01*
X001600Y010221D02*
X002717Y010221D01*
X002422Y009925D02*
X001398Y009925D01*
X001324Y009827D02*
X002323Y009827D01*
X002565Y009531D02*
X002575Y009531D01*
X002560Y009433D02*
X002544Y009433D01*
X002560Y009334D02*
X002560Y009334D01*
X002560Y009236D02*
X002585Y009236D01*
X002625Y009137D02*
X002536Y009137D01*
X002495Y009039D02*
X002709Y009039D01*
X002851Y008940D02*
X002413Y008940D01*
X000609Y012486D02*
X000560Y012486D01*
X000665Y012617D02*
X000713Y012683D01*
X000827Y012782D02*
X000560Y012782D01*
X000560Y012880D02*
X000825Y012880D01*
X000669Y012979D02*
X000560Y012979D01*
X000560Y013077D02*
X000580Y013077D01*
X000560Y013570D02*
X000562Y013570D01*
X000560Y013668D02*
X000626Y013668D01*
X000560Y013767D02*
X000725Y013767D01*
X000827Y013921D02*
X001011Y013845D01*
X001209Y013845D01*
X001393Y013921D01*
X001534Y014061D01*
X001610Y014245D01*
X001610Y014444D01*
X001534Y014628D01*
X001393Y014768D01*
X001209Y014845D01*
X001011Y014845D01*
X000827Y014768D01*
X000686Y014628D01*
X000610Y014444D01*
X000610Y014245D01*
X000686Y014061D01*
X000827Y013921D01*
X000784Y013964D02*
X000560Y013964D01*
X000560Y014062D02*
X000686Y014062D01*
X000645Y014161D02*
X000560Y014161D01*
X000560Y014259D02*
X000610Y014259D01*
X000610Y014358D02*
X000560Y014358D01*
X000560Y014456D02*
X000615Y014456D01*
X000656Y014555D02*
X000560Y014555D01*
X000560Y014653D02*
X000711Y014653D01*
X000810Y014752D02*
X000560Y014752D01*
X000560Y014850D02*
X001411Y014850D01*
X001410Y014752D02*
X001509Y014752D01*
X001509Y014653D02*
X001608Y014653D01*
X001564Y014555D02*
X001706Y014555D01*
X001805Y014456D02*
X001605Y014456D01*
X001610Y014358D02*
X001903Y014358D01*
X002002Y014259D02*
X001610Y014259D01*
X001575Y014161D02*
X002100Y014161D01*
X002199Y014062D02*
X001534Y014062D01*
X001436Y013964D02*
X002245Y013964D01*
X002245Y013865D02*
X001259Y013865D01*
X001295Y013767D02*
X002245Y013767D01*
X002245Y013668D02*
X001394Y013668D01*
X001458Y013570D02*
X002316Y013570D01*
X002415Y013471D02*
X001499Y013471D01*
X001510Y013373D02*
X002513Y013373D01*
X002612Y013274D02*
X001510Y013274D01*
X001481Y013176D02*
X002710Y013176D01*
X002809Y013077D02*
X001440Y013077D01*
X001351Y012979D02*
X002907Y012979D01*
X004713Y012979D02*
X010964Y012979D01*
X011003Y013077D02*
X004811Y013077D01*
X006116Y014358D02*
X007828Y014358D01*
X007730Y014456D02*
X006017Y014456D01*
X005919Y014555D02*
X007631Y014555D01*
X007533Y014653D02*
X005820Y014653D01*
X005722Y014752D02*
X007434Y014752D01*
X007336Y014850D02*
X006294Y014850D01*
X006343Y014871D02*
X006159Y014795D01*
X005961Y014795D01*
X005777Y014871D01*
X005636Y015011D01*
X005560Y015195D01*
X005560Y015394D01*
X005636Y015578D01*
X005777Y015718D01*
X005961Y015795D01*
X006159Y015795D01*
X006343Y015718D01*
X006484Y015578D01*
X006560Y015394D01*
X006560Y015195D01*
X006484Y015011D01*
X006343Y014871D01*
X006421Y014949D02*
X006830Y014949D01*
X006777Y014971D02*
X006961Y014895D01*
X007159Y014895D01*
X007253Y014933D01*
X008339Y013847D01*
X006626Y013847D01*
X005581Y014892D01*
X005470Y015003D01*
X005376Y015003D01*
X005484Y015111D01*
X005560Y015295D01*
X005560Y015494D01*
X005484Y015678D01*
X005343Y015818D01*
X005280Y015845D01*
X006840Y015845D01*
X006777Y015818D01*
X006636Y015678D01*
X006560Y015494D01*
X006560Y015295D01*
X006636Y015111D01*
X006777Y014971D01*
X006700Y015047D02*
X006499Y015047D01*
X006539Y015146D02*
X006622Y015146D01*
X006581Y015244D02*
X006560Y015244D01*
X006560Y015343D02*
X006560Y015343D01*
X006560Y015441D02*
X006540Y015441D01*
X006500Y015540D02*
X006579Y015540D01*
X006620Y015638D02*
X006424Y015638D01*
X006299Y015737D02*
X006695Y015737D01*
X006817Y015835D02*
X005303Y015835D01*
X005425Y015737D02*
X005821Y015737D01*
X005696Y015638D02*
X005500Y015638D01*
X005541Y015540D02*
X005620Y015540D01*
X005580Y015441D02*
X005560Y015441D01*
X005560Y015343D02*
X005560Y015343D01*
X005560Y015244D02*
X005539Y015244D01*
X005498Y015146D02*
X005581Y015146D01*
X005621Y015047D02*
X005420Y015047D01*
X005525Y014949D02*
X005699Y014949D01*
X005623Y014850D02*
X005826Y014850D01*
X006214Y014259D02*
X007927Y014259D01*
X008025Y014161D02*
X006313Y014161D01*
X006411Y014062D02*
X008124Y014062D01*
X008222Y013964D02*
X006510Y013964D01*
X006608Y013865D02*
X008321Y013865D01*
X008280Y016675D02*
X008343Y016701D01*
X008484Y016841D01*
X008560Y017025D01*
X008560Y017224D01*
X008484Y017408D01*
X008343Y017548D01*
X008159Y017625D01*
X007961Y017625D01*
X007777Y017548D01*
X007636Y017408D01*
X007560Y017224D01*
X007560Y017025D01*
X007636Y016841D01*
X007777Y016701D01*
X007840Y016675D01*
X006280Y016675D01*
X006343Y016701D01*
X006484Y016841D01*
X006560Y017025D01*
X006560Y017224D01*
X006484Y017408D01*
X006343Y017548D01*
X006159Y017625D01*
X005961Y017625D01*
X005777Y017548D01*
X005636Y017408D01*
X005560Y017224D01*
X005560Y017025D01*
X005636Y016841D01*
X005777Y016701D01*
X005840Y016675D01*
X004280Y016675D01*
X004343Y016701D01*
X004484Y016841D01*
X004560Y017025D01*
X004560Y017224D01*
X004484Y017408D01*
X004343Y017548D01*
X004159Y017625D01*
X003961Y017625D01*
X003777Y017548D01*
X003636Y017408D01*
X003560Y017224D01*
X003560Y017025D01*
X003636Y016841D01*
X003777Y016701D01*
X003840Y016675D01*
X002280Y016675D01*
X002343Y016701D01*
X002484Y016841D01*
X002560Y017025D01*
X002560Y017224D01*
X002521Y017317D01*
X002583Y017378D01*
X002560Y017324D01*
X002560Y017125D01*
X002636Y016941D01*
X002777Y016801D01*
X002961Y016725D01*
X003159Y016725D01*
X003343Y016801D01*
X003484Y016941D01*
X003560Y017125D01*
X003560Y017324D01*
X003484Y017508D01*
X003343Y017648D01*
X003159Y017725D01*
X002961Y017725D01*
X002906Y017702D01*
X003220Y018016D01*
X009795Y018016D01*
X011482Y019703D01*
X011508Y019703D01*
X009398Y017594D01*
X009343Y017648D01*
X009159Y017725D01*
X008961Y017725D01*
X008777Y017648D01*
X008636Y017508D01*
X008560Y017324D01*
X008560Y017125D01*
X008636Y016941D01*
X008777Y016801D01*
X008961Y016725D01*
X009159Y016725D01*
X009343Y016801D01*
X009484Y016941D01*
X009560Y017125D01*
X009560Y017218D01*
X009560Y017218D01*
X009560Y017025D01*
X009636Y016841D01*
X009777Y016701D01*
X009840Y016675D01*
X008280Y016675D01*
X008364Y016722D02*
X009756Y016722D01*
X009657Y016820D02*
X009363Y016820D01*
X009461Y016919D02*
X009604Y016919D01*
X009563Y017017D02*
X009515Y017017D01*
X009556Y017116D02*
X009560Y017116D01*
X009560Y017214D02*
X009560Y017214D01*
X009412Y017608D02*
X009384Y017608D01*
X009511Y017707D02*
X009203Y017707D01*
X008917Y017707D02*
X007203Y017707D01*
X007159Y017725D02*
X006961Y017725D01*
X006777Y017648D01*
X006636Y017508D01*
X006560Y017324D01*
X006560Y017125D01*
X006636Y016941D01*
X006777Y016801D01*
X006961Y016725D01*
X007159Y016725D01*
X007343Y016801D01*
X007484Y016941D01*
X007560Y017125D01*
X007560Y017324D01*
X007484Y017508D01*
X007343Y017648D01*
X007159Y017725D01*
X006917Y017707D02*
X005203Y017707D01*
X005159Y017725D02*
X004961Y017725D01*
X004777Y017648D01*
X004636Y017508D01*
X004560Y017324D01*
X004560Y017125D01*
X004636Y016941D01*
X004777Y016801D01*
X004961Y016725D01*
X005159Y016725D01*
X005343Y016801D01*
X005484Y016941D01*
X005560Y017125D01*
X005560Y017324D01*
X005484Y017508D01*
X005343Y017648D01*
X005159Y017725D01*
X004917Y017707D02*
X003203Y017707D01*
X003384Y017608D02*
X003921Y017608D01*
X003738Y017510D02*
X003482Y017510D01*
X003524Y017411D02*
X003639Y017411D01*
X003597Y017313D02*
X003560Y017313D01*
X003560Y017214D02*
X003560Y017214D01*
X003556Y017116D02*
X003560Y017116D01*
X003563Y017017D02*
X003515Y017017D01*
X003461Y016919D02*
X003604Y016919D01*
X003657Y016820D02*
X003363Y016820D01*
X003756Y016722D02*
X002364Y016722D01*
X002463Y016820D02*
X002757Y016820D01*
X002659Y016919D02*
X002516Y016919D01*
X002557Y017017D02*
X002605Y017017D01*
X002564Y017116D02*
X002560Y017116D01*
X002560Y017214D02*
X002560Y017214D01*
X002560Y017313D02*
X002523Y017313D01*
X002253Y017586D02*
X002159Y017625D01*
X001961Y017625D01*
X001777Y017548D01*
X001636Y017408D01*
X001560Y017224D01*
X001560Y017025D01*
X001636Y016841D01*
X001777Y016701D01*
X001840Y016675D01*
X000560Y016675D01*
X000560Y018954D01*
X000586Y018891D01*
X000727Y018751D01*
X000911Y018675D01*
X001109Y018675D01*
X001293Y018751D01*
X001434Y018891D01*
X001510Y019075D01*
X001510Y019274D01*
X001434Y019458D01*
X001293Y019598D01*
X001109Y019675D01*
X001060Y019675D01*
X001060Y020125D01*
X000591Y020125D01*
X000603Y020053D01*
X000628Y019975D01*
X000665Y019902D01*
X000713Y019836D01*
X000771Y019778D01*
X000837Y019730D01*
X000910Y019693D01*
X000966Y019675D01*
X000911Y019675D01*
X000727Y019598D01*
X000586Y019458D01*
X000560Y019395D01*
X000560Y020954D01*
X000586Y020891D01*
X000727Y020751D01*
X000911Y020675D01*
X000966Y020675D01*
X000910Y020656D01*
X000837Y020619D01*
X000771Y020571D01*
X000713Y020513D01*
X000665Y020447D01*
X000628Y020374D01*
X000603Y020296D01*
X000591Y020225D01*
X001060Y020225D01*
X001060Y020675D01*
X001109Y020675D01*
X001293Y020751D01*
X001434Y020891D01*
X001510Y021075D01*
X001510Y021274D01*
X001434Y021458D01*
X001293Y021598D01*
X001109Y021675D01*
X000911Y021675D01*
X000727Y021598D01*
X000586Y021458D01*
X000560Y021395D01*
X000560Y023675D01*
X000840Y023675D01*
X000777Y023648D01*
X000636Y023508D01*
X000560Y023324D01*
X000560Y023125D01*
X000636Y022941D01*
X000777Y022801D01*
X000961Y022725D01*
X001159Y022725D01*
X001306Y022785D01*
X002245Y021846D01*
X002245Y021471D01*
X002808Y020908D01*
X002919Y020797D01*
X004701Y020797D01*
X004826Y020922D01*
X011009Y020922D01*
X010964Y020812D01*
X010964Y020662D01*
X011021Y020523D01*
X011127Y020417D01*
X011266Y020360D01*
X011416Y020360D01*
X011555Y020417D01*
X011585Y020447D01*
X016618Y020447D01*
X016724Y020491D01*
X017118Y020885D01*
X025254Y020885D01*
X025284Y020855D01*
X025422Y020797D01*
X025573Y020797D01*
X025711Y020855D01*
X025745Y020888D01*
X025745Y020566D01*
X025544Y020365D01*
X018294Y020365D01*
X018183Y020253D01*
X017731Y019802D01*
X017420Y019802D01*
X017139Y020083D01*
X011325Y020083D01*
X011214Y019972D01*
X001590Y019972D01*
X001592Y019975D02*
X001617Y020053D01*
X001629Y020125D01*
X001160Y020125D01*
X001160Y020225D01*
X001060Y020225D01*
X001060Y020125D01*
X001160Y020125D01*
X001160Y019656D01*
X001232Y019667D01*
X001310Y019693D01*
X001383Y019730D01*
X001449Y019778D01*
X001507Y019836D01*
X001555Y019902D01*
X001592Y019975D01*
X001620Y020071D02*
X011312Y020071D01*
X011214Y019972D02*
X009638Y018396D01*
X001559Y018396D01*
X001534Y018458D02*
X001393Y018598D01*
X001209Y018675D01*
X001011Y018675D01*
X000827Y018598D01*
X000686Y018458D01*
X000610Y018274D01*
X000610Y018075D01*
X000686Y017891D01*
X000827Y017751D01*
X000925Y017710D01*
X000777Y017648D01*
X000636Y017508D01*
X000560Y017324D01*
X000560Y017125D01*
X000636Y016941D01*
X000777Y016801D01*
X000961Y016725D01*
X001159Y016725D01*
X001343Y016801D01*
X001484Y016941D01*
X001560Y017125D01*
X001560Y017324D01*
X001484Y017508D01*
X001343Y017648D01*
X001245Y017689D01*
X001393Y017751D01*
X001534Y017891D01*
X001610Y018075D01*
X001610Y018274D01*
X001534Y018458D01*
X001497Y018495D02*
X009736Y018495D01*
X009835Y018593D02*
X001399Y018593D01*
X001333Y018790D02*
X010032Y018790D01*
X010130Y018889D02*
X001431Y018889D01*
X001474Y018987D02*
X010229Y018987D01*
X010327Y019086D02*
X001510Y019086D01*
X001510Y019184D02*
X010426Y019184D01*
X010524Y019283D02*
X001506Y019283D01*
X001466Y019381D02*
X010623Y019381D01*
X010721Y019480D02*
X001412Y019480D01*
X001314Y019578D02*
X010820Y019578D01*
X010918Y019677D02*
X001260Y019677D01*
X001160Y019677D02*
X001060Y019677D01*
X001060Y019775D02*
X001160Y019775D01*
X001160Y019874D02*
X001060Y019874D01*
X001060Y019972D02*
X001160Y019972D01*
X001160Y020071D02*
X001060Y020071D01*
X001060Y020169D02*
X000560Y020169D01*
X000560Y020071D02*
X000600Y020071D01*
X000630Y019972D02*
X000560Y019972D01*
X000560Y019874D02*
X000686Y019874D01*
X000775Y019775D02*
X000560Y019775D01*
X000560Y019677D02*
X000960Y019677D01*
X000706Y019578D02*
X000560Y019578D01*
X000560Y019480D02*
X000608Y019480D01*
X000589Y018889D02*
X000560Y018889D01*
X000560Y018790D02*
X000687Y018790D01*
X000560Y018692D02*
X000869Y018692D01*
X000821Y018593D02*
X000560Y018593D01*
X000560Y018495D02*
X000723Y018495D01*
X000661Y018396D02*
X000560Y018396D01*
X000560Y018298D02*
X000620Y018298D01*
X000610Y018199D02*
X000560Y018199D01*
X000560Y018101D02*
X000610Y018101D01*
X000640Y018002D02*
X000560Y018002D01*
X000560Y017904D02*
X000681Y017904D01*
X000772Y017805D02*
X000560Y017805D01*
X000560Y017707D02*
X000917Y017707D01*
X000736Y017608D02*
X000560Y017608D01*
X000560Y017510D02*
X000638Y017510D01*
X000596Y017411D02*
X000560Y017411D01*
X000560Y017313D02*
X000560Y017313D01*
X000560Y017214D02*
X000560Y017214D01*
X000560Y017116D02*
X000564Y017116D01*
X000560Y017017D02*
X000605Y017017D01*
X000560Y016919D02*
X000659Y016919D01*
X000757Y016820D02*
X000560Y016820D01*
X000560Y016722D02*
X001756Y016722D01*
X001657Y016820D02*
X001363Y016820D01*
X001461Y016919D02*
X001604Y016919D01*
X001563Y017017D02*
X001515Y017017D01*
X001556Y017116D02*
X001560Y017116D01*
X001560Y017214D02*
X001560Y017214D01*
X001560Y017313D02*
X001597Y017313D01*
X001639Y017411D02*
X001524Y017411D01*
X001482Y017510D02*
X001738Y017510D01*
X001921Y017608D02*
X001384Y017608D01*
X001287Y017707D02*
X002373Y017707D01*
X002472Y017805D02*
X001448Y017805D01*
X001539Y017904D02*
X002570Y017904D01*
X002669Y018002D02*
X001580Y018002D01*
X001610Y018101D02*
X002767Y018101D01*
X002866Y018199D02*
X001610Y018199D01*
X001600Y018298D02*
X002964Y018298D01*
X002951Y018285D02*
X002253Y017586D01*
X002275Y017608D02*
X002199Y017608D01*
X002911Y017707D02*
X002917Y017707D01*
X003009Y017805D02*
X009609Y017805D01*
X009708Y017904D02*
X003108Y017904D01*
X003206Y018002D02*
X009806Y018002D01*
X009880Y018101D02*
X009905Y018101D01*
X009978Y018199D02*
X010003Y018199D01*
X010077Y018298D02*
X010102Y018298D01*
X010175Y018396D02*
X010200Y018396D01*
X010274Y018495D02*
X010299Y018495D01*
X010372Y018593D02*
X010397Y018593D01*
X010471Y018692D02*
X010496Y018692D01*
X010569Y018790D02*
X010594Y018790D01*
X010668Y018889D02*
X010693Y018889D01*
X010766Y018987D02*
X010791Y018987D01*
X010865Y019086D02*
X010890Y019086D01*
X010963Y019184D02*
X010988Y019184D01*
X011062Y019283D02*
X011087Y019283D01*
X011160Y019381D02*
X011185Y019381D01*
X011259Y019480D02*
X011284Y019480D01*
X011357Y019578D02*
X011382Y019578D01*
X011456Y019677D02*
X011481Y019677D01*
X011723Y019381D02*
X012020Y019381D01*
X012054Y019416D02*
X011931Y019293D01*
X010233Y017594D01*
X010159Y017625D01*
X009966Y017625D01*
X011826Y019485D01*
X016919Y019485D01*
X017058Y019346D01*
X017169Y019235D01*
X025732Y019235D01*
X026986Y020488D01*
X027053Y020488D01*
X027156Y020531D01*
X027235Y020610D01*
X027277Y020713D01*
X027277Y020824D01*
X027235Y020927D01*
X027156Y021006D01*
X027053Y021048D01*
X026942Y021048D01*
X026839Y021006D01*
X026760Y020927D01*
X026718Y020824D01*
X026718Y020757D01*
X025575Y019615D01*
X018081Y019615D01*
X018451Y019985D01*
X025701Y019985D01*
X026014Y020297D01*
X026125Y020408D01*
X026125Y021096D01*
X026264Y021235D01*
X027794Y021235D01*
X027870Y021158D01*
X027870Y019408D01*
X029058Y018221D01*
X029169Y018110D01*
X029417Y018110D01*
X029464Y018062D01*
X029567Y018020D01*
X029678Y018020D01*
X029781Y018062D01*
X029860Y018141D01*
X029902Y018244D01*
X029902Y018355D01*
X029860Y018458D01*
X029781Y018537D01*
X029678Y018580D01*
X029567Y018580D01*
X029464Y018537D01*
X029417Y018490D01*
X029326Y018490D01*
X028250Y019566D01*
X028250Y021216D01*
X028370Y021096D01*
X028370Y019881D01*
X028323Y019833D01*
X028280Y019730D01*
X028280Y019619D01*
X028323Y019516D01*
X028401Y019437D01*
X028504Y019395D01*
X028616Y019395D01*
X028719Y019437D01*
X028797Y019516D01*
X028840Y019619D01*
X028840Y019730D01*
X028797Y019833D01*
X028750Y019881D01*
X028750Y021253D01*
X028639Y021365D01*
X028394Y021610D01*
X028856Y021610D01*
X028964Y021502D01*
X028964Y019881D01*
X028916Y019833D01*
X028874Y019730D01*
X028874Y019619D01*
X028916Y019516D01*
X028995Y019437D01*
X029098Y019395D01*
X029209Y019395D01*
X029312Y019437D01*
X029391Y019516D01*
X029434Y019619D01*
X029434Y019730D01*
X029391Y019833D01*
X029344Y019881D01*
X029344Y021660D01*
X029232Y021771D01*
X029206Y021797D01*
X029294Y021797D01*
X029558Y021533D01*
X029558Y019881D01*
X029510Y019833D01*
X029468Y019730D01*
X029468Y019619D01*
X029510Y019516D01*
X029589Y019437D01*
X029692Y019395D01*
X029803Y019395D01*
X029906Y019437D01*
X029985Y019516D01*
X030027Y019619D01*
X030027Y019730D01*
X029985Y019833D01*
X029937Y019881D01*
X029937Y021691D01*
X029826Y021802D01*
X029451Y022177D01*
X024875Y022177D01*
X024902Y022244D01*
X024902Y022355D01*
X024860Y022458D01*
X024781Y022537D01*
X024678Y022580D01*
X024611Y022580D01*
X024019Y023172D01*
X027794Y023172D01*
X028058Y022908D01*
X028169Y022797D01*
X028701Y022797D01*
X028938Y023034D01*
X028973Y023020D01*
X029084Y023020D01*
X029187Y023062D01*
X029266Y023141D01*
X029309Y023244D01*
X029309Y023355D01*
X029266Y023458D01*
X029187Y023537D01*
X029084Y023580D01*
X028973Y023580D01*
X028870Y023537D01*
X028791Y023458D01*
X028768Y023401D01*
X028745Y023378D01*
X028715Y023348D01*
X028715Y023355D01*
X028672Y023458D01*
X028594Y023537D01*
X028491Y023580D01*
X028424Y023580D01*
X028329Y023675D01*
X030060Y023675D01*
X030060Y016675D01*
X014280Y016675D01*
X014343Y016701D01*
X014484Y016841D01*
X014560Y017025D01*
X014560Y017224D01*
X014484Y017408D01*
X014343Y017548D01*
X014159Y017625D01*
X013961Y017625D01*
X013777Y017548D01*
X013636Y017408D01*
X013560Y017224D01*
X013560Y017175D01*
X013110Y017175D01*
X013110Y017275D01*
X013579Y017275D01*
X013567Y017346D01*
X013542Y017424D01*
X013505Y017497D01*
X013457Y017563D01*
X013399Y017621D01*
X013333Y017669D01*
X013260Y017706D01*
X013247Y017711D01*
X013343Y017751D01*
X013484Y017891D01*
X013560Y018075D01*
X013560Y018274D01*
X013484Y018458D01*
X013415Y018527D01*
X013504Y018527D01*
X014098Y017933D01*
X019366Y017933D01*
X019984Y018552D01*
X020059Y018552D01*
X020173Y018599D01*
X020260Y018686D01*
X020307Y018800D01*
X020307Y018924D01*
X020260Y019038D01*
X020173Y019125D01*
X020059Y019172D01*
X019936Y019172D01*
X019822Y019125D01*
X019735Y019038D01*
X019688Y018924D01*
X019688Y018849D01*
X019192Y018353D01*
X014272Y018353D01*
X013801Y018824D01*
X013678Y018947D01*
X012473Y018947D01*
X011224Y017698D01*
X011159Y017725D01*
X010961Y017725D01*
X010954Y017722D01*
X012228Y018996D01*
X013661Y018996D01*
X014038Y018619D01*
X014161Y018496D01*
X018269Y018496D01*
X018322Y018443D01*
X018436Y018396D01*
X018559Y018396D01*
X018673Y018443D01*
X018760Y018530D01*
X018807Y018644D01*
X018807Y018767D01*
X018760Y018881D01*
X018673Y018969D01*
X018559Y019016D01*
X018436Y019016D01*
X018322Y018969D01*
X018269Y018916D01*
X014334Y018916D01*
X013834Y019416D01*
X012054Y019416D01*
X011921Y019283D02*
X011624Y019283D01*
X011526Y019184D02*
X011823Y019184D01*
X011724Y019086D02*
X011427Y019086D01*
X011329Y018987D02*
X011626Y018987D01*
X011527Y018889D02*
X011230Y018889D01*
X011132Y018790D02*
X011429Y018790D01*
X011330Y018692D02*
X011033Y018692D01*
X010935Y018593D02*
X011232Y018593D01*
X011133Y018495D02*
X010836Y018495D01*
X010738Y018396D02*
X011035Y018396D01*
X010936Y018298D02*
X010639Y018298D01*
X010541Y018199D02*
X010838Y018199D01*
X010739Y018101D02*
X010442Y018101D01*
X010344Y018002D02*
X010641Y018002D01*
X010542Y017904D02*
X010245Y017904D01*
X010147Y017805D02*
X010444Y017805D01*
X010345Y017707D02*
X010048Y017707D01*
X010199Y017608D02*
X010247Y017608D01*
X010545Y017313D02*
X010560Y017313D01*
X010560Y017324D02*
X010560Y017125D01*
X010636Y016941D01*
X010777Y016801D01*
X010961Y016725D01*
X011159Y016725D01*
X011343Y016801D01*
X011484Y016941D01*
X011560Y017125D01*
X011560Y017324D01*
X011526Y017406D01*
X012647Y018527D01*
X012705Y018527D01*
X012636Y018458D01*
X012560Y018274D01*
X012560Y018075D01*
X012636Y017891D01*
X012777Y017751D01*
X012873Y017711D01*
X012860Y017706D01*
X012787Y017669D01*
X012721Y017621D01*
X012663Y017563D01*
X012615Y017497D01*
X012578Y017424D01*
X012553Y017346D01*
X012541Y017275D01*
X013010Y017275D01*
X013010Y017175D01*
X012560Y017175D01*
X012560Y017224D01*
X012484Y017408D01*
X012343Y017548D01*
X012159Y017625D01*
X011961Y017625D01*
X011777Y017548D01*
X011636Y017408D01*
X011560Y017224D01*
X011560Y017025D01*
X011636Y016841D01*
X011777Y016701D01*
X011840Y016675D01*
X010280Y016675D01*
X010343Y016701D01*
X010484Y016841D01*
X010560Y017025D01*
X010560Y017224D01*
X010530Y017297D01*
X010563Y017330D01*
X010560Y017324D01*
X010560Y017214D02*
X010560Y017214D01*
X010560Y017116D02*
X010564Y017116D01*
X010557Y017017D02*
X010605Y017017D01*
X010659Y016919D02*
X010516Y016919D01*
X010463Y016820D02*
X010757Y016820D01*
X010364Y016722D02*
X011756Y016722D01*
X011657Y016820D02*
X011363Y016820D01*
X011461Y016919D02*
X011604Y016919D01*
X011563Y017017D02*
X011515Y017017D01*
X011556Y017116D02*
X011560Y017116D01*
X011560Y017214D02*
X011560Y017214D01*
X011560Y017313D02*
X011597Y017313D01*
X011639Y017411D02*
X011531Y017411D01*
X011630Y017510D02*
X011738Y017510D01*
X011728Y017608D02*
X011921Y017608D01*
X011827Y017707D02*
X012861Y017707D01*
X012722Y017805D02*
X011925Y017805D01*
X012024Y017904D02*
X012631Y017904D01*
X012590Y018002D02*
X012122Y018002D01*
X012221Y018101D02*
X012560Y018101D01*
X012560Y018199D02*
X012319Y018199D01*
X012418Y018298D02*
X012570Y018298D01*
X012611Y018396D02*
X012516Y018396D01*
X012615Y018495D02*
X012673Y018495D01*
X012316Y018790D02*
X012023Y018790D01*
X012121Y018889D02*
X012415Y018889D01*
X012220Y018987D02*
X013669Y018987D01*
X013737Y018889D02*
X013768Y018889D01*
X013835Y018790D02*
X013866Y018790D01*
X013934Y018692D02*
X013965Y018692D01*
X014032Y018593D02*
X014063Y018593D01*
X014131Y018495D02*
X018270Y018495D01*
X018435Y018396D02*
X014229Y018396D01*
X013931Y018101D02*
X013560Y018101D01*
X013560Y018199D02*
X013832Y018199D01*
X013734Y018298D02*
X013550Y018298D01*
X013509Y018396D02*
X013635Y018396D01*
X013537Y018495D02*
X013447Y018495D01*
X013530Y018002D02*
X014029Y018002D01*
X013921Y017608D02*
X013412Y017608D01*
X013496Y017510D02*
X013738Y017510D01*
X013639Y017411D02*
X013546Y017411D01*
X013573Y017313D02*
X013597Y017313D01*
X013560Y017214D02*
X013110Y017214D01*
X013110Y017175D02*
X013110Y016706D01*
X013182Y016717D01*
X013260Y016743D01*
X013333Y016780D01*
X013399Y016828D01*
X013457Y016886D01*
X013505Y016952D01*
X013542Y017025D01*
X013560Y017081D01*
X013560Y017025D01*
X013636Y016841D01*
X013777Y016701D01*
X013840Y016675D01*
X012280Y016675D01*
X012343Y016701D01*
X012484Y016841D01*
X012560Y017025D01*
X012560Y017081D01*
X012578Y017025D01*
X012615Y016952D01*
X012663Y016886D01*
X012721Y016828D01*
X012787Y016780D01*
X012860Y016743D01*
X012938Y016717D01*
X013010Y016706D01*
X013010Y017175D01*
X013110Y017175D01*
X013110Y017116D02*
X013010Y017116D01*
X013010Y017214D02*
X012560Y017214D01*
X012547Y017313D02*
X012523Y017313D01*
X012481Y017411D02*
X012574Y017411D01*
X012624Y017510D02*
X012382Y017510D01*
X012199Y017608D02*
X012708Y017608D01*
X013259Y017707D02*
X030060Y017707D01*
X030060Y017805D02*
X013398Y017805D01*
X013489Y017904D02*
X030060Y017904D01*
X030060Y018002D02*
X019435Y018002D01*
X019533Y018101D02*
X029425Y018101D01*
X029079Y018199D02*
X019632Y018199D01*
X019730Y018298D02*
X028981Y018298D01*
X028882Y018396D02*
X019829Y018396D01*
X019927Y018495D02*
X028784Y018495D01*
X028685Y018593D02*
X020158Y018593D01*
X020262Y018692D02*
X028587Y018692D01*
X028488Y018790D02*
X020303Y018790D01*
X020307Y018889D02*
X028390Y018889D01*
X028291Y018987D02*
X020281Y018987D01*
X020212Y019086D02*
X028193Y019086D01*
X028094Y019184D02*
X014066Y019184D01*
X013968Y019283D02*
X017121Y019283D01*
X017022Y019381D02*
X013869Y019381D01*
X014165Y019086D02*
X019783Y019086D01*
X019714Y018987D02*
X018628Y018987D01*
X018753Y018889D02*
X019688Y018889D01*
X019629Y018790D02*
X018798Y018790D01*
X018807Y018692D02*
X019530Y018692D01*
X019432Y018593D02*
X018786Y018593D01*
X018725Y018495D02*
X019333Y018495D01*
X019235Y018396D02*
X018560Y018396D01*
X018367Y018987D02*
X014263Y018987D01*
X014199Y017608D02*
X030060Y017608D01*
X030060Y017510D02*
X014382Y017510D01*
X014481Y017411D02*
X030060Y017411D01*
X030060Y017313D02*
X014523Y017313D01*
X014560Y017214D02*
X030060Y017214D01*
X030060Y017116D02*
X014560Y017116D01*
X014557Y017017D02*
X030060Y017017D01*
X030060Y016919D02*
X014516Y016919D01*
X014463Y016820D02*
X030060Y016820D01*
X030060Y016722D02*
X014364Y016722D01*
X013756Y016722D02*
X013195Y016722D01*
X013110Y016722D02*
X013010Y016722D01*
X012925Y016722D02*
X012364Y016722D01*
X012463Y016820D02*
X012732Y016820D01*
X012640Y016919D02*
X012516Y016919D01*
X012557Y017017D02*
X012582Y017017D01*
X013010Y017017D02*
X013110Y017017D01*
X013110Y016919D02*
X013010Y016919D01*
X013010Y016820D02*
X013110Y016820D01*
X013388Y016820D02*
X013657Y016820D01*
X013604Y016919D02*
X013480Y016919D01*
X013538Y017017D02*
X013563Y017017D01*
X012021Y018495D02*
X011727Y018495D01*
X011826Y018593D02*
X012119Y018593D01*
X012218Y018692D02*
X011924Y018692D01*
X011922Y018396D02*
X011629Y018396D01*
X011530Y018298D02*
X011824Y018298D01*
X011725Y018199D02*
X011432Y018199D01*
X011333Y018101D02*
X011627Y018101D01*
X011528Y018002D02*
X011235Y018002D01*
X011136Y017904D02*
X011430Y017904D01*
X011331Y017805D02*
X011038Y017805D01*
X011203Y017707D02*
X011233Y017707D01*
X009933Y018692D02*
X001151Y018692D01*
X001445Y019775D02*
X011017Y019775D01*
X011115Y019874D02*
X001534Y019874D01*
X001629Y020225D02*
X001160Y020225D01*
X001160Y020693D01*
X001232Y020682D01*
X001310Y020656D01*
X001383Y020619D01*
X001449Y020571D01*
X001507Y020513D01*
X001555Y020447D01*
X001592Y020374D01*
X001617Y020296D01*
X001629Y020225D01*
X001622Y020268D02*
X018197Y020268D01*
X018098Y020169D02*
X001160Y020169D01*
X001160Y020268D02*
X001060Y020268D01*
X001060Y020366D02*
X001160Y020366D01*
X001160Y020465D02*
X001060Y020465D01*
X001060Y020563D02*
X001160Y020563D01*
X001160Y020662D02*
X001060Y020662D01*
X000926Y020662D02*
X000560Y020662D01*
X000560Y020760D02*
X000717Y020760D01*
X000619Y020859D02*
X000560Y020859D01*
X000560Y020563D02*
X000763Y020563D01*
X000678Y020465D02*
X000560Y020465D01*
X000560Y020366D02*
X000625Y020366D01*
X000598Y020268D02*
X000560Y020268D01*
X001294Y020662D02*
X010964Y020662D01*
X010964Y020760D02*
X001303Y020760D01*
X001401Y020859D02*
X002857Y020859D01*
X002759Y020957D02*
X001461Y020957D01*
X001502Y021056D02*
X002660Y021056D01*
X002562Y021154D02*
X001510Y021154D01*
X001510Y021253D02*
X002463Y021253D01*
X002365Y021351D02*
X001478Y021351D01*
X001437Y021450D02*
X002266Y021450D01*
X002245Y021548D02*
X001344Y021548D01*
X001209Y021675D02*
X001393Y021751D01*
X001534Y021891D01*
X001610Y022075D01*
X001610Y022274D01*
X001534Y022458D01*
X001393Y022598D01*
X001209Y022675D01*
X001011Y022675D01*
X000827Y022598D01*
X000686Y022458D01*
X000610Y022274D01*
X000610Y022075D01*
X000686Y021891D01*
X000827Y021751D01*
X001011Y021675D01*
X001209Y021675D01*
X001177Y021647D02*
X002245Y021647D01*
X002245Y021745D02*
X001380Y021745D01*
X001486Y021844D02*
X002245Y021844D01*
X002149Y021942D02*
X001555Y021942D01*
X001596Y022041D02*
X002050Y022041D01*
X001952Y022139D02*
X001610Y022139D01*
X001610Y022238D02*
X001853Y022238D01*
X001755Y022336D02*
X001584Y022336D01*
X001543Y022435D02*
X001656Y022435D01*
X001558Y022533D02*
X001459Y022533D01*
X001459Y022632D02*
X001313Y022632D01*
X001361Y022730D02*
X001173Y022730D01*
X000947Y022730D02*
X000560Y022730D01*
X000560Y022632D02*
X000907Y022632D01*
X000761Y022533D02*
X000560Y022533D01*
X000560Y022435D02*
X000677Y022435D01*
X000636Y022336D02*
X000560Y022336D01*
X000560Y022238D02*
X000610Y022238D01*
X000610Y022139D02*
X000560Y022139D01*
X000560Y022041D02*
X000624Y022041D01*
X000665Y021942D02*
X000560Y021942D01*
X000560Y021844D02*
X000734Y021844D01*
X000840Y021745D02*
X000560Y021745D01*
X000560Y021647D02*
X000843Y021647D01*
X000676Y021548D02*
X000560Y021548D01*
X000560Y021450D02*
X000583Y021450D01*
X001457Y020563D02*
X011005Y020563D01*
X011080Y020465D02*
X001542Y020465D01*
X001595Y020366D02*
X011250Y020366D01*
X011432Y020366D02*
X025545Y020366D01*
X025644Y020465D02*
X016660Y020465D01*
X016796Y020563D02*
X025742Y020563D01*
X025745Y020662D02*
X016895Y020662D01*
X016993Y020760D02*
X025745Y020760D01*
X025745Y020859D02*
X025715Y020859D01*
X026125Y020859D02*
X026732Y020859D01*
X026718Y020760D02*
X026125Y020760D01*
X026125Y020662D02*
X026622Y020662D01*
X026524Y020563D02*
X026125Y020563D01*
X026125Y020465D02*
X026425Y020465D01*
X026327Y020366D02*
X026083Y020366D01*
X025984Y020268D02*
X026228Y020268D01*
X026130Y020169D02*
X025886Y020169D01*
X025787Y020071D02*
X026031Y020071D01*
X025933Y019972D02*
X018439Y019972D01*
X018340Y019874D02*
X025834Y019874D01*
X025736Y019775D02*
X018242Y019775D01*
X018143Y019677D02*
X025637Y019677D01*
X025879Y019381D02*
X027897Y019381D01*
X027870Y019480D02*
X025977Y019480D01*
X026076Y019578D02*
X027870Y019578D01*
X027870Y019677D02*
X026174Y019677D01*
X026273Y019775D02*
X027870Y019775D01*
X027870Y019874D02*
X026371Y019874D01*
X026470Y019972D02*
X027870Y019972D01*
X027870Y020071D02*
X026568Y020071D01*
X026667Y020169D02*
X027870Y020169D01*
X027870Y020268D02*
X026765Y020268D01*
X026864Y020366D02*
X027870Y020366D01*
X027870Y020465D02*
X026962Y020465D01*
X027188Y020563D02*
X027870Y020563D01*
X027870Y020662D02*
X027256Y020662D01*
X027277Y020760D02*
X027870Y020760D01*
X027870Y020859D02*
X027263Y020859D01*
X027205Y020957D02*
X027870Y020957D01*
X027870Y021056D02*
X026125Y021056D01*
X026125Y020957D02*
X026790Y020957D01*
X026183Y021154D02*
X027870Y021154D01*
X028250Y021154D02*
X028312Y021154D01*
X028370Y021056D02*
X028250Y021056D01*
X028250Y020957D02*
X028370Y020957D01*
X028370Y020859D02*
X028250Y020859D01*
X028250Y020760D02*
X028370Y020760D01*
X028370Y020662D02*
X028250Y020662D01*
X028250Y020563D02*
X028370Y020563D01*
X028370Y020465D02*
X028250Y020465D01*
X028250Y020366D02*
X028370Y020366D01*
X028370Y020268D02*
X028250Y020268D01*
X028250Y020169D02*
X028370Y020169D01*
X028370Y020071D02*
X028250Y020071D01*
X028250Y019972D02*
X028370Y019972D01*
X028363Y019874D02*
X028250Y019874D01*
X028250Y019775D02*
X028299Y019775D01*
X028280Y019677D02*
X028250Y019677D01*
X028250Y019578D02*
X028297Y019578D01*
X028336Y019480D02*
X028359Y019480D01*
X028435Y019381D02*
X030060Y019381D01*
X030060Y019283D02*
X028533Y019283D01*
X028632Y019184D02*
X030060Y019184D01*
X030060Y019086D02*
X028730Y019086D01*
X028829Y018987D02*
X030060Y018987D01*
X030060Y018889D02*
X028927Y018889D01*
X029026Y018790D02*
X030060Y018790D01*
X030060Y018692D02*
X029124Y018692D01*
X029223Y018593D02*
X030060Y018593D01*
X030060Y018495D02*
X029823Y018495D01*
X029886Y018396D02*
X030060Y018396D01*
X030060Y018298D02*
X029902Y018298D01*
X029884Y018199D02*
X030060Y018199D01*
X030060Y018101D02*
X029820Y018101D01*
X029422Y018495D02*
X029321Y018495D01*
X029355Y019480D02*
X029546Y019480D01*
X029484Y019578D02*
X029417Y019578D01*
X029434Y019677D02*
X029468Y019677D01*
X029486Y019775D02*
X029415Y019775D01*
X029351Y019874D02*
X029551Y019874D01*
X029558Y019972D02*
X029344Y019972D01*
X029344Y020071D02*
X029558Y020071D01*
X029558Y020169D02*
X029344Y020169D01*
X029344Y020268D02*
X029558Y020268D01*
X029558Y020366D02*
X029344Y020366D01*
X029344Y020465D02*
X029558Y020465D01*
X029558Y020563D02*
X029344Y020563D01*
X029344Y020662D02*
X029558Y020662D01*
X029558Y020760D02*
X029344Y020760D01*
X029344Y020859D02*
X029558Y020859D01*
X029558Y020957D02*
X029344Y020957D01*
X029344Y021056D02*
X029558Y021056D01*
X029558Y021154D02*
X029344Y021154D01*
X029344Y021253D02*
X029558Y021253D01*
X029558Y021351D02*
X029344Y021351D01*
X029344Y021450D02*
X029558Y021450D01*
X029543Y021548D02*
X029344Y021548D01*
X029344Y021647D02*
X029444Y021647D01*
X029346Y021745D02*
X029258Y021745D01*
X028918Y021548D02*
X028455Y021548D01*
X028554Y021450D02*
X028964Y021450D01*
X028964Y021351D02*
X028652Y021351D01*
X028750Y021253D02*
X028964Y021253D01*
X028964Y021154D02*
X028750Y021154D01*
X028750Y021056D02*
X028964Y021056D01*
X028964Y020957D02*
X028750Y020957D01*
X028750Y020859D02*
X028964Y020859D01*
X028964Y020760D02*
X028750Y020760D01*
X028750Y020662D02*
X028964Y020662D01*
X028964Y020563D02*
X028750Y020563D01*
X028750Y020465D02*
X028964Y020465D01*
X028964Y020366D02*
X028750Y020366D01*
X028750Y020268D02*
X028964Y020268D01*
X028964Y020169D02*
X028750Y020169D01*
X028750Y020071D02*
X028964Y020071D01*
X028964Y019972D02*
X028750Y019972D01*
X028757Y019874D02*
X028957Y019874D01*
X028892Y019775D02*
X028821Y019775D01*
X028840Y019677D02*
X028874Y019677D01*
X028891Y019578D02*
X028823Y019578D01*
X028761Y019480D02*
X028953Y019480D01*
X027996Y019283D02*
X025780Y019283D01*
X025280Y020859D02*
X017092Y020859D01*
X017151Y020071D02*
X018000Y020071D01*
X017901Y019972D02*
X017250Y019972D01*
X017348Y019874D02*
X017803Y019874D01*
X016924Y019480D02*
X011821Y019480D01*
X010983Y020859D02*
X004763Y020859D01*
X006066Y022238D02*
X007778Y022238D01*
X007680Y022336D02*
X005967Y022336D01*
X005869Y022435D02*
X007581Y022435D01*
X007483Y022533D02*
X005770Y022533D01*
X005672Y022632D02*
X005944Y022632D01*
X005961Y022625D02*
X005777Y022701D01*
X005636Y022841D01*
X005560Y023025D01*
X005560Y023224D01*
X005636Y023408D01*
X005777Y023548D01*
X005961Y023625D01*
X006159Y023625D01*
X006343Y023548D01*
X006484Y023408D01*
X006560Y023224D01*
X006560Y023025D01*
X006484Y022841D01*
X006343Y022701D01*
X006159Y022625D01*
X005961Y022625D01*
X006176Y022632D02*
X007384Y022632D01*
X007286Y022730D02*
X007173Y022730D01*
X007159Y022725D02*
X007253Y022763D01*
X008339Y021677D01*
X006626Y021677D01*
X005581Y022722D01*
X005470Y022833D01*
X005376Y022833D01*
X005484Y022941D01*
X005560Y023125D01*
X005560Y023324D01*
X005484Y023508D01*
X005343Y023648D01*
X005280Y023675D01*
X006840Y023675D01*
X006777Y023648D01*
X006636Y023508D01*
X006560Y023324D01*
X006560Y023125D01*
X006636Y022941D01*
X006777Y022801D01*
X006961Y022725D01*
X007159Y022725D01*
X006947Y022730D02*
X006373Y022730D01*
X006471Y022829D02*
X006749Y022829D01*
X006650Y022927D02*
X006519Y022927D01*
X006560Y023026D02*
X006601Y023026D01*
X006560Y023124D02*
X006560Y023124D01*
X006560Y023223D02*
X006560Y023223D01*
X006560Y023321D02*
X006520Y023321D01*
X006472Y023420D02*
X006600Y023420D01*
X006646Y023518D02*
X006374Y023518D01*
X006179Y023617D02*
X006745Y023617D01*
X005941Y023617D02*
X005375Y023617D01*
X005474Y023518D02*
X005746Y023518D01*
X005648Y023420D02*
X005520Y023420D01*
X005560Y023321D02*
X005600Y023321D01*
X005560Y023223D02*
X005560Y023223D01*
X005560Y023124D02*
X005560Y023124D01*
X005560Y023026D02*
X005519Y023026D01*
X005470Y022927D02*
X005601Y022927D01*
X005649Y022829D02*
X005475Y022829D01*
X005573Y022730D02*
X005747Y022730D01*
X006164Y022139D02*
X007877Y022139D01*
X007975Y022041D02*
X006263Y022041D01*
X006361Y021942D02*
X008074Y021942D01*
X008172Y021844D02*
X006460Y021844D01*
X006558Y021745D02*
X008271Y021745D01*
X008280Y024505D02*
X008343Y024531D01*
X008484Y024671D01*
X008560Y024855D01*
X008560Y025054D01*
X008484Y025238D01*
X008343Y025378D01*
X008159Y025455D01*
X007961Y025455D01*
X007777Y025378D01*
X007636Y025238D01*
X007560Y025054D01*
X007560Y024855D01*
X007636Y024671D01*
X007777Y024531D01*
X007840Y024505D01*
X006280Y024505D01*
X006343Y024531D01*
X006484Y024671D01*
X006560Y024855D01*
X006560Y025054D01*
X006484Y025238D01*
X006343Y025378D01*
X006159Y025455D01*
X005961Y025455D01*
X005777Y025378D01*
X005636Y025238D01*
X005560Y025054D01*
X005560Y024855D01*
X005636Y024671D01*
X005777Y024531D01*
X005840Y024505D01*
X004280Y024505D01*
X004343Y024531D01*
X004484Y024671D01*
X004560Y024855D01*
X004560Y025054D01*
X004484Y025238D01*
X004343Y025378D01*
X004159Y025455D01*
X003961Y025455D01*
X003777Y025378D01*
X003636Y025238D01*
X003560Y025054D01*
X003560Y024855D01*
X003636Y024671D01*
X003777Y024531D01*
X003840Y024505D01*
X002280Y024505D01*
X002343Y024531D01*
X002484Y024671D01*
X002560Y024855D01*
X002560Y025054D01*
X002521Y025147D01*
X002583Y025208D01*
X002560Y025154D01*
X002560Y024955D01*
X002636Y024771D01*
X002777Y024631D01*
X002961Y024555D01*
X003159Y024555D01*
X003343Y024631D01*
X003484Y024771D01*
X003560Y024955D01*
X003560Y025154D01*
X003484Y025338D01*
X003343Y025478D01*
X003159Y025555D01*
X002961Y025555D01*
X002906Y025532D01*
X003220Y025846D01*
X009795Y025846D01*
X011482Y027533D01*
X011508Y027533D01*
X009398Y025424D01*
X009343Y025478D01*
X009159Y025555D01*
X008961Y025555D01*
X008777Y025478D01*
X008636Y025338D01*
X008560Y025154D01*
X008560Y024955D01*
X008636Y024771D01*
X008777Y024631D01*
X008961Y024555D01*
X009159Y024555D01*
X009343Y024631D01*
X009484Y024771D01*
X009560Y024955D01*
X009560Y025048D01*
X009560Y025048D01*
X009560Y024855D01*
X009636Y024671D01*
X009777Y024531D01*
X009840Y024505D01*
X008280Y024505D01*
X008414Y024602D02*
X008847Y024602D01*
X008707Y024700D02*
X008496Y024700D01*
X008537Y024799D02*
X008625Y024799D01*
X008584Y024897D02*
X008560Y024897D01*
X008560Y024996D02*
X008560Y024996D01*
X008560Y025094D02*
X008543Y025094D01*
X008576Y025193D02*
X008503Y025193D01*
X008431Y025291D02*
X008617Y025291D01*
X008688Y025390D02*
X008316Y025390D01*
X007804Y025390D02*
X007432Y025390D01*
X007484Y025338D02*
X007343Y025478D01*
X007159Y025555D01*
X006961Y025555D01*
X006777Y025478D01*
X006636Y025338D01*
X006560Y025154D01*
X006560Y024955D01*
X006636Y024771D01*
X006777Y024631D01*
X006961Y024555D01*
X007159Y024555D01*
X007343Y024631D01*
X007484Y024771D01*
X007560Y024955D01*
X007560Y025154D01*
X007484Y025338D01*
X007503Y025291D02*
X007689Y025291D01*
X007617Y025193D02*
X007544Y025193D01*
X007560Y025094D02*
X007577Y025094D01*
X007560Y024996D02*
X007560Y024996D01*
X007560Y024897D02*
X007536Y024897D01*
X007495Y024799D02*
X007583Y024799D01*
X007624Y024700D02*
X007413Y024700D01*
X007273Y024602D02*
X007706Y024602D01*
X006847Y024602D02*
X006414Y024602D01*
X006496Y024700D02*
X006707Y024700D01*
X006625Y024799D02*
X006537Y024799D01*
X006560Y024897D02*
X006584Y024897D01*
X006560Y024996D02*
X006560Y024996D01*
X006560Y025094D02*
X006543Y025094D01*
X006576Y025193D02*
X006503Y025193D01*
X006431Y025291D02*
X006617Y025291D01*
X006688Y025390D02*
X006316Y025390D01*
X006800Y025488D02*
X005320Y025488D01*
X005343Y025478D02*
X005159Y025555D01*
X004961Y025555D01*
X004777Y025478D01*
X004636Y025338D01*
X004560Y025154D01*
X004560Y024955D01*
X004636Y024771D01*
X004777Y024631D01*
X004961Y024555D01*
X005159Y024555D01*
X005343Y024631D01*
X005484Y024771D01*
X005560Y024955D01*
X005560Y025154D01*
X005484Y025338D01*
X005343Y025478D01*
X005432Y025390D02*
X005804Y025390D01*
X005689Y025291D02*
X005503Y025291D01*
X005544Y025193D02*
X005617Y025193D01*
X005577Y025094D02*
X005560Y025094D01*
X005560Y024996D02*
X005560Y024996D01*
X005560Y024897D02*
X005536Y024897D01*
X005495Y024799D02*
X005583Y024799D01*
X005624Y024700D02*
X005413Y024700D01*
X005273Y024602D02*
X005706Y024602D01*
X004847Y024602D02*
X004414Y024602D01*
X004496Y024700D02*
X004707Y024700D01*
X004625Y024799D02*
X004537Y024799D01*
X004560Y024897D02*
X004584Y024897D01*
X004560Y024996D02*
X004560Y024996D01*
X004560Y025094D02*
X004543Y025094D01*
X004576Y025193D02*
X004503Y025193D01*
X004431Y025291D02*
X004617Y025291D01*
X004688Y025390D02*
X004316Y025390D01*
X004800Y025488D02*
X003320Y025488D01*
X003432Y025390D02*
X003804Y025390D01*
X003689Y025291D02*
X003503Y025291D01*
X003544Y025193D02*
X003617Y025193D01*
X003577Y025094D02*
X003560Y025094D01*
X003560Y024996D02*
X003560Y024996D01*
X003560Y024897D02*
X003536Y024897D01*
X003495Y024799D02*
X003583Y024799D01*
X003624Y024700D02*
X003413Y024700D01*
X003273Y024602D02*
X003706Y024602D01*
X002847Y024602D02*
X002414Y024602D01*
X002496Y024700D02*
X002707Y024700D01*
X002625Y024799D02*
X002537Y024799D01*
X002560Y024897D02*
X002584Y024897D01*
X002560Y024996D02*
X002560Y024996D01*
X002560Y025094D02*
X002543Y025094D01*
X002567Y025193D02*
X002576Y025193D01*
X002325Y025488D02*
X001320Y025488D01*
X001343Y025478D02*
X001245Y025519D01*
X001393Y025581D01*
X001534Y025721D01*
X001610Y025905D01*
X001610Y026104D01*
X001534Y026288D01*
X001393Y026428D01*
X001209Y026505D01*
X001011Y026505D01*
X000827Y026428D01*
X000686Y026288D01*
X000610Y026104D01*
X000610Y025905D01*
X000686Y025721D01*
X000827Y025581D01*
X000925Y025540D01*
X000777Y025478D01*
X000636Y025338D01*
X000560Y025154D01*
X000560Y024955D01*
X000636Y024771D01*
X000777Y024631D01*
X000961Y024555D01*
X001159Y024555D01*
X001343Y024631D01*
X001484Y024771D01*
X001560Y024955D01*
X001560Y025154D01*
X001484Y025338D01*
X001343Y025478D01*
X001399Y025587D02*
X002423Y025587D01*
X002522Y025685D02*
X001498Y025685D01*
X001560Y025784D02*
X002620Y025784D01*
X002719Y025882D02*
X001600Y025882D01*
X001610Y025981D02*
X002817Y025981D01*
X002916Y026079D02*
X001610Y026079D01*
X001580Y026178D02*
X003014Y026178D01*
X003063Y026226D02*
X002951Y026115D01*
X002253Y025416D01*
X002159Y025455D01*
X001961Y025455D01*
X001777Y025378D01*
X001636Y025238D01*
X001560Y025054D01*
X001560Y024855D01*
X001636Y024671D01*
X001777Y024531D01*
X001840Y024505D01*
X000560Y024505D01*
X000560Y026784D01*
X000586Y026721D01*
X000727Y026581D01*
X000911Y026505D01*
X001109Y026505D01*
X001293Y026581D01*
X001434Y026721D01*
X001510Y026905D01*
X001510Y027104D01*
X001434Y027288D01*
X001293Y027428D01*
X001109Y027505D01*
X001060Y027505D01*
X001060Y027955D01*
X000591Y027955D01*
X000603Y027883D01*
X000628Y027805D01*
X000665Y027732D01*
X000713Y027666D01*
X000771Y027608D01*
X000837Y027560D01*
X000910Y027523D01*
X000966Y027505D01*
X000911Y027505D01*
X000727Y027428D01*
X000586Y027288D01*
X000560Y027225D01*
X000560Y028784D01*
X000586Y028721D01*
X000727Y028581D01*
X000911Y028505D01*
X000966Y028505D01*
X000910Y028486D01*
X000837Y028449D01*
X000771Y028401D01*
X000713Y028343D01*
X000665Y028277D01*
X000628Y028204D01*
X000603Y028126D01*
X000591Y028055D01*
X001060Y028055D01*
X001060Y028505D01*
X001109Y028505D01*
X001293Y028581D01*
X001434Y028721D01*
X001510Y028905D01*
X001510Y029104D01*
X001434Y029288D01*
X001293Y029428D01*
X001109Y029505D01*
X000911Y029505D01*
X000727Y029428D01*
X000586Y029288D01*
X000560Y029225D01*
X000560Y031505D01*
X000840Y031505D01*
X000777Y031478D01*
X000636Y031338D01*
X000560Y031154D01*
X000560Y030955D01*
X000636Y030771D01*
X000777Y030631D01*
X000961Y030555D01*
X001159Y030555D01*
X001306Y030615D01*
X002245Y029676D01*
X002245Y029301D01*
X002808Y028738D01*
X002919Y028627D01*
X004701Y028627D01*
X004826Y028752D01*
X011009Y028752D01*
X010964Y028642D01*
X010964Y028492D01*
X011021Y028353D01*
X011127Y028247D01*
X011266Y028190D01*
X011416Y028190D01*
X011555Y028247D01*
X011585Y028277D01*
X016618Y028277D01*
X016724Y028321D01*
X017118Y028715D01*
X025254Y028715D01*
X025284Y028685D01*
X025422Y028627D01*
X025573Y028627D01*
X025711Y028685D01*
X025745Y028718D01*
X025745Y028396D01*
X025544Y028195D01*
X018294Y028195D01*
X018183Y028083D01*
X017731Y027632D01*
X017420Y027632D01*
X017139Y027913D01*
X011325Y027913D01*
X011214Y027802D01*
X009638Y026226D01*
X003063Y026226D01*
X003158Y025784D02*
X009758Y025784D01*
X009831Y025882D02*
X009856Y025882D01*
X009930Y025981D02*
X009955Y025981D01*
X010028Y026079D02*
X010053Y026079D01*
X010127Y026178D02*
X010152Y026178D01*
X010225Y026276D02*
X010250Y026276D01*
X010324Y026375D02*
X010349Y026375D01*
X010422Y026473D02*
X010447Y026473D01*
X010521Y026572D02*
X010546Y026572D01*
X010619Y026670D02*
X010644Y026670D01*
X010718Y026769D02*
X010743Y026769D01*
X010816Y026867D02*
X010841Y026867D01*
X010915Y026966D02*
X010940Y026966D01*
X011013Y027064D02*
X011038Y027064D01*
X011112Y027163D02*
X011137Y027163D01*
X011210Y027261D02*
X011235Y027261D01*
X011309Y027360D02*
X011334Y027360D01*
X011407Y027458D02*
X011432Y027458D01*
X011674Y027163D02*
X011971Y027163D01*
X011931Y027123D02*
X010233Y025424D01*
X010159Y025455D01*
X009966Y025455D01*
X011826Y027315D01*
X016919Y027315D01*
X017058Y027176D01*
X017169Y027065D01*
X025732Y027065D01*
X026986Y028318D01*
X027053Y028318D01*
X027156Y028361D01*
X027235Y028440D01*
X027277Y028543D01*
X027277Y028654D01*
X027235Y028757D01*
X027156Y028836D01*
X027053Y028878D01*
X026942Y028878D01*
X026839Y028836D01*
X026760Y028757D01*
X026718Y028654D01*
X026718Y028587D01*
X025575Y027445D01*
X018081Y027445D01*
X018451Y027815D01*
X025701Y027815D01*
X026014Y028127D01*
X026125Y028238D01*
X026125Y028926D01*
X026264Y029065D01*
X027794Y029065D01*
X027870Y028988D01*
X027870Y027238D01*
X029058Y026051D01*
X029169Y025940D01*
X029417Y025940D01*
X029464Y025892D01*
X029567Y025850D01*
X029678Y025850D01*
X029781Y025892D01*
X029860Y025971D01*
X029902Y026074D01*
X029902Y026185D01*
X029860Y026288D01*
X029781Y026367D01*
X029678Y026410D01*
X029567Y026410D01*
X029464Y026367D01*
X029417Y026320D01*
X029326Y026320D01*
X028250Y027396D01*
X028250Y029046D01*
X028370Y028926D01*
X028370Y027711D01*
X028323Y027663D01*
X028280Y027560D01*
X028280Y027449D01*
X028323Y027346D01*
X028401Y027267D01*
X028504Y027225D01*
X028616Y027225D01*
X028719Y027267D01*
X028797Y027346D01*
X028840Y027449D01*
X028840Y027560D01*
X028797Y027663D01*
X028750Y027711D01*
X028750Y029083D01*
X028639Y029195D01*
X028394Y029440D01*
X028856Y029440D01*
X028964Y029332D01*
X028964Y027711D01*
X028916Y027663D01*
X028874Y027560D01*
X028874Y027449D01*
X028916Y027346D01*
X028995Y027267D01*
X029098Y027225D01*
X029209Y027225D01*
X029312Y027267D01*
X029391Y027346D01*
X029434Y027449D01*
X029434Y027560D01*
X029391Y027663D01*
X029344Y027711D01*
X029344Y029490D01*
X029232Y029601D01*
X029206Y029627D01*
X029294Y029627D01*
X029558Y029363D01*
X029558Y027711D01*
X029510Y027663D01*
X029468Y027560D01*
X029468Y027449D01*
X029510Y027346D01*
X029589Y027267D01*
X029692Y027225D01*
X029803Y027225D01*
X029906Y027267D01*
X029985Y027346D01*
X030027Y027449D01*
X030027Y027560D01*
X029985Y027663D01*
X029937Y027711D01*
X029937Y029521D01*
X029826Y029632D01*
X029451Y030007D01*
X024875Y030007D01*
X024902Y030074D01*
X024902Y030185D01*
X024860Y030288D01*
X024781Y030367D01*
X024678Y030410D01*
X024611Y030410D01*
X024019Y031002D01*
X027794Y031002D01*
X028058Y030738D01*
X028169Y030627D01*
X028701Y030627D01*
X028938Y030864D01*
X028973Y030850D01*
X029084Y030850D01*
X029187Y030892D01*
X029266Y030971D01*
X029309Y031074D01*
X029309Y031185D01*
X029266Y031288D01*
X029187Y031367D01*
X029084Y031410D01*
X028973Y031410D01*
X028870Y031367D01*
X028791Y031288D01*
X028768Y031231D01*
X028745Y031208D01*
X028715Y031178D01*
X028715Y031185D01*
X028672Y031288D01*
X028594Y031367D01*
X028491Y031410D01*
X028424Y031410D01*
X028329Y031505D01*
X030060Y031505D01*
X030060Y024505D01*
X014280Y024505D01*
X014343Y024531D01*
X014484Y024671D01*
X014560Y024855D01*
X014560Y025054D01*
X014484Y025238D01*
X014343Y025378D01*
X014159Y025455D01*
X013961Y025455D01*
X013777Y025378D01*
X013636Y025238D01*
X013560Y025054D01*
X013560Y025005D01*
X013110Y025005D01*
X013110Y025105D01*
X013579Y025105D01*
X013567Y025176D01*
X013542Y025254D01*
X013505Y025327D01*
X013457Y025393D01*
X013399Y025451D01*
X013333Y025499D01*
X013260Y025536D01*
X013247Y025541D01*
X013343Y025581D01*
X013484Y025721D01*
X013560Y025905D01*
X013560Y026104D01*
X013484Y026288D01*
X013415Y026357D01*
X013504Y026357D01*
X014098Y025763D01*
X019366Y025763D01*
X019984Y026382D01*
X020059Y026382D01*
X020173Y026429D01*
X020260Y026516D01*
X020307Y026630D01*
X020307Y026754D01*
X020260Y026868D01*
X020173Y026955D01*
X020059Y027002D01*
X019936Y027002D01*
X019822Y026955D01*
X019735Y026868D01*
X019688Y026754D01*
X019688Y026679D01*
X019192Y026183D01*
X014272Y026183D01*
X013801Y026654D01*
X013678Y026777D01*
X012473Y026777D01*
X011224Y025528D01*
X011159Y025555D01*
X010961Y025555D01*
X010954Y025552D01*
X012228Y026826D01*
X013661Y026826D01*
X014038Y026449D01*
X014161Y026326D01*
X018269Y026326D01*
X018322Y026273D01*
X018436Y026226D01*
X018559Y026226D01*
X018673Y026273D01*
X018760Y026360D01*
X018807Y026474D01*
X018807Y026597D01*
X018760Y026711D01*
X018673Y026799D01*
X018559Y026846D01*
X018436Y026846D01*
X018322Y026799D01*
X018269Y026746D01*
X014334Y026746D01*
X013834Y027246D01*
X012054Y027246D01*
X011931Y027123D01*
X011873Y027064D02*
X011576Y027064D01*
X011477Y026966D02*
X011774Y026966D01*
X011676Y026867D02*
X011379Y026867D01*
X011280Y026769D02*
X011577Y026769D01*
X011479Y026670D02*
X011182Y026670D01*
X011083Y026572D02*
X011380Y026572D01*
X011282Y026473D02*
X010985Y026473D01*
X010886Y026375D02*
X011183Y026375D01*
X011085Y026276D02*
X010788Y026276D01*
X010689Y026178D02*
X010986Y026178D01*
X010888Y026079D02*
X010591Y026079D01*
X010492Y025981D02*
X010789Y025981D01*
X010691Y025882D02*
X010394Y025882D01*
X010295Y025784D02*
X010592Y025784D01*
X010494Y025685D02*
X010197Y025685D01*
X010098Y025587D02*
X010395Y025587D01*
X010297Y025488D02*
X010000Y025488D01*
X009659Y025685D02*
X003059Y025685D01*
X002961Y025587D02*
X009561Y025587D01*
X009462Y025488D02*
X009320Y025488D01*
X008800Y025488D02*
X007320Y025488D01*
X009273Y024602D02*
X009706Y024602D01*
X009624Y024700D02*
X009413Y024700D01*
X009495Y024799D02*
X009583Y024799D01*
X009560Y024897D02*
X009536Y024897D01*
X009560Y024996D02*
X009560Y024996D01*
X010280Y024505D02*
X010343Y024531D01*
X010484Y024671D01*
X010560Y024855D01*
X010560Y025054D01*
X010530Y025127D01*
X010563Y025160D01*
X010560Y025154D01*
X010560Y024955D01*
X010636Y024771D01*
X010777Y024631D01*
X010961Y024555D01*
X011159Y024555D01*
X011343Y024631D01*
X011484Y024771D01*
X011560Y024955D01*
X011560Y025154D01*
X011526Y025236D01*
X012647Y026357D01*
X012705Y026357D01*
X012636Y026288D01*
X012560Y026104D01*
X012560Y025905D01*
X012636Y025721D01*
X012777Y025581D01*
X012873Y025541D01*
X012860Y025536D01*
X012787Y025499D01*
X012721Y025451D01*
X012663Y025393D01*
X012615Y025327D01*
X012578Y025254D01*
X012553Y025176D01*
X012541Y025105D01*
X013010Y025105D01*
X013010Y025005D01*
X012560Y025005D01*
X012560Y025054D01*
X012484Y025238D01*
X012343Y025378D01*
X012159Y025455D01*
X011961Y025455D01*
X011777Y025378D01*
X011636Y025238D01*
X011560Y025054D01*
X011560Y024855D01*
X011636Y024671D01*
X011777Y024531D01*
X011840Y024505D01*
X010280Y024505D01*
X010414Y024602D02*
X010847Y024602D01*
X010707Y024700D02*
X010496Y024700D01*
X010537Y024799D02*
X010625Y024799D01*
X010584Y024897D02*
X010560Y024897D01*
X010560Y024996D02*
X010560Y024996D01*
X010560Y025094D02*
X010543Y025094D01*
X010989Y025587D02*
X011283Y025587D01*
X011381Y025685D02*
X011088Y025685D01*
X011186Y025784D02*
X011480Y025784D01*
X011578Y025882D02*
X011285Y025882D01*
X011383Y025981D02*
X011677Y025981D01*
X011775Y026079D02*
X011482Y026079D01*
X011580Y026178D02*
X011874Y026178D01*
X011972Y026276D02*
X011679Y026276D01*
X011777Y026375D02*
X012071Y026375D01*
X012169Y026473D02*
X011876Y026473D01*
X011974Y026572D02*
X012268Y026572D01*
X012366Y026670D02*
X012073Y026670D01*
X012171Y026769D02*
X012465Y026769D01*
X012566Y026276D02*
X012631Y026276D01*
X012590Y026178D02*
X012468Y026178D01*
X012560Y026079D02*
X012369Y026079D01*
X012271Y025981D02*
X012560Y025981D01*
X012570Y025882D02*
X012172Y025882D01*
X012074Y025784D02*
X012610Y025784D01*
X012672Y025685D02*
X011975Y025685D01*
X011877Y025587D02*
X012771Y025587D01*
X012772Y025488D02*
X011778Y025488D01*
X011804Y025390D02*
X011680Y025390D01*
X011689Y025291D02*
X011581Y025291D01*
X011544Y025193D02*
X011617Y025193D01*
X011577Y025094D02*
X011560Y025094D01*
X011560Y024996D02*
X011560Y024996D01*
X011560Y024897D02*
X011536Y024897D01*
X011495Y024799D02*
X011583Y024799D01*
X011624Y024700D02*
X011413Y024700D01*
X011273Y024602D02*
X011706Y024602D01*
X012280Y024505D02*
X013840Y024505D01*
X013777Y024531D01*
X013636Y024671D01*
X013560Y024855D01*
X013560Y024911D01*
X013542Y024855D01*
X013505Y024782D01*
X013457Y024716D01*
X013399Y024658D01*
X013333Y024610D01*
X013260Y024573D01*
X013182Y024547D01*
X013110Y024536D01*
X013110Y025005D01*
X013010Y025005D01*
X013010Y024536D01*
X012938Y024547D01*
X012860Y024573D01*
X012787Y024610D01*
X012721Y024658D01*
X012663Y024716D01*
X012615Y024782D01*
X012578Y024855D01*
X012560Y024911D01*
X012560Y024855D01*
X012484Y024671D01*
X012343Y024531D01*
X012280Y024505D01*
X012414Y024602D02*
X012804Y024602D01*
X012679Y024700D02*
X012496Y024700D01*
X012537Y024799D02*
X012607Y024799D01*
X012564Y024897D02*
X012560Y024897D01*
X012543Y025094D02*
X013010Y025094D01*
X013010Y024996D02*
X013110Y024996D01*
X013110Y025094D02*
X013577Y025094D01*
X013562Y025193D02*
X013617Y025193D01*
X013689Y025291D02*
X013523Y025291D01*
X013459Y025390D02*
X013804Y025390D01*
X013448Y025685D02*
X030060Y025685D01*
X030060Y025587D02*
X013349Y025587D01*
X013348Y025488D02*
X030060Y025488D01*
X030060Y025390D02*
X014316Y025390D01*
X014431Y025291D02*
X030060Y025291D01*
X030060Y025193D02*
X014503Y025193D01*
X014543Y025094D02*
X030060Y025094D01*
X030060Y024996D02*
X014560Y024996D01*
X014560Y024897D02*
X030060Y024897D01*
X030060Y024799D02*
X014537Y024799D01*
X014496Y024700D02*
X030060Y024700D01*
X030060Y024602D02*
X014414Y024602D01*
X013706Y024602D02*
X013316Y024602D01*
X013441Y024700D02*
X013624Y024700D01*
X013583Y024799D02*
X013513Y024799D01*
X013556Y024897D02*
X013560Y024897D01*
X013110Y024897D02*
X013010Y024897D01*
X013010Y024799D02*
X013110Y024799D01*
X013110Y024700D02*
X013010Y024700D01*
X013010Y024602D02*
X013110Y024602D01*
X012558Y025193D02*
X012503Y025193D01*
X012431Y025291D02*
X012597Y025291D01*
X012661Y025390D02*
X012316Y025390D01*
X013510Y025784D02*
X014078Y025784D01*
X013979Y025882D02*
X013550Y025882D01*
X013560Y025981D02*
X013881Y025981D01*
X013782Y026079D02*
X013560Y026079D01*
X013530Y026178D02*
X013684Y026178D01*
X013585Y026276D02*
X013489Y026276D01*
X013884Y026572D02*
X013915Y026572D01*
X013982Y026473D02*
X014013Y026473D01*
X014081Y026375D02*
X014112Y026375D01*
X014179Y026276D02*
X018319Y026276D01*
X018676Y026276D02*
X019285Y026276D01*
X019383Y026375D02*
X018766Y026375D01*
X018807Y026473D02*
X019482Y026473D01*
X019580Y026572D02*
X018807Y026572D01*
X018777Y026670D02*
X019679Y026670D01*
X019694Y026769D02*
X018703Y026769D01*
X018292Y026769D02*
X014312Y026769D01*
X014213Y026867D02*
X019734Y026867D01*
X019848Y026966D02*
X014115Y026966D01*
X014016Y027064D02*
X028044Y027064D01*
X027946Y027163D02*
X025831Y027163D01*
X025929Y027261D02*
X027870Y027261D01*
X027870Y027360D02*
X026028Y027360D01*
X026126Y027458D02*
X027870Y027458D01*
X027870Y027557D02*
X026225Y027557D01*
X026323Y027655D02*
X027870Y027655D01*
X027870Y027754D02*
X026422Y027754D01*
X026520Y027852D02*
X027870Y027852D01*
X027870Y027951D02*
X026619Y027951D01*
X026717Y028049D02*
X027870Y028049D01*
X027870Y028148D02*
X026816Y028148D01*
X026914Y028246D02*
X027870Y028246D01*
X027870Y028345D02*
X027117Y028345D01*
X027236Y028443D02*
X027870Y028443D01*
X027870Y028542D02*
X027277Y028542D01*
X027277Y028640D02*
X027870Y028640D01*
X027870Y028739D02*
X027242Y028739D01*
X027153Y028837D02*
X027870Y028837D01*
X027870Y028936D02*
X026135Y028936D01*
X026125Y028837D02*
X026842Y028837D01*
X026753Y028739D02*
X026125Y028739D01*
X026125Y028640D02*
X026718Y028640D01*
X026672Y028542D02*
X026125Y028542D01*
X026125Y028443D02*
X026574Y028443D01*
X026475Y028345D02*
X026125Y028345D01*
X026125Y028246D02*
X026377Y028246D01*
X026278Y028148D02*
X026034Y028148D01*
X025936Y028049D02*
X026180Y028049D01*
X026081Y027951D02*
X025837Y027951D01*
X025739Y027852D02*
X025983Y027852D01*
X025884Y027754D02*
X018390Y027754D01*
X018292Y027655D02*
X025786Y027655D01*
X025687Y027557D02*
X018193Y027557D01*
X018095Y027458D02*
X025589Y027458D01*
X025595Y028246D02*
X011553Y028246D01*
X011264Y027852D02*
X001607Y027852D01*
X001617Y027883D02*
X001629Y027955D01*
X001160Y027955D01*
X001160Y028055D01*
X001060Y028055D01*
X001060Y027955D01*
X001160Y027955D01*
X001160Y027486D01*
X001232Y027497D01*
X001310Y027523D01*
X001383Y027560D01*
X001449Y027608D01*
X001507Y027666D01*
X001555Y027732D01*
X001592Y027805D01*
X001617Y027883D01*
X001628Y027951D02*
X018050Y027951D01*
X018148Y028049D02*
X001160Y028049D01*
X001160Y028055D02*
X001629Y028055D01*
X001617Y028126D01*
X001592Y028204D01*
X001555Y028277D01*
X001507Y028343D01*
X001449Y028401D01*
X001383Y028449D01*
X001310Y028486D01*
X001232Y028512D01*
X001160Y028523D01*
X001160Y028055D01*
X001160Y028148D02*
X001060Y028148D01*
X001060Y028246D02*
X001160Y028246D01*
X001160Y028345D02*
X001060Y028345D01*
X001060Y028443D02*
X001160Y028443D01*
X001199Y028542D02*
X010964Y028542D01*
X010964Y028640D02*
X004714Y028640D01*
X004813Y028739D02*
X011004Y028739D01*
X010984Y028443D02*
X001391Y028443D01*
X001505Y028345D02*
X011030Y028345D01*
X011130Y028246D02*
X001571Y028246D01*
X001610Y028148D02*
X018247Y028148D01*
X017951Y027852D02*
X017200Y027852D01*
X017298Y027754D02*
X017853Y027754D01*
X017754Y027655D02*
X017397Y027655D01*
X016972Y027261D02*
X011773Y027261D01*
X011165Y027754D02*
X001566Y027754D01*
X001496Y027655D02*
X011067Y027655D01*
X010968Y027557D02*
X001376Y027557D01*
X001222Y027458D02*
X010870Y027458D01*
X010771Y027360D02*
X001362Y027360D01*
X001445Y027261D02*
X010673Y027261D01*
X010574Y027163D02*
X001486Y027163D01*
X001510Y027064D02*
X010476Y027064D01*
X010377Y026966D02*
X001510Y026966D01*
X001494Y026867D02*
X010279Y026867D01*
X010180Y026769D02*
X001453Y026769D01*
X001383Y026670D02*
X010082Y026670D01*
X009983Y026572D02*
X001271Y026572D01*
X001285Y026473D02*
X009885Y026473D01*
X009786Y026375D02*
X001447Y026375D01*
X001539Y026276D02*
X009688Y026276D01*
X008339Y029507D02*
X006626Y029507D01*
X005581Y030552D01*
X005470Y030663D01*
X005376Y030663D01*
X005484Y030771D01*
X005560Y030955D01*
X005560Y031154D01*
X005484Y031338D01*
X005343Y031478D01*
X005280Y031505D01*
X006840Y031505D01*
X006777Y031478D01*
X006636Y031338D01*
X006560Y031154D01*
X006560Y030955D01*
X006636Y030771D01*
X006777Y030631D01*
X006961Y030555D01*
X007159Y030555D01*
X007253Y030593D01*
X008339Y029507D01*
X008319Y029527D02*
X006607Y029527D01*
X006508Y029625D02*
X008221Y029625D01*
X008122Y029724D02*
X006410Y029724D01*
X006311Y029822D02*
X008024Y029822D01*
X007925Y029921D02*
X006213Y029921D01*
X006114Y030019D02*
X007827Y030019D01*
X007728Y030118D02*
X006016Y030118D01*
X005917Y030216D02*
X007630Y030216D01*
X007531Y030315D02*
X005819Y030315D01*
X005720Y030413D02*
X007433Y030413D01*
X007334Y030512D02*
X006297Y030512D01*
X006343Y030531D02*
X006159Y030455D01*
X005961Y030455D01*
X005777Y030531D01*
X005636Y030671D01*
X005560Y030855D01*
X005560Y031054D01*
X005636Y031238D01*
X005777Y031378D01*
X005961Y031455D01*
X006159Y031455D01*
X006343Y031378D01*
X006484Y031238D01*
X006560Y031054D01*
X006560Y030855D01*
X006484Y030671D01*
X006343Y030531D01*
X006423Y030610D02*
X006826Y030610D01*
X006699Y030709D02*
X006499Y030709D01*
X006540Y030807D02*
X006621Y030807D01*
X006580Y030906D02*
X006560Y030906D01*
X006560Y031004D02*
X006560Y031004D01*
X006560Y031103D02*
X006540Y031103D01*
X006580Y031201D02*
X006499Y031201D01*
X006422Y031300D02*
X006620Y031300D01*
X006696Y031398D02*
X006296Y031398D01*
X005824Y031398D02*
X005424Y031398D01*
X005500Y031300D02*
X005698Y031300D01*
X005621Y031201D02*
X005540Y031201D01*
X005560Y031103D02*
X005580Y031103D01*
X005560Y031004D02*
X005560Y031004D01*
X005560Y030906D02*
X005540Y030906D01*
X005580Y030807D02*
X005499Y030807D01*
X005421Y030709D02*
X005621Y030709D01*
X005697Y030610D02*
X005523Y030610D01*
X005581Y030552D02*
X005581Y030552D01*
X005622Y030512D02*
X005823Y030512D01*
X005299Y031497D02*
X006821Y031497D01*
X004154Y030473D02*
X003966Y030473D01*
X002512Y029034D02*
X001510Y029034D01*
X001510Y028936D02*
X002610Y028936D01*
X002709Y028837D02*
X001482Y028837D01*
X001441Y028739D02*
X002807Y028739D01*
X002906Y028640D02*
X001353Y028640D01*
X001498Y029133D02*
X002413Y029133D01*
X002315Y029231D02*
X001457Y029231D01*
X001392Y029330D02*
X002245Y029330D01*
X002245Y029428D02*
X001294Y029428D01*
X001263Y029527D02*
X002245Y029527D01*
X002245Y029625D02*
X001438Y029625D01*
X001393Y029581D02*
X001534Y029721D01*
X001610Y029905D01*
X001610Y030104D01*
X001534Y030288D01*
X001393Y030428D01*
X001209Y030505D01*
X001011Y030505D01*
X000827Y030428D01*
X000686Y030288D01*
X000610Y030104D01*
X000610Y029905D01*
X000686Y029721D01*
X000827Y029581D01*
X001011Y029505D01*
X001209Y029505D01*
X001393Y029581D01*
X001535Y029724D02*
X002197Y029724D01*
X002099Y029822D02*
X001576Y029822D01*
X001610Y029921D02*
X002000Y029921D01*
X001902Y030019D02*
X001610Y030019D01*
X001604Y030118D02*
X001803Y030118D01*
X001705Y030216D02*
X001564Y030216D01*
X001606Y030315D02*
X001507Y030315D01*
X001508Y030413D02*
X001409Y030413D01*
X001409Y030512D02*
X000560Y030512D01*
X000560Y030610D02*
X000826Y030610D01*
X000699Y030709D02*
X000560Y030709D01*
X000560Y030807D02*
X000621Y030807D01*
X000580Y030906D02*
X000560Y030906D01*
X000560Y031004D02*
X000560Y031004D01*
X000560Y031103D02*
X000560Y031103D01*
X000560Y031201D02*
X000580Y031201D01*
X000560Y031300D02*
X000620Y031300D01*
X000560Y031398D02*
X000696Y031398D01*
X000821Y031497D02*
X000560Y031497D01*
X001294Y030610D02*
X001311Y030610D01*
X000811Y030413D02*
X000560Y030413D01*
X000560Y030315D02*
X000713Y030315D01*
X000656Y030216D02*
X000560Y030216D01*
X000560Y030118D02*
X000616Y030118D01*
X000610Y030019D02*
X000560Y030019D01*
X000560Y029921D02*
X000610Y029921D01*
X000644Y029822D02*
X000560Y029822D01*
X000560Y029724D02*
X000685Y029724D01*
X000782Y029625D02*
X000560Y029625D01*
X000560Y029527D02*
X000957Y029527D01*
X000726Y029428D02*
X000560Y029428D01*
X000560Y029330D02*
X000628Y029330D01*
X000563Y029231D02*
X000560Y029231D01*
X000560Y028739D02*
X000579Y028739D01*
X000560Y028640D02*
X000667Y028640D01*
X000560Y028542D02*
X000821Y028542D01*
X000829Y028443D02*
X000560Y028443D01*
X000560Y028345D02*
X000715Y028345D01*
X000649Y028246D02*
X000560Y028246D01*
X000560Y028148D02*
X000610Y028148D01*
X000560Y028049D02*
X001060Y028049D01*
X001060Y027951D02*
X001160Y027951D01*
X001160Y027852D02*
X001060Y027852D01*
X001060Y027754D02*
X001160Y027754D01*
X001160Y027655D02*
X001060Y027655D01*
X001060Y027557D02*
X001160Y027557D01*
X000844Y027557D02*
X000560Y027557D01*
X000560Y027655D02*
X000724Y027655D01*
X000654Y027754D02*
X000560Y027754D01*
X000560Y027852D02*
X000613Y027852D01*
X000592Y027951D02*
X000560Y027951D01*
X000560Y027458D02*
X000798Y027458D01*
X000658Y027360D02*
X000560Y027360D01*
X000560Y027261D02*
X000575Y027261D01*
X000560Y026769D02*
X000567Y026769D01*
X000560Y026670D02*
X000637Y026670D01*
X000560Y026572D02*
X000749Y026572D01*
X000773Y026375D02*
X000560Y026375D01*
X000560Y026473D02*
X000935Y026473D01*
X000681Y026276D02*
X000560Y026276D01*
X000560Y026178D02*
X000640Y026178D01*
X000610Y026079D02*
X000560Y026079D01*
X000560Y025981D02*
X000610Y025981D01*
X000620Y025882D02*
X000560Y025882D01*
X000560Y025784D02*
X000660Y025784D01*
X000722Y025685D02*
X000560Y025685D01*
X000560Y025587D02*
X000821Y025587D01*
X000800Y025488D02*
X000560Y025488D01*
X000560Y025390D02*
X000688Y025390D01*
X000617Y025291D02*
X000560Y025291D01*
X000560Y025193D02*
X000576Y025193D01*
X000560Y025094D02*
X000560Y025094D01*
X000560Y024996D02*
X000560Y024996D01*
X000560Y024897D02*
X000584Y024897D01*
X000560Y024799D02*
X000625Y024799D01*
X000560Y024700D02*
X000707Y024700D01*
X000847Y024602D02*
X000560Y024602D01*
X001273Y024602D02*
X001706Y024602D01*
X001624Y024700D02*
X001413Y024700D01*
X001495Y024799D02*
X001583Y024799D01*
X001560Y024897D02*
X001536Y024897D01*
X001560Y024996D02*
X001560Y024996D01*
X001560Y025094D02*
X001577Y025094D01*
X001544Y025193D02*
X001617Y025193D01*
X001689Y025291D02*
X001503Y025291D01*
X001432Y025390D02*
X001804Y025390D01*
X000745Y023617D02*
X000560Y023617D01*
X000560Y023518D02*
X000646Y023518D01*
X000600Y023420D02*
X000560Y023420D01*
X000560Y023321D02*
X000560Y023321D01*
X000560Y023223D02*
X000560Y023223D01*
X000560Y023124D02*
X000560Y023124D01*
X000560Y023026D02*
X000601Y023026D01*
X000560Y022927D02*
X000650Y022927D01*
X000560Y022829D02*
X000749Y022829D01*
X003966Y022643D02*
X004154Y022643D01*
X003063Y018396D02*
X002951Y018285D01*
X003063Y018396D02*
X009638Y018396D01*
X008736Y017608D02*
X008199Y017608D01*
X008382Y017510D02*
X008638Y017510D01*
X008596Y017411D02*
X008481Y017411D01*
X008523Y017313D02*
X008560Y017313D01*
X008560Y017214D02*
X008560Y017214D01*
X008560Y017116D02*
X008564Y017116D01*
X008557Y017017D02*
X008605Y017017D01*
X008659Y016919D02*
X008516Y016919D01*
X008463Y016820D02*
X008757Y016820D01*
X007756Y016722D02*
X006364Y016722D01*
X006463Y016820D02*
X006757Y016820D01*
X006659Y016919D02*
X006516Y016919D01*
X006557Y017017D02*
X006605Y017017D01*
X006564Y017116D02*
X006560Y017116D01*
X006560Y017214D02*
X006560Y017214D01*
X006560Y017313D02*
X006523Y017313D01*
X006481Y017411D02*
X006596Y017411D01*
X006638Y017510D02*
X006382Y017510D01*
X006199Y017608D02*
X006736Y017608D01*
X007384Y017608D02*
X007921Y017608D01*
X007738Y017510D02*
X007482Y017510D01*
X007524Y017411D02*
X007639Y017411D01*
X007597Y017313D02*
X007560Y017313D01*
X007560Y017214D02*
X007560Y017214D01*
X007556Y017116D02*
X007560Y017116D01*
X007563Y017017D02*
X007515Y017017D01*
X007461Y016919D02*
X007604Y016919D01*
X007657Y016820D02*
X007363Y016820D01*
X005756Y016722D02*
X004364Y016722D01*
X004463Y016820D02*
X004757Y016820D01*
X004659Y016919D02*
X004516Y016919D01*
X004557Y017017D02*
X004605Y017017D01*
X004564Y017116D02*
X004560Y017116D01*
X004560Y017214D02*
X004560Y017214D01*
X004560Y017313D02*
X004523Y017313D01*
X004481Y017411D02*
X004596Y017411D01*
X004638Y017510D02*
X004382Y017510D01*
X004199Y017608D02*
X004736Y017608D01*
X005384Y017608D02*
X005921Y017608D01*
X005738Y017510D02*
X005482Y017510D01*
X005524Y017411D02*
X005639Y017411D01*
X005597Y017313D02*
X005560Y017313D01*
X005560Y017214D02*
X005560Y017214D01*
X005556Y017116D02*
X005560Y017116D01*
X005563Y017017D02*
X005515Y017017D01*
X005461Y016919D02*
X005604Y016919D01*
X005657Y016820D02*
X005363Y016820D01*
X004154Y014813D02*
X003966Y014813D01*
X001312Y014949D02*
X001290Y014949D01*
X000830Y014949D02*
X000560Y014949D01*
X000560Y015047D02*
X000700Y015047D01*
X000622Y015146D02*
X000560Y015146D01*
X000560Y015244D02*
X000581Y015244D01*
X000560Y015343D02*
X000560Y015343D01*
X000560Y015441D02*
X000560Y015441D01*
X000560Y015540D02*
X000579Y015540D01*
X000560Y015638D02*
X000620Y015638D01*
X000560Y015737D02*
X000695Y015737D01*
X000817Y015835D02*
X000560Y015835D01*
X000560Y013865D02*
X000961Y013865D01*
X001622Y004606D02*
X018195Y004606D01*
X017090Y005197D02*
X025281Y005197D01*
X025779Y003621D02*
X027997Y003621D01*
X028293Y003326D02*
X020282Y003326D01*
X020307Y003227D02*
X028391Y003227D01*
X028490Y003129D02*
X020303Y003129D01*
X020262Y003030D02*
X028588Y003030D01*
X028687Y002932D02*
X020155Y002932D01*
X019925Y002833D02*
X028785Y002833D01*
X028884Y002735D02*
X019827Y002735D01*
X019728Y002636D02*
X028982Y002636D01*
X029081Y002538D02*
X019630Y002538D01*
X019233Y002735D02*
X014231Y002735D01*
X013769Y003227D02*
X013738Y003227D01*
X013564Y001356D02*
X013537Y001356D01*
X013479Y001257D02*
X013605Y001257D01*
X013659Y001159D02*
X013386Y001159D01*
X013190Y001060D02*
X013757Y001060D01*
X011184Y003720D02*
X011159Y003720D01*
X011085Y003621D02*
X011060Y003621D01*
X010987Y003523D02*
X010962Y003523D01*
X010888Y003424D02*
X010863Y003424D01*
X010790Y003326D02*
X010765Y003326D01*
X010691Y003227D02*
X010666Y003227D01*
X010593Y003129D02*
X010568Y003129D01*
X010494Y003030D02*
X010469Y003030D01*
X010396Y002932D02*
X010371Y002932D01*
X010297Y002833D02*
X010272Y002833D01*
X010199Y002735D02*
X010174Y002735D01*
X010100Y002636D02*
X010075Y002636D01*
X010002Y002538D02*
X009977Y002538D01*
X009903Y002439D02*
X009878Y002439D01*
X009795Y002356D02*
X011482Y004043D01*
X011508Y004043D01*
X009398Y001934D01*
X009343Y001988D01*
X009159Y002065D01*
X008961Y002065D01*
X008777Y001988D01*
X008636Y001848D01*
X008560Y001664D01*
X008560Y001465D01*
X008636Y001281D01*
X008777Y001141D01*
X008961Y001065D01*
X009159Y001065D01*
X009343Y001141D01*
X009484Y001281D01*
X009560Y001465D01*
X009560Y001558D01*
X009560Y001558D01*
X009560Y001365D01*
X009636Y001181D01*
X009777Y001041D01*
X009840Y001015D01*
X008280Y001015D01*
X008343Y001041D01*
X008484Y001181D01*
X008560Y001365D01*
X008560Y001564D01*
X008484Y001748D01*
X008343Y001888D01*
X008159Y001965D01*
X007961Y001965D01*
X007777Y001888D01*
X007636Y001748D01*
X007560Y001564D01*
X007560Y001365D01*
X007636Y001181D01*
X007777Y001041D01*
X007840Y001015D01*
X006280Y001015D01*
X006343Y001041D01*
X006484Y001181D01*
X006560Y001365D01*
X006560Y001564D01*
X006484Y001748D01*
X006343Y001888D01*
X006159Y001965D01*
X005961Y001965D01*
X005777Y001888D01*
X005636Y001748D01*
X005560Y001564D01*
X005560Y001365D01*
X005636Y001181D01*
X005777Y001041D01*
X005840Y001015D01*
X004280Y001015D01*
X004343Y001041D01*
X004484Y001181D01*
X004560Y001365D01*
X004560Y001564D01*
X004484Y001748D01*
X004343Y001888D01*
X004159Y001965D01*
X003961Y001965D01*
X003777Y001888D01*
X003636Y001748D01*
X003560Y001564D01*
X003560Y001365D01*
X003636Y001181D01*
X003777Y001041D01*
X003840Y001015D01*
X002280Y001015D01*
X002343Y001041D01*
X002484Y001181D01*
X002560Y001365D01*
X002560Y001564D01*
X002521Y001657D01*
X002583Y001718D01*
X002560Y001664D01*
X002560Y001465D01*
X002636Y001281D01*
X002777Y001141D01*
X002961Y001065D01*
X003159Y001065D01*
X003343Y001141D01*
X003484Y001281D01*
X003560Y001465D01*
X003560Y001664D01*
X003484Y001848D01*
X003343Y001988D01*
X003159Y002065D01*
X002961Y002065D01*
X002906Y002042D01*
X003220Y002356D01*
X009795Y002356D01*
X009805Y002341D02*
X003205Y002341D01*
X003106Y002242D02*
X009706Y002242D01*
X009608Y002144D02*
X003008Y002144D01*
X002913Y002045D02*
X002909Y002045D01*
X003207Y002045D02*
X004913Y002045D01*
X004961Y002065D02*
X004777Y001988D01*
X004636Y001848D01*
X004560Y001664D01*
X004560Y001465D01*
X004636Y001281D01*
X004777Y001141D01*
X004961Y001065D01*
X005159Y001065D01*
X005343Y001141D01*
X005484Y001281D01*
X005560Y001465D01*
X005560Y001664D01*
X005484Y001848D01*
X005343Y001988D01*
X005159Y002065D01*
X004961Y002065D01*
X005207Y002045D02*
X006913Y002045D01*
X006961Y002065D02*
X006777Y001988D01*
X006636Y001848D01*
X006560Y001664D01*
X006560Y001465D01*
X006636Y001281D01*
X006777Y001141D01*
X006961Y001065D01*
X007159Y001065D01*
X007343Y001141D01*
X007484Y001281D01*
X007560Y001465D01*
X007560Y001664D01*
X007484Y001848D01*
X007343Y001988D01*
X007159Y002065D01*
X006961Y002065D01*
X007207Y002045D02*
X008913Y002045D01*
X008735Y001947D02*
X008203Y001947D01*
X008384Y001848D02*
X008636Y001848D01*
X008595Y001750D02*
X008482Y001750D01*
X008524Y001651D02*
X008560Y001651D01*
X008560Y001553D02*
X008560Y001553D01*
X008560Y001454D02*
X008565Y001454D01*
X008556Y001356D02*
X008605Y001356D01*
X008660Y001257D02*
X008515Y001257D01*
X008461Y001159D02*
X008759Y001159D01*
X009361Y001159D02*
X009659Y001159D01*
X009605Y001257D02*
X009460Y001257D01*
X009515Y001356D02*
X009564Y001356D01*
X009555Y001454D02*
X009560Y001454D01*
X009560Y001553D02*
X009560Y001553D01*
X009411Y001947D02*
X009385Y001947D01*
X009509Y002045D02*
X009207Y002045D01*
X009735Y002833D02*
X001499Y002833D01*
X001534Y002798D02*
X001393Y002938D01*
X001209Y003015D01*
X001011Y003015D01*
X000827Y002938D01*
X000686Y002798D01*
X000610Y002614D01*
X000610Y002415D01*
X000686Y002231D01*
X000827Y002091D01*
X000925Y002050D01*
X000777Y001988D01*
X000636Y001848D01*
X000560Y001664D01*
X000560Y001465D01*
X000636Y001281D01*
X000777Y001141D01*
X000961Y001065D01*
X001159Y001065D01*
X001343Y001141D01*
X001484Y001281D01*
X001560Y001465D01*
X001560Y001664D01*
X001484Y001848D01*
X001343Y001988D01*
X001245Y002029D01*
X001393Y002091D01*
X001534Y002231D01*
X001610Y002415D01*
X001610Y002614D01*
X001534Y002798D01*
X001560Y002735D02*
X003061Y002735D01*
X002963Y002636D02*
X001601Y002636D01*
X001610Y002538D02*
X002864Y002538D01*
X002766Y002439D02*
X001610Y002439D01*
X001579Y002341D02*
X002667Y002341D01*
X002569Y002242D02*
X001538Y002242D01*
X001446Y002144D02*
X002470Y002144D01*
X002372Y002045D02*
X001283Y002045D01*
X001385Y001947D02*
X001917Y001947D01*
X001736Y001848D02*
X001484Y001848D01*
X001525Y001750D02*
X001638Y001750D01*
X001596Y001651D02*
X001560Y001651D01*
X001560Y001553D02*
X001560Y001553D01*
X001555Y001454D02*
X001560Y001454D01*
X001564Y001356D02*
X001515Y001356D01*
X001460Y001257D02*
X001605Y001257D01*
X001659Y001159D02*
X001361Y001159D01*
X000759Y001159D02*
X000560Y001159D01*
X000560Y001257D02*
X000660Y001257D01*
X000605Y001356D02*
X000560Y001356D01*
X000560Y001454D02*
X000565Y001454D01*
X000560Y001553D02*
X000560Y001553D01*
X000560Y001651D02*
X000560Y001651D01*
X000560Y001750D02*
X000595Y001750D01*
X000560Y001848D02*
X000636Y001848D01*
X000560Y001947D02*
X000735Y001947D01*
X000774Y002144D02*
X000560Y002144D01*
X000560Y002242D02*
X000682Y002242D01*
X000641Y002341D02*
X000560Y002341D01*
X000560Y002439D02*
X000610Y002439D01*
X000610Y002538D02*
X000560Y002538D01*
X000560Y002636D02*
X000619Y002636D01*
X000660Y002735D02*
X000560Y002735D01*
X000560Y002833D02*
X000721Y002833D01*
X000820Y002932D02*
X000560Y002932D01*
X000560Y003030D02*
X000873Y003030D01*
X000911Y003015D02*
X001109Y003015D01*
X001293Y003091D01*
X001434Y003231D01*
X001510Y003415D01*
X001510Y003614D01*
X001434Y003798D01*
X001293Y003938D01*
X001315Y003917D02*
X010818Y003917D01*
X010720Y003818D02*
X001414Y003818D01*
X001466Y003720D02*
X010621Y003720D01*
X010523Y003621D02*
X001507Y003621D01*
X001510Y003523D02*
X010424Y003523D01*
X010326Y003424D02*
X001510Y003424D01*
X001473Y003326D02*
X010227Y003326D01*
X010129Y003227D02*
X001430Y003227D01*
X001331Y003129D02*
X010030Y003129D01*
X009932Y003030D02*
X001147Y003030D01*
X000911Y003015D02*
X000727Y003091D01*
X000586Y003231D01*
X000560Y003294D01*
X000560Y003227D02*
X000590Y003227D01*
X000560Y003129D02*
X000689Y003129D01*
X001400Y002932D02*
X009833Y002932D01*
X011257Y003818D02*
X011282Y003818D01*
X011356Y003917D02*
X011381Y003917D01*
X011454Y004015D02*
X011479Y004015D01*
X009757Y001060D02*
X008363Y001060D01*
X007757Y001060D02*
X006363Y001060D01*
X006461Y001159D02*
X006759Y001159D01*
X006660Y001257D02*
X006515Y001257D01*
X006556Y001356D02*
X006605Y001356D01*
X006565Y001454D02*
X006560Y001454D01*
X006560Y001553D02*
X006560Y001553D01*
X006560Y001651D02*
X006524Y001651D01*
X006482Y001750D02*
X006595Y001750D01*
X006636Y001848D02*
X006384Y001848D01*
X006203Y001947D02*
X006735Y001947D01*
X007385Y001947D02*
X007917Y001947D01*
X007736Y001848D02*
X007484Y001848D01*
X007525Y001750D02*
X007638Y001750D01*
X007596Y001651D02*
X007560Y001651D01*
X007560Y001553D02*
X007560Y001553D01*
X007555Y001454D02*
X007560Y001454D01*
X007564Y001356D02*
X007515Y001356D01*
X007460Y001257D02*
X007605Y001257D01*
X007659Y001159D02*
X007361Y001159D01*
X005757Y001060D02*
X004363Y001060D01*
X004461Y001159D02*
X004759Y001159D01*
X004660Y001257D02*
X004515Y001257D01*
X004556Y001356D02*
X004605Y001356D01*
X004565Y001454D02*
X004560Y001454D01*
X004560Y001553D02*
X004560Y001553D01*
X004560Y001651D02*
X004524Y001651D01*
X004482Y001750D02*
X004595Y001750D01*
X004636Y001848D02*
X004384Y001848D01*
X004203Y001947D02*
X004735Y001947D01*
X005385Y001947D02*
X005917Y001947D01*
X005736Y001848D02*
X005484Y001848D01*
X005525Y001750D02*
X005638Y001750D01*
X005596Y001651D02*
X005560Y001651D01*
X005560Y001553D02*
X005560Y001553D01*
X005555Y001454D02*
X005560Y001454D01*
X005564Y001356D02*
X005515Y001356D01*
X005460Y001257D02*
X005605Y001257D01*
X005659Y001159D02*
X005361Y001159D01*
X003917Y001947D02*
X003385Y001947D01*
X003484Y001848D02*
X003736Y001848D01*
X003638Y001750D02*
X003525Y001750D01*
X003560Y001651D02*
X003596Y001651D01*
X003560Y001553D02*
X003560Y001553D01*
X003555Y001454D02*
X003560Y001454D01*
X003564Y001356D02*
X003515Y001356D01*
X003460Y001257D02*
X003605Y001257D01*
X003659Y001159D02*
X003361Y001159D01*
X003757Y001060D02*
X002363Y001060D01*
X002461Y001159D02*
X002759Y001159D01*
X002660Y001257D02*
X002515Y001257D01*
X002556Y001356D02*
X002605Y001356D01*
X002565Y001454D02*
X002560Y001454D01*
X002560Y001553D02*
X002560Y001553D01*
X002560Y001651D02*
X002524Y001651D01*
X002273Y001947D02*
X002203Y001947D01*
X001757Y001060D02*
X000560Y001060D01*
X000560Y002045D02*
X000913Y002045D01*
X010988Y009925D02*
X011281Y009925D01*
X011380Y010024D02*
X011086Y010024D01*
X011185Y010122D02*
X011478Y010122D01*
X011577Y010221D02*
X011283Y010221D01*
X011382Y010319D02*
X011675Y010319D01*
X011774Y010418D02*
X011480Y010418D01*
X011579Y010516D02*
X011872Y010516D01*
X011971Y010615D02*
X011677Y010615D01*
X011776Y010713D02*
X012069Y010713D01*
X012168Y010812D02*
X011874Y010812D01*
X011973Y010910D02*
X012266Y010910D01*
X012365Y011009D02*
X012071Y011009D01*
X012170Y011107D02*
X012463Y011107D01*
X012565Y010615D02*
X012631Y010615D01*
X012590Y010516D02*
X012466Y010516D01*
X012560Y010418D02*
X012368Y010418D01*
X012269Y010319D02*
X012560Y010319D01*
X012570Y010221D02*
X012171Y010221D01*
X012072Y010122D02*
X012611Y010122D01*
X012674Y010024D02*
X011974Y010024D01*
X011875Y009925D02*
X012772Y009925D01*
X012770Y009827D02*
X011777Y009827D01*
X011800Y009728D02*
X011678Y009728D01*
X011688Y009630D02*
X011580Y009630D01*
X011545Y009531D02*
X011617Y009531D01*
X011576Y009433D02*
X011560Y009433D01*
X011560Y009334D02*
X011560Y009334D01*
X011560Y009236D02*
X011535Y009236D01*
X011495Y009137D02*
X011584Y009137D01*
X011625Y009039D02*
X011411Y009039D01*
X011269Y008940D02*
X011707Y008940D01*
X012280Y008845D02*
X013840Y008845D01*
X013777Y008871D01*
X013636Y009011D01*
X013560Y009195D01*
X013560Y009251D01*
X013542Y009195D01*
X013505Y009122D01*
X013457Y009056D01*
X013399Y008998D01*
X013333Y008950D01*
X013260Y008913D01*
X013182Y008887D01*
X013110Y008876D01*
X013110Y009345D01*
X013010Y009345D01*
X013010Y008876D01*
X012938Y008887D01*
X012860Y008913D01*
X012787Y008950D01*
X012721Y008998D01*
X012663Y009056D01*
X012615Y009122D01*
X012578Y009195D01*
X012560Y009251D01*
X012560Y009195D01*
X012484Y009011D01*
X012343Y008871D01*
X012280Y008845D01*
X012413Y008940D02*
X012807Y008940D01*
X012681Y009039D02*
X012495Y009039D01*
X012536Y009137D02*
X012608Y009137D01*
X012565Y009236D02*
X012560Y009236D01*
X012544Y009433D02*
X013010Y009433D01*
X013010Y009334D02*
X013110Y009334D01*
X013110Y009236D02*
X013010Y009236D01*
X013010Y009137D02*
X013110Y009137D01*
X013110Y009039D02*
X013010Y009039D01*
X013010Y008940D02*
X013110Y008940D01*
X013313Y008940D02*
X013707Y008940D01*
X013625Y009039D02*
X013439Y009039D01*
X013512Y009137D02*
X013584Y009137D01*
X013560Y009236D02*
X013555Y009236D01*
X013576Y009433D02*
X013110Y009433D01*
X013460Y009728D02*
X013800Y009728D01*
X013688Y009630D02*
X013524Y009630D01*
X013562Y009531D02*
X013617Y009531D01*
X013350Y009827D02*
X030060Y009827D01*
X030060Y009925D02*
X013348Y009925D01*
X013446Y010024D02*
X030060Y010024D01*
X030060Y010122D02*
X019385Y010122D01*
X019483Y010221D02*
X029492Y010221D01*
X029753Y010221D02*
X030060Y010221D01*
X030060Y010319D02*
X029863Y010319D01*
X029902Y010418D02*
X030060Y010418D01*
X030060Y010516D02*
X029902Y010516D01*
X029865Y010615D02*
X030060Y010615D01*
X030060Y010713D02*
X029766Y010713D01*
X029479Y010713D02*
X029273Y010713D01*
X029174Y010812D02*
X030060Y010812D01*
X030060Y010910D02*
X029076Y010910D01*
X028977Y011009D02*
X030060Y011009D01*
X030060Y011107D02*
X028879Y011107D01*
X028780Y011206D02*
X030060Y011206D01*
X030060Y011304D02*
X028682Y011304D01*
X028583Y011403D02*
X030060Y011403D01*
X030060Y011501D02*
X028485Y011501D01*
X028420Y011600D02*
X028386Y011600D01*
X028318Y011698D02*
X028288Y011698D01*
X028280Y011797D02*
X028250Y011797D01*
X028250Y011895D02*
X028280Y011895D01*
X028250Y011994D02*
X028319Y011994D01*
X028370Y012092D02*
X028250Y012092D01*
X028250Y012191D02*
X028370Y012191D01*
X028370Y012289D02*
X028250Y012289D01*
X028250Y012388D02*
X028370Y012388D01*
X028370Y012486D02*
X028250Y012486D01*
X028250Y012585D02*
X028370Y012585D01*
X028370Y012683D02*
X028250Y012683D01*
X028250Y012782D02*
X028370Y012782D01*
X028370Y012880D02*
X028250Y012880D01*
X028250Y012979D02*
X028370Y012979D01*
X028370Y013077D02*
X028250Y013077D01*
X028250Y013176D02*
X028370Y013176D01*
X028362Y013274D02*
X028250Y013274D01*
X028250Y013373D02*
X028263Y013373D01*
X028505Y013668D02*
X028964Y013668D01*
X028964Y013570D02*
X028604Y013570D01*
X028702Y013471D02*
X028964Y013471D01*
X028964Y013373D02*
X028750Y013373D01*
X028750Y013274D02*
X028964Y013274D01*
X028964Y013176D02*
X028750Y013176D01*
X028750Y013077D02*
X028964Y013077D01*
X028964Y012979D02*
X028750Y012979D01*
X028750Y012880D02*
X028964Y012880D01*
X028964Y012782D02*
X028750Y012782D01*
X028750Y012683D02*
X028964Y012683D01*
X028964Y012585D02*
X028750Y012585D01*
X028750Y012486D02*
X028964Y012486D01*
X028964Y012388D02*
X028750Y012388D01*
X028750Y012289D02*
X028964Y012289D01*
X028964Y012191D02*
X028750Y012191D01*
X028750Y012092D02*
X028964Y012092D01*
X028912Y011994D02*
X028801Y011994D01*
X028840Y011895D02*
X028874Y011895D01*
X028874Y011797D02*
X028840Y011797D01*
X028802Y011698D02*
X028911Y011698D01*
X029013Y011600D02*
X028700Y011600D01*
X029294Y011600D02*
X029607Y011600D01*
X029505Y011698D02*
X029396Y011698D01*
X029434Y011797D02*
X029468Y011797D01*
X029468Y011895D02*
X029434Y011895D01*
X029395Y011994D02*
X029506Y011994D01*
X029558Y012092D02*
X029344Y012092D01*
X029344Y012191D02*
X029558Y012191D01*
X029558Y012289D02*
X029344Y012289D01*
X029344Y012388D02*
X029558Y012388D01*
X029558Y012486D02*
X029344Y012486D01*
X029344Y012585D02*
X029558Y012585D01*
X029558Y012683D02*
X029344Y012683D01*
X029344Y012782D02*
X029558Y012782D01*
X029558Y012880D02*
X029344Y012880D01*
X029344Y012979D02*
X029558Y012979D01*
X029558Y013077D02*
X029344Y013077D01*
X029344Y013176D02*
X029558Y013176D01*
X029558Y013274D02*
X029344Y013274D01*
X029344Y013373D02*
X029558Y013373D01*
X029558Y013471D02*
X029344Y013471D01*
X029344Y013570D02*
X029558Y013570D01*
X029558Y013668D02*
X029344Y013668D01*
X029344Y013767D02*
X029494Y013767D01*
X029396Y013865D02*
X029308Y013865D01*
X029297Y013964D02*
X029210Y013964D01*
X028869Y013767D02*
X028407Y013767D01*
X027826Y013373D02*
X026232Y013373D01*
X026133Y013274D02*
X027870Y013274D01*
X027870Y013176D02*
X027156Y013176D01*
X027243Y013077D02*
X027870Y013077D01*
X027870Y012979D02*
X027277Y012979D01*
X027276Y012880D02*
X027870Y012880D01*
X027870Y012782D02*
X027236Y012782D01*
X027113Y012683D02*
X027870Y012683D01*
X027870Y012585D02*
X026912Y012585D01*
X026814Y012486D02*
X027870Y012486D01*
X027870Y012388D02*
X026715Y012388D01*
X026617Y012289D02*
X027870Y012289D01*
X027870Y012191D02*
X026518Y012191D01*
X026420Y012092D02*
X027870Y012092D01*
X027870Y011994D02*
X026321Y011994D01*
X026223Y011895D02*
X027870Y011895D01*
X027870Y011797D02*
X026124Y011797D01*
X026026Y011698D02*
X027870Y011698D01*
X027870Y011600D02*
X025927Y011600D01*
X025829Y011501D02*
X027947Y011501D01*
X028046Y011403D02*
X014018Y011403D01*
X013919Y011501D02*
X017072Y011501D01*
X018093Y011797D02*
X025587Y011797D01*
X025686Y011895D02*
X018192Y011895D01*
X018290Y011994D02*
X025784Y011994D01*
X025883Y012092D02*
X018389Y012092D01*
X018290Y011107D02*
X014313Y011107D01*
X014215Y011206D02*
X019734Y011206D01*
X019693Y011107D02*
X018705Y011107D01*
X018778Y011009D02*
X019677Y011009D01*
X019579Y010910D02*
X018807Y010910D01*
X018806Y010812D02*
X019480Y010812D01*
X019382Y010713D02*
X018766Y010713D01*
X018675Y010615D02*
X019283Y010615D01*
X019582Y010319D02*
X029129Y010319D01*
X029031Y010418D02*
X019680Y010418D01*
X019779Y010516D02*
X028932Y010516D01*
X028834Y010615D02*
X019877Y010615D01*
X019976Y010713D02*
X028735Y010713D01*
X028637Y010812D02*
X020215Y010812D01*
X020283Y010910D02*
X028538Y010910D01*
X028440Y011009D02*
X020307Y011009D01*
X020302Y011107D02*
X028341Y011107D01*
X028243Y011206D02*
X020261Y011206D01*
X020151Y011304D02*
X028144Y011304D01*
X029888Y011600D02*
X030060Y011600D01*
X030060Y011698D02*
X029990Y011698D01*
X030027Y011797D02*
X030060Y011797D01*
X030060Y011895D02*
X030027Y011895D01*
X030060Y011994D02*
X029989Y011994D01*
X029937Y012092D02*
X030060Y012092D01*
X030060Y012191D02*
X029937Y012191D01*
X029937Y012289D02*
X030060Y012289D01*
X030060Y012388D02*
X029937Y012388D01*
X029937Y012486D02*
X030060Y012486D01*
X030060Y012585D02*
X029937Y012585D01*
X029937Y012683D02*
X030060Y012683D01*
X030060Y012782D02*
X029937Y012782D01*
X029937Y012880D02*
X030060Y012880D01*
X030060Y012979D02*
X029937Y012979D01*
X029937Y013077D02*
X030060Y013077D01*
X030060Y013176D02*
X029937Y013176D01*
X029937Y013274D02*
X030060Y013274D01*
X030060Y013373D02*
X029937Y013373D01*
X029937Y013471D02*
X030060Y013471D01*
X030060Y013570D02*
X029937Y013570D01*
X029937Y013668D02*
X030060Y013668D01*
X030060Y013767D02*
X029937Y013767D01*
X029933Y013865D02*
X030060Y013865D01*
X030060Y013964D02*
X029835Y013964D01*
X029736Y014062D02*
X030060Y014062D01*
X030060Y014161D02*
X029638Y014161D01*
X029539Y014259D02*
X030060Y014259D01*
X030060Y014358D02*
X024879Y014358D01*
X024902Y014456D02*
X030060Y014456D01*
X030060Y014555D02*
X024890Y014555D01*
X024835Y014653D02*
X030060Y014653D01*
X030060Y014752D02*
X024609Y014752D01*
X024511Y014850D02*
X030060Y014850D01*
X030060Y014949D02*
X024412Y014949D01*
X024314Y015047D02*
X028089Y015047D01*
X027990Y015146D02*
X024215Y015146D01*
X024117Y015244D02*
X027892Y015244D01*
X028338Y015835D02*
X030060Y015835D01*
X030060Y015737D02*
X029116Y015737D01*
X029256Y015638D02*
X030060Y015638D01*
X030060Y015540D02*
X029303Y015540D01*
X029309Y015441D02*
X030060Y015441D01*
X030060Y015343D02*
X029279Y015343D01*
X029199Y015244D02*
X030060Y015244D01*
X030060Y015146D02*
X028880Y015146D01*
X028781Y015047D02*
X030060Y015047D01*
X028942Y015737D02*
X028522Y015737D01*
X028662Y015638D02*
X028801Y015638D01*
X028736Y015540D02*
X028709Y015540D01*
X026839Y013176D02*
X026125Y013176D01*
X026125Y013077D02*
X026752Y013077D01*
X026718Y012979D02*
X026125Y012979D01*
X026125Y012880D02*
X026671Y012880D01*
X026572Y012782D02*
X026125Y012782D01*
X026125Y012683D02*
X026474Y012683D01*
X026375Y012585D02*
X026125Y012585D01*
X026033Y012486D02*
X026277Y012486D01*
X026178Y012388D02*
X025934Y012388D01*
X025836Y012289D02*
X026080Y012289D01*
X025981Y012191D02*
X025737Y012191D01*
X025594Y012585D02*
X011549Y012585D01*
X013688Y011107D02*
X013719Y011107D01*
X013787Y011009D02*
X013818Y011009D01*
X013885Y010910D02*
X013916Y010910D01*
X013984Y010812D02*
X014015Y010812D01*
X014082Y010713D02*
X014113Y010713D01*
X014181Y010615D02*
X018320Y010615D01*
X019844Y011304D02*
X014116Y011304D01*
X013587Y010615D02*
X013489Y010615D01*
X013530Y010516D02*
X013685Y010516D01*
X013784Y010418D02*
X013560Y010418D01*
X013560Y010319D02*
X013882Y010319D01*
X013981Y010221D02*
X013550Y010221D01*
X013509Y010122D02*
X014079Y010122D01*
X014320Y009728D02*
X030060Y009728D01*
X030060Y009630D02*
X014432Y009630D01*
X014503Y009531D02*
X030060Y009531D01*
X030060Y009433D02*
X014544Y009433D01*
X014560Y009334D02*
X030060Y009334D01*
X030060Y009236D02*
X014560Y009236D01*
X014536Y009137D02*
X030060Y009137D01*
X030060Y009039D02*
X014495Y009039D01*
X014413Y008940D02*
X030060Y008940D01*
X029347Y006084D02*
X029260Y006084D01*
X029344Y005985D02*
X029446Y005985D01*
X029544Y005887D02*
X029344Y005887D01*
X029344Y005788D02*
X029558Y005788D01*
X029558Y005690D02*
X029344Y005690D01*
X029344Y005591D02*
X029558Y005591D01*
X029558Y005493D02*
X029344Y005493D01*
X029344Y005394D02*
X029558Y005394D01*
X029558Y005296D02*
X029344Y005296D01*
X029344Y005197D02*
X029558Y005197D01*
X029558Y005099D02*
X029344Y005099D01*
X029344Y005000D02*
X029558Y005000D01*
X029558Y004902D02*
X029344Y004902D01*
X029344Y004803D02*
X029558Y004803D01*
X029558Y004705D02*
X029344Y004705D01*
X029344Y004606D02*
X029558Y004606D01*
X029558Y004508D02*
X029344Y004508D01*
X029344Y004409D02*
X029558Y004409D01*
X029558Y004311D02*
X029344Y004311D01*
X029352Y004212D02*
X029549Y004212D01*
X029485Y004114D02*
X029416Y004114D01*
X029434Y004015D02*
X029468Y004015D01*
X029485Y003917D02*
X029416Y003917D01*
X029353Y003818D02*
X029548Y003818D01*
X025692Y012683D02*
X016746Y012683D01*
X016845Y012782D02*
X025745Y012782D01*
X025745Y012880D02*
X016943Y012880D01*
X017042Y012979D02*
X025395Y012979D01*
X025600Y012979D02*
X025745Y012979D01*
X029949Y019480D02*
X030060Y019480D01*
X030060Y019578D02*
X030011Y019578D01*
X030027Y019677D02*
X030060Y019677D01*
X030060Y019775D02*
X030009Y019775D01*
X030060Y019874D02*
X029944Y019874D01*
X029937Y019972D02*
X030060Y019972D01*
X030060Y020071D02*
X029937Y020071D01*
X029937Y020169D02*
X030060Y020169D01*
X030060Y020268D02*
X029937Y020268D01*
X029937Y020366D02*
X030060Y020366D01*
X030060Y020465D02*
X029937Y020465D01*
X029937Y020563D02*
X030060Y020563D01*
X030060Y020662D02*
X029937Y020662D01*
X029937Y020760D02*
X030060Y020760D01*
X030060Y020859D02*
X029937Y020859D01*
X029937Y020957D02*
X030060Y020957D01*
X030060Y021056D02*
X029937Y021056D01*
X029937Y021154D02*
X030060Y021154D01*
X030060Y021253D02*
X029937Y021253D01*
X029937Y021351D02*
X030060Y021351D01*
X030060Y021450D02*
X029937Y021450D01*
X029937Y021548D02*
X030060Y021548D01*
X030060Y021647D02*
X029937Y021647D01*
X029883Y021745D02*
X030060Y021745D01*
X030060Y021844D02*
X029785Y021844D01*
X029686Y021942D02*
X030060Y021942D01*
X030060Y022041D02*
X029588Y022041D01*
X029489Y022139D02*
X030060Y022139D01*
X030060Y022238D02*
X024900Y022238D01*
X024902Y022336D02*
X030060Y022336D01*
X030060Y022435D02*
X024870Y022435D01*
X024785Y022533D02*
X030060Y022533D01*
X030060Y022632D02*
X024559Y022632D01*
X024461Y022730D02*
X030060Y022730D01*
X030060Y022829D02*
X028733Y022829D01*
X028831Y022927D02*
X030060Y022927D01*
X030060Y023026D02*
X029099Y023026D01*
X028958Y023026D02*
X028930Y023026D01*
X029249Y023124D02*
X030060Y023124D01*
X030060Y023223D02*
X029300Y023223D01*
X029309Y023321D02*
X030060Y023321D01*
X030060Y023420D02*
X029282Y023420D01*
X029206Y023518D02*
X030060Y023518D01*
X030060Y023617D02*
X028387Y023617D01*
X028612Y023518D02*
X028851Y023518D01*
X028775Y023420D02*
X028688Y023420D01*
X028137Y022829D02*
X024362Y022829D01*
X024264Y022927D02*
X028039Y022927D01*
X027940Y023026D02*
X024165Y023026D01*
X024067Y023124D02*
X027842Y023124D01*
X029128Y025981D02*
X019583Y025981D01*
X019682Y026079D02*
X029029Y026079D01*
X028931Y026178D02*
X019780Y026178D01*
X019879Y026276D02*
X028832Y026276D01*
X028734Y026375D02*
X019977Y026375D01*
X020217Y026473D02*
X028635Y026473D01*
X028537Y026572D02*
X020283Y026572D01*
X020307Y026670D02*
X028438Y026670D01*
X028340Y026769D02*
X020301Y026769D01*
X020261Y026867D02*
X028241Y026867D01*
X028143Y026966D02*
X020147Y026966D01*
X019485Y025882D02*
X029488Y025882D01*
X029757Y025882D02*
X030060Y025882D01*
X030060Y025784D02*
X019386Y025784D01*
X017071Y027163D02*
X013918Y027163D01*
X013718Y026769D02*
X013687Y026769D01*
X013785Y026670D02*
X013816Y026670D01*
X016748Y028345D02*
X025694Y028345D01*
X025745Y028443D02*
X016846Y028443D01*
X016945Y028542D02*
X025745Y028542D01*
X025745Y028640D02*
X025604Y028640D01*
X025391Y028640D02*
X017043Y028640D01*
X014692Y030906D02*
X014110Y030906D01*
X014110Y030905D02*
X014110Y031005D01*
X014579Y031005D01*
X014567Y031076D01*
X014542Y031154D01*
X014505Y031227D01*
X014487Y031252D01*
X015039Y031252D01*
X014542Y030755D01*
X014567Y030833D01*
X014579Y030905D01*
X014110Y030905D01*
X014110Y031004D02*
X014791Y031004D01*
X014889Y031103D02*
X014559Y031103D01*
X014518Y031201D02*
X014988Y031201D01*
X014594Y030807D02*
X014559Y030807D01*
X014010Y030905D02*
X013541Y030905D01*
X013553Y030833D01*
X013578Y030755D01*
X013615Y030682D01*
X013652Y030632D01*
X013345Y030632D01*
X013484Y030771D01*
X013560Y030955D01*
X013560Y031005D01*
X014010Y031005D01*
X014010Y030905D01*
X014010Y030906D02*
X013540Y030906D01*
X013560Y031004D02*
X014010Y031004D01*
X013561Y030807D02*
X013499Y030807D01*
X013421Y030709D02*
X013602Y030709D01*
X014487Y023422D02*
X015039Y023422D01*
X014542Y022925D01*
X014567Y023003D01*
X014579Y023075D01*
X014110Y023075D01*
X014110Y023175D01*
X014579Y023175D01*
X014567Y023246D01*
X014542Y023324D01*
X014505Y023397D01*
X014487Y023422D01*
X014488Y023420D02*
X015036Y023420D01*
X014938Y023321D02*
X014543Y023321D01*
X014571Y023223D02*
X014839Y023223D01*
X014741Y023124D02*
X014110Y023124D01*
X014010Y023124D02*
X013560Y023124D01*
X013560Y023125D02*
X013560Y023175D01*
X014010Y023175D01*
X014010Y023075D01*
X013541Y023075D01*
X013553Y023003D01*
X013578Y022925D01*
X013615Y022852D01*
X013652Y022802D01*
X013345Y022802D01*
X013484Y022941D01*
X013560Y023125D01*
X013549Y023026D02*
X013519Y023026D01*
X013470Y022927D02*
X013577Y022927D01*
X013632Y022829D02*
X013371Y022829D01*
X014543Y022927D02*
X014544Y022927D01*
X014571Y023026D02*
X014642Y023026D01*
X014487Y015592D02*
X015039Y015592D01*
X014542Y015095D01*
X014567Y015173D01*
X014579Y015245D01*
X014110Y015245D01*
X014110Y015345D01*
X014579Y015345D01*
X014567Y015416D01*
X014542Y015494D01*
X014505Y015567D01*
X014487Y015592D01*
X014519Y015540D02*
X014986Y015540D01*
X014888Y015441D02*
X014559Y015441D01*
X014578Y015244D02*
X014691Y015244D01*
X014789Y015343D02*
X014110Y015343D01*
X014010Y015343D02*
X013560Y015343D01*
X013560Y015345D02*
X014010Y015345D01*
X014010Y015245D01*
X013541Y015245D01*
X013553Y015173D01*
X013578Y015095D01*
X013615Y015022D01*
X013652Y014972D01*
X013345Y014972D01*
X013484Y015111D01*
X013560Y015295D01*
X013560Y015345D01*
X013542Y015244D02*
X013539Y015244D01*
X013562Y015146D02*
X013498Y015146D01*
X013420Y015047D02*
X013602Y015047D01*
X014558Y015146D02*
X014592Y015146D01*
X012660Y009728D02*
X012320Y009728D01*
X012432Y009630D02*
X012596Y009630D01*
X012558Y009531D02*
X012503Y009531D01*
X013560Y007515D02*
X014010Y007515D01*
X014010Y007415D01*
X013541Y007415D01*
X013553Y007343D01*
X013578Y007265D01*
X013615Y007192D01*
X013652Y007142D01*
X013345Y007142D01*
X013484Y007281D01*
X013560Y007465D01*
X013560Y007515D01*
X013559Y007463D02*
X014010Y007463D01*
X014110Y007463D02*
X014739Y007463D01*
X014838Y007561D02*
X014571Y007561D01*
X014567Y007586D02*
X014542Y007664D01*
X014505Y007737D01*
X014487Y007762D01*
X015039Y007762D01*
X014542Y007265D01*
X014567Y007343D01*
X014579Y007415D01*
X014110Y007415D01*
X014110Y007515D01*
X014579Y007515D01*
X014567Y007586D01*
X014543Y007660D02*
X014936Y007660D01*
X015035Y007758D02*
X014490Y007758D01*
X014571Y007364D02*
X014641Y007364D01*
X014542Y007266D02*
X014542Y007266D01*
X013633Y007167D02*
X013370Y007167D01*
X013468Y007266D02*
X013578Y007266D01*
X013549Y007364D02*
X013518Y007364D01*
X029864Y025981D02*
X030060Y025981D01*
X030060Y026079D02*
X029902Y026079D01*
X029902Y026178D02*
X030060Y026178D01*
X030060Y026276D02*
X029865Y026276D01*
X029763Y026375D02*
X030060Y026375D01*
X030060Y026473D02*
X029173Y026473D01*
X029271Y026375D02*
X029482Y026375D01*
X029074Y026572D02*
X030060Y026572D01*
X030060Y026670D02*
X028976Y026670D01*
X028877Y026769D02*
X030060Y026769D01*
X030060Y026867D02*
X028779Y026867D01*
X028680Y026966D02*
X030060Y026966D01*
X030060Y027064D02*
X028582Y027064D01*
X028483Y027163D02*
X030060Y027163D01*
X030060Y027261D02*
X029891Y027261D01*
X029991Y027360D02*
X030060Y027360D01*
X030060Y027458D02*
X030027Y027458D01*
X030027Y027557D02*
X030060Y027557D01*
X030060Y027655D02*
X029988Y027655D01*
X029937Y027754D02*
X030060Y027754D01*
X030060Y027852D02*
X029937Y027852D01*
X029937Y027951D02*
X030060Y027951D01*
X030060Y028049D02*
X029937Y028049D01*
X029937Y028148D02*
X030060Y028148D01*
X030060Y028246D02*
X029937Y028246D01*
X029937Y028345D02*
X030060Y028345D01*
X030060Y028443D02*
X029937Y028443D01*
X029937Y028542D02*
X030060Y028542D01*
X030060Y028640D02*
X029937Y028640D01*
X029937Y028739D02*
X030060Y028739D01*
X030060Y028837D02*
X029937Y028837D01*
X029937Y028936D02*
X030060Y028936D01*
X030060Y029034D02*
X029937Y029034D01*
X029937Y029133D02*
X030060Y029133D01*
X030060Y029231D02*
X029937Y029231D01*
X029937Y029330D02*
X030060Y029330D01*
X030060Y029428D02*
X029937Y029428D01*
X029932Y029527D02*
X030060Y029527D01*
X030060Y029625D02*
X029833Y029625D01*
X029826Y029632D02*
X029826Y029632D01*
X029735Y029724D02*
X030060Y029724D01*
X030060Y029822D02*
X029636Y029822D01*
X029538Y029921D02*
X030060Y029921D01*
X030060Y030019D02*
X024880Y030019D01*
X024902Y030118D02*
X030060Y030118D01*
X030060Y030216D02*
X024890Y030216D01*
X024833Y030315D02*
X030060Y030315D01*
X030060Y030413D02*
X024608Y030413D01*
X024509Y030512D02*
X030060Y030512D01*
X030060Y030610D02*
X024411Y030610D01*
X024312Y030709D02*
X028087Y030709D01*
X027989Y030807D02*
X024214Y030807D01*
X024115Y030906D02*
X027890Y030906D01*
X028337Y031497D02*
X030060Y031497D01*
X030060Y031398D02*
X029112Y031398D01*
X028945Y031398D02*
X028518Y031398D01*
X028661Y031300D02*
X028803Y031300D01*
X028738Y031201D02*
X028708Y031201D01*
X028881Y030807D02*
X030060Y030807D01*
X030060Y030709D02*
X028783Y030709D01*
X029201Y030906D02*
X030060Y030906D01*
X030060Y031004D02*
X029280Y031004D01*
X029309Y031103D02*
X030060Y031103D01*
X030060Y031201D02*
X029302Y031201D01*
X029255Y031300D02*
X030060Y031300D01*
X029296Y029625D02*
X029208Y029625D01*
X029307Y029527D02*
X029394Y029527D01*
X029344Y029428D02*
X029493Y029428D01*
X029558Y029330D02*
X029344Y029330D01*
X029344Y029231D02*
X029558Y029231D01*
X029558Y029133D02*
X029344Y029133D01*
X029344Y029034D02*
X029558Y029034D01*
X029558Y028936D02*
X029344Y028936D01*
X029344Y028837D02*
X029558Y028837D01*
X029558Y028739D02*
X029344Y028739D01*
X029344Y028640D02*
X029558Y028640D01*
X029558Y028542D02*
X029344Y028542D01*
X029344Y028443D02*
X029558Y028443D01*
X029558Y028345D02*
X029344Y028345D01*
X029344Y028246D02*
X029558Y028246D01*
X029558Y028148D02*
X029344Y028148D01*
X029344Y028049D02*
X029558Y028049D01*
X029558Y027951D02*
X029344Y027951D01*
X029344Y027852D02*
X029558Y027852D01*
X029558Y027754D02*
X029344Y027754D01*
X029394Y027655D02*
X029507Y027655D01*
X029468Y027557D02*
X029434Y027557D01*
X029434Y027458D02*
X029468Y027458D01*
X029504Y027360D02*
X029397Y027360D01*
X029298Y027261D02*
X029604Y027261D01*
X029010Y027261D02*
X028704Y027261D01*
X028803Y027360D02*
X028911Y027360D01*
X028874Y027458D02*
X028840Y027458D01*
X028840Y027557D02*
X028874Y027557D01*
X028913Y027655D02*
X028801Y027655D01*
X028750Y027754D02*
X028964Y027754D01*
X028964Y027852D02*
X028750Y027852D01*
X028750Y027951D02*
X028964Y027951D01*
X028964Y028049D02*
X028750Y028049D01*
X028750Y028148D02*
X028964Y028148D01*
X028964Y028246D02*
X028750Y028246D01*
X028750Y028345D02*
X028964Y028345D01*
X028964Y028443D02*
X028750Y028443D01*
X028750Y028542D02*
X028964Y028542D01*
X028964Y028640D02*
X028750Y028640D01*
X028750Y028739D02*
X028964Y028739D01*
X028964Y028837D02*
X028750Y028837D01*
X028750Y028936D02*
X028964Y028936D01*
X028964Y029034D02*
X028750Y029034D01*
X028701Y029133D02*
X028964Y029133D01*
X028964Y029231D02*
X028602Y029231D01*
X028504Y029330D02*
X028964Y029330D01*
X028868Y029428D02*
X028405Y029428D01*
X028262Y029034D02*
X028250Y029034D01*
X028250Y028936D02*
X028360Y028936D01*
X028370Y028837D02*
X028250Y028837D01*
X028250Y028739D02*
X028370Y028739D01*
X028370Y028640D02*
X028250Y028640D01*
X028250Y028542D02*
X028370Y028542D01*
X028370Y028443D02*
X028250Y028443D01*
X028250Y028345D02*
X028370Y028345D01*
X028370Y028246D02*
X028250Y028246D01*
X028250Y028148D02*
X028370Y028148D01*
X028370Y028049D02*
X028250Y028049D01*
X028250Y027951D02*
X028370Y027951D01*
X028370Y027852D02*
X028250Y027852D01*
X028250Y027754D02*
X028370Y027754D01*
X028319Y027655D02*
X028250Y027655D01*
X028250Y027557D02*
X028280Y027557D01*
X028280Y027458D02*
X028250Y027458D01*
X028286Y027360D02*
X028317Y027360D01*
X028385Y027261D02*
X028416Y027261D01*
X027824Y029034D02*
X026233Y029034D01*
D16*
X019998Y026692D02*
X019279Y025973D01*
X014185Y025973D01*
X013591Y026567D01*
X012560Y026567D01*
X011060Y025067D01*
X011060Y025055D01*
X010060Y024955D02*
X012141Y027036D01*
X013748Y027036D01*
X014248Y026536D01*
X018498Y026536D01*
X013748Y019206D02*
X012141Y019206D01*
X010060Y017125D01*
X011060Y017225D02*
X011060Y017237D01*
X012560Y018737D01*
X013591Y018737D01*
X014185Y018143D01*
X019279Y018143D01*
X019998Y018862D01*
X018498Y018706D02*
X014248Y018706D01*
X013748Y019206D01*
X013748Y011376D02*
X012141Y011376D01*
X010060Y009295D01*
X011060Y009395D02*
X011060Y009407D01*
X012560Y010907D01*
X013591Y010907D01*
X014185Y010313D01*
X019279Y010313D01*
X019998Y011032D01*
X018498Y010876D02*
X014248Y010876D01*
X013748Y011376D01*
X013748Y003546D02*
X012141Y003546D01*
X010060Y001465D01*
X011060Y001565D02*
X011060Y001577D01*
X012560Y003077D01*
X013591Y003077D01*
X014185Y002483D01*
X019279Y002483D01*
X019998Y003202D01*
X018498Y003046D02*
X014248Y003046D01*
X013748Y003546D01*
D17*
X018498Y003046D03*
X019998Y003202D03*
X018498Y010876D03*
X019998Y011032D03*
X018498Y018706D03*
X019998Y018862D03*
X018498Y026536D03*
X019998Y026692D03*
D18*
X025498Y029005D03*
X025498Y021175D03*
X025498Y013345D03*
X025498Y005515D03*
X011341Y005077D03*
X011341Y012907D03*
X011341Y020737D03*
X011341Y028567D03*
D19*
X016560Y028567D01*
X016998Y029005D01*
X025498Y029005D01*
X025498Y021175D02*
X016998Y021175D01*
X016560Y020737D01*
X011341Y020737D01*
X016998Y013345D02*
X025498Y013345D01*
X016998Y013345D02*
X016560Y012907D01*
X011341Y012907D01*
X016998Y005515D02*
X025498Y005515D01*
X016998Y005515D02*
X016560Y005077D01*
X011341Y005077D01*
M02*
