G75*
G70*
%OFA0B0*%
%FSLAX24Y24*%
%IPPOS*%
%LPD*%
%AMOC8*
5,1,8,0,0,1.08239X$1,22.5*
%
%ADD10C,0.0800*%
%ADD11C,0.0360*%
%ADD12C,0.0555*%
D10*
X001900Y001465D03*
X000900Y001565D03*
X002900Y001565D03*
X003900Y001465D03*
X004900Y001565D03*
X005900Y001465D03*
X006900Y001565D03*
X007900Y001465D03*
X008900Y001565D03*
X009900Y001465D03*
X010900Y001565D03*
X011900Y001465D03*
X012900Y001565D03*
X013900Y001465D03*
X012900Y002515D03*
X000950Y002515D03*
X000850Y003515D03*
X000950Y004515D03*
X000850Y005515D03*
X000950Y006515D03*
X001900Y007465D03*
X000900Y007565D03*
X002900Y007565D03*
X003900Y007465D03*
X004900Y007565D03*
X005900Y007465D03*
X006900Y007565D03*
X007900Y007465D03*
X008900Y007565D03*
X009900Y007465D03*
X010900Y007565D03*
X011900Y007465D03*
X012900Y007565D03*
X013900Y007465D03*
D11*
X019400Y006515D03*
X021556Y006608D03*
X021775Y007796D03*
X022369Y007796D03*
X022994Y007765D03*
X023556Y007765D03*
X016884Y004983D03*
X017259Y004608D03*
X017572Y004608D03*
X017572Y004296D03*
X017259Y004296D03*
X015463Y004577D03*
X015119Y004577D03*
X017275Y003452D03*
X019025Y003202D03*
X021869Y003733D03*
X022588Y004515D03*
X014494Y003421D03*
X011367Y004388D03*
X008869Y004233D03*
X006150Y004358D03*
X006572Y005905D03*
X001713Y006140D03*
X005431Y002108D03*
X008306Y002171D03*
X016431Y001640D03*
X018869Y001452D03*
X019244Y001452D03*
X021431Y001233D03*
X023088Y001265D03*
D12*
X009994Y005421D03*
X018838Y005515D03*
M02*
