G75*
%MOIN*%
%OFA0B0*%
%FSLAX24Y24*%
%IPPOS*%
%LPD*%
%AMOC8*
5,1,8,0,0,1.08239X$1,22.5*
%
%ADD10R,0.0201X0.0315*%
%ADD11R,0.0394X0.0433*%
%ADD12R,0.0433X0.0394*%
%ADD13C,0.0440*%
%ADD14R,0.0440X0.0440*%
%ADD15C,0.0300*%
%ADD16C,0.0080*%
%ADD17C,0.0200*%
%ADD18C,0.0100*%
%ADD19C,0.0160*%
%ADD20C,0.0320*%
%ADD21C,0.0360*%
D10*
X005236Y001952D03*
X005610Y001952D03*
X005984Y001952D03*
X005984Y002975D03*
X005610Y002975D03*
X005236Y002975D03*
D11*
X004495Y002244D03*
X003826Y002244D03*
X003310Y002909D03*
X003310Y003578D03*
X003310Y004109D03*
X003310Y004778D03*
X005500Y004508D03*
X005500Y003839D03*
X006300Y004089D03*
X006300Y004758D03*
D12*
X004835Y003984D03*
X004166Y003984D03*
D13*
X004060Y001414D03*
X004560Y001414D03*
X005060Y001414D03*
X005560Y001414D03*
X006060Y001414D03*
X006060Y000914D03*
X005560Y000914D03*
X005060Y000914D03*
X004560Y000914D03*
X004060Y000914D03*
X003560Y000914D03*
D14*
X003560Y001414D03*
D15*
X003090Y002464D03*
X003460Y005534D03*
X006060Y005814D03*
X006410Y002794D03*
X006550Y002194D03*
D16*
X002960Y003289D02*
X002960Y000454D01*
X006660Y000454D01*
X006660Y002304D01*
X005350Y002304D01*
X005315Y002269D01*
X005403Y002269D01*
X005423Y002249D01*
X005444Y002269D01*
X005777Y002269D01*
X005797Y002249D01*
X005818Y002269D01*
X006151Y002269D01*
X006245Y002175D01*
X006245Y001759D01*
X006262Y001741D01*
X006275Y001736D01*
X006382Y001629D01*
X006440Y001489D01*
X006440Y001338D01*
X006382Y001198D01*
X006348Y001164D01*
X006382Y001129D01*
X006440Y000989D01*
X006440Y000838D01*
X006382Y000698D01*
X006275Y000591D01*
X006136Y000534D01*
X005985Y000534D01*
X005845Y000591D01*
X005810Y000626D01*
X005775Y000591D01*
X005636Y000534D01*
X005485Y000534D01*
X005345Y000591D01*
X005310Y000626D01*
X005275Y000591D01*
X005136Y000534D01*
X004985Y000534D01*
X004845Y000591D01*
X004810Y000626D01*
X004775Y000591D01*
X004636Y000534D01*
X004485Y000534D01*
X004345Y000591D01*
X004310Y000626D01*
X004275Y000591D01*
X004136Y000534D01*
X003985Y000534D01*
X003845Y000591D01*
X003810Y000626D01*
X003775Y000591D01*
X003636Y000534D01*
X003485Y000534D01*
X003345Y000591D01*
X003238Y000698D01*
X003180Y000838D01*
X003180Y000989D01*
X003229Y001107D01*
X003228Y001108D01*
X003210Y001140D01*
X003200Y001175D01*
X003200Y001384D01*
X003530Y001384D01*
X003530Y001444D01*
X003530Y001774D01*
X003322Y001774D01*
X003286Y001764D01*
X003254Y001746D01*
X003228Y001720D01*
X003210Y001688D01*
X003200Y001652D01*
X003200Y001444D01*
X003530Y001444D01*
X003590Y001444D01*
X003590Y001774D01*
X003622Y001774D01*
X003586Y001860D01*
X003586Y001867D01*
X003562Y001867D01*
X003469Y001961D01*
X003469Y002526D01*
X003495Y002552D01*
X003350Y002552D01*
X003350Y002869D01*
X003270Y002869D01*
X002973Y002869D01*
X002973Y002674D01*
X002983Y002638D01*
X003001Y002606D01*
X003027Y002580D01*
X003059Y002562D01*
X003095Y002552D01*
X003270Y002552D01*
X003270Y002869D01*
X003270Y002949D01*
X002973Y002949D01*
X002973Y003144D01*
X002983Y003179D01*
X003001Y003211D01*
X003019Y003229D01*
X002960Y003289D01*
X002960Y003275D02*
X002974Y003275D01*
X002960Y003197D02*
X002993Y003197D01*
X002973Y003118D02*
X002960Y003118D01*
X002960Y003040D02*
X002973Y003040D01*
X002973Y002961D02*
X002960Y002961D01*
X002960Y002883D02*
X003270Y002883D01*
X003270Y002804D02*
X003350Y002804D01*
X003350Y002726D02*
X003270Y002726D01*
X003270Y002647D02*
X003350Y002647D01*
X003350Y002569D02*
X003270Y002569D01*
X003090Y002464D02*
X002960Y002594D01*
X002960Y004414D01*
X002953Y004392D02*
X002953Y004341D01*
X002860Y004503D01*
X002860Y004503D01*
X002730Y004578D01*
X002761Y004608D01*
X002835Y004787D01*
X002835Y004980D01*
X002761Y005158D01*
X002730Y005189D01*
X002860Y005264D01*
X002960Y005438D01*
X002960Y006494D01*
X006660Y006494D01*
X006660Y005453D01*
X006766Y005270D01*
X006766Y005270D01*
X006896Y005195D01*
X006860Y005158D01*
X006786Y004980D01*
X006786Y004787D01*
X006860Y004608D01*
X006896Y004572D01*
X006766Y004497D01*
X006660Y004314D01*
X006660Y002474D01*
X005473Y002474D01*
X005476Y002482D01*
X005476Y002682D01*
X005491Y002678D01*
X005600Y002678D01*
X005600Y002965D01*
X005620Y002965D01*
X005620Y002678D01*
X005729Y002678D01*
X005765Y002687D01*
X005779Y002696D01*
X005818Y002658D01*
X006151Y002658D01*
X006245Y002752D01*
X006245Y003134D01*
X006268Y003134D01*
X006393Y003185D01*
X006488Y003281D01*
X006540Y003406D01*
X006540Y003712D01*
X006563Y003712D01*
X006657Y003806D01*
X006657Y004372D01*
X006591Y004438D01*
X006609Y004456D01*
X006628Y004488D01*
X006637Y004523D01*
X006637Y004718D01*
X006340Y004718D01*
X006340Y004798D01*
X006260Y004798D01*
X006260Y004718D01*
X005963Y004718D01*
X005963Y004523D01*
X005973Y004488D01*
X005991Y004456D01*
X006009Y004438D01*
X005943Y004372D01*
X005943Y003806D01*
X005998Y003752D01*
X005912Y003666D01*
X005860Y003541D01*
X005860Y003473D01*
X005781Y003394D01*
X005744Y003305D01*
X005744Y003269D01*
X005729Y003273D01*
X005620Y003273D01*
X005620Y002986D01*
X005600Y002986D01*
X005600Y003273D01*
X005491Y003273D01*
X005476Y003269D01*
X005476Y003462D01*
X005763Y003462D01*
X005857Y003556D01*
X005857Y004122D01*
X005791Y004188D01*
X005809Y004206D01*
X005828Y004238D01*
X005837Y004273D01*
X005837Y004468D01*
X005540Y004468D01*
X005540Y004548D01*
X005460Y004548D01*
X005460Y004468D01*
X005163Y004468D01*
X005163Y004295D01*
X005118Y004340D01*
X004552Y004340D01*
X004486Y004274D01*
X004468Y004292D01*
X004436Y004311D01*
X004401Y004320D01*
X004206Y004320D01*
X004206Y004024D01*
X004126Y004024D01*
X004126Y004320D01*
X003931Y004320D01*
X003895Y004311D01*
X003863Y004292D01*
X003837Y004266D01*
X003819Y004234D01*
X003809Y004199D01*
X003809Y004024D01*
X004126Y004024D01*
X004126Y003944D01*
X004206Y003944D01*
X004206Y003647D01*
X004401Y003647D01*
X004436Y003656D01*
X004468Y003675D01*
X004486Y003693D01*
X004552Y003627D01*
X004998Y003627D01*
X004996Y003623D01*
X004996Y003220D01*
X004976Y003199D01*
X004976Y002752D01*
X004996Y002731D01*
X004996Y002629D01*
X004852Y002484D01*
X004852Y002526D01*
X004758Y002620D01*
X004232Y002620D01*
X004160Y002549D01*
X004111Y002597D01*
X004146Y002680D01*
X004146Y002807D01*
X004097Y002925D01*
X004066Y002956D01*
X004066Y003316D01*
X004029Y003404D01*
X003719Y003714D01*
X003667Y003766D01*
X003667Y004392D01*
X003601Y004458D01*
X003619Y004476D01*
X003638Y004508D01*
X003647Y004543D01*
X003647Y004738D01*
X003350Y004738D01*
X003350Y004818D01*
X003270Y004818D01*
X003270Y004738D01*
X002973Y004738D01*
X002973Y004543D01*
X002983Y004508D01*
X003001Y004476D01*
X003019Y004458D01*
X002953Y004392D01*
X002953Y004374D02*
X002934Y004374D01*
X002889Y004453D02*
X003014Y004453D01*
X002977Y004531D02*
X002812Y004531D01*
X002860Y004503D02*
X002860Y004503D01*
X002761Y004610D02*
X002973Y004610D01*
X002973Y004688D02*
X002794Y004688D01*
X002826Y004767D02*
X003270Y004767D01*
X003270Y004818D02*
X002973Y004818D01*
X002973Y005013D01*
X002983Y005049D01*
X003001Y005081D01*
X003027Y005107D01*
X003059Y005125D01*
X003095Y005135D01*
X003270Y005135D01*
X003270Y004818D01*
X003270Y004845D02*
X003350Y004845D01*
X003350Y004818D02*
X003350Y005135D01*
X003525Y005135D01*
X003561Y005125D01*
X003593Y005107D01*
X003619Y005081D01*
X003638Y005049D01*
X003647Y005013D01*
X003647Y004818D01*
X003350Y004818D01*
X003350Y004767D02*
X005170Y004767D01*
X005173Y004779D02*
X005163Y004743D01*
X005163Y004548D01*
X005460Y004548D01*
X005460Y004865D01*
X005285Y004865D01*
X005249Y004855D01*
X005217Y004837D01*
X005191Y004811D01*
X005173Y004779D01*
X005232Y004845D02*
X003647Y004845D01*
X003647Y004924D02*
X005963Y004924D01*
X005963Y004993D02*
X005963Y004798D01*
X006260Y004798D01*
X006260Y005115D01*
X006085Y005115D01*
X006049Y005105D01*
X006017Y005087D01*
X005991Y005061D01*
X005973Y005029D01*
X005963Y004993D01*
X005966Y005002D02*
X003647Y005002D01*
X003619Y005081D02*
X006011Y005081D01*
X005963Y004845D02*
X005769Y004845D01*
X005783Y004837D02*
X005751Y004855D01*
X005715Y004865D01*
X005540Y004865D01*
X005540Y004548D01*
X005837Y004548D01*
X005837Y004743D01*
X005828Y004779D01*
X005809Y004811D01*
X005783Y004837D01*
X005831Y004767D02*
X006260Y004767D01*
X006260Y004845D02*
X006340Y004845D01*
X006340Y004798D02*
X006340Y005115D01*
X006515Y005115D01*
X006551Y005105D01*
X006583Y005087D01*
X006609Y005061D01*
X006628Y005029D01*
X006637Y004993D01*
X006637Y004798D01*
X006340Y004798D01*
X006340Y004767D02*
X006794Y004767D01*
X006786Y004845D02*
X006637Y004845D01*
X006637Y004924D02*
X006786Y004924D01*
X006795Y005002D02*
X006635Y005002D01*
X006589Y005081D02*
X006828Y005081D01*
X006861Y005159D02*
X002760Y005159D01*
X002793Y005081D02*
X003001Y005081D01*
X002973Y005002D02*
X002825Y005002D01*
X002835Y004924D02*
X002973Y004924D01*
X002973Y004845D02*
X002835Y004845D01*
X002814Y005238D02*
X006822Y005238D01*
X006766Y005270D02*
X006766Y005270D01*
X006739Y005316D02*
X002890Y005316D01*
X002860Y005264D02*
X002860Y005264D01*
X002860Y005264D01*
X002935Y005395D02*
X006694Y005395D01*
X006660Y005473D02*
X002960Y005473D01*
X002960Y005552D02*
X006660Y005552D01*
X006660Y005630D02*
X002960Y005630D01*
X002960Y005709D02*
X006660Y005709D01*
X006660Y005787D02*
X002960Y005787D01*
X002960Y005866D02*
X006660Y005866D01*
X006660Y005944D02*
X002960Y005944D01*
X002960Y006023D02*
X006660Y006023D01*
X006660Y006101D02*
X002960Y006101D01*
X002960Y006180D02*
X006660Y006180D01*
X006660Y006258D02*
X002960Y006258D01*
X002960Y006337D02*
X006660Y006337D01*
X006660Y006415D02*
X002960Y006415D01*
X003270Y005081D02*
X003350Y005081D01*
X003350Y005002D02*
X003270Y005002D01*
X003270Y004924D02*
X003350Y004924D01*
X003647Y004688D02*
X005163Y004688D01*
X005163Y004610D02*
X003647Y004610D01*
X003644Y004531D02*
X005460Y004531D01*
X005460Y004610D02*
X005540Y004610D01*
X005540Y004688D02*
X005460Y004688D01*
X005460Y004767D02*
X005540Y004767D01*
X005540Y004845D02*
X005460Y004845D01*
X005540Y004531D02*
X005963Y004531D01*
X005963Y004610D02*
X005837Y004610D01*
X005837Y004688D02*
X005963Y004688D01*
X005994Y004453D02*
X005837Y004453D01*
X005837Y004374D02*
X005946Y004374D01*
X005943Y004296D02*
X005837Y004296D01*
X005816Y004217D02*
X005943Y004217D01*
X005943Y004139D02*
X005840Y004139D01*
X005857Y004060D02*
X005943Y004060D01*
X005943Y003982D02*
X005857Y003982D01*
X005857Y003903D02*
X005943Y003903D01*
X005943Y003825D02*
X005857Y003825D01*
X005857Y003746D02*
X005992Y003746D01*
X005913Y003668D02*
X005857Y003668D01*
X005857Y003589D02*
X005880Y003589D01*
X005860Y003511D02*
X005812Y003511D01*
X005819Y003432D02*
X005476Y003432D01*
X005476Y003354D02*
X005764Y003354D01*
X005744Y003275D02*
X005476Y003275D01*
X005600Y003197D02*
X005620Y003197D01*
X005620Y003118D02*
X005600Y003118D01*
X005600Y003040D02*
X005620Y003040D01*
X005620Y002961D02*
X005600Y002961D01*
X005600Y002883D02*
X005620Y002883D01*
X005620Y002804D02*
X005600Y002804D01*
X005600Y002726D02*
X005620Y002726D01*
X005476Y002647D02*
X006660Y002647D01*
X006660Y002569D02*
X005476Y002569D01*
X005476Y002490D02*
X006660Y002490D01*
X006660Y002255D02*
X006166Y002255D01*
X006244Y002176D02*
X006660Y002176D01*
X006660Y002098D02*
X006245Y002098D01*
X006245Y002019D02*
X006660Y002019D01*
X006660Y001941D02*
X006245Y001941D01*
X006245Y001862D02*
X006660Y001862D01*
X006660Y001784D02*
X006245Y001784D01*
X006306Y001705D02*
X006660Y001705D01*
X006660Y001627D02*
X006383Y001627D01*
X006416Y001548D02*
X006660Y001548D01*
X006660Y001470D02*
X006440Y001470D01*
X006440Y001391D02*
X006660Y001391D01*
X006660Y001313D02*
X006430Y001313D01*
X006397Y001234D02*
X006660Y001234D01*
X006660Y001156D02*
X006356Y001156D01*
X006404Y001077D02*
X006660Y001077D01*
X006660Y000999D02*
X006436Y000999D01*
X006440Y000920D02*
X006660Y000920D01*
X006660Y000842D02*
X006440Y000842D01*
X006409Y000763D02*
X006660Y000763D01*
X006660Y000685D02*
X006369Y000685D01*
X006290Y000606D02*
X006660Y000606D01*
X006660Y000528D02*
X002960Y000528D01*
X002960Y000606D02*
X003330Y000606D01*
X003252Y000685D02*
X002960Y000685D01*
X002960Y000763D02*
X003211Y000763D01*
X003180Y000842D02*
X002960Y000842D01*
X002960Y000920D02*
X003180Y000920D01*
X003184Y000999D02*
X002960Y000999D01*
X002960Y001077D02*
X003217Y001077D01*
X003205Y001156D02*
X002960Y001156D01*
X002960Y001234D02*
X003200Y001234D01*
X003200Y001313D02*
X002960Y001313D01*
X002960Y001391D02*
X003530Y001391D01*
X003530Y001470D02*
X003590Y001470D01*
X003590Y001548D02*
X003530Y001548D01*
X003530Y001627D02*
X003590Y001627D01*
X003590Y001705D02*
X003530Y001705D01*
X003617Y001784D02*
X002960Y001784D01*
X002960Y001862D02*
X003586Y001862D01*
X003489Y001941D02*
X002960Y001941D01*
X002960Y002019D02*
X003469Y002019D01*
X003469Y002098D02*
X002960Y002098D01*
X002960Y002176D02*
X003469Y002176D01*
X003469Y002255D02*
X002960Y002255D01*
X002960Y002333D02*
X003469Y002333D01*
X003469Y002412D02*
X002960Y002412D01*
X002960Y002490D02*
X003469Y002490D01*
X003048Y002569D02*
X002960Y002569D01*
X002960Y002647D02*
X002981Y002647D01*
X002973Y002726D02*
X002960Y002726D01*
X002960Y002804D02*
X002973Y002804D01*
X003766Y003668D02*
X003875Y003668D01*
X003863Y003675D02*
X003895Y003656D01*
X003931Y003647D01*
X004126Y003647D01*
X004126Y003944D01*
X003809Y003944D01*
X003809Y003768D01*
X003819Y003733D01*
X003837Y003701D01*
X003863Y003675D01*
X003815Y003746D02*
X003687Y003746D01*
X003667Y003825D02*
X003809Y003825D01*
X003809Y003903D02*
X003667Y003903D01*
X003667Y003982D02*
X004126Y003982D01*
X004126Y004060D02*
X004206Y004060D01*
X004206Y004139D02*
X004126Y004139D01*
X004126Y004217D02*
X004206Y004217D01*
X004206Y004296D02*
X004126Y004296D01*
X003868Y004296D02*
X003667Y004296D01*
X003667Y004374D02*
X005163Y004374D01*
X005162Y004296D02*
X005163Y004296D01*
X005163Y004453D02*
X003606Y004453D01*
X003667Y004217D02*
X003814Y004217D01*
X003809Y004139D02*
X003667Y004139D01*
X003667Y004060D02*
X003809Y004060D01*
X004126Y003903D02*
X004206Y003903D01*
X004206Y003825D02*
X004126Y003825D01*
X004126Y003746D02*
X004206Y003746D01*
X004206Y003668D02*
X004126Y003668D01*
X003923Y003511D02*
X004996Y003511D01*
X004996Y003589D02*
X003844Y003589D01*
X004001Y003432D02*
X004996Y003432D01*
X004996Y003354D02*
X004050Y003354D01*
X004066Y003275D02*
X004996Y003275D01*
X004976Y003197D02*
X004066Y003197D01*
X004066Y003118D02*
X004976Y003118D01*
X004976Y003040D02*
X004066Y003040D01*
X004066Y002961D02*
X004976Y002961D01*
X004976Y002883D02*
X004114Y002883D01*
X004146Y002804D02*
X004976Y002804D01*
X004996Y002726D02*
X004146Y002726D01*
X004132Y002647D02*
X004996Y002647D01*
X004936Y002569D02*
X004810Y002569D01*
X004852Y002490D02*
X004857Y002490D01*
X005418Y002255D02*
X005429Y002255D01*
X005792Y002255D02*
X005803Y002255D01*
X006219Y002726D02*
X006660Y002726D01*
X006660Y002804D02*
X006245Y002804D01*
X006245Y002883D02*
X006660Y002883D01*
X006660Y002961D02*
X006245Y002961D01*
X006245Y003040D02*
X006660Y003040D01*
X006660Y003118D02*
X006245Y003118D01*
X006404Y003197D02*
X006660Y003197D01*
X006660Y003275D02*
X006483Y003275D01*
X006519Y003354D02*
X006660Y003354D01*
X006660Y003432D02*
X006540Y003432D01*
X006540Y003511D02*
X006660Y003511D01*
X006660Y003589D02*
X006540Y003589D01*
X006540Y003668D02*
X006660Y003668D01*
X006660Y003746D02*
X006597Y003746D01*
X006657Y003825D02*
X006660Y003825D01*
X006657Y003903D02*
X006660Y003903D01*
X006657Y003982D02*
X006660Y003982D01*
X006657Y004060D02*
X006660Y004060D01*
X006657Y004139D02*
X006660Y004139D01*
X006657Y004217D02*
X006660Y004217D01*
X006657Y004296D02*
X006660Y004296D01*
X006655Y004374D02*
X006695Y004374D01*
X006740Y004453D02*
X006606Y004453D01*
X006637Y004531D02*
X006825Y004531D01*
X006766Y004497D02*
X006766Y004497D01*
X006859Y004610D02*
X006637Y004610D01*
X006637Y004688D02*
X006827Y004688D01*
X006340Y004924D02*
X006260Y004924D01*
X006260Y005002D02*
X006340Y005002D01*
X006340Y005081D02*
X006260Y005081D01*
X004507Y004296D02*
X004463Y004296D01*
X004456Y003668D02*
X004511Y003668D01*
X004180Y002569D02*
X004140Y002569D01*
X003220Y001705D02*
X002960Y001705D01*
X002960Y001627D02*
X003200Y001627D01*
X003200Y001548D02*
X002960Y001548D01*
X002960Y001470D02*
X003200Y001470D01*
X003790Y000606D02*
X003830Y000606D01*
X004290Y000606D02*
X004330Y000606D01*
X004790Y000606D02*
X004830Y000606D01*
X005290Y000606D02*
X005330Y000606D01*
X005790Y000606D02*
X005830Y000606D01*
D17*
X005590Y002334D02*
X005590Y002444D01*
D18*
X005590Y002464D01*
X005590Y002484D01*
X006100Y002484D01*
X006410Y002794D01*
D19*
X005984Y002975D02*
X005984Y003258D01*
X006200Y003474D01*
X006300Y003574D01*
X006300Y004089D01*
X005500Y003839D02*
X005245Y003839D01*
X005100Y003984D01*
X004835Y003984D01*
X005236Y003575D02*
X005500Y003839D01*
X005236Y003575D02*
X005236Y002975D01*
X005236Y002530D01*
X004950Y002244D01*
X004495Y002244D01*
X004560Y002178D01*
X004560Y001414D01*
X004060Y001414D02*
X004060Y001674D01*
X003826Y001908D01*
X003826Y002244D01*
X003826Y002744D01*
X003826Y003268D01*
X003516Y003578D01*
X003310Y003578D01*
X003310Y004109D01*
X005236Y001952D02*
X005236Y001780D01*
X005060Y001604D01*
X005060Y001414D01*
X005560Y001414D02*
X005560Y001634D01*
X005610Y001684D01*
X005610Y001952D01*
X005984Y001952D02*
X005984Y001680D01*
X006060Y001604D01*
X006060Y001414D01*
D20*
X003826Y002744D03*
D21*
X006200Y003474D03*
M02*
