%
M48
M72
T01C0.0140
T02C0.0160
T03C0.0200
T04C0.0280
T05C0.0490
%
T01
X3090Y2464
X3460Y5534
X6060Y5814
X6520Y2564
T02
X3826Y2744
T03
X6200Y3474
T04
X6060Y1414
X5560Y1414
X5060Y1414
X4560Y1414
X4060Y1414
X3560Y1414
X3560Y914
X4060Y914
X4560Y914
X5060Y914
X5560Y914
X6060Y914
T05
X7271Y4883
X2350Y4883
M30
