G75*
%MOIN*%
%OFA0B0*%
%FSLAX24Y24*%
%IPPOS*%
%LPD*%
%AMOC8*
5,1,8,0,0,1.08239X$1,22.5*
%
%ADD10R,0.1469X0.1823*%
%ADD11R,0.0079X0.0394*%
%ADD12C,0.0440*%
%ADD13R,0.0440X0.0440*%
%ADD14C,0.0300*%
%ADD15C,0.0080*%
%ADD16C,0.0320*%
%ADD17C,0.0360*%
D10*
X004810Y004644D03*
D11*
X004866Y003184D03*
X005026Y003184D03*
X005186Y003184D03*
X005346Y003184D03*
X005507Y003184D03*
X004705Y003184D03*
X004545Y003184D03*
X004385Y003184D03*
X004225Y003184D03*
D12*
X004060Y001414D03*
X004560Y001414D03*
X005060Y001414D03*
X005560Y001414D03*
X006060Y001414D03*
X006060Y000914D03*
X005560Y000914D03*
X005060Y000914D03*
X004560Y000914D03*
X004060Y000914D03*
X003560Y000914D03*
D13*
X003560Y001414D03*
D14*
X003090Y002464D03*
X003460Y005534D03*
X006060Y005814D03*
X006520Y002564D03*
D15*
X002960Y001894D02*
X002960Y000734D01*
X003240Y000454D01*
X004380Y000454D01*
X004560Y000634D01*
X004560Y000914D01*
X004060Y000914D02*
X004060Y000744D01*
X003910Y000594D01*
X003310Y000594D01*
X003100Y000804D01*
X003100Y001824D01*
X003310Y002034D01*
X004480Y002034D01*
X004705Y002259D01*
X004705Y003184D01*
X004866Y003184D02*
X004866Y002219D01*
X004540Y001894D01*
X003380Y001894D01*
X003240Y001754D01*
X003240Y001074D01*
X003400Y000914D01*
X003560Y000914D01*
X002960Y001894D02*
X003240Y002174D01*
X004420Y002174D01*
X004545Y002298D01*
X004545Y003184D01*
X004385Y003184D02*
X004385Y002918D01*
X004210Y002744D01*
X003826Y002744D01*
X003947Y003040D02*
X004045Y003040D01*
X004007Y003015D02*
X004045Y002976D01*
X004045Y003184D01*
X004185Y003184D01*
X004185Y003184D01*
X004045Y003184D01*
X004045Y003399D01*
X004055Y003435D01*
X004073Y003467D01*
X004099Y003493D01*
X004131Y003511D01*
X004167Y003521D01*
X004225Y003521D01*
X004225Y003486D01*
X004225Y003486D01*
X004225Y003521D01*
X004259Y003521D01*
X004279Y003541D01*
X005565Y003541D01*
X005870Y003846D01*
X005987Y003964D01*
X006423Y003964D01*
X006583Y003804D01*
X006660Y003726D01*
X006660Y004314D01*
X006766Y004497D01*
X006766Y004497D01*
X006896Y004572D01*
X006860Y004608D01*
X006786Y004787D01*
X006786Y004980D01*
X006860Y005158D01*
X006896Y005195D01*
X006766Y005270D01*
X006766Y005270D01*
X006660Y005453D01*
X006660Y006494D01*
X002960Y006494D01*
X002960Y005438D01*
X002860Y005264D01*
X002860Y005264D01*
X002860Y005264D01*
X002730Y005189D01*
X002761Y005158D01*
X002835Y004980D01*
X002835Y004787D01*
X002761Y004608D01*
X002730Y004578D01*
X002860Y004503D01*
X002860Y004503D01*
X002960Y004329D01*
X002960Y002176D01*
X003040Y002256D01*
X003157Y002374D01*
X004337Y002374D01*
X004345Y002381D01*
X004345Y002596D01*
X004293Y002544D01*
X004078Y002544D01*
X004007Y002472D01*
X003889Y002424D01*
X003762Y002424D01*
X003644Y002472D01*
X003554Y002562D01*
X003506Y002680D01*
X003506Y002807D01*
X003554Y002925D01*
X003644Y003015D01*
X003762Y003064D01*
X003889Y003064D01*
X004007Y003015D01*
X004045Y003118D02*
X002960Y003118D01*
X002960Y003040D02*
X003704Y003040D01*
X003591Y002961D02*
X002960Y002961D01*
X002960Y002883D02*
X003537Y002883D01*
X003506Y002804D02*
X002960Y002804D01*
X002960Y002726D02*
X003506Y002726D01*
X003519Y002647D02*
X002960Y002647D01*
X002960Y002569D02*
X003552Y002569D01*
X003627Y002490D02*
X002960Y002490D01*
X002960Y002412D02*
X004345Y002412D01*
X004345Y002490D02*
X004025Y002490D01*
X004318Y002569D02*
X004345Y002569D01*
X004225Y003184D02*
X004225Y003508D01*
X004225Y003511D02*
X004225Y003511D01*
X004130Y003511D02*
X002960Y003511D01*
X002960Y003589D02*
X005613Y003589D01*
X005598Y003602D02*
X005630Y003620D01*
X005656Y003646D01*
X005675Y003678D01*
X005684Y003714D01*
X005684Y004604D01*
X004850Y004604D01*
X004850Y004684D01*
X004770Y004684D01*
X004770Y005695D01*
X004058Y005695D01*
X004022Y005685D01*
X003990Y005667D01*
X003964Y005641D01*
X003945Y005609D01*
X003936Y005573D01*
X003936Y004684D01*
X004770Y004684D01*
X004770Y004604D01*
X003936Y004604D01*
X003936Y003714D01*
X003945Y003678D01*
X003964Y003646D01*
X003990Y003620D01*
X004022Y003602D01*
X004058Y003592D01*
X004770Y003592D01*
X004770Y004604D01*
X004850Y004604D01*
X004850Y003592D01*
X005563Y003592D01*
X005598Y003602D01*
X005669Y003668D02*
X005691Y003668D01*
X005684Y003746D02*
X005770Y003746D01*
X005848Y003825D02*
X005684Y003825D01*
X005684Y003903D02*
X005927Y003903D01*
X006070Y003764D02*
X006340Y003764D01*
X006500Y003604D01*
X006500Y003344D01*
X006330Y003174D01*
X005950Y003174D01*
X005830Y003054D01*
X005830Y002844D01*
X005690Y002704D01*
X005410Y002704D01*
X005330Y002624D01*
X005330Y002094D01*
X005410Y002014D01*
X006370Y002014D01*
X006660Y001724D01*
X006660Y000734D01*
X006380Y000454D01*
X005240Y000454D01*
X005060Y000634D01*
X005060Y000914D01*
X005560Y000914D02*
X005560Y000744D01*
X005710Y000594D01*
X006310Y000594D01*
X006520Y000804D01*
X006520Y001664D01*
X006310Y001874D01*
X005330Y001874D01*
X005186Y002018D01*
X005186Y003184D01*
X005346Y003184D02*
X005346Y002907D01*
X005410Y002844D01*
X005610Y002844D01*
X005670Y002904D01*
X005670Y003134D01*
X006010Y003474D01*
X006200Y003474D01*
X006070Y003764D02*
X005557Y003250D01*
X005507Y003250D01*
X005557Y003250D02*
X005507Y003200D01*
X005507Y003184D01*
X005026Y003184D02*
X005026Y001968D01*
X005260Y001734D01*
X006250Y001734D01*
X006380Y001604D01*
X006380Y001074D01*
X006220Y000914D01*
X006060Y000914D01*
X006660Y002006D02*
X006453Y002214D01*
X006400Y002214D01*
X006400Y002624D01*
X006660Y002624D01*
X006660Y002006D01*
X006660Y002019D02*
X006648Y002019D01*
X006660Y002098D02*
X006569Y002098D01*
X006491Y002176D02*
X006660Y002176D01*
X006660Y002255D02*
X006400Y002255D01*
X006350Y002314D02*
X005530Y002314D01*
X005530Y002504D01*
X005773Y002504D01*
X005890Y002621D01*
X006030Y002761D01*
X006030Y002971D01*
X006033Y002974D01*
X006413Y002974D01*
X006530Y003091D01*
X006660Y003221D01*
X006660Y002674D01*
X006350Y002674D01*
X006350Y002314D01*
X006350Y002333D02*
X005530Y002333D01*
X005530Y002412D02*
X006350Y002412D01*
X006400Y002412D02*
X006660Y002412D01*
X006660Y002490D02*
X006400Y002490D01*
X006350Y002490D02*
X005530Y002490D01*
X005838Y002569D02*
X006350Y002569D01*
X006400Y002569D02*
X006660Y002569D01*
X006660Y002704D02*
X006660Y003814D01*
X006660Y003825D02*
X006562Y003825D01*
X006484Y003903D02*
X006660Y003903D01*
X006660Y003982D02*
X005684Y003982D01*
X005684Y004060D02*
X006660Y004060D01*
X006660Y004139D02*
X005684Y004139D01*
X005684Y004217D02*
X006660Y004217D01*
X006660Y004296D02*
X005684Y004296D01*
X005684Y004374D02*
X006695Y004374D01*
X006740Y004453D02*
X005684Y004453D01*
X005684Y004531D02*
X006825Y004531D01*
X006859Y004610D02*
X004850Y004610D01*
X004850Y004684D02*
X005684Y004684D01*
X005684Y005573D01*
X005675Y005609D01*
X005656Y005641D01*
X005630Y005667D01*
X005598Y005685D01*
X005563Y005695D01*
X004850Y005695D01*
X004850Y004684D01*
X004850Y004688D02*
X004770Y004688D01*
X004770Y004610D02*
X002761Y004610D01*
X002794Y004688D02*
X003936Y004688D01*
X003936Y004767D02*
X002826Y004767D01*
X002835Y004845D02*
X003936Y004845D01*
X003936Y004924D02*
X002835Y004924D01*
X002825Y005002D02*
X003936Y005002D01*
X003936Y005081D02*
X002793Y005081D01*
X002760Y005159D02*
X003936Y005159D01*
X003936Y005238D02*
X002814Y005238D01*
X002890Y005316D02*
X003936Y005316D01*
X003936Y005395D02*
X002935Y005395D01*
X002960Y005473D02*
X003936Y005473D01*
X003936Y005552D02*
X002960Y005552D01*
X002960Y005630D02*
X003958Y005630D01*
X004770Y005630D02*
X004850Y005630D01*
X004850Y005552D02*
X004770Y005552D01*
X004770Y005473D02*
X004850Y005473D01*
X004850Y005395D02*
X004770Y005395D01*
X004770Y005316D02*
X004850Y005316D01*
X004850Y005238D02*
X004770Y005238D01*
X004770Y005159D02*
X004850Y005159D01*
X004850Y005081D02*
X004770Y005081D01*
X004770Y005002D02*
X004850Y005002D01*
X004850Y004924D02*
X004770Y004924D01*
X004770Y004845D02*
X004850Y004845D01*
X004850Y004767D02*
X004770Y004767D01*
X004770Y004531D02*
X004850Y004531D01*
X004850Y004453D02*
X004770Y004453D01*
X004770Y004374D02*
X004850Y004374D01*
X004850Y004296D02*
X004770Y004296D01*
X004770Y004217D02*
X004850Y004217D01*
X004850Y004139D02*
X004770Y004139D01*
X004770Y004060D02*
X004850Y004060D01*
X004850Y003982D02*
X004770Y003982D01*
X004770Y003903D02*
X004850Y003903D01*
X004850Y003825D02*
X004770Y003825D01*
X004770Y003746D02*
X004850Y003746D01*
X004850Y003668D02*
X004770Y003668D01*
X004054Y003432D02*
X002960Y003432D01*
X002960Y003354D02*
X004045Y003354D01*
X004045Y003275D02*
X002960Y003275D01*
X002960Y003197D02*
X004045Y003197D01*
X003952Y003668D02*
X002960Y003668D01*
X002960Y003746D02*
X003936Y003746D01*
X003936Y003825D02*
X002960Y003825D01*
X002960Y003903D02*
X003936Y003903D01*
X003936Y003982D02*
X002960Y003982D01*
X002960Y004060D02*
X003936Y004060D01*
X003936Y004139D02*
X002960Y004139D01*
X002960Y004217D02*
X003936Y004217D01*
X003936Y004296D02*
X002960Y004296D01*
X002934Y004374D02*
X003936Y004374D01*
X003936Y004453D02*
X002889Y004453D01*
X002860Y004503D02*
X002860Y004503D01*
X002812Y004531D02*
X003936Y004531D01*
X002960Y005709D02*
X006660Y005709D01*
X006660Y005787D02*
X002960Y005787D01*
X002960Y005866D02*
X006660Y005866D01*
X006660Y005944D02*
X002960Y005944D01*
X002960Y006023D02*
X006660Y006023D01*
X006660Y006101D02*
X002960Y006101D01*
X002960Y006180D02*
X006660Y006180D01*
X006660Y006258D02*
X002960Y006258D01*
X002960Y006337D02*
X006660Y006337D01*
X006660Y006415D02*
X002960Y006415D01*
X005663Y005630D02*
X006660Y005630D01*
X006660Y005552D02*
X005684Y005552D01*
X005684Y005473D02*
X006660Y005473D01*
X006694Y005395D02*
X005684Y005395D01*
X005684Y005316D02*
X006739Y005316D01*
X006766Y005270D02*
X006766Y005270D01*
X006822Y005238D02*
X005684Y005238D01*
X005684Y005159D02*
X006861Y005159D01*
X006828Y005081D02*
X005684Y005081D01*
X005684Y005002D02*
X006795Y005002D01*
X006786Y004924D02*
X005684Y004924D01*
X005684Y004845D02*
X006786Y004845D01*
X006794Y004767D02*
X005684Y004767D01*
X005684Y004688D02*
X006827Y004688D01*
X006660Y003746D02*
X006641Y003746D01*
X006636Y003197D02*
X006660Y003197D01*
X006660Y003118D02*
X006558Y003118D01*
X006479Y003040D02*
X006660Y003040D01*
X006660Y002961D02*
X006030Y002961D01*
X006030Y002883D02*
X006660Y002883D01*
X006660Y002804D02*
X006030Y002804D01*
X005995Y002726D02*
X006660Y002726D01*
X006660Y002704D02*
X006520Y002564D01*
X006350Y002647D02*
X005917Y002647D01*
X006400Y002333D02*
X006660Y002333D01*
X003117Y002333D02*
X002960Y002333D01*
X002960Y002255D02*
X003038Y002255D01*
D16*
X003826Y002744D03*
D17*
X006200Y003474D03*
M02*
