G75*
G70*
%OFA0B0*%
%FSLAX24Y24*%
%IPPOS*%
%LPD*%
%AMOC8*
5,1,8,0,0,1.08239X$1,22.5*
%
%ADD10R,0.0315X0.0201*%
%ADD11R,0.0433X0.0394*%
%ADD12R,0.0394X0.0433*%
%ADD13C,0.0740*%
%ADD14C,0.0160*%
%ADD15C,0.0396*%
%ADD16C,0.0320*%
%ADD17C,0.0120*%
D10*
X005768Y003363D03*
X005768Y003737D03*
X005768Y004111D03*
X006792Y004111D03*
X006792Y003737D03*
X006792Y003363D03*
D11*
X004615Y003237D03*
X003945Y003237D03*
X003365Y003237D03*
X002695Y003237D03*
X011080Y003502D03*
X011080Y004171D03*
D12*
X008280Y004171D03*
X007430Y004171D03*
X007430Y003502D03*
X008280Y003502D03*
D13*
X000780Y001487D03*
X001780Y001487D03*
X002780Y001487D03*
X003780Y001487D03*
X004780Y001487D03*
X005780Y001487D03*
X006780Y001487D03*
X007780Y001487D03*
X008780Y001487D03*
X009780Y001487D03*
X010780Y001487D03*
X011780Y001487D03*
X010780Y002487D03*
X009780Y002487D03*
X008780Y002487D03*
X007780Y002487D03*
X006780Y002487D03*
X005780Y002487D03*
X004780Y002487D03*
X003780Y002487D03*
X002780Y002487D03*
D14*
X002780Y003487D01*
X002714Y003423D02*
X002677Y003423D01*
X002677Y003581D02*
X002714Y003581D01*
X002714Y003614D02*
X002714Y003255D01*
X002677Y003255D01*
X002677Y003218D01*
X002299Y003218D01*
X002299Y003016D01*
X002311Y002970D01*
X002335Y002929D01*
X002368Y002896D01*
X002396Y002880D01*
X002360Y002845D01*
X002310Y002775D01*
X002270Y002698D01*
X002244Y002615D01*
X002230Y002530D01*
X002230Y002507D01*
X002760Y002507D01*
X002760Y002467D01*
X002230Y002467D01*
X002230Y002443D01*
X002244Y002358D01*
X002270Y002276D01*
X002310Y002198D01*
X002360Y002128D01*
X002422Y002067D01*
X002492Y002016D01*
X002550Y001987D01*
X002492Y001957D01*
X002422Y001906D01*
X002360Y001845D01*
X002310Y001775D01*
X002270Y001698D01*
X002259Y001663D01*
X002212Y001776D01*
X002069Y001919D01*
X001881Y001997D01*
X001679Y001997D01*
X001610Y001968D01*
X001250Y002328D01*
X001250Y002896D01*
X002121Y003767D01*
X004939Y003767D01*
X005189Y003517D01*
X005471Y003517D01*
X005471Y003204D01*
X005553Y003122D01*
X005833Y003122D01*
X005997Y002959D01*
X005997Y002949D01*
X005881Y002997D01*
X005679Y002997D01*
X005491Y002919D01*
X005348Y002776D01*
X005280Y002612D01*
X005212Y002776D01*
X005069Y002919D01*
X004989Y002952D01*
X004999Y002970D01*
X005011Y003016D01*
X005011Y003218D01*
X004633Y003218D01*
X004633Y003255D01*
X005011Y003255D01*
X005011Y003457D01*
X004999Y003503D01*
X004975Y003544D01*
X004942Y003578D01*
X004901Y003601D01*
X004855Y003614D01*
X004633Y003614D01*
X004633Y003255D01*
X004596Y003255D01*
X004596Y003614D01*
X004374Y003614D01*
X004329Y003601D01*
X004288Y003578D01*
X004254Y003544D01*
X004252Y003541D01*
X004220Y003574D01*
X003671Y003574D01*
X003655Y003558D01*
X003639Y003574D01*
X003090Y003574D01*
X003058Y003541D01*
X003056Y003544D01*
X003022Y003578D01*
X002981Y003601D01*
X002936Y003614D01*
X002714Y003614D01*
X002677Y003614D02*
X002455Y003614D01*
X002409Y003601D01*
X002368Y003578D01*
X002335Y003544D01*
X002311Y003503D01*
X002299Y003457D01*
X002299Y003255D01*
X002677Y003255D01*
X002677Y003614D01*
X003016Y003581D02*
X004294Y003581D01*
X004596Y003581D02*
X004633Y003581D01*
X004633Y003423D02*
X004596Y003423D01*
X004596Y003264D02*
X004633Y003264D01*
X005011Y003264D02*
X005471Y003264D01*
X005471Y003423D02*
X005011Y003423D01*
X004935Y003581D02*
X005124Y003581D01*
X005280Y003737D02*
X005030Y003987D01*
X002030Y003987D01*
X001030Y002987D01*
X001030Y002237D01*
X001780Y001487D01*
X002252Y001679D02*
X002264Y001679D01*
X002280Y001737D02*
X002530Y001487D01*
X002780Y001487D01*
X002800Y001507D02*
X002760Y001507D01*
X002760Y002467D01*
X002800Y002467D01*
X002800Y001937D01*
X002800Y001507D01*
X002800Y001521D02*
X002760Y001521D01*
X002760Y001507D02*
X002290Y001507D01*
X002290Y001467D01*
X002760Y001467D01*
X002760Y001507D01*
X002760Y001679D02*
X002800Y001679D01*
X002800Y001838D02*
X002760Y001838D01*
X002760Y001996D02*
X002800Y001996D01*
X002800Y002155D02*
X002760Y002155D01*
X002760Y002313D02*
X002800Y002313D01*
X002760Y002472D02*
X001250Y002472D01*
X001250Y002630D02*
X002248Y002630D01*
X002280Y002487D02*
X002780Y002487D01*
X002341Y002155D02*
X001423Y002155D01*
X001265Y002313D02*
X002258Y002313D01*
X002531Y001996D02*
X001883Y001996D01*
X001677Y001996D02*
X001582Y001996D01*
X002150Y001838D02*
X002355Y001838D01*
X002320Y002789D02*
X001250Y002789D01*
X001302Y002947D02*
X002324Y002947D01*
X002299Y003106D02*
X001460Y003106D01*
X001619Y003264D02*
X002299Y003264D01*
X002299Y003423D02*
X001777Y003423D01*
X001936Y003581D02*
X002375Y003581D01*
X002094Y003740D02*
X004966Y003740D01*
X005280Y003737D02*
X005768Y003737D01*
X005768Y003363D02*
X005904Y003363D01*
X006280Y002987D01*
X006280Y002737D01*
X005850Y003106D02*
X005011Y003106D01*
X005001Y002947D02*
X005559Y002947D01*
X005361Y002789D02*
X005199Y002789D01*
X005273Y002630D02*
X005287Y002630D01*
X006280Y002237D02*
X006530Y001987D01*
X007080Y003087D02*
X009180Y003087D01*
X009780Y002487D01*
X010273Y002630D02*
X010287Y002630D01*
X010280Y002612D02*
X010212Y002776D01*
X010069Y002919D01*
X009881Y002997D01*
X009679Y002997D01*
X009610Y002968D01*
X009271Y003307D01*
X008657Y003307D01*
X008657Y003484D01*
X008298Y003484D01*
X008298Y003520D01*
X008657Y003520D01*
X008657Y003742D01*
X008645Y003788D01*
X008621Y003829D01*
X008587Y003863D01*
X008584Y003864D01*
X008617Y003897D01*
X008617Y003967D01*
X010189Y003967D01*
X010723Y003432D01*
X010723Y003247D01*
X010805Y003165D01*
X011090Y003165D01*
X011560Y002696D01*
X011560Y001948D01*
X011491Y001919D01*
X011348Y001776D01*
X011280Y001612D01*
X011212Y001776D01*
X011080Y001908D01*
X011080Y002065D01*
X011212Y002198D01*
X011290Y002385D01*
X011290Y002588D01*
X011212Y002776D01*
X011069Y002919D01*
X010881Y002997D01*
X010679Y002997D01*
X010491Y002919D01*
X010348Y002776D01*
X010280Y002612D01*
X010199Y002789D02*
X010361Y002789D01*
X010559Y002947D02*
X010001Y002947D01*
X009472Y003106D02*
X011150Y003106D01*
X011001Y002947D02*
X011308Y002947D01*
X011199Y002789D02*
X011467Y002789D01*
X011560Y002630D02*
X011273Y002630D01*
X011290Y002472D02*
X011560Y002472D01*
X011560Y002313D02*
X011260Y002313D01*
X011169Y002155D02*
X011560Y002155D01*
X011560Y001996D02*
X011080Y001996D01*
X011150Y001838D02*
X011410Y001838D01*
X011308Y001679D02*
X011252Y001679D01*
X011780Y001487D02*
X011780Y002787D01*
X011180Y003387D01*
X011080Y003387D01*
X010280Y004187D01*
X008295Y004187D01*
X008280Y004171D01*
X007976Y003864D02*
X007973Y003863D01*
X007939Y003829D01*
X007915Y003788D01*
X007903Y003742D01*
X007903Y003520D01*
X008262Y003520D01*
X008262Y003484D01*
X007903Y003484D01*
X007903Y003307D01*
X007807Y003307D01*
X007807Y003484D01*
X007514Y003484D01*
X007515Y003520D01*
X007807Y003520D01*
X007807Y003742D01*
X007795Y003788D01*
X007771Y003829D01*
X007737Y003863D01*
X007734Y003864D01*
X007741Y003871D01*
X007969Y003871D01*
X007976Y003864D01*
X007903Y003740D02*
X007807Y003740D01*
X007807Y003581D02*
X007903Y003581D01*
X007903Y003423D02*
X007807Y003423D01*
X007430Y003502D02*
X007195Y003737D01*
X006792Y003737D01*
X006792Y003363D02*
X006804Y003363D01*
X007080Y003087D01*
X008657Y003423D02*
X010723Y003423D01*
X010723Y003264D02*
X009314Y003264D01*
X008657Y003581D02*
X010574Y003581D01*
X010416Y003740D02*
X008657Y003740D01*
X008617Y003898D02*
X010257Y003898D01*
X011080Y004171D02*
X011095Y004187D01*
X011680Y004187D01*
X009280Y001987D02*
X009030Y001987D01*
X009280Y001987D02*
X009780Y001487D01*
X007369Y004111D02*
X006792Y004111D01*
X007369Y004111D02*
X007430Y004171D01*
X005768Y004111D02*
X005642Y004237D01*
X001780Y004237D01*
X000780Y003237D01*
X000780Y001487D01*
X002677Y003264D02*
X002714Y003264D01*
D15*
X001880Y003137D03*
X005280Y003237D03*
X009080Y003587D03*
X011680Y004187D03*
D16*
X009680Y003387D02*
X009565Y003502D01*
X007430Y003502D01*
X007430Y004171D02*
X008280Y004171D01*
X010780Y002487D02*
X010780Y001487D01*
X003945Y003237D02*
X003780Y003237D01*
X003780Y002487D01*
X003780Y001487D01*
X003945Y003237D02*
X003365Y003237D01*
D17*
X006280Y002737D02*
X006280Y002237D01*
X006530Y001987D02*
X009030Y001987D01*
M02*
