%
M48
M72
T01C0.0236
T02C0.0400
%
T01
X1880Y3137
X5280Y3237
X9080Y3587
X11680Y4187
T02
X780Y1487
X1780Y1487
X2780Y1487
X3780Y1487
X4780Y1487
X5780Y1487
X6780Y1487
X7780Y1487
X8780Y1487
X9780Y1487
X10780Y1487
X11780Y1487
X10780Y2487
X9780Y2487
X8780Y2487
X7780Y2487
X6780Y2487
X5780Y2487
X4780Y2487
X3780Y2487
X2780Y2487
M30
