G75*
G70*
%OFA0B0*%
%FSLAX24Y24*%
%IPPOS*%
%LPD*%
%AMOC8*
5,1,8,0,0,1.08239X$1,22.5*
%
%ADD10R,0.0375X0.0261*%
%ADD11R,0.0493X0.0454*%
%ADD12R,0.0454X0.0493*%
%ADD13C,0.0800*%
%ADD14C,0.0456*%
D10*
X005768Y003363D03*
X005768Y003737D03*
X005768Y004111D03*
X006792Y004111D03*
X006792Y003737D03*
X006792Y003363D03*
D11*
X004615Y003237D03*
X003945Y003237D03*
X003365Y003237D03*
X002695Y003237D03*
X011080Y003502D03*
X011080Y004171D03*
D12*
X008280Y004171D03*
X007430Y004171D03*
X007430Y003502D03*
X008280Y003502D03*
D13*
X000780Y001487D03*
X001780Y001487D03*
X002780Y001487D03*
X003780Y001487D03*
X004780Y001487D03*
X005780Y001487D03*
X006780Y001487D03*
X007780Y001487D03*
X008780Y001487D03*
X009780Y001487D03*
X010780Y001487D03*
X011780Y001487D03*
X010780Y002487D03*
X009780Y002487D03*
X008780Y002487D03*
X007780Y002487D03*
X006780Y002487D03*
X005780Y002487D03*
X004780Y002487D03*
X003780Y002487D03*
X002780Y002487D03*
D14*
X001880Y003137D03*
X005280Y003237D03*
X009080Y003587D03*
X011680Y004187D03*
M02*
