  0
SECTION
  2
HEADER
  9
$ACADVER
  1
AC1009
  9
$FILLMODE
 70
1
  9
$EXTMIN
 10
-0.021000
 20
-0.066457
 30
0.000000
  9
$EXTMAX
 10
3.457913
 20
3.099000
 30
0.000000
  0
ENDSEC
  0
SECTION
  2
TABLES
  0
TABLE
  2
LTYPE
 70
1
  0
LTYPE
  2
CONTINUOUS
 70
64
  3
Solid line
 72
65
 73
0
 40
0
  0
ENDTAB
  0
TABLE
  2
LAYER
 70
255
  0
LAYER
  2
20
 70
64
 62
178
  6
CONTINUOUS
  0
LAYER
  2
31
 70
64
 62
251
  6
CONTINUOUS
  0
ENDTAB
  0
ENDSEC
  0
SECTION
  2
BLOCKS
  0
BLOCK
  8
0
  2
RECT
 70
64
 10
0.000000
 20
0.000000
 30
0.000000
  3
RECT
  0
SOLID
  8
0
 10
-0.500000
 20
-0.500000
 30
0.000000
 11
0.500000
 21
-0.500000
 31
0.000000
 12
-0.500000
 22
0.500000
 32
0.000000
 13
0.500000
 23
0.500000
 33
0.000000
  0
ENDBLK
  8
0
  0
BLOCK
  8
0
  2
PIE
 70
64
 10
0.000000
 20
0.000000
 30
0.000000
  3
PIE
  0
POLYLINE
  8
0
 66
1
 10
0.000000
 20
0.000000
 30
0.000000
 40
0.500000
 41
0.500000
 70
0
  0
VERTEX
  8
0
 10
0.000000
 20
-0.250000
 30
0.000000
 42
1.000000
  0
VERTEX
  8
0
 10
0.000000
 20
0.250000
 30
0.000000
 42
1.000000
  0
VERTEX
  8
0
 10
0.000000
 20
-0.250000
 30
0.000000
  0
SEQEND
  8
0
  0
ENDBLK
  8
0
  0
BLOCK
  8
0
  2
OCTAGONP
 70
64
 10
0.000000
 20
0.000000
 30
0.000000
  3
OCTAGONP
  0
POLYLINE
  8
0
 66
1
 10
0.000000
 20
0.000000
 30
0.000000
 40
0.500000
 41
0.500000
 70
0
  0
VERTEX
  8
0
 10
-0.250000
 20
-0.103553
 30
0.000000
  0
VERTEX
  8
0
 10
-0.250000
 20
0.103553
 30
0.000000
  0
VERTEX
  8
0
 10
-0.103553
 20
0.250000
 30
0.000000
  0
VERTEX
  8
0
 10
0.103553
 20
0.250000
 30
0.000000
  0
VERTEX
  8
0
 10
0.250000
 20
0.103553
 30
0.000000
  0
VERTEX
  8
0
 10
0.250000
 20
-0.103553
 30
0.000000
  0
VERTEX
  8
0
 10
0.103553
 20
-0.250000
 30
0.000000
  0
VERTEX
  8
0
 10
-0.103553
 20
-0.250000
 30
0.000000
  0
VERTEX
  8
0
 10
-0.250000
 20
-0.103553
 30
0.000000
  0
VERTEX
  8
0
 10
-0.250000
 20
0.103553
 30
0.000000
  0
SEQEND
  8
0
  0
ENDBLK
  8
0
  0
BLOCK
  8
0
  2
SQUAREP
 70
64
 10
0.000000
 20
0.000000
 30
0.000000
  3
SQUAREP
  0
SOLID
  8
0
 10
-0.500000
 20
-0.500000
 30
0.000000
 11
0.500000
 21
-0.500000
 31
0.000000
 12
-0.500000
 22
0.500000
 32
0.000000
 13
0.500000
 23
0.500000
 33
0.000000
  0
ENDBLK
  8
0
  0
BLOCK
  8
0
  2
ROUNDP
 70
64
 10
0.000000
 20
0.000000
 30
0.000000
  3
ROUNDP
  0
POLYLINE
  8
0
 66
1
 10
0.000000
 20
0.000000
 30
0.000000
 40
0.500000
 41
0.500000
 70
0
  0
VERTEX
  8
0
 10
0.000000
 20
-0.250000
 30
0.000000
 42
1.000000
  0
VERTEX
  8
0
 10
0.000000
 20
0.250000
 30
0.000000
 42
1.000000
  0
VERTEX
  8
0
 10
0.000000
 20
-0.250000
 30
0.000000
  0
SEQEND
  8
0
  0
ENDBLK
  8
0
  0
BLOCK
  8
0
  2
ANNULUSP
 70
64
 10
0.000000
 20
0.000000
 30
0.000000
  3
ANNULUSP
  0
POLYLINE
  8
0
 66
1
 10
0.000000
 20
0.000000
 30
0.000000
 40
0.500000
 41
0.500000
 70
0
  0
VERTEX
  8
0
 10
0.000000
 20
-0.250000
 30
0.000000
 42
1.000000
  0
VERTEX
  8
0
 10
0.000000
 20
0.250000
 30
0.000000
 42
1.000000
  0
VERTEX
  8
0
 10
0.000000
 20
-0.250000
 30
0.000000
  0
SEQEND
  8
0
  0
ENDBLK
  8
0
  0
BLOCK
  8
0
  2
THERMALP
 70
64
 10
0.000000
 20
0.000000
 30
0.000000
  3
THERMALP
  0
POLYLINE
  8
0
 66
1
 10
0.000000
 20
0.000000
 30
0.000000
 40
0.100000
 41
0.100000
 70
0
  0
VERTEX
  8
0
 10
-0.237868
 20
0.450000
 30
0.000000
  0
VERTEX
  8
0
 10
0.237868
 20
0.450000
 30
0.000000
  0
SEQEND
  8
0
  0
POLYLINE
  8
0
 66
1
 10
0.000000
 20
0.000000
 30
0.000000
 40
0.050000
 41
0.050000
 70
0
  0
VERTEX
  8
0
 10
0.237868
 20
0.425000
 30
0.000000
 42
1.000000
  0
VERTEX
  8
0
 10
0.237868
 20
0.475000
 30
0.000000
  0
SEQEND
  8
0
  0
POLYLINE
  8
0
 66
1
 10
0.000000
 20
0.000000
 30
0.000000
 40
0.050000
 41
0.050000
 70
0
  0
VERTEX
  8
0
 10
-0.237868
 20
0.475000
 30
0.000000
 42
1.000000
  0
VERTEX
  8
0
 10
-0.237868
 20
0.425000
 30
0.000000
  0
SEQEND
  8
0
  0
POLYLINE
  8
0
 66
1
 10
0.000000
 20
0.000000
 30
0.000000
 40
0.100000
 41
0.100000
 70
0
  0
VERTEX
  8
0
 10
0.450000
 20
0.237868
 30
0.000000
  0
VERTEX
  8
0
 10
0.450000
 20
-0.237868
 30
0.000000
  0
SEQEND
  8
0
  0
POLYLINE
  8
0
 66
1
 10
0.000000
 20
0.000000
 30
0.000000
 40
0.050000
 41
0.050000
 70
0
  0
VERTEX
  8
0
 10
0.425000
 20
-0.237868
 30
0.000000
 42
1.000000
  0
VERTEX
  8
0
 10
0.475000
 20
-0.237868
 30
0.000000
  0
SEQEND
  8
0
  0
POLYLINE
  8
0
 66
1
 10
0.000000
 20
0.000000
 30
0.000000
 40
0.050000
 41
0.050000
 70
0
  0
VERTEX
  8
0
 10
0.475000
 20
0.237868
 30
0.000000
 42
1.000000
  0
VERTEX
  8
0
 10
0.425000
 20
0.237868
 30
0.000000
  0
SEQEND
  8
0
  0
POLYLINE
  8
0
 66
1
 10
0.000000
 20
0.000000
 30
0.000000
 40
0.100000
 41
0.100000
 70
0
  0
VERTEX
  8
0
 10
0.237868
 20
-0.450000
 30
0.000000
  0
VERTEX
  8
0
 10
-0.237868
 20
-0.450000
 30
0.000000
  0
SEQEND
  8
0
  0
POLYLINE
  8
0
 66
1
 10
0.000000
 20
0.000000
 30
0.000000
 40
0.050000
 41
0.050000
 70
0
  0
VERTEX
  8
0
 10
-0.237868
 20
-0.425000
 30
0.000000
 42
1.000000
  0
VERTEX
  8
0
 10
-0.237868
 20
-0.475000
 30
0.000000
  0
SEQEND
  8
0
  0
POLYLINE
  8
0
 66
1
 10
0.000000
 20
0.000000
 30
0.000000
 40
0.050000
 41
0.050000
 70
0
  0
VERTEX
  8
0
 10
0.237868
 20
-0.475000
 30
0.000000
 42
1.000000
  0
VERTEX
  8
0
 10
0.237868
 20
-0.425000
 30
0.000000
  0
SEQEND
  8
0
  0
POLYLINE
  8
0
 66
1
 10
0.000000
 20
0.000000
 30
0.000000
 40
0.100000
 41
0.100000
 70
0
  0
VERTEX
  8
0
 10
-0.450000
 20
-0.237868
 30
0.000000
  0
VERTEX
  8
0
 10
-0.450000
 20
0.237868
 30
0.000000
  0
SEQEND
  8
0
  0
POLYLINE
  8
0
 66
1
 10
0.000000
 20
0.000000
 30
0.000000
 40
0.050000
 41
0.050000
 70
0
  0
VERTEX
  8
0
 10
-0.425000
 20
0.237868
 30
0.000000
 42
1.000000
  0
VERTEX
  8
0
 10
-0.475000
 20
0.237868
 30
0.000000
  0
SEQEND
  8
0
  0
POLYLINE
  8
0
 66
1
 10
0.000000
 20
0.000000
 30
0.000000
 40
0.050000
 41
0.050000
 70
0
  0
VERTEX
  8
0
 10
-0.475000
 20
-0.237868
 30
0.000000
 42
1.000000
  0
VERTEX
  8
0
 10
-0.425000
 20
-0.237868
 30
0.000000
  0
SEQEND
  8
0
  0
ENDBLK
  8
0
  0
BLOCK
  8
0
  2
OCTAGONV
 70
64
 10
0.000000
 20
0.000000
 30
0.000000
  3
OCTAGONV
  0
POLYLINE
  8
0
 66
1
 10
0.000000
 20
0.000000
 30
0.000000
 40
0.500000
 41
0.500000
 70
0
  0
VERTEX
  8
0
 10
-0.250000
 20
-0.103553
 30
0.000000
  0
VERTEX
  8
0
 10
-0.250000
 20
0.103553
 30
0.000000
  0
VERTEX
  8
0
 10
-0.103553
 20
0.250000
 30
0.000000
  0
VERTEX
  8
0
 10
0.103553
 20
0.250000
 30
0.000000
  0
VERTEX
  8
0
 10
0.250000
 20
0.103553
 30
0.000000
  0
VERTEX
  8
0
 10
0.250000
 20
-0.103553
 30
0.000000
  0
VERTEX
  8
0
 10
0.103553
 20
-0.250000
 30
0.000000
  0
VERTEX
  8
0
 10
-0.103553
 20
-0.250000
 30
0.000000
  0
VERTEX
  8
0
 10
-0.250000
 20
-0.103553
 30
0.000000
  0
VERTEX
  8
0
 10
-0.250000
 20
0.103553
 30
0.000000
  0
SEQEND
  8
0
  0
ENDBLK
  8
0
  0
BLOCK
  8
0
  2
SQUAREV
 70
64
 10
0.000000
 20
0.000000
 30
0.000000
  3
SQUAREV
  0
SOLID
  8
0
 10
-0.500000
 20
-0.500000
 30
0.000000
 11
0.500000
 21
-0.500000
 31
0.000000
 12
-0.500000
 22
0.500000
 32
0.000000
 13
0.500000
 23
0.500000
 33
0.000000
  0
ENDBLK
  8
0
  0
BLOCK
  8
0
  2
ROUNDV
 70
64
 10
0.000000
 20
0.000000
 30
0.000000
  3
ROUNDV
  0
POLYLINE
  8
0
 66
1
 10
0.000000
 20
0.000000
 30
0.000000
 40
0.500000
 41
0.500000
 70
0
  0
VERTEX
  8
0
 10
0.000000
 20
-0.250000
 30
0.000000
 42
1.000000
  0
VERTEX
  8
0
 10
0.000000
 20
0.250000
 30
0.000000
 42
1.000000
  0
VERTEX
  8
0
 10
0.000000
 20
-0.250000
 30
0.000000
  0
SEQEND
  8
0
  0
ENDBLK
  8
0
  0
BLOCK
  8
0
  2
ANNULUSV
 70
64
 10
0.000000
 20
0.000000
 30
0.000000
  3
ANNULUSV
  0
POLYLINE
  8
0
 66
1
 10
0.000000
 20
0.000000
 30
0.000000
 40
0.500000
 41
0.500000
 70
0
  0
VERTEX
  8
0
 10
0.000000
 20
-0.250000
 30
0.000000
 42
1.000000
  0
VERTEX
  8
0
 10
0.000000
 20
0.250000
 30
0.000000
 42
1.000000
  0
VERTEX
  8
0
 10
0.000000
 20
-0.250000
 30
0.000000
  0
SEQEND
  8
0
  0
ENDBLK
  8
0
  0
BLOCK
  8
0
  2
THERMALV
 70
64
 10
0.000000
 20
0.000000
 30
0.000000
  3
THERMALV
  0
POLYLINE
  8
0
 66
1
 10
0.000000
 20
0.000000
 30
0.000000
 40
0.100000
 41
0.100000
 70
0
  0
VERTEX
  8
0
 10
-0.237868
 20
0.450000
 30
0.000000
  0
VERTEX
  8
0
 10
0.237868
 20
0.450000
 30
0.000000
  0
SEQEND
  8
0
  0
POLYLINE
  8
0
 66
1
 10
0.000000
 20
0.000000
 30
0.000000
 40
0.050000
 41
0.050000
 70
0
  0
VERTEX
  8
0
 10
0.237868
 20
0.425000
 30
0.000000
 42
1.000000
  0
VERTEX
  8
0
 10
0.237868
 20
0.475000
 30
0.000000
  0
SEQEND
  8
0
  0
POLYLINE
  8
0
 66
1
 10
0.000000
 20
0.000000
 30
0.000000
 40
0.050000
 41
0.050000
 70
0
  0
VERTEX
  8
0
 10
-0.237868
 20
0.475000
 30
0.000000
 42
1.000000
  0
VERTEX
  8
0
 10
-0.237868
 20
0.425000
 30
0.000000
  0
SEQEND
  8
0
  0
POLYLINE
  8
0
 66
1
 10
0.000000
 20
0.000000
 30
0.000000
 40
0.100000
 41
0.100000
 70
0
  0
VERTEX
  8
0
 10
0.450000
 20
0.237868
 30
0.000000
  0
VERTEX
  8
0
 10
0.450000
 20
-0.237868
 30
0.000000
  0
SEQEND
  8
0
  0
POLYLINE
  8
0
 66
1
 10
0.000000
 20
0.000000
 30
0.000000
 40
0.050000
 41
0.050000
 70
0
  0
VERTEX
  8
0
 10
0.425000
 20
-0.237868
 30
0.000000
 42
1.000000
  0
VERTEX
  8
0
 10
0.475000
 20
-0.237868
 30
0.000000
  0
SEQEND
  8
0
  0
POLYLINE
  8
0
 66
1
 10
0.000000
 20
0.000000
 30
0.000000
 40
0.050000
 41
0.050000
 70
0
  0
VERTEX
  8
0
 10
0.475000
 20
0.237868
 30
0.000000
 42
1.000000
  0
VERTEX
  8
0
 10
0.425000
 20
0.237868
 30
0.000000
  0
SEQEND
  8
0
  0
POLYLINE
  8
0
 66
1
 10
0.000000
 20
0.000000
 30
0.000000
 40
0.100000
 41
0.100000
 70
0
  0
VERTEX
  8
0
 10
0.237868
 20
-0.450000
 30
0.000000
  0
VERTEX
  8
0
 10
-0.237868
 20
-0.450000
 30
0.000000
  0
SEQEND
  8
0
  0
POLYLINE
  8
0
 66
1
 10
0.000000
 20
0.000000
 30
0.000000
 40
0.050000
 41
0.050000
 70
0
  0
VERTEX
  8
0
 10
-0.237868
 20
-0.425000
 30
0.000000
 42
1.000000
  0
VERTEX
  8
0
 10
-0.237868
 20
-0.475000
 30
0.000000
  0
SEQEND
  8
0
  0
POLYLINE
  8
0
 66
1
 10
0.000000
 20
0.000000
 30
0.000000
 40
0.050000
 41
0.050000
 70
0
  0
VERTEX
  8
0
 10
0.237868
 20
-0.475000
 30
0.000000
 42
1.000000
  0
VERTEX
  8
0
 10
0.237868
 20
-0.425000
 30
0.000000
  0
SEQEND
  8
0
  0
POLYLINE
  8
0
 66
1
 10
0.000000
 20
0.000000
 30
0.000000
 40
0.100000
 41
0.100000
 70
0
  0
VERTEX
  8
0
 10
-0.450000
 20
-0.237868
 30
0.000000
  0
VERTEX
  8
0
 10
-0.450000
 20
0.237868
 30
0.000000
  0
SEQEND
  8
0
  0
POLYLINE
  8
0
 66
1
 10
0.000000
 20
0.000000
 30
0.000000
 40
0.050000
 41
0.050000
 70
0
  0
VERTEX
  8
0
 10
-0.425000
 20
0.237868
 30
0.000000
 42
1.000000
  0
VERTEX
  8
0
 10
-0.475000
 20
0.237868
 30
0.000000
  0
SEQEND
  8
0
  0
POLYLINE
  8
0
 66
1
 10
0.000000
 20
0.000000
 30
0.000000
 40
0.050000
 41
0.050000
 70
0
  0
VERTEX
  8
0
 10
-0.475000
 20
-0.237868
 30
0.000000
 42
1.000000
  0
VERTEX
  8
0
 10
-0.425000
 20
-0.237868
 30
0.000000
  0
SEQEND
  8
0
  0
ENDBLK
  8
0
  0
BLOCK
  8
0
  2
LONGP100
 70
64
 10
0.000000
 20
0.000000
 30
0.000000
  3
LONGP100
  0
POLYLINE
  8
0
 66
1
 10
0.000000
 20
0.000000
 30
0.000000
 40
1.000000
 41
1.000000
 70
0
  0
VERTEX
  8
0
 10
-0.500000
 20
0.000000
 30
0.000000
  0
VERTEX
  8
0
 10
0.500000
 20
0.000000
 30
0.000000
  0
SEQEND
  8
0
  0
POLYLINE
  8
0
 66
1
 10
0.000000
 20
0.000000
 30
0.000000
 40
0.500000
 41
0.500000
 70
0
  0
VERTEX
  8
0
 10
0.500000
 20
-0.250000
 30
0.000000
 42
1.000000
  0
VERTEX
  8
0
 10
0.500000
 20
0.250000
 30
0.000000
  0
SEQEND
  8
0
  0
POLYLINE
  8
0
 66
1
 10
0.000000
 20
0.000000
 30
0.000000
 40
0.500000
 41
0.500000
 70
0
  0
VERTEX
  8
0
 10
-0.500000
 20
0.250000
 30
0.000000
 42
1.000000
  0
VERTEX
  8
0
 10
-0.500000
 20
-0.250000
 30
0.000000
  0
SEQEND
  8
0
  0
ENDBLK
  8
0
  0
ENDSEC
  0
SECTION
  2
ENTITIES
  0
LINE
  8
20
 10
0.000000
 20
0.000000
 30
0.000000
 11
0.000000
 21
0.750000
 31
0.000000
  0
LINE
  8
20
 10
3.225000
 20
0.750000
 30
0.000000
 11
3.225000
 21
0.550000
 31
0.000000
  0
LINE
  8
20
 10
3.225000
 20
0.550000
 30
0.000000
 11
3.006250
 21
0.550000
 31
0.000000
  0
LINE
  8
20
 10
3.006250
 20
0.550000
 30
0.000000
 11
3.006250
 21
0.167187
 31
0.000000
  0
LINE
  8
20
 10
3.006250
 20
0.167187
 30
0.000000
 11
3.225000
 21
0.167187
 31
0.000000
  0
LINE
  8
20
 10
3.225000
 20
0.167187
 30
0.000000
 11
3.225000
 21
0.000000
 31
0.000000
  0
LINE
  8
20
 10
3.225000
 20
0.000000
 30
0.000000
 11
0.000000
 21
0.000000
 31
0.000000
  0
LINE
  8
20
 10
0.000000
 20
0.750000
 30
0.000000
 11
3.225000
 21
0.750000
 31
0.000000
  0
CIRCLE
  8
20
 10
3.175000
 20
0.050000
 30
0.000000
 40
0.019650
  0
CIRCLE
  8
20
 10
3.175000
 20
0.700000
 30
0.000000
 40
0.019650
  0
INSERT
  8
31
  2
RECT
 10
0.950000
 20
0.274409
 30
0.000000
 41
0.027559
 42
0.035433
 43
1.000000
 50
90.000000
  0
INSERT
  8
31
  2
RECT
 10
0.950000
 20
0.325591
 30
0.000000
 41
0.027559
 42
0.035433
 43
1.000000
 50
90.000000
  0
INSERT
  8
31
  2
RECT
 10
0.950000
 20
0.475591
 30
0.000000
 41
0.027559
 42
0.035433
 43
1.000000
 50
270.000000
  0
INSERT
  8
31
  2
RECT
 10
0.950000
 20
0.424409
 30
0.000000
 41
0.027559
 42
0.035433
 43
1.000000
 50
270.000000
  0
INSERT
  8
31
  2
RECT
 10
0.934341
 20
0.185625
 30
0.000000
 41
0.027559
 42
0.035433
 43
1.000000
 50
180.000000
  0
INSERT
  8
31
  2
RECT
 10
0.883159
 20
0.185625
 30
0.000000
 41
0.027559
 42
0.035433
 43
1.000000
 50
180.000000
  0
INSERT
  8
31
  2
RECT
 10
2.643159
 20
0.625000
 30
0.000000
 41
0.027559
 42
0.035433
 43
1.000000
 50
0.000000
  0
INSERT
  8
31
  2
RECT
 10
2.694341
 20
0.625000
 30
0.000000
 41
0.027559
 42
0.035433
 43
1.000000
 50
0.000000
  0
INSERT
  8
31
  2
RECT
 10
2.649409
 20
0.368750
 30
0.000000
 41
0.027559
 42
0.035433
 43
1.000000
 50
0.000000
  0
INSERT
  8
31
  2
RECT
 10
2.700591
 20
0.368750
 30
0.000000
 41
0.027559
 42
0.035433
 43
1.000000
 50
0.000000
  0
INSERT
  8
31
  2
RECT
 10
1.025000
 20
0.266535
 30
0.000000
 41
0.043307
 42
0.039370
 43
1.000000
 50
90.000000
  0
INSERT
  8
31
  2
RECT
 10
1.025000
 20
0.333465
 30
0.000000
 41
0.043307
 42
0.039370
 43
1.000000
 50
90.000000
  0
INSERT
  8
31
  2
RECT
 10
1.025000
 20
0.483465
 30
0.000000
 41
0.043307
 42
0.039370
 43
1.000000
 50
270.000000
  0
INSERT
  8
31
  2
RECT
 10
1.025000
 20
0.416535
 30
0.000000
 41
0.043307
 42
0.039370
 43
1.000000
 50
270.000000
  0
INSERT
  8
31
  2
RECT
 10
0.200000
 20
0.174409
 30
0.000000
 41
0.027559
 42
0.035433
 43
1.000000
 50
90.000000
  0
INSERT
  8
31
  2
RECT
 10
0.200000
 20
0.225591
 30
0.000000
 41
0.027559
 42
0.035433
 43
1.000000
 50
90.000000
  0
INSERT
  8
31
  2
RECT
 10
0.200000
 20
0.349409
 30
0.000000
 41
0.027559
 42
0.035433
 43
1.000000
 50
90.000000
  0
INSERT
  8
31
  2
RECT
 10
0.200000
 20
0.400591
 30
0.000000
 41
0.027559
 42
0.035433
 43
1.000000
 50
90.000000
  0
INSERT
  8
31
  2
RECT
 10
2.500910
 20
0.365625
 30
0.000000
 41
0.043307
 42
0.039370
 43
1.000000
 50
0.000000
  0
INSERT
  8
31
  2
RECT
 10
2.567840
 20
0.365625
 30
0.000000
 41
0.043307
 42
0.039370
 43
1.000000
 50
0.000000
  0
INSERT
  8
31
  2
RECT
 10
1.526575
 20
0.674213
 30
0.000000
 41
0.090551
 42
0.047244
 43
1.000000
 50
90.000000
  0
INSERT
  8
31
  2
RECT
 10
1.526575
 20
0.457677
 30
0.000000
 41
0.090551
 42
0.047244
 43
1.000000
 50
90.000000
  0
INSERT
  8
31
  2
RECT
 10
1.625000
 20
0.674213
 30
0.000000
 41
0.090551
 42
0.047244
 43
1.000000
 50
90.000000
  0
INSERT
  8
31
  2
RECT
 10
1.625000
 20
0.457677
 30
0.000000
 41
0.090551
 42
0.047244
 43
1.000000
 50
90.000000
  0
INSERT
  8
31
  2
RECT
 10
1.723425
 20
0.674213
 30
0.000000
 41
0.090551
 42
0.047244
 43
1.000000
 50
90.000000
  0
INSERT
  8
31
  2
RECT
 10
1.723425
 20
0.457677
 30
0.000000
 41
0.090551
 42
0.047244
 43
1.000000
 50
90.000000
  0
INSERT
  8
31
  2
RECT
 10
1.664370
 20
0.298327
 30
0.000000
 41
0.039370
 42
0.161417
 43
1.000000
 50
180.000000
  0
INSERT
  8
31
  2
RECT
 10
1.585630
 20
0.298327
 30
0.000000
 41
0.039370
 42
0.161417
 43
1.000000
 50
180.000000
  0
INSERT
  8
31
  2
RECT
 10
1.758858
 20
0.103445
 30
0.000000
 41
0.133858
 42
0.062992
 43
1.000000
 50
270.000000
  0
INSERT
  8
31
  2
RECT
 10
1.491142
 20
0.103445
 30
0.000000
 41
0.133858
 42
0.062992
 43
1.000000
 50
270.000000
  0
INSERT
  8
31
  2
RECT
 10
2.534055
 20
0.635039
 30
0.000000
 41
0.153543
 42
0.074803
 43
1.000000
 50
270.000000
  0
INSERT
  8
31
  2
RECT
 10
1.915945
 20
0.635039
 30
0.000000
 41
0.153543
 42
0.074803
 43
1.000000
 50
270.000000
  0
INSERT
  8
31
  2
RECT
 10
2.431693
 20
0.450000
 30
0.000000
 41
0.031496
 42
0.114173
 43
1.000000
 50
180.000000
  0
INSERT
  8
31
  2
RECT
 10
2.372638
 20
0.450000
 30
0.000000
 41
0.031496
 42
0.114173
 43
1.000000
 50
180.000000
  0
INSERT
  8
31
  2
RECT
 10
2.313583
 20
0.450000
 30
0.000000
 41
0.031496
 42
0.114173
 43
1.000000
 50
180.000000
  0
INSERT
  8
31
  2
RECT
 10
2.254528
 20
0.450000
 30
0.000000
 41
0.031496
 42
0.114173
 43
1.000000
 50
180.000000
  0
INSERT
  8
31
  2
RECT
 10
2.195472
 20
0.450000
 30
0.000000
 41
0.031496
 42
0.114173
 43
1.000000
 50
180.000000
  0
INSERT
  8
31
  2
RECT
 10
2.136417
 20
0.450000
 30
0.000000
 41
0.031496
 42
0.114173
 43
1.000000
 50
180.000000
  0
INSERT
  8
31
  2
RECT
 10
2.077362
 20
0.450000
 30
0.000000
 41
0.031496
 42
0.114173
 43
1.000000
 50
180.000000
  0
INSERT
  8
31
  2
RECT
 10
2.018307
 20
0.450000
 30
0.000000
 41
0.031496
 42
0.114173
 43
1.000000
 50
180.000000
  0
INSERT
  8
31
  2
RECT
 10
1.915945
 20
0.114961
 30
0.000000
 41
0.153543
 42
0.074803
 43
1.000000
 50
90.000000
  0
INSERT
  8
31
  2
RECT
 10
2.534055
 20
0.114961
 30
0.000000
 41
0.153543
 42
0.074803
 43
1.000000
 50
90.000000
  0
INSERT
  8
31
  2
RECT
 10
2.018307
 20
0.300000
 30
0.000000
 41
0.031496
 42
0.114173
 43
1.000000
 50
0.000000
  0
INSERT
  8
31
  2
RECT
 10
2.077362
 20
0.300000
 30
0.000000
 41
0.031496
 42
0.114173
 43
1.000000
 50
0.000000
  0
INSERT
  8
31
  2
RECT
 10
2.136417
 20
0.300000
 30
0.000000
 41
0.031496
 42
0.114173
 43
1.000000
 50
0.000000
  0
INSERT
  8
31
  2
RECT
 10
2.195472
 20
0.300000
 30
0.000000
 41
0.031496
 42
0.114173
 43
1.000000
 50
0.000000
  0
INSERT
  8
31
  2
RECT
 10
2.254528
 20
0.300000
 30
0.000000
 41
0.031496
 42
0.114173
 43
1.000000
 50
0.000000
  0
INSERT
  8
31
  2
RECT
 10
2.313583
 20
0.300000
 30
0.000000
 41
0.031496
 42
0.114173
 43
1.000000
 50
0.000000
  0
INSERT
  8
31
  2
RECT
 10
2.372638
 20
0.300000
 30
0.000000
 41
0.031496
 42
0.114173
 43
1.000000
 50
0.000000
  0
INSERT
  8
31
  2
RECT
 10
2.431693
 20
0.300000
 30
0.000000
 41
0.031496
 42
0.114173
 43
1.000000
 50
0.000000
  0
INSERT
  8
31
  2
RECT
 10
0.847000
 20
0.284000
 30
0.000000
 41
0.048000
 42
0.088000
 43
1.000000
 50
90.000000
  0
INSERT
  8
31
  2
RECT
 10
0.847000
 20
0.375000
 30
0.000000
 41
0.048000
 42
0.088000
 43
1.000000
 50
90.000000
  0
INSERT
  8
31
  2
RECT
 10
0.847000
 20
0.466000
 30
0.000000
 41
0.048000
 42
0.088000
 43
1.000000
 50
90.000000
  0
INSERT
  8
31
  2
RECT
 10
0.602992
 20
0.375000
 30
0.000000
 41
0.141732
 42
0.086614
 43
1.000000
 50
90.000000
  0
INSERT
  8
31
  2
RECT
 10
1.137500
 20
0.157972
 30
0.000000
 41
0.031496
 42
0.031496
 43
1.000000
 50
0.000000
  0
INSERT
  8
31
  2
RECT
 10
1.137500
 20
0.217028
 30
0.000000
 41
0.031496
 42
0.031496
 43
1.000000
 50
0.000000
  0
INSERT
  8
31
  2
RECT
 10
0.487500
 20
0.404528
 30
0.000000
 41
0.031496
 42
0.031496
 43
1.000000
 50
180.000000
  0
INSERT
  8
31
  2
RECT
 10
0.487500
 20
0.345472
 30
0.000000
 41
0.031496
 42
0.031496
 43
1.000000
 50
180.000000
  0
INSERT
  8
31
  2
RECT
 10
2.651722
 20
0.306250
 30
0.000000
 41
0.031496
 42
0.031496
 43
1.000000
 50
270.000000
  0
INSERT
  8
31
  2
RECT
 10
2.710778
 20
0.306250
 30
0.000000
 41
0.031496
 42
0.031496
 43
1.000000
 50
270.000000
  0
INSERT
  8
31
  2
RECT
 10
0.397195
 20
0.346457
 30
0.000000
 41
0.045276
 42
0.041339
 43
1.000000
 50
0.000000
  0
INSERT
  8
31
  2
RECT
 10
0.265305
 20
0.346457
 30
0.000000
 41
0.045276
 42
0.041339
 43
1.000000
 50
180.000000
  0
INSERT
  8
31
  2
RECT
 10
0.397195
 20
0.403543
 30
0.000000
 41
0.045276
 42
0.041339
 43
1.000000
 50
0.000000
  0
INSERT
  8
31
  2
RECT
 10
0.265305
 20
0.403543
 30
0.000000
 41
0.045276
 42
0.041339
 43
1.000000
 50
180.000000
  0
INSERT
  8
31
  2
RECT
 10
1.432500
 20
0.361909
 30
0.000000
 41
0.027559
 42
0.035433
 43
1.000000
 50
90.000000
  0
INSERT
  8
31
  2
RECT
 10
1.432500
 20
0.413091
 30
0.000000
 41
0.027559
 42
0.035433
 43
1.000000
 50
90.000000
  0
INSERT
  8
31
  2
RECT
 10
2.631348
 20
0.473130
 30
0.000000
 41
0.031496
 42
0.035433
 43
1.000000
 50
0.000000
  0
INSERT
  8
31
  2
RECT
 10
2.706152
 20
0.473130
 30
0.000000
 41
0.031496
 42
0.035433
 43
1.000000
 50
0.000000
  0
INSERT
  8
31
  2
RECT
 10
2.668750
 20
0.555807
 30
0.000000
 41
0.031496
 42
0.035433
 43
1.000000
 50
0.000000
  0
INSERT
  8
31
  2
RECT
 10
2.631348
 20
0.091880
 30
0.000000
 41
0.031496
 42
0.035433
 43
1.000000
 50
0.000000
  0
INSERT
  8
31
  2
RECT
 10
2.706152
 20
0.091880
 30
0.000000
 41
0.031496
 42
0.035433
 43
1.000000
 50
0.000000
  0
INSERT
  8
31
  2
RECT
 10
2.668750
 20
0.174557
 30
0.000000
 41
0.031496
 42
0.035433
 43
1.000000
 50
0.000000
  0
INSERT
  8
31
  2
RECT
 10
0.626870
 20
0.512598
 30
0.000000
 41
0.031496
 42
0.035433
 43
1.000000
 50
90.000000
  0
INSERT
  8
31
  2
RECT
 10
0.626870
 20
0.587402
 30
0.000000
 41
0.031496
 42
0.035433
 43
1.000000
 50
90.000000
  0
INSERT
  8
31
  2
RECT
 10
0.544193
 20
0.550000
 30
0.000000
 41
0.031496
 42
0.035433
 43
1.000000
 50
90.000000
  0
INSERT
  8
31
  2
RECT
 10
1.371875
 20
0.261909
 30
0.000000
 41
0.027559
 42
0.035433
 43
1.000000
 50
90.000000
  0
INSERT
  8
31
  2
RECT
 10
1.371875
 20
0.313091
 30
0.000000
 41
0.027559
 42
0.035433
 43
1.000000
 50
90.000000
  0
INSERT
  8
31
  2
RECT
 10
1.371875
 20
0.194341
 30
0.000000
 41
0.027559
 42
0.035433
 43
1.000000
 50
270.000000
  0
INSERT
  8
31
  2
RECT
 10
1.371875
 20
0.143159
 30
0.000000
 41
0.027559
 42
0.035433
 43
1.000000
 50
270.000000
  0
INSERT
  8
31
  2
RECT
 10
0.487500
 20
0.174409
 30
0.000000
 41
0.027559
 42
0.035433
 43
1.000000
 50
90.000000
  0
INSERT
  8
31
  2
RECT
 10
0.487500
 20
0.225591
 30
0.000000
 41
0.027559
 42
0.035433
 43
1.000000
 50
90.000000
  0
INSERT
  8
31
  2
RECT
 10
2.706841
 20
0.231250
 30
0.000000
 41
0.027559
 42
0.035433
 43
1.000000
 50
180.000000
  0
INSERT
  8
31
  2
RECT
 10
2.655659
 20
0.231250
 30
0.000000
 41
0.027559
 42
0.035433
 43
1.000000
 50
180.000000
  0
INSERT
  8
31
  2
RECT
 10
0.487500
 20
0.588091
 30
0.000000
 41
0.027559
 42
0.035433
 43
1.000000
 50
270.000000
  0
INSERT
  8
31
  2
RECT
 10
0.487500
 20
0.536909
 30
0.000000
 41
0.027559
 42
0.035433
 43
1.000000
 50
270.000000
  0
INSERT
  8
31
  2
RECT
 10
0.397195
 20
0.171457
 30
0.000000
 41
0.045276
 42
0.041339
 43
1.000000
 50
0.000000
  0
INSERT
  8
31
  2
RECT
 10
0.265305
 20
0.171457
 30
0.000000
 41
0.045276
 42
0.041339
 43
1.000000
 50
180.000000
  0
INSERT
  8
31
  2
RECT
 10
0.397195
 20
0.228543
 30
0.000000
 41
0.045276
 42
0.041339
 43
1.000000
 50
0.000000
  0
INSERT
  8
31
  2
RECT
 10
0.265305
 20
0.228543
 30
0.000000
 41
0.045276
 42
0.041339
 43
1.000000
 50
180.000000
  0
INSERT
  8
31
  2
RECT
 10
1.304902
 20
0.343780
 30
0.000000
 41
0.041732
 42
0.025591
 43
1.000000
 50
90.000000
  0
INSERT
  8
31
  2
RECT
 10
1.267500
 20
0.343780
 30
0.000000
 41
0.041732
 42
0.025591
 43
1.000000
 50
90.000000
  0
INSERT
  8
31
  2
RECT
 10
1.230098
 20
0.343780
 30
0.000000
 41
0.041732
 42
0.025591
 43
1.000000
 50
90.000000
  0
INSERT
  8
31
  2
RECT
 10
1.230098
 20
0.257165
 30
0.000000
 41
0.041732
 42
0.025591
 43
1.000000
 50
90.000000
  0
INSERT
  8
31
  2
RECT
 10
1.304902
 20
0.257165
 30
0.000000
 41
0.041732
 42
0.025591
 43
1.000000
 50
90.000000
  0
INSERT
  8
31
  2
RECT
 10
0.775000
 20
0.176870
 30
0.000000
 41
0.032087
 42
0.034449
 43
1.000000
 50
90.000000
  0
INSERT
  8
31
  2
RECT
 10
0.824213
 20
0.147343
 30
0.000000
 41
0.015748
 42
0.009843
 43
1.000000
 50
180.000000
  0
INSERT
  8
31
  2
RECT
 10
0.824213
 20
0.167028
 30
0.000000
 41
0.015748
 42
0.009843
 43
1.000000
 50
180.000000
  0
INSERT
  8
31
  2
RECT
 10
0.824213
 20
0.186713
 30
0.000000
 41
0.015748
 42
0.009843
 43
1.000000
 50
180.000000
  0
INSERT
  8
31
  2
RECT
 10
0.824213
 20
0.206398
 30
0.000000
 41
0.015748
 42
0.009843
 43
1.000000
 50
180.000000
  0
INSERT
  8
31
  2
RECT
 10
0.725787
 20
0.206398
 30
0.000000
 41
0.015748
 42
0.009843
 43
1.000000
 50
0.000000
  0
INSERT
  8
31
  2
RECT
 10
0.725787
 20
0.186713
 30
0.000000
 41
0.015748
 42
0.009843
 43
1.000000
 50
0.000000
  0
INSERT
  8
31
  2
RECT
 10
0.725787
 20
0.167028
 30
0.000000
 41
0.015748
 42
0.009843
 43
1.000000
 50
0.000000
  0
INSERT
  8
31
  2
RECT
 10
0.725787
 20
0.147343
 30
0.000000
 41
0.015748
 42
0.009843
 43
1.000000
 50
0.000000
  0
INSERT
  8
31
  2
RECT
 10
2.813681
 20
0.121063
 30
0.000000
 41
0.039370
 42
0.033465
 43
1.000000
 50
90.000000
  0
INSERT
  8
31
  2
RECT
 10
2.872736
 20
0.121063
 30
0.000000
 41
0.039370
 42
0.033465
 43
1.000000
 50
90.000000
  0
INSERT
  8
31
  2
RECT
 10
2.931791
 20
0.121063
 30
0.000000
 41
0.039370
 42
0.033465
 43
1.000000
 50
90.000000
  0
INSERT
  8
31
  2
RECT
 10
2.990846
 20
0.121063
 30
0.000000
 41
0.039370
 42
0.033465
 43
1.000000
 50
90.000000
  0
INSERT
  8
31
  2
RECT
 10
3.049902
 20
0.121063
 30
0.000000
 41
0.039370
 42
0.033465
 43
1.000000
 50
90.000000
  0
INSERT
  8
31
  2
RECT
 10
3.108957
 20
0.121063
 30
0.000000
 41
0.039370
 42
0.033465
 43
1.000000
 50
90.000000
  0
INSERT
  8
31
  2
RECT
 10
3.168012
 20
0.121063
 30
0.000000
 41
0.039370
 42
0.033465
 43
1.000000
 50
90.000000
  0
INSERT
  8
31
  2
RECT
 10
3.168012
 20
0.628937
 30
0.000000
 41
0.039370
 42
0.033465
 43
1.000000
 50
90.000000
  0
INSERT
  8
31
  2
RECT
 10
3.108957
 20
0.628937
 30
0.000000
 41
0.039370
 42
0.033465
 43
1.000000
 50
90.000000
  0
INSERT
  8
31
  2
RECT
 10
3.049902
 20
0.628937
 30
0.000000
 41
0.039370
 42
0.033465
 43
1.000000
 50
90.000000
  0
INSERT
  8
31
  2
RECT
 10
2.990846
 20
0.628937
 30
0.000000
 41
0.039370
 42
0.033465
 43
1.000000
 50
90.000000
  0
INSERT
  8
31
  2
RECT
 10
2.931791
 20
0.628937
 30
0.000000
 41
0.039370
 42
0.033465
 43
1.000000
 50
90.000000
  0
INSERT
  8
31
  2
RECT
 10
2.872736
 20
0.628937
 30
0.000000
 41
0.039370
 42
0.033465
 43
1.000000
 50
90.000000
  0
INSERT
  8
31
  2
RECT
 10
2.813681
 20
0.628937
 30
0.000000
 41
0.039370
 42
0.033465
 43
1.000000
 50
90.000000
  0
INSERT
  8
31
  2
RECT
 10
2.774311
 20
0.294291
 30
0.000000
 41
0.039370
 42
0.033465
 43
1.000000
 50
90.000000
  0
INSERT
  8
31
  2
RECT
 10
2.774311
 20
0.229331
 30
0.000000
 41
0.039370
 42
0.033465
 43
1.000000
 50
90.000000
  0
ENDSEC
  0
EOF
